<?xml version="1.0" encoding="UTF-8"?>
<svg xmlns="http://www.w3.org/2000/svg" width="221" height="41" viewBox="0 0 221 41" fill="none">
  <path d="M6.11919 5.1044C8.62365 0.774232 11.6606 -0.496317 16.6386 0.911588C19.1843 1.63271 21.6956 1.67735 24.1726 0.82574C23.8978 2.60794 23.513 4.37297 23.379 6.15517C23.2416 7.97172 23.3481 9.80542 23.6951 11.8211C26.1789 8.13654 28.6628 4.44852 31.2222 0.65061C33.6133 2.21648 36.0628 2.31949 38.5707 1.06268C38.1447 5.06319 33.8813 6.78015 29.0063 4.92583C28.783 5.22115 28.5357 5.52677 28.3192 5.84956C27.3401 7.31584 26.3679 8.78899 25.3957 10.2553C25.5606 10.4647 25.6361 10.6433 25.7667 10.7154C28.9995 12.5457 30.4905 15.492 31.1363 19.0014C31.2703 19.726 31.6551 20.4128 31.7444 21.1408C32.2082 24.8597 34.8535 26.3672 37.9867 27.3802C39.5464 27.885 40.0892 27.4798 40.0926 25.8487C40.1029 19.4959 40.1339 13.1432 40.0617 6.79388C40.048 5.58858 39.5945 4.39014 39.2715 2.82771C40.072 3.5351 40.7316 4.11886 41.3294 4.64425C42.2879 3.82011 43.2223 2.70066 44.4179 2.08942C45.5619 1.50222 46.9739 1.44384 48.3927 1.37517C45.8058 2.47402 45.1978 4.57557 45.1668 6.98962C45.1428 9.19762 45.16 11.4056 45.16 13.9227C47.2522 12.5045 49.0764 11.2648 50.935 10.0046C52.9241 12.0855 54.5972 14.139 54.2124 17.3429C53.9136 19.8256 54.1437 22.3701 54.1575 24.8906C54.1643 26.065 55.4767 27.6206 56.6173 27.7682C57.8231 27.9228 58.2182 27.2669 58.2079 26.1303C58.1735 23.0981 58.2388 20.0625 58.1735 17.0338C58.1495 15.9487 58.445 15.2344 59.3897 14.6301C61.7464 13.1226 64.0379 11.5121 66.4153 9.90158C68.0815 11.4606 69.7477 12.9406 71.3005 14.5339C71.7162 14.9597 71.967 15.7186 71.9807 16.3333C72.0529 19.077 72.0082 21.8276 72.0151 24.5713C72.0185 25.8452 73.3755 27.5897 74.5711 27.7648C75.5777 27.9125 76.0518 27.3562 76.0552 26.3706C76.0586 24.5953 76.0586 22.8234 76.0586 21.0481C76.0586 16.7557 76.1239 12.4633 76.0277 8.17432C75.9899 6.47109 75.5983 4.77474 75.3475 2.9479C75.9831 3.51793 76.7079 4.16694 77.4638 4.84685C78.8998 2.1684 81.284 1.2069 84.8019 1.39577C81.3081 2.73843 81.0298 5.31387 81.047 8.0816C81.0779 13.6308 81.0332 19.1834 81.0882 24.7327C81.0951 25.3885 81.3802 26.2367 81.844 26.6453C82.4589 27.1879 83.3762 27.3836 84.1629 27.727C84.3759 26.9681 84.7538 26.2127 84.7745 25.4469C84.8466 22.5865 84.7332 19.7226 84.8535 16.8656C84.881 16.1616 85.3482 15.2482 85.9116 14.8361C88.2649 13.1226 90.7316 11.567 93.2498 9.89127C95.1427 12.4049 96.991 14.8567 98.9183 17.4184C96.2112 19.1354 93.6036 20.7802 91.0098 22.4422C89.3402 23.5102 89.433 25.1482 91.2057 26.041C92.4802 26.6831 93.7445 27.3596 95.0706 27.8884C95.7817 28.1734 96.6269 28.352 97.3758 28.2696C99.4371 28.0464 99.76 27.6103 99.7566 25.5637C99.7531 22.6448 99.6672 19.7226 99.7772 16.8106C99.8047 16.1032 100.296 15.1898 100.866 14.7709C103.175 13.0882 105.597 11.567 108.143 9.8741C110.005 12.3568 111.843 14.8086 113.79 17.4047C111.104 19.1251 108.527 20.8111 105.906 22.4251C105.099 22.923 104.46 23.493 104.8 24.4408C105.013 25.0348 105.521 25.6358 106.064 25.9689C107.181 26.6556 108.397 27.1776 109.585 27.7408C111.028 28.431 112.502 28.4447 113.839 27.5656C114.313 27.2531 114.804 26.5595 114.821 26.0238C114.917 22.9951 115.044 19.9458 114.79 16.9342C114.687 15.698 113.657 14.5408 112.932 13.1157C114.062 12.1508 115.34 11.0622 116.628 9.96338C118.868 12.1302 120.28 14.3519 120.064 17.6485C119.761 22.2637 120.005 26.9132 120.016 31.549C120.016 32.1671 120.016 32.7817 120.016 33.3998C119.871 33.2694 119.727 33.1423 119.586 33.0118C117.408 34.303 115.13 35.4568 113.069 36.9127C109.4 39.5053 105.425 40.9064 100.973 40.0925C99.3271 39.7938 97.6437 38.9044 96.328 37.8468C95.0397 36.8132 94.7442 35.1065 95.3729 33.4308C95.9982 31.7653 97.283 30.9034 98.9767 30.6218C101.11 30.2647 103.158 31.1197 104.384 32.8539C104.181 32.8298 104.006 32.8539 103.883 32.7852C102.502 32.0057 101.23 32.0503 100.244 33.393C99.4646 34.4541 99.8253 36.1435 101.145 37.2012C103.92 39.4229 106.988 39.2547 110.049 37.9395C112.856 36.7342 114.831 34.8078 114.845 31.4837C114.849 30.3505 114.845 29.2139 114.845 27.7442C112.626 28.9323 110.654 29.9282 108.747 31.0373C107.751 31.6176 106.92 31.6589 105.896 31.0785C104.309 30.1754 102.601 29.4886 101.004 28.5992C100.08 28.0842 99.358 28.2043 98.4648 28.6679C96.4482 29.7153 94.3663 31.4013 92.3153 31.3979C90.3296 31.3944 88.2958 29.6809 86.3754 28.5649C85.2382 27.9056 84.4653 28.0017 83.548 28.898C82.5311 29.8904 81.363 30.7283 80.1572 31.7172C78.7933 30.4226 77.4809 29.1727 76.0449 27.806C74.5195 29.0662 73.0011 30.3231 71.3692 31.6692C69.9332 30.4055 68.5315 29.1727 66.9855 27.8129C65.8072 29.1143 64.6563 30.3814 63.3955 31.7722C61.609 30.3883 59.9566 29.1075 58.2491 27.7854C56.6516 29.0937 55.116 30.354 53.5013 31.676C52.1615 30.4707 50.8457 29.3822 49.657 28.1631C49.286 27.782 49.1176 27.0643 49.1039 26.4942C49.0489 23.8639 48.9527 21.2232 49.1176 18.5997C49.2516 16.4775 48.5336 14.8464 47.0563 13.4179C45.5276 13.8712 44.971 14.8567 45.0603 16.4741C45.1874 18.7576 45.1978 21.0584 45.0569 23.3385C44.947 25.0932 45.3317 26.4702 46.8777 27.4248C47.2109 27.6309 47.4686 27.9537 47.9186 28.3657C46.675 29.4852 45.5104 30.5325 44.2255 31.6898C42.8548 30.3849 41.5458 29.1384 40.1132 27.7751C39.0105 28.8156 38.0039 29.9041 36.8461 30.8004C36.3892 31.1541 35.4719 31.3773 34.9978 31.1575C32.3388 29.9213 29.2606 29.2757 27.6493 26.1715C26.0793 27.5828 24.5162 28.8156 23.1695 30.2509C22.1491 31.3395 21.4174 31.4391 20.0088 30.7592C14.622 28.1597 9.26609 28.6336 4.06821 31.4769C3.76932 31.6417 3.48761 31.8443 3.22308 32.0641C1.90042 33.1663 0.831989 34.4403 1.06217 36.2946C1.30265 38.2176 2.66997 39.0658 4.82745 39.4229C2.34703 39.6358 0.787328 38.3344 0.598377 36.2706C0.326974 33.3346 1.61871 31.0408 3.68344 29.1487C6.36654 26.6934 9.5581 25.131 13.1619 24.7017C15.2747 24.4511 16.2264 23.3041 16.4497 21.4464C16.6764 19.5921 16.6902 17.6966 16.7245 15.8148C16.7657 13.5415 16.7348 11.2683 16.9856 9.00532C16.6455 14.0772 18.2602 19.2933 15.7832 24.6537C16.4119 24.1661 16.9993 23.9428 17.1368 23.5617C17.5868 22.2911 18.0884 20.9794 18.1777 19.6573C18.3392 17.2089 18.2499 14.74 18.2189 12.2778C18.1846 9.52728 18.0987 6.77328 20.2768 4.44165C16.8516 6.48483 13.4883 5.60231 10.0666 4.89149C8.8023 4.63738 7.41093 5.01855 6.11919 5.1044ZM23.805 15.8835C23.6401 15.9109 23.4752 15.9384 23.3103 15.9659C23.9218 20.3132 21.3555 22.5418 18.0712 24.0802C20.5826 25.0966 23.0801 26.1096 25.9453 27.2669C26.2545 26.69 27.2233 25.7422 27.0893 24.9902C26.6565 22.5384 25.8801 20.1415 25.1105 17.7618C24.8872 17.0682 24.2516 16.505 23.805 15.8835ZM63.8833 14.3863C63.6909 14.4927 63.4985 14.5992 63.3027 14.7056C63.3027 17.7137 63.4367 20.7321 63.2512 23.7299C63.1413 25.5087 63.9142 26.4874 65.2609 27.3047C66.4427 28.0189 66.9203 27.7957 66.934 26.4256C66.9615 23.857 66.9649 21.2884 66.9203 18.7199C66.9134 18.2529 66.7451 17.7 66.4599 17.3394C65.656 16.3127 64.7491 15.3649 63.8833 14.3863ZM109.08 19.7809C107.713 17.9472 106.439 16.2406 104.927 14.2146C104.927 17.2673 104.927 19.7638 104.927 22.4628C106.411 21.5048 107.682 20.6841 109.08 19.7809ZM90.0823 14.2729C90.0823 17.2192 90.0823 19.7329 90.0823 22.456C91.5561 21.5013 92.8306 20.6738 94.2117 19.7775C92.8547 17.9644 91.5698 16.2577 90.0823 14.2729Z" fill="#001F33"></path>
  <path d="M190.936 27.7647C189.548 29.0696 188.16 30.3745 186.652 31.7892C185.095 30.4637 183.629 29.2962 182.282 28.0016C181.949 27.6823 181.897 26.9646 181.89 26.4255C181.852 23.565 181.749 20.6977 181.914 17.8441C182.034 15.7975 181.258 14.3415 179.839 13.1293C177.981 13.7303 177.208 14.9081 177.452 16.8689C177.62 18.2218 177.506 19.6126 177.479 20.9827C177.421 23.8775 176.916 26.9234 180.523 28.4446C179.259 29.6362 178.231 30.608 177.077 31.6965C175.607 30.4466 174.143 29.2825 172.793 27.9982C172.456 27.6788 172.384 26.9749 172.374 26.4426C172.336 23.6406 172.257 20.8316 172.388 18.033C172.48 16.0585 172.037 14.4342 170.371 13.2152C168.705 13.7165 167.873 14.7295 168.038 16.6972C168.224 18.9121 168.196 21.1647 168.045 23.3864C167.925 25.148 168.348 26.5079 169.863 27.4762C170.295 27.7509 170.694 28.0772 171.206 28.4515C169.924 29.6499 168.89 30.6183 167.763 31.6759C166.183 30.3573 164.665 29.0902 163.071 27.7612C161.631 29.0627 160.247 30.3195 158.783 31.6416C157.399 30.4843 155.997 29.4027 154.722 28.1871C154.344 27.8265 154.176 27.0951 154.162 26.5285C154.107 24.0114 154.056 21.4909 154.176 18.9773C154.286 16.6628 154.128 14.5166 151.898 13.0023C153.369 11.876 154.588 10.9419 155.915 9.9255C157.667 11.9687 159.56 13.7474 159.209 16.8654C158.931 19.3516 159.25 21.8996 159.116 24.4097C159.034 25.9619 159.879 26.7517 160.996 27.3698C162.208 28.0394 163.071 27.4694 163.077 26.0683C163.095 22.9229 163.246 19.7637 163.005 16.6354C162.906 15.3373 161.933 14.108 161.284 12.6795C162.335 11.8691 163.586 10.911 164.922 9.88086C166.018 11.2716 167.032 12.5627 168.107 13.9329C170.196 12.5627 172.192 11.2544 174.257 9.90146C175.322 11.2579 176.338 12.549 177.427 13.9363C179.537 12.5799 181.55 11.2853 183.642 9.93924C185.487 11.9687 187.332 13.8573 186.93 17.0303C186.645 19.2829 186.875 21.6008 186.875 23.8878C186.875 26.6075 188.256 27.9261 190.967 27.8025C190.967 27.8093 190.936 27.7647 190.936 27.7647Z" fill="#001F33"></path>
  <path d="M133.688 6.81406C129.881 13.3179 130.468 20.5016 135.33 24.3991C135.677 22.744 136.202 21.3086 136.24 19.8595C136.357 15.4572 136.254 11.0515 136.302 6.64923C136.316 5.54351 135.941 5.15891 134.845 5.09367C131.994 4.92197 129.572 5.80449 127.514 8.00906C127.741 3.76474 131.07 0.554033 135.522 0.389205C137.666 0.310225 139.871 0.523128 141.97 0.976404C145.863 1.81428 149.69 3.24279 153.634 0.842482C153.177 5.02155 150.989 6.72478 145.64 7.2536C145.64 13.6166 145.64 19.9934 145.64 26.5762C149.23 25.3915 151.208 22.8161 152.596 19.3547C152.638 25.1306 147.804 30.6145 142.101 31.5451C135.718 32.589 129.881 28.9697 127.981 22.7921C126.092 16.6385 128.655 9.18002 133.688 6.81406ZM136.429 25.3881C138.724 26.9608 141.022 27.2905 143.468 27.1325C144.605 27.0604 145.025 26.6312 145.011 25.4465C144.956 19.7908 144.949 14.1352 145.011 8.47951C145.028 6.96858 144.41 6.73164 143.035 7.10594C143.035 10.3476 142.946 13.5411 143.06 16.7312C143.18 20.1479 141.665 22.5105 138.779 24.1313C138.088 24.5193 137.381 24.8799 136.429 25.3881ZM135.838 25.0687C137.096 24.0111 137.642 22.6101 137.673 21.0923C137.762 16.302 137.748 11.5082 137.728 6.71791C137.724 6.29554 137.363 5.87317 137.168 5.45423C137.003 5.49543 136.841 5.54008 136.676 5.58128C136.676 6.81406 136.749 8.0537 136.663 9.28304C136.309 14.4476 137.631 19.7256 135.601 24.7734C135.594 24.7975 135.67 24.8558 135.838 25.0687Z" fill="#001F33"></path>
  <path d="M204.395 31.3845C206.257 28.8125 208.122 26.2439 210.049 23.5827C209.788 23.3801 209.592 23.2049 209.373 23.0641C208.28 22.3636 206.514 21.876 206.233 20.9385C205.71 19.2079 206.02 17.2127 206.081 15.331C206.092 14.967 206.497 14.5515 206.82 14.2802C207.737 13.5076 208.734 12.8311 209.647 12.055C211.166 10.7639 212.427 9.68561 214.825 10.8016C216.254 11.4678 218.373 10.654 220.184 10.5063C218.624 12.6697 216.862 15.1215 214.966 17.7553C216.099 18.5932 217.298 19.3383 218.315 20.2827C218.858 20.7875 219.27 21.5876 219.428 22.319C220.102 25.4644 219.016 27.8304 216.075 29.2727C215.824 29.3963 215.598 29.592 215.391 29.7843C213.955 31.1132 212.667 31.9442 210.489 30.7321C208.641 29.7019 206.476 30.4024 204.395 31.3845ZM211.544 22.4048C210.077 24.4171 208.565 26.4877 206.937 28.7164C208.359 28.2219 209.448 27.6312 210.589 27.5042C211.777 27.3737 213.014 27.6896 214.234 27.8098C214.553 25.5263 214.673 23.3148 211.544 22.4048ZM217.693 13.123C215.594 14.4553 213.44 14.6304 211.186 13.6999C210.661 17.9716 210.695 18.0609 213.306 19.1323C214.763 17.1441 216.226 15.1318 217.693 13.123Z" fill="#001F33"></path>
  <path d="M190.969 27.8098C190.99 24.2111 191.048 20.6123 191.004 17.0136C190.99 15.9319 191.261 15.2382 192.223 14.6407C194.638 13.1401 196.974 11.5159 199.424 9.88477C201.307 12.3847 203.12 14.7987 205.075 17.3982C202.554 19.0087 200.087 20.5917 197.606 22.1576C196.73 22.7104 195.635 23.2255 196.15 24.472C196.445 25.1829 197.208 25.7254 197.837 26.2542C198.218 26.577 198.737 26.7384 199.201 26.9616C202.464 28.524 202.464 28.5206 205.766 28.0536C203.478 29.228 201.203 30.4402 198.878 31.539C198.541 31.697 197.905 31.3776 197.469 31.1544C195.281 30.0487 193.116 28.9018 190.942 27.7686C190.938 27.7652 190.969 27.8098 190.969 27.8098ZM200.403 19.8019C198.988 17.9098 197.713 16.21 196.201 14.184C196.201 17.1681 196.201 19.6852 196.201 22.4632C197.668 21.536 198.946 20.7256 200.403 19.8019Z" fill="#001F33"></path>
  <path d="M159.254 5.39248C158.131 6.52224 157.021 7.63482 155.946 8.71307C154.925 7.67946 153.816 6.55657 152.699 5.41995C153.768 4.36917 154.891 3.26002 156.014 2.1543C157.104 3.24628 158.217 4.35887 159.254 5.39248Z" fill="#001F33"></path>
  <path d="M113.496 5.53424C114.65 4.36671 115.729 3.28159 116.736 2.26172C117.804 3.3125 118.893 4.38388 120.103 5.57201C119.003 6.482 117.79 7.48814 116.574 8.49771C115.733 7.6873 114.571 6.56785 113.496 5.53424Z" fill="#001F33"></path>
</svg>
