<?xml version="1.0" encoding="UTF-8"?>
<svg xmlns="http://www.w3.org/2000/svg" width="116" height="89" viewBox="0 0 116 89" fill="none">
  <path d="M114.111 42.4813C114.111 37.5048 110.045 33.4387 105.069 33.4387C100.092 33.4387 96.026 37.5048 96.026 42.4813C96.026 46.5475 96.026 46.7295 96.026 53.9515V54.0122C96.026 54.9832 96.026 56.1363 96.026 57.4108C94.6301 64.2079 88.6219 69.3057 81.4 69.3057C73.8746 69.3057 67.6843 63.7224 66.5919 56.5004C66.6526 55.7722 66.6526 55.0439 66.6526 54.3156C66.6526 53.4053 66.6526 52.4343 66.7133 51.4632C66.7133 50.4922 66.7133 50.4922 66.7133 49.5212C66.8346 33.9849 66.4098 13.8969 66.4098 9.40592C66.4098 4.42944 62.3437 0.363281 57.3672 0.363281C52.3907 0.363281 48.3246 4.42944 48.3246 9.40592C48.3246 11.53 48.3246 17.5382 48.3246 24.6995C43.8943 22.5147 38.9178 21.2402 33.6379 21.2402C15.3706 21.2402 0.5625 36.0483 0.5625 54.3156C0.5625 72.583 15.3706 87.391 33.6379 87.391C43.0447 87.391 51.4804 83.4462 57.4886 77.1953C63.4968 83.5069 71.9932 87.391 81.3393 87.391C98.9997 87.391 113.444 73.554 114.354 56.1363H114.415C114.718 40.2965 114.111 47.4578 114.111 42.4813ZM33.6379 69.3057C25.3842 69.3057 18.7084 62.63 18.7084 54.3763C18.7084 46.1226 25.3842 39.4469 33.6379 39.4469C40.9812 39.4469 47.0501 44.7268 48.3246 51.706C48.3246 52.6163 48.3246 53.5267 48.3246 54.3763C48.3246 55.1046 48.3853 55.8328 48.3853 56.5611C47.3536 63.7224 41.1633 69.3057 33.6379 69.3057Z" fill="#001F33"></path>
  <path d="M110.047 88.4228C107.134 88.4228 104.828 86.056 104.828 83.2036C104.828 80.2906 107.195 77.9844 110.047 77.9844C112.96 77.9844 115.267 80.3512 115.267 83.2036C115.267 86.056 112.9 88.4228 110.047 88.4228ZM110.047 78.7733C107.62 78.7733 105.617 80.7761 105.617 83.2036C105.617 85.6312 107.62 87.6339 110.047 87.6339C112.475 87.6339 114.478 85.6312 114.478 83.2036C114.478 80.7154 112.475 78.7733 110.047 78.7733Z" fill="#001F33"></path>
  <path d="M112.717 86.0558C112.292 86.2378 111.928 86.3592 111.504 86.4806C111.079 86.602 110.715 86.602 110.29 86.602C109.744 86.602 109.258 86.5413 108.773 86.4199C108.348 86.2985 107.923 86.0558 107.619 85.813C107.316 85.5096 107.013 85.1455 106.891 84.7206C106.709 84.2958 106.648 83.8103 106.648 83.2034C106.648 82.111 106.952 81.2614 107.68 80.6545C108.348 80.0476 109.258 79.7441 110.35 79.7441C110.775 79.7441 111.2 79.8048 111.625 79.9262C112.05 80.0476 112.414 80.169 112.778 80.2903V81.5041H112.657C112.292 81.2614 111.868 81.0186 111.443 80.8972C111.018 80.7758 110.654 80.7152 110.229 80.7152C109.501 80.7152 108.955 80.8972 108.53 81.3221C108.105 81.7469 107.923 82.3538 107.923 83.2034C107.923 83.9924 108.105 84.5993 108.53 85.0241C108.955 85.4489 109.501 85.6916 110.229 85.6916C110.472 85.6916 110.715 85.6916 111.018 85.631C111.261 85.5703 111.504 85.5096 111.746 85.3882C111.928 85.3275 112.11 85.2061 112.292 85.1454C112.475 85.0848 112.596 84.9634 112.657 84.9027H112.717V86.0558Z" fill="#001F33"></path>
</svg>
