<?xml version="1.0" encoding="UTF-8"?>
<svg xmlns="http://www.w3.org/2000/svg" width="155" height="68" viewBox="0 0 155 68" fill="none">
  <path fill-rule="evenodd" clip-rule="evenodd" d="M42.1423 6.38876C45.2508 6.38876 53.8982 6.80082 48.327 23.1619C42.4733 40.3471 29.5224 36.8083 29.5224 36.8083L39.066 6.38876C39.066 6.38876 42.0292 6.38876 42.1423 6.38876ZM65.315 24.2688C72.606 6.24333 58.9607 1.36328 50.0549 1.36328H20.6005C23.055 3.05191 22.6513 5.28186 22.1749 6.65539L5.00929 61.5479C4.32299 63.7213 1.76349 65.9997 0.382812 66.3633L24.2338 66.3552C22.9258 66.1128 21.0445 64.2545 21.7228 61.7014L27.956 41.8499C27.9479 41.8499 56.6273 45.72 65.315 24.2688Z" fill="#001F33"></path>
  <path fill-rule="evenodd" clip-rule="evenodd" d="M75.4304 58.027C74.467 58.6143 70.6795 60.4969 67.1061 60.8267C63.8127 61.1244 58.3291 59.8774 58.3373 53.4171C58.3455 47.9062 64.4878 43.8675 67.7978 42.4676C69.181 47.8177 72.1945 53.8435 75.4304 58.027ZM85.0308 23.2155C84.1827 28.4288 77.2829 33.6743 75.595 34.3903C75.2986 31.4618 75.4221 26.8439 77.9416 23.0707C79.6048 20.5687 81.795 19.4665 83.5734 20.0699C84.9896 20.5446 85.1625 21.8398 85.0308 23.2155ZM85.039 66.4342L101.383 66.4261C96.1544 64.7849 88.4066 59.9578 85.3354 56.5065C87.8302 53.8435 90.9096 50.5048 91.4695 43.7066H82.9806C82.9806 43.7066 84.6109 44.6157 84.6109 46.5626C84.6109 48.3647 83.8781 50.8427 82.4454 52.6045C79.9671 49.0084 77.3076 44.8973 76.3772 38.8795C79.6954 37.2544 84.3803 35.5086 88.1019 32.3307C91.6177 29.3057 92.4411 26.4658 92.4905 24.6074C92.4905 24.5269 92.4905 24.4545 92.4905 24.3741C92.4905 22.4352 91.7165 20.6089 90.2839 19.2171C87.8302 16.8357 83.9439 15.8623 79.8848 16.6105C76.616 17.2139 73.8248 18.9114 72.4333 20.1825C67.4849 24.6959 66.8509 32.1618 66.8509 35.5327C66.8509 36.3533 66.8838 36.9808 66.925 37.3429C66.645 37.4555 66.1346 37.6405 66.1346 37.6405C62.5365 38.9358 52.9031 41.4539 49.445 49.1934C49.0003 50.1669 48.3828 52.2908 48.3828 54.7607C48.3828 56.8846 48.8439 59.2579 50.2519 61.4221C52.6808 65.1309 56.8141 67.472 63.401 67.3594C70.5807 67.2468 77.6287 62.4518 78.8967 61.583C80.1482 62.7093 83.3511 65.6538 85.039 66.4342Z" fill="#001F33"></path>
  <path fill-rule="evenodd" clip-rule="evenodd" d="M133.7 6.25796C143.159 3.96105 150.968 11.4524 151.673 11.9718L154.383 3.26305C150.639 2.12678 123.478 -7.18258 104.302 15.0073C92.5098 28.6589 89.6158 56.6113 104.575 64.1107C120.608 72.1296 138.293 62.8771 139.592 62.2359L146.919 38.65C147.705 35.8012 149.493 33.9426 152.651 32.7576H127.206C130.918 34.324 130.653 37.1566 130.349 38.3172L123.045 61.9031C122.067 62.0979 101.625 67.2598 113.073 31.045C115.542 23.2615 122.436 9.00126 133.7 6.25796Z" fill="#001F33"></path>
</svg>
