<?xml version="1.0" encoding="UTF-8"?>
<svg xmlns="http://www.w3.org/2000/svg" width="181" height="60" viewBox="0 0 181 60" fill="none">
  <path d="M80.7587 59.2565C80.1668 59.1111 79.5731 58.9675 78.9812 58.8222C72.7511 57.3039 69.3976 53.1467 68.1183 47.1297C67.9081 46.1385 67.8356 45.1036 67.8286 44.0879C67.7985 39.682 67.7455 35.2743 67.8339 30.8684C67.9363 25.769 69.6679 21.3929 74.0003 18.3056C79.7604 14.1991 89.1762 13.9855 94.5705 17.9659C98.5266 20.8851 100.297 25.0388 100.475 29.795C100.649 34.3988 100.58 39.0166 100.493 43.6256C100.417 47.6778 99.2916 51.4025 96.3957 54.4268C93.8337 57.1008 90.5755 58.4089 86.9905 59.0533C86.7361 59.0989 86.4887 59.1882 86.2378 59.2565C84.4108 59.2565 82.5839 59.2565 80.7587 59.2565ZM91.7523 36.7786C91.7523 34.5616 91.7629 32.3446 91.7488 30.1277C91.7382 28.4606 91.2346 26.9668 90.0472 25.748C88.0224 23.6711 83.9709 22.8306 81.1598 23.9811C78.0748 25.2437 76.7196 27.8021 76.6065 30.8982C76.4439 35.3549 76.5535 39.8238 76.5764 44.2876C76.587 46.2856 77.2655 48.0333 78.9458 49.2346C81.3117 50.9262 83.9621 51.3763 86.7484 50.5637C89.6744 49.7091 91.7258 46.6989 91.7488 43.4295C91.7629 41.2125 91.7505 38.9955 91.7523 36.7786Z" fill="#001F33"></path>
  <path d="M0 15.8184C0.351611 15.8341 0.703222 15.8639 1.05483 15.8639C9.88575 15.8656 18.7184 15.8656 27.5494 15.8656C27.9239 15.8656 28.2968 15.8656 28.7579 15.8656C28.7579 18.2507 28.7703 20.5185 28.7332 22.7862C28.7296 22.9596 28.4134 23.189 28.196 23.2818C27.9964 23.3659 27.7331 23.3011 27.4964 23.3011C21.8741 23.3011 16.2501 23.3011 10.6278 23.3011C10.278 23.3011 9.92992 23.3011 9.48997 23.3011C9.46877 23.6828 9.43873 23.9928 9.43873 24.301C9.43519 26.4304 9.467 28.5615 9.41929 30.6892C9.40162 31.4667 9.59598 31.7557 10.4388 31.7364C12.999 31.6821 15.561 31.7399 18.1212 31.7031C18.8209 31.6926 19.0365 31.9185 19.0223 32.5997C18.9835 34.4069 18.9729 36.2176 19.0241 38.0248C19.0453 38.7603 18.752 38.8986 18.0965 38.8916C15.5645 38.8636 13.0326 38.8811 10.5024 38.8811C10.1879 38.8811 9.87162 38.8811 9.32211 38.8811C9.4511 41.1734 9.32565 43.3921 9.75324 45.5023C10.384 48.6176 13.8454 50.5456 17.4056 50.1078C20.6355 49.7103 22.8 47.7473 23.6693 44.4236C23.7576 44.0856 23.8283 43.7441 23.9202 43.3501C26.8002 43.3501 29.6714 43.3501 32.8094 43.3501C32.4154 44.9577 32.1698 46.5354 31.6415 48.0152C29.4099 54.2633 24.6428 57.3996 18.2484 58.3172C13.8295 58.9512 9.66489 58.1894 6.08517 55.3543C3.04259 52.9447 1.36051 49.684 0.376348 46.0189C0.273868 45.6371 0.127216 45.2659 0 44.8894C0 35.1984 0 25.5093 0 15.8184Z" fill="#001F33"></path>
  <path d="M106.03 59.2515C104.016 58.6824 102.581 57.5319 102.13 55.4077C102.065 55.0978 102.019 54.7756 102.019 54.4586C102.014 43.055 102.005 31.6515 102.021 20.248C102.024 16.9313 104.609 14.7055 107.707 15.2852C109.839 15.6844 111.518 17.5739 111.52 19.7244C111.537 31.303 111.539 42.8817 111.518 54.4586C111.514 56.7369 110.212 58.3619 108.007 59.0641C107.873 59.1079 107.749 59.185 107.62 59.248C107.09 59.2515 106.56 59.2515 106.03 59.2515Z" fill="#001F33"></path>
  <path d="M134.796 32.8257C134.796 35.3509 134.796 37.7657 134.796 40.1806C134.796 40.8478 134.286 40.6954 133.906 40.7024C131.081 40.7567 128.254 40.7882 125.428 40.846C121.52 40.9266 119.276 44.8089 121.205 48.1501C122.001 49.5283 123.273 50.2497 124.822 50.3355C126.996 50.4564 129.176 50.4529 131.354 50.4721C133.678 50.4931 136.001 50.4774 138.422 50.4774C138.443 50.1131 138.48 49.7752 138.48 49.4372C138.484 43.1628 138.449 36.8866 138.494 30.6122C138.528 26.0049 134.968 23.5761 130.976 23.7687C127.211 23.9508 124.852 26.033 123.994 29.7979C123.831 30.5107 123.573 30.7313 122.838 30.7156C120.513 30.6648 118.186 30.698 115.859 30.6945C115.574 30.6945 115.288 30.6683 114.914 30.649C115.147 28.0153 115.778 25.5742 117.08 23.3519C120.357 17.757 125.552 15.4279 131.819 15.2773C141.846 15.0374 146.73 22.2102 148.036 29.6316C148.071 29.8312 148.053 30.0396 148.053 30.2427C148.053 39.3488 148.053 48.4548 148.053 57.5608C148.053 57.8217 148.053 58.0809 148.053 58.4417C147.691 58.4662 147.38 58.5064 147.069 58.5064C139.5 58.5099 131.932 58.5222 124.363 58.5047C119.705 58.4942 114.421 54.9236 113.131 50.4966C111.457 44.7528 112.615 38.8392 117.656 35.1582C119.553 33.7731 121.739 32.964 124.055 32.8642C127.579 32.7136 131.114 32.8257 134.796 32.8257Z" fill="#001F33"></path>
  <path d="M66.9412 58.4062C66.6126 58.4307 66.3529 58.4675 66.0949 58.4693C63.6213 58.4868 61.1494 58.5008 58.6757 58.5095C57.5396 58.513 57.5361 58.5078 57.5361 57.3433C57.5343 48.8221 57.5184 40.301 57.5396 31.7798C57.5555 25.6245 51.6541 22.5074 46.4241 25.2112C44.06 26.4335 43.1554 28.5489 43.1536 31.0916C43.1448 39.8159 43.1501 48.5419 43.1501 57.268C43.1501 58.5288 43.1483 58.471 41.9186 58.4587C39.6234 58.4377 37.3282 58.492 35.0312 58.5095C33.6742 58.52 33.6636 58.5148 33.6636 57.1541C33.6601 48.5157 33.6689 39.8789 33.653 31.2422C33.6513 30.2248 33.6142 29.1934 33.4481 28.1917C33.0664 25.8749 32.0823 23.9661 29.6016 23.2674C29.6016 20.8176 29.6016 18.4062 29.6016 16.0124C32.1441 15.4222 35.5772 16.6498 39.2011 19.4026C39.2576 19.3939 39.3301 19.4026 39.3707 19.3729C44.7032 15.1666 50.6594 15.1806 56.7975 16.9825C63.4605 18.6426 66.3299 22.8174 66.5896 28.647C66.6532 30.0987 66.9554 31.5469 66.9607 32.9986C66.996 41.2273 66.9783 49.456 66.9766 57.6865C66.9748 57.8844 66.9571 58.0875 66.9412 58.4062Z" fill="#001F33"></path>
  <path d="M180.674 28.0975C180.103 28.0975 179.792 28.0975 179.479 28.0975C171.177 28.0975 162.874 28.0975 154.571 28.0958C153.372 28.0958 153.368 28.0923 153.368 26.8927C153.366 18.4031 153.368 9.91175 153.368 1.42213C153.368 1.11218 153.368 0.802221 153.368 0.255859C156.052 2.98417 158.564 5.54086 161.135 8.15534C159.073 10.6105 158.314 13.3755 159.08 16.4804C159.614 18.6378 160.863 20.3189 162.678 21.6077C166.362 24.2257 171.383 23.4062 173.815 20.8477C169.666 16.6257 165.512 12.3966 161.305 8.11681C162.934 6.511 164.844 5.64243 167.017 5.57063C170.793 5.44805 173.761 7.02759 175.444 10.4021C177.108 13.738 176.769 17.0372 174.385 19.9967C173.832 20.6831 173.807 21.1052 174.458 21.7356C176.348 23.5725 178.177 25.4726 180.029 27.3498C180.191 27.5127 180.331 27.6965 180.674 28.0975Z" fill="#001F33"></path>
</svg>
