<?xml version="1.0" encoding="UTF-8"?>
<svg xmlns="http://www.w3.org/2000/svg" width="116" height="38" viewBox="0 0 116 38" fill="none">
  <g clip-path="url(#clip0_634_541)">
    <path d="M96.4034 18.3381C94.6676 19.5186 93.0231 20.7659 91.2487 21.7982C89.6283 22.7445 88.1232 22.8162 87.7578 20.3597C86.2335 21.0336 84.8631 21.8986 83.3772 22.2188C82.2376 22.4625 80.7806 22.3383 79.7516 21.8173C77.6936 20.7803 74.1449 21.5306 73.1015 23.6334C71.481 26.8928 68.9662 29.2011 65.6531 30.6635C64.8741 31.0076 63.9653 31.2513 63.1286 31.2274C62.4314 31.2083 61.3687 30.8833 61.1572 30.4006C60.9264 29.8797 61.2678 28.7136 61.7582 28.3504C64.0952 26.6108 66.5667 25.0432 68.995 23.4279C69.6394 22.9978 70.3125 22.6059 70.8848 21.9607C68.8652 21.9081 66.5571 23.858 65.3983 20.6895C63.1575 21.1769 60.9456 23.2702 58.9501 20.5748C56.7189 21.521 54.7571 23.9058 52.9875 21.975C50.2515 21.975 48.0925 22.3621 46.246 21.7743C45.5632 21.5593 45.6209 19.0598 45.2555 17.1672C44.6352 17.7073 43.8273 18.3142 43.1445 19.0359C42.7214 19.4851 42.5387 20.1494 42.1492 20.6417C40.9567 22.1566 39.5959 23.9488 37.4897 23.1889C36.278 22.754 35.5279 21.0813 34.2873 19.638C32.1715 19.7002 30.0606 25.4686 26.5793 20.6417C21.5977 23.1268 20.9918 23.1125 19.9964 20.4266C13.1491 24.3503 12.5962 24.0874 9.61008 15.3177C8.55221 16.7945 7.58571 18.19 6.57111 19.5472C5.58537 20.8663 4.54674 22.1519 3.41674 23.5952C1.46449 21.3155 1.34428 20.3358 3.07534 18.6488C5.92678 15.8625 8.24447 12.5267 10.6391 9.31035C11.1151 8.66995 11.3315 7.0546 10.9517 6.74396C10.3025 6.21826 9.02826 6.08922 8.12907 6.28994C6.36435 6.68661 4.68137 7.42738 3.01283 8.00565C4.44095 4.24448 7.58571 2.38062 11.5816 2.96845C13.9618 3.32211 13.5771 4.95657 13.178 6.46677C15.4428 4.82275 17.5874 3.06881 19.9339 1.63029C21.6073 0.602782 23.8721 -0.439067 25.4204 1.2862C27.0842 3.1405 25.2906 4.99958 24.1125 6.505C20.7033 10.8779 16.039 12.9998 10.2448 13.3392C10.5093 14.3523 10.6391 15.1935 10.9468 15.9581C11.9037 18.319 13.2886 20.5939 16.0487 20.7133C18.7174 20.8328 20.559 19.055 21.7371 16.6798C22.367 15.4085 23.0017 14.1038 23.8673 12.9903C24.1943 12.5745 25.1752 12.6557 25.858 12.5076C25.9301 13.1145 26.2475 13.8362 26.0215 14.3045C25.3771 15.6523 24.4058 16.847 23.7759 18.1995C23.4586 18.8877 23.598 19.7862 23.5355 20.5891C24.3145 20.3693 25.3483 20.3884 25.8243 19.8913C27.1082 18.5388 28.1901 16.9904 29.2865 15.4754C29.7962 14.7729 30.027 13.8457 30.6232 13.2531C31.0608 12.8182 31.8878 12.7609 32.537 12.5315C32.7197 13.1814 33.239 13.9891 33.0178 14.4575C32.0946 16.4265 30.9454 18.2999 29.8442 20.2737C32.3975 20.6321 34.6431 19.1458 35.5712 16.6272C37.2541 12.0727 39.4131 7.76191 42.8704 4.26359C44.0004 3.12138 45.5296 2.29937 47.0058 1.60162C47.5587 1.33877 48.7705 1.6064 49.1455 2.06042C49.4821 2.46664 49.3523 3.68532 48.958 4.17279C46.7846 6.85866 44.4669 9.43461 42.38 11.8385C43.0916 13.1575 43.9043 14.6725 44.9429 16.6081C45.7411 16.0585 46.8182 15.3846 47.8232 14.6152C50.2563 12.7465 52.6461 10.8206 55.964 12.8135C56.1804 12.9425 56.7333 12.8899 56.8728 12.7179C57.9932 11.3415 58.7337 12.2686 59.6954 13.0811C58.2384 15.6427 56.8199 18.1278 55.4014 20.6178C55.6562 20.8328 55.9111 21.0431 56.1659 21.2582C57.3873 20.0729 58.7385 18.9929 59.7867 17.6786C60.9167 16.264 61.8496 14.6725 62.7103 13.0763C63.6624 11.3032 64.7635 11.461 66.259 12.5793C64.778 15.0262 63.3306 17.4253 61.6765 20.1637C64.4269 20.5939 65.4656 19.4564 66.4706 18.0657C67.764 16.2783 69.096 14.4957 70.6155 12.8995C71.0627 12.4311 72.2023 12.6032 73.0245 12.4789C72.8803 13.2101 72.9572 14.1038 72.5437 14.6343C71.7262 15.6857 70.476 16.4217 69.7259 17.5066C69.1777 18.2999 69.1489 19.4373 68.8844 20.4266C69.9279 20.1399 71.3127 20.1685 71.9474 19.4995C73.8468 17.497 75.3999 15.1743 77.1935 13.062C78.5255 11.4944 78.6889 11.5613 80.3527 13.4347C78.5014 15.7908 76.6261 18.1756 74.5344 20.8376C77.1935 20.8854 78.8909 20.5986 79.5929 17.9654C80.396 14.9784 82.6175 12.8565 85.642 12.0966C87.3971 11.6521 89.3638 12.0153 91.292 11.9436C92.2056 11.9436 93.124 11.9436 94.0377 11.9436C93.903 12.7752 93.9559 13.6976 93.5953 14.4192C92.6576 16.2927 91.5421 18.08 90.4361 20.006C92.7153 20.3836 95.6004 18.5341 96.3938 16.35C97.1968 14.142 97.8556 11.8863 98.6923 9.30079C97.6585 8.79898 96.4227 8.19204 95.1821 7.58987C95.1292 7.40826 95.0763 7.22665 95.0282 7.04504C95.8986 6.873 96.7737 6.5289 97.6296 6.56713C100.077 6.68183 102.02 6.07966 103.655 4.05809C104.592 2.90154 106.174 2.17989 107.583 1.51082C108.155 1.23841 109.218 1.4009 109.737 1.78323C110.069 2.02696 109.935 3.08315 109.776 3.71399C109.574 4.52645 109.136 5.27677 108.689 6.30428C111.166 6.30428 113.43 6.30428 115.695 6.30428C115.758 6.48111 115.815 6.66271 115.878 6.83954C115.354 7.13107 114.854 7.56119 114.291 7.68545C113.522 7.85272 112.69 7.91007 111.911 7.80971C108.127 7.31746 105.314 8.83244 103.304 11.7143C103.712 13.4825 104.357 15.1982 104.462 16.9426C104.636 19.748 103.14 21.6978 100.885 22.0658C98.2884 22.4912 97.3844 20.7611 96.6968 18.773C96.6535 18.5627 96.4515 18.4003 96.4034 18.3381ZM10.8555 12.001C15.111 11.9054 19.7993 8.92802 20.9533 5.77858C21.1697 5.18596 21.112 4.4213 20.9245 3.80958C20.8668 3.62319 19.8522 3.50371 19.429 3.6901C15.6688 5.38191 12.5817 7.78581 10.8555 12.001ZM48.0444 19.1123C48.0444 21.0431 48.9388 21.607 50.8093 20.8424C53.3193 19.8149 54.3002 17.5352 55.31 15.3273C56.0505 13.7119 55.4879 12.9951 53.7136 13.0954C50.9006 13.2531 48.0492 16.2783 48.0444 19.1123ZM89.2436 12.9616C85.8344 12.952 82.4877 16.2019 82.4877 18.9642C82.4877 20.4839 83.233 21.1052 84.8054 20.6703C87.1086 20.0299 90.1139 16.89 90.2486 14.6008C90.287 13.9843 89.4744 13.3153 89.2436 12.9616ZM102.582 12.4407C98.9952 14.0226 98.2643 16.9952 100.298 19.3656C100.736 19.8722 101.717 20.374 102.26 20.2259C102.847 20.0634 103.65 19.1028 103.607 18.5436C103.458 16.5842 102.981 14.6534 102.582 12.4407ZM40.3989 13.3057C40.144 13.1862 39.8892 13.0667 39.6343 12.9473C39.0862 14.4575 38.2447 15.9342 38.0812 17.4827C37.9417 18.7874 38.2447 21.0909 38.9515 21.349C40.8268 22.0324 41.7453 20.2068 42.529 18.7348C42.6204 18.5627 42.5868 18.3238 42.6108 18.1326C39.7401 17.1003 39.6632 16.9283 40.3989 13.3057ZM46.9096 3.1405C43.3753 5.19552 41.5048 8.48834 39.9854 12.0392C43.1445 9.70224 46.4432 7.47039 46.9096 3.1405ZM69.548 23.8819C66.9177 25.4495 64.8693 26.9597 63.9701 29.722C66.8264 30.1187 69.1248 27.7387 69.548 23.8819ZM103.097 5.99842C107.271 6.69617 108.266 5.88372 108.107 1.8358C106.328 3.31733 104.881 4.51689 103.097 5.99842ZM105.116 8.27328C105.078 8.11079 105.044 7.94352 105.006 7.78103C103.847 8.09167 102.635 8.28762 101.587 8.81332C101.375 8.91846 101.803 10.271 101.938 11.05C102.169 11.093 102.404 11.1312 102.635 11.1742C103.462 10.204 104.289 9.23866 105.116 8.27328ZM42.9474 12.9138C40.8076 14.8541 41.0384 15.7335 43.5773 16.479C43.3465 15.16 43.1493 14.0369 42.9474 12.9138Z" fill="#001F33"></path>
    <path d="M69.9334 7.39423C68.4139 10.2999 68.034 10.4576 65.6875 9.25809C66.7646 5.87925 67.5051 5.52559 69.9334 7.39423Z" fill="#001F33"></path>
    <path d="M2.34399 32.3027H3.20952L4.66169 36.4032H3.79135L3.51246 35.5334H2.02663L1.75735 36.4032H0.90625L2.34399 32.3027ZM2.21897 34.893H3.3105L2.94024 33.7126C2.87293 33.4927 2.77195 33.0817 2.77195 33.0817H2.76233C2.76233 33.0817 2.65654 33.4927 2.58922 33.7126L2.21897 34.893Z" fill="#001F33"></path>
    <path d="M6.02447 33.9304H6.0437C6.22161 33.5959 6.42357 33.4238 6.76978 33.4238C6.85634 33.4238 6.90923 33.4286 6.95251 33.4477V34.1311H6.93327C6.41876 34.0786 6.05332 34.351 6.05332 34.9675V36.4012H5.26953V33.4621H6.02447V33.9304Z" fill="#001F33"></path>
    <path d="M9.3005 36.0715H9.29088C9.14182 36.2961 8.92544 36.4682 8.42055 36.4682C7.81468 36.4682 7.38672 36.1528 7.38672 35.5697C7.38672 34.9197 7.91565 34.7142 8.57442 34.6234C9.06488 34.5565 9.29088 34.5135 9.29088 34.2889C9.29088 34.0786 9.12259 33.94 8.79561 33.94C8.42535 33.94 8.24744 34.0738 8.2234 34.351H7.52617C7.55021 33.8349 7.93489 33.3809 8.80042 33.3809C9.68999 33.3809 10.0458 33.7775 10.0458 34.4657V35.9616C10.0458 36.1862 10.0795 36.3152 10.1516 36.3678V36.3965H9.39667C9.34378 36.3439 9.31492 36.2053 9.3005 36.0715ZM9.30531 35.3642V34.9245C9.16586 35.0058 8.95429 35.0488 8.75714 35.0966C8.34842 35.1874 8.14646 35.2782 8.14646 35.5554C8.14646 35.8326 8.32918 35.9281 8.60808 35.9281C9.05527 35.9234 9.30531 35.6509 9.30531 35.3642Z" fill="#001F33"></path>
    <path d="M11.6356 36.0333H11.626V36.4013H10.8711V32.3008H11.6549V33.8158H11.6741C11.8376 33.5672 12.0876 33.3809 12.5012 33.3809C13.2465 33.3809 13.7754 34.0165 13.7754 34.9341C13.7754 35.8851 13.2657 36.4873 12.5252 36.4873C12.1021 36.4873 11.8088 36.3057 11.6356 36.0333ZM12.9724 34.9341C12.9724 34.3893 12.7512 34.0117 12.3136 34.0117C11.8184 34.0117 11.6308 34.4084 11.6308 34.9532C11.6308 35.4932 11.9001 35.8373 12.3377 35.8373C12.7464 35.8326 12.9724 35.498 12.9724 34.9341Z" fill="#001F33"></path>
    <path d="M14.4531 32.3008H15.2369V32.9985H14.4531V32.3008ZM14.4531 33.4573H15.2369V36.3965H14.4531V33.4573Z" fill="#001F33"></path>
    <path d="M17.8435 36.0715H17.8339C17.6848 36.2961 17.4684 36.4682 16.9635 36.4682C16.3576 36.4682 15.9297 36.1528 15.9297 35.5697C15.9297 34.9197 16.4586 34.7142 17.1174 34.6234C17.6079 34.5565 17.8339 34.5135 17.8339 34.2889C17.8339 34.0786 17.6656 33.94 17.3386 33.94C16.9683 33.94 16.7904 34.0738 16.7664 34.351H16.0691C16.0932 33.8349 16.4779 33.3809 17.3434 33.3809C18.233 33.3809 18.5888 33.7775 18.5888 34.4657V35.9616C18.5888 36.1862 18.6224 36.3152 18.6946 36.3678V36.3965H17.9396C17.8867 36.3439 17.8579 36.2053 17.8435 36.0715ZM17.8483 35.3642V34.9245C17.7088 35.0058 17.4973 35.0488 17.3001 35.0966C16.8914 35.1874 16.6894 35.2782 16.6894 35.5554C16.6894 35.8326 16.8722 35.9281 17.151 35.9281C17.5982 35.9234 17.8483 35.6509 17.8483 35.3642Z" fill="#001F33"></path>
    <path d="M19.7422 32.2871H20.6606L20.978 33.0948H20.3673L19.7422 32.2871Z" fill="#001F33"></path>
    <path d="M22.4297 35.4511H23.1558C23.2087 35.7904 23.4491 35.9386 23.8001 35.9386C24.1463 35.9386 24.3435 35.8048 24.3435 35.5992C24.3435 35.3173 23.9684 35.2886 23.5645 35.2074C23.0356 35.1022 22.5162 34.9588 22.5162 34.3184C22.5162 33.6828 23.0452 33.377 23.7232 33.377C24.5022 33.377 24.9349 33.7593 24.9926 34.3519H24.2858C24.2521 34.0365 24.0502 33.9218 23.7136 33.9218C23.4058 33.9218 23.2039 34.0365 23.2039 34.2468C23.2039 34.5 23.5982 34.5239 24.0165 34.6052C24.5118 34.7103 25.0599 34.8441 25.0599 35.5323C25.0599 36.1249 24.5502 36.4786 23.8145 36.4786C22.9538 36.4882 22.4778 36.0724 22.4297 35.4511Z" fill="#001F33"></path>
    <path d="M27.0898 32.3008H27.9265V35.7035H29.8643V36.3965H27.0898V32.3008Z" fill="#001F33"></path>
    <path d="M32.4171 36.4021V36.058H32.3979C32.1959 36.3256 31.9651 36.4833 31.5516 36.4833C30.8928 36.4833 30.5273 36.0627 30.5273 35.4223V33.4629H31.3063V35.2933C31.3063 35.6374 31.4602 35.8286 31.7968 35.8286C32.167 35.8286 32.393 35.5514 32.393 35.1643V33.4677H33.1768V36.4068H32.4171V36.4021Z" fill="#001F33"></path>
    <path d="M34.874 34.8382L33.9123 33.457H34.8067L35.3308 34.2982H35.3404L35.8357 33.457H36.6483L35.7299 34.8334L36.783 36.3962H35.8501L35.3019 35.4213H35.2923L34.6528 36.3962H33.7969L34.874 34.8382Z" fill="#001F33"></path>
    <path d="M39.1944 36.4021V36.058H39.1752C38.9732 36.3256 38.7424 36.4833 38.3289 36.4833C37.6701 36.4833 37.3047 36.0627 37.3047 35.4223V33.4629H38.0837V35.2933C38.0837 35.6374 38.2375 35.8286 38.5741 35.8286C38.9444 35.8286 39.1704 35.5514 39.1704 35.1643V33.4677H39.9542V36.4068H39.1944V36.4021Z" fill="#001F33"></path>
    <path d="M41.5392 33.9304H41.5584C41.7363 33.5959 41.9383 33.4238 42.2845 33.4238C42.3711 33.4238 42.424 33.4286 42.4672 33.4477V34.1311H42.4528C41.9383 34.0786 41.5728 34.351 41.5728 34.9675V36.4012H40.7891V33.4621H41.544V33.9304H41.5392Z" fill="#001F33"></path>
    <path d="M43.2248 36.7499H43.5037C43.8163 36.7499 43.9413 36.5874 43.9413 36.3484C43.9413 36.1907 43.8836 35.9995 43.7153 35.5503L42.9219 33.457H43.7441L44.1817 34.7856C44.2731 35.0533 44.374 35.426 44.374 35.426H44.3837C44.3837 35.426 44.4654 35.0533 44.5568 34.7856L44.9703 33.4618H45.7589L44.7251 36.4774C44.4991 37.1322 44.2827 37.3664 43.6816 37.3664H43.22V36.7499H43.2248Z" fill="#001F33"></path>
    <path d="M47.707 32.3008H50.6595V33.0033H48.5437V33.9878H50.3373V34.6999H48.5437V36.3965H47.707V32.3008Z" fill="#001F33"></path>
    <path d="M52.906 36.0715H52.8964C52.7473 36.2961 52.5309 36.4682 52.026 36.4682C51.4201 36.4682 50.9922 36.1528 50.9922 35.5697C50.9922 34.9197 51.5211 34.7142 52.1799 34.6234C52.6704 34.5565 52.8964 34.5135 52.8964 34.2889C52.8964 34.0786 52.7281 33.94 52.4011 33.94C52.0308 33.94 51.8529 34.0738 51.8289 34.351H51.1316C51.1557 33.8349 51.5404 33.3809 52.4059 33.3809C53.2955 33.3809 53.6513 33.7775 53.6513 34.4657V35.9616C53.6513 36.1862 53.6849 36.3152 53.7571 36.3678V36.3965H53.0021C52.9541 36.3439 52.9252 36.2053 52.906 36.0715ZM52.9108 35.3642V34.9245C52.7713 35.0058 52.5598 35.0488 52.3626 35.0966C51.9539 35.1874 51.7519 35.2782 51.7519 35.5554C51.7519 35.8326 51.9347 35.9281 52.2135 35.9281C52.6655 35.9234 52.9108 35.6509 52.9108 35.3642Z" fill="#001F33"></path>
    <path d="M54.2852 35.4511H55.0112C55.0641 35.7904 55.3046 35.9386 55.6556 35.9386C56.0018 35.9386 56.1989 35.8048 56.1989 35.5992C56.1989 35.3173 55.8239 35.2886 55.42 35.2074C54.891 35.1022 54.3717 34.9588 54.3717 34.3184C54.3717 33.6828 54.9006 33.377 55.5786 33.377C56.3576 33.377 56.7904 33.7593 56.8481 34.3519H56.1412C56.1076 34.0365 55.9056 33.9218 55.569 33.9218C55.2613 33.9218 55.0593 34.0365 55.0593 34.2468C55.0593 34.5 55.4536 34.5239 55.872 34.6052C56.3672 34.7103 56.9154 34.8441 56.9154 35.5323C56.9154 36.1249 56.4057 36.4786 55.67 36.4786C54.8093 36.4882 54.3332 36.0724 54.2852 35.4511Z" fill="#001F33"></path>
    <path d="M58.3775 33.8444H58.3968C58.6083 33.5338 58.8536 33.3809 59.2575 33.3809C59.8682 33.3809 60.2769 33.8397 60.2769 34.4801V36.4013H59.4931V34.5948C59.4931 34.2793 59.3104 34.0547 58.9786 34.0547C58.6324 34.0547 58.3775 34.3319 58.3775 34.7334V36.4013H57.5938V32.3008H58.3775V33.8444Z" fill="#001F33"></path>
    <path d="M61.0859 32.3008H61.8697V32.9985H61.0859V32.3008ZM61.0859 33.4573H61.8697V36.3965H61.0859V33.4573Z" fill="#001F33"></path>
    <path d="M62.5547 34.9341C62.5547 34.0595 63.1846 33.3809 64.0982 33.3809C65.0166 33.3809 65.6417 34.0595 65.6417 34.9341C65.6417 35.8087 65.0118 36.4873 64.0982 36.4873C63.1798 36.4873 62.5547 35.8087 62.5547 34.9341ZM64.8483 34.9341C64.8483 34.3606 64.5791 33.9735 64.0982 33.9735C63.6125 33.9735 63.3481 34.3654 63.3481 34.9341C63.3481 35.5028 63.6125 35.8899 64.0982 35.8899C64.5791 35.8899 64.8483 35.5076 64.8483 34.9341Z" fill="#001F33"></path>
    <path d="M67.1014 33.8596H67.1206C67.3226 33.5442 67.5919 33.377 67.9958 33.377C68.6065 33.377 69.0152 33.8357 69.0152 34.4762V36.3974H68.2314V34.5909C68.2314 34.2754 68.0487 34.0508 67.7169 34.0508C67.3707 34.0508 67.1158 34.328 67.1158 34.7294V36.3974H66.332V33.4582H67.1014V33.8596Z" fill="#001F33"></path>
    <path d="M71.1836 32.3008H72.7944C73.8956 32.3008 74.6073 33.1849 74.6073 34.394C74.6073 35.0583 74.3812 35.6414 73.9485 36.0046C73.6407 36.2579 73.2464 36.4013 72.7271 36.4013H71.1884V32.3008H71.1836ZM72.6646 35.6844C73.4484 35.6844 73.7561 35.2065 73.7561 34.394C73.7561 33.5816 73.4003 33.0129 72.6887 33.0129H72.0203V35.6844H72.6646Z" fill="#001F33"></path>
    <path d="M75.1719 34.9254C75.1719 34.0556 75.7681 33.377 76.6337 33.377C77.5857 33.377 78.0906 34.0986 78.0906 35.15H75.946C76.0037 35.604 76.2586 35.886 76.701 35.886C77.0087 35.886 77.1866 35.7474 77.2732 35.5228H78.0473C77.9368 36.0437 77.4703 36.4834 76.7106 36.4834C75.7248 36.4882 75.1719 35.8048 75.1719 34.9254ZM75.9557 34.61H77.2684C77.2443 34.2372 76.9991 33.9791 76.6385 33.9791C76.2297 33.9839 76.0278 34.2276 75.9557 34.61Z" fill="#001F33"></path>
    <path d="M78.5977 35.4511H79.3237C79.3766 35.7904 79.6171 35.9386 79.9681 35.9386C80.3143 35.9386 80.5114 35.8048 80.5114 35.5992C80.5114 35.3173 80.1364 35.2886 79.7325 35.2074C79.2035 35.1022 78.6842 34.9588 78.6842 34.3184C78.6842 33.6828 79.2131 33.377 79.8911 33.377C80.6701 33.377 81.1029 33.7593 81.1606 34.3519H80.4537C80.4201 34.0365 80.2181 33.9218 79.8815 33.9218C79.5738 33.9218 79.3718 34.0365 79.3718 34.2468C79.3718 34.5 79.7661 34.5239 80.1845 34.6052C80.6797 34.7103 81.2279 34.8441 81.2279 35.5323C81.2279 36.1249 80.7182 36.4786 79.9825 36.4786C79.1218 36.4882 78.6409 36.0724 78.5977 35.4511Z" fill="#001F33"></path>
    <path d="M81.6689 33.4586H82.0776V32.541H82.8421V33.4586H83.3518V33.9748H82.8421V35.5327C82.8421 35.7526 82.9624 35.8243 83.1355 35.8243C83.2316 35.8243 83.3663 35.8195 83.3663 35.8195V36.393C83.3663 36.393 83.1884 36.4025 82.8758 36.4025C82.4959 36.4025 82.0728 36.2544 82.0728 35.7V33.9748H81.6641V33.4586H81.6689Z" fill="#001F33"></path>
    <path d="M84.082 32.3008H84.8658V32.9985H84.082V32.3008ZM84.082 33.4573H84.8658V36.3965H84.082V33.4573Z" fill="#001F33"></path>
    <path d="M86.4647 33.8596H86.4839C86.6859 33.5442 86.9551 33.377 87.3591 33.377C87.9697 33.377 88.3785 33.8357 88.3785 34.4762V36.3974H87.5947V34.5909C87.5947 34.2754 87.412 34.0508 87.0802 34.0508C86.734 34.0508 86.4791 34.328 86.4791 34.7294V36.3974H85.6953V33.4582H86.4647V33.8596Z" fill="#001F33"></path>
    <path d="M90.9607 36.0715H90.951C90.802 36.2961 90.5856 36.4682 90.0807 36.4682C89.4748 36.4682 89.0469 36.1528 89.0469 35.5697C89.0469 34.9197 89.5758 34.7142 90.2346 34.6234C90.725 34.5565 90.951 34.5135 90.951 34.2889C90.951 34.0786 90.7827 33.94 90.4558 33.94C90.0855 33.94 89.9076 34.0738 89.8835 34.351H89.1863C89.2104 33.8349 89.595 33.3809 90.4606 33.3809C91.3501 33.3809 91.706 33.7775 91.706 34.4657V35.9616C91.706 36.1862 91.7396 36.3152 91.8118 36.3678V36.3965H91.0568C91.0087 36.3439 90.9799 36.2053 90.9607 36.0715ZM90.9655 35.3642V34.9245C90.826 35.0058 90.6144 35.0488 90.4173 35.0966C90.0086 35.1874 89.8066 35.2782 89.8066 35.5554C89.8066 35.8326 89.9893 35.9281 90.2682 35.9281C90.7202 35.9234 90.9655 35.6509 90.9655 35.3642Z" fill="#001F33"></path>
    <path d="M92.29 33.4586H92.6987V32.541H93.4632V33.4586H93.9729V33.9748H93.4632V35.5327C93.4632 35.7526 93.5835 35.8243 93.7566 35.8243C93.8527 35.8243 93.9874 35.8195 93.9874 35.8195V36.393C93.9874 36.393 93.8094 36.4025 93.4969 36.4025C93.117 36.4025 92.6939 36.2544 92.6939 35.7V33.9748H92.2852V33.4586H92.29Z" fill="#001F33"></path>
    <path d="M94.707 32.3008H95.4908V32.9985H94.707V32.3008ZM94.707 33.4573H95.4908V36.3965H94.707V33.4573Z" fill="#001F33"></path>
    <path d="M96.1758 34.9341C96.1758 34.0595 96.8057 33.3809 97.7193 33.3809C98.6377 33.3809 99.2628 34.0595 99.2628 34.9341C99.2628 35.8087 98.6329 36.4873 97.7193 36.4873C96.8057 36.4873 96.1758 35.8087 96.1758 34.9341ZM98.4694 34.9341C98.4694 34.3606 98.2002 33.9735 97.7193 33.9735C97.2336 33.9735 96.9692 34.3654 96.9692 34.9341C96.9692 35.5028 97.2336 35.8899 97.7193 35.8899C98.2002 35.8899 98.4694 35.5076 98.4694 34.9341Z" fill="#001F33"></path>
    <path d="M100.722 33.8596H100.742C100.944 33.5442 101.213 33.377 101.617 33.377C102.228 33.377 102.636 33.8357 102.636 34.4762V36.3974H101.852V34.5909C101.852 34.2754 101.67 34.0508 101.338 34.0508C100.992 34.0508 100.737 34.328 100.737 34.7294V36.3974H99.9531V33.4582H100.722V33.8596Z" fill="#001F33"></path>
  </g>
  <defs>
    <clipPath id="clip0_634_541">
      <rect width="115" height="37" fill="white" transform="translate(0.90625 0.363281)"></rect>
    </clipPath>
  </defs>
</svg>
