<?xml version="1.0" encoding="UTF-8"?>
<svg xmlns="http://www.w3.org/2000/svg" width="96" height="58" viewBox="0 0 96 58" fill="none">
  <path d="M52.9469 5.74169C60.6307 8.37733 66.219 14.3514 68.4892 21.5555C68.5765 12.6822 63.0756 4.33602 54.2567 1.34897C45.1758 -1.72594 35.4837 1.70039 30.332 9.25587C36.6188 4.51173 45.0012 2.93035 52.9469 5.74169Z" fill="#001F33"></path>
  <path d="M0.558594 24.4554C0.558594 24.4554 1.60639 11.0137 23.5227 11.0137C31.8178 11.0137 40.3748 14.2643 48.3205 16.9878C54.7819 19.272 57.4887 20.3262 63.3389 22.1712C63.3389 22.1712 55.2185 20.5898 43.9547 17.8663C38.1045 16.4607 31.9051 15.3185 23.6101 15.3185C14.5292 15.2307 3.17808 20.3262 0.558594 24.4554Z" fill="#001F33"></path>
  <path d="M12.8713 28.1446C12.8713 28.1446 12.1728 18.832 28.9375 18.832C45.7022 18.832 57.3153 24.8061 75.0404 24.8061C88.1379 24.8061 93.3768 20.8527 93.3768 20.8527C93.3768 20.8527 87.9632 27.0904 69.4522 27.0904C50.6792 27.0904 46.488 23.3126 27.8024 23.3126C24.0478 23.4005 16.9752 23.4883 12.8713 28.1446Z" fill="#001F33"></path>
  <path d="M95.5556 56.6111C95.5556 56.8747 95.2937 57.1382 95.0317 57.1382C94.7698 57.1382 94.5078 56.8747 94.5078 56.6111C94.5078 56.3475 94.7698 56.084 95.0317 56.084C95.2937 56.084 95.5556 56.3475 95.5556 56.6111C95.5556 56.3475 95.381 56.084 95.0317 56.084C94.7698 56.084 94.5078 56.3475 94.5078 56.6111C94.5078 56.8747 94.7698 57.1382 95.0317 57.1382C95.2937 57.1382 95.5556 56.8747 95.5556 56.6111Z" fill="#001F33"></path>
  <path d="M95.2086 56.6092C95.1213 56.6092 95.2086 56.6092 95.2086 56.6092C95.2086 56.5214 95.296 56.5214 95.296 56.4335C95.296 56.3457 95.2086 56.2578 95.1213 56.2578H94.8594V56.3457V56.8728H95.034V56.6092H95.1213L95.296 56.8728H95.4706C95.4706 56.8728 95.4706 56.7849 95.3833 56.7849C95.2086 56.7849 95.2086 56.6971 95.2086 56.6092ZM95.034 56.6092L94.9467 56.3457H95.034C95.1213 56.3457 95.1213 56.3457 95.1213 56.4335C95.1213 56.5214 95.1213 56.6092 95.034 56.6092Z" fill="#001F33"></path>
  <path d="M29.8964 49.3184H26.753H26.3164L26.753 50.5483V57.0496H28.5866V53.7111H29.8964C31.4681 53.7111 32.6032 53.0083 32.6032 51.5147C32.6032 50.1091 31.5554 49.3184 29.8964 49.3184ZM29.3725 53.2718H28.5866V49.8455H29.3725C30.5949 49.8455 30.8569 50.2848 30.8569 51.6026C30.8569 52.7447 30.4203 53.2718 29.3725 53.2718Z" fill="#001F33"></path>
  <path d="M44.9995 49.2305C42.5547 49.2305 41.0703 50.9876 41.0703 53.1839C41.0703 55.3803 42.5547 57.1374 44.9995 57.1374C47.4444 57.1374 48.9288 55.3803 48.9288 53.1839C48.9288 50.9876 47.5317 49.2305 44.9995 49.2305ZM44.9995 56.786C43.4279 56.786 42.9913 55.2924 42.9913 53.2718C42.9913 51.2511 43.3405 49.7576 44.9995 49.7576C46.6586 49.7576 47.0951 51.2511 47.0951 53.2718C47.0951 55.2924 46.7459 56.786 44.9995 56.786Z" fill="#001F33"></path>
  <path d="M53.7323 49.3184H50.5889H50.1523L50.5889 50.5483V57.0496H52.4226V53.7111H53.7323C55.304 53.7111 56.4391 53.0083 56.4391 51.5147C56.4391 50.1091 55.304 49.3184 53.7323 49.3184ZM53.2084 53.2718H52.4226V49.8455H53.2084C54.4308 49.8455 54.6928 50.2848 54.6928 51.6026C54.6928 52.7447 54.2562 53.2718 53.2084 53.2718Z" fill="#001F33"></path>
  <path d="M59.4968 53.2718H61.6797V52.8325H59.4968V49.7576H62.9894V49.3184H57.6631H57.2266L57.6631 50.5483V57.1374H63.0767V56.6981H59.4968V53.2718Z" fill="#001F33"></path>
  <path d="M70.8477 49.7576H73.2052V57.1374H75.0388V49.7576H77.4837V49.3184H70.8477V49.7576Z" fill="#001F33"></path>
  <path d="M84.2911 53.2718H86.3867V52.8325H84.2911V49.7576H87.6965V49.3184H82.4575H81.9336L82.4575 50.5483V57.1374H87.7838V56.6981H84.2911V53.2718Z" fill="#001F33"></path>
  <path d="M91.6262 52.1296C90.753 51.7782 90.3164 51.4268 90.3164 50.724C90.3164 49.9333 90.9276 49.6697 91.6262 49.6697C92.3247 49.6697 92.9359 49.8454 93.5471 50.1968V49.5819C93.1105 49.3183 92.4993 49.1426 91.6262 49.1426C90.1418 49.1426 88.832 50.0211 88.832 51.5146C88.832 53.0082 89.6179 53.5353 90.8403 54.0624C91.8881 54.5017 92.4993 54.7653 92.4993 55.556C92.4993 56.3466 91.9754 56.6981 90.9276 56.6981C90.2291 56.6981 89.4432 56.4345 88.832 55.9952V56.6102C89.3559 56.8738 90.0545 57.1373 90.9276 57.1373C92.7613 57.1373 93.9837 56.1709 93.9837 54.5896C94.071 53.1839 93.1105 52.7446 91.6262 52.1296Z" fill="#001F33"></path>
  <path d="M6.23231 53.8868C6.14499 53.7111 5.79573 53.5354 5.62109 53.4475V53.3597C6.66889 53.184 7.45473 52.4811 7.45473 51.4269C7.45473 49.9333 6.49426 49.3184 4.92256 49.3184H1.16797L1.60455 50.5483V57.0496H3.43819V53.3597H4.13672L5.88304 56.3467C5.97036 56.4346 6.40694 57.0496 7.2801 57.0496H8.24058C8.06595 56.8739 7.804 56.2589 7.36742 55.6439C7.10547 55.2925 6.49426 54.3261 6.23231 53.8868ZM4.13672 53.0083H3.43819V49.7576H4.13672C5.27183 49.7576 5.53378 50.109 5.53378 51.339C5.62109 52.569 5.27183 53.0083 4.13672 53.0083Z" fill="#001F33"></path>
  <path d="M38.4511 53.8868C38.3637 53.7111 38.0145 53.5354 37.8398 53.4475V53.3597C38.8876 53.184 39.6735 52.4811 39.6735 51.4269C39.6735 49.9333 38.713 49.3184 37.1413 49.3184H33.3867L33.8233 50.5483V57.0496H35.6569V53.3597H36.3555L38.1018 56.3467C38.1891 56.4346 38.6257 57.0496 39.4988 57.0496H40.4593C40.2847 56.8739 40.0227 56.2589 39.5862 55.6439C39.4115 55.2925 38.8003 54.3261 38.4511 53.8868ZM36.4428 53.0083H35.7443V49.7576H36.4428C37.5779 49.7576 37.8398 50.109 37.8398 51.339C37.8398 52.569 37.4906 53.0083 36.4428 53.0083Z" fill="#001F33"></path>
  <path d="M68.8378 53.8868C68.7505 53.7111 68.4012 53.5354 68.2266 53.4475V53.3597C69.2743 53.184 70.0602 52.4811 70.0602 51.4269C70.0602 49.9333 69.0997 49.3184 67.528 49.3184H63.7734L64.21 50.5483V57.0496H66.0437V53.3597H66.7422L68.4885 56.3467C68.5758 56.4346 69.0124 57.0496 69.8856 57.0496H70.846C70.6714 56.8739 70.4095 56.2589 69.9729 55.6439C69.7982 55.2925 69.187 54.3261 68.8378 53.8868ZM66.8295 53.0083H66.131V49.7576H66.8295C67.9646 49.7576 68.2266 50.109 68.2266 51.339C68.2266 52.569 67.8773 53.0083 66.8295 53.0083Z" fill="#001F33"></path>
  <path d="M22.8233 49.4062H22.1248L18.7194 53.2719V49.4062H16.4492L16.8858 50.6362V57.1374H18.7194V53.9747L19.0687 53.6233L20.9897 56.5225C20.9897 56.5225 21.4262 57.2253 22.3867 57.2253H23.6091L20.2911 52.3054L22.8233 49.4062Z" fill="#001F33"></path>
  <path d="M11.6459 49.4062H10.7727L11.2093 50.6362L8.58984 57.1374H9.20106L10.1615 54.7654H12.781L13.6542 57.1374H15.7498L13.043 50.2848C12.8683 49.8455 12.6937 49.4062 11.6459 49.4062ZM10.4235 54.3261L11.5586 51.4269H11.6459L12.6937 54.3261H10.4235Z" fill="#001F33"></path>
  <path d="M78.2695 49.3184L78.7061 50.5483V57.1374H80.5397V49.3184H78.7061H78.2695Z" fill="#001F33"></path>
  <path d="M3.87638 38.5992H4.57491C4.66222 38.5992 4.66222 38.5992 4.66222 38.5114V37.7207C4.66222 37.6328 4.66222 37.6328 4.57491 37.6328H3.87638C3.78906 37.6328 3.78906 37.6328 3.78906 37.7207V38.5114C3.78906 38.5992 3.87638 38.5992 3.87638 38.5992Z" fill="#001F33"></path>
  <path d="M2.65763 38.5992H3.35616C3.44347 38.5992 3.44347 38.5992 3.44347 38.5114V37.7207C3.44347 37.6328 3.44347 37.6328 3.35616 37.6328H2.65763C2.57031 37.6328 2.57031 37.6328 2.57031 37.7207V38.5114C2.57031 38.5992 2.57031 38.5992 2.65763 38.5992Z" fill="#001F33"></path>
  <path d="M8.76631 45.1895H8.06779C7.98047 45.1895 7.98047 45.1895 7.98047 45.2773V46.068C7.98047 46.1559 7.98047 46.1559 8.06779 46.1559H8.76631C8.85363 46.1559 8.85363 46.1559 8.85363 46.068V45.2773C8.85363 45.1895 8.85363 45.1895 8.76631 45.1895Z" fill="#001F33"></path>
  <path d="M9.7284 40.0055H9.11719C9.02987 40.0055 9.02987 40.0055 9.02987 40.0934V42.8169C9.02987 42.9926 9.02987 43.1683 8.94255 43.2561C8.85524 43.344 8.76792 43.344 8.59329 43.344H6.41038H5.9738C5.79917 43.344 5.71186 43.344 5.62454 43.2561C5.53722 43.1683 5.53722 42.9926 5.53722 42.8169V39.3027C5.53722 39.2148 5.53722 39.2148 5.44991 39.2148H4.75138C4.66406 39.2148 4.66406 39.2148 4.66406 39.3027V39.742H3.61627C3.35432 39.742 3.09237 39.742 2.91774 39.8298C2.65579 39.9177 2.48116 40.0055 2.30653 40.1812C2.13189 40.357 1.95726 40.5327 1.86994 40.7962C1.78263 41.0598 1.69531 41.4112 1.69531 41.7626C1.69531 42.114 1.78263 42.3776 1.86994 42.6412C1.95726 42.9047 2.13189 43.0804 2.21921 43.2561C2.39384 43.4319 2.56847 43.5197 2.83042 43.6076C3.09237 43.6954 3.267 43.6954 3.52895 43.6954C3.7909 43.6954 3.96553 43.6954 4.14017 43.6076C4.3148 43.5197 4.48943 43.4319 4.66406 43.344C4.75138 43.6076 4.83869 43.8711 5.01333 43.959C5.18796 44.0468 5.44991 44.1347 5.79917 44.1347H6.41038H8.59329C9.02987 44.1347 9.29182 44.0468 9.46645 43.7833C9.64108 43.6076 9.7284 43.2561 9.7284 42.8169V40.0055C9.81572 40.0934 9.7284 40.0055 9.7284 40.0055ZM4.57675 41.6748C4.57675 42.114 4.48943 42.3776 4.3148 42.6412C4.14017 42.9047 3.87822 42.9926 3.52895 42.9926C3.17969 42.9926 2.91774 42.9047 2.74311 42.729C2.56847 42.5533 2.48116 42.2897 2.48116 41.9383C2.48116 41.4991 2.56847 41.1476 2.74311 40.9719C2.91774 40.7962 3.17969 40.7084 3.52895 40.7084H4.48943V41.6748H4.57675Z" fill="#001F33"></path>
  <path d="M7.54366 45.1895H6.84513C6.75781 45.1895 6.75781 45.1895 6.75781 45.2773V46.068C6.75781 46.1559 6.75781 46.1559 6.84513 46.1559H7.54366C7.63097 46.1559 7.63097 46.1559 7.63097 46.068V45.2773C7.63097 45.1895 7.63097 45.1895 7.54366 45.1895Z" fill="#001F33"></path>
  <path d="M12.5211 40.0059H11.9099C11.8226 40.0059 11.8226 40.0059 11.8226 40.0937V44.5743C11.8226 45.1893 11.5607 45.4528 11.0368 45.4528H10.7748C10.6875 45.4528 10.6875 45.4528 10.6875 45.5407V46.1557C10.6875 46.2435 10.6875 46.2435 10.7748 46.2435H11.0368C11.5607 46.2435 11.9972 46.0678 12.2592 45.8043C12.5211 45.5407 12.6958 45.1014 12.6958 44.5743V40.1816C12.6085 40.0937 12.5211 40.0059 12.5211 40.0059Z" fill="#001F33"></path>
  <path d="M18.7201 39.0387H19.4187C19.506 39.0387 19.506 39.0387 19.506 38.9508V38.1601C19.506 38.0723 19.506 38.0723 19.4187 38.0723H18.7201C18.6328 38.0723 18.6328 38.0723 18.6328 38.1601V38.9508L18.7201 39.0387Z" fill="#001F33"></path>
  <path d="M20.0336 39.0387H20.7322C20.8195 39.0387 20.8195 39.0387 20.8195 38.9508V38.1601C20.8195 38.0723 20.8195 38.0723 20.7322 38.0723H20.0336C19.9463 38.0723 19.9463 38.0723 19.9463 38.1601V38.9508C19.859 38.9508 19.9463 39.0387 20.0336 39.0387Z" fill="#001F33"></path>
  <path d="M35.224 37.2813H34.6128C34.5255 37.2813 34.5255 37.2812 34.5255 37.3691V42.9039C34.5255 43.0796 34.5255 43.2554 34.4382 43.3432C34.3509 43.4311 34.2636 43.4311 34.0889 43.4311H32.0807H29.1992H29.0246C28.9373 43.4311 28.9373 43.4311 28.85 43.4311C29.0246 43.3432 29.1119 43.2554 29.2865 43.0796C29.4612 42.9039 29.5485 42.8161 29.6358 42.6404C29.7231 42.4647 29.8104 42.289 29.8977 42.1132C29.9851 41.9375 29.9851 41.674 29.9851 41.4983C29.9851 40.9711 29.8104 40.6197 29.4612 40.3562C29.1119 40.0926 28.588 39.9169 27.8895 39.9169C27.6275 39.9169 27.4529 39.9169 27.1909 40.0047C27.0163 40.0047 26.7544 40.0926 26.5797 40.1804C26.4051 40.2683 26.2305 40.2683 26.1432 40.3562C25.9685 40.444 25.8812 40.444 25.7939 40.5319C25.7066 40.5319 25.7066 40.6197 25.7066 40.7076V41.3226V41.4104L25.7939 41.4983C25.9685 41.5861 26.0558 41.674 26.2305 41.8497C26.4051 41.9375 26.4924 42.1132 26.667 42.2011C26.7544 42.3768 26.929 42.5525 27.0163 42.7282C27.1036 42.9039 27.1909 43.1675 27.2783 43.4311C27.1036 43.5189 26.929 43.5189 26.7544 43.5189C26.5797 43.5189 26.4924 43.5189 26.4051 43.5189H22.3886H20.9915C20.9042 43.5189 20.9042 43.5189 20.8169 43.5189C21.0788 43.3432 21.3408 43.0796 21.5154 42.7282C21.69 42.4647 21.7773 42.1132 21.7773 41.7618C21.7773 41.4983 21.7773 41.2347 21.69 40.9711C21.6027 40.7076 21.5154 40.5319 21.3408 40.3562C21.1661 40.1804 20.9915 40.0926 20.7295 40.0047C20.4676 39.9169 20.2057 39.829 19.8564 39.829C19.5071 39.829 19.2452 39.9169 18.9832 40.0047C18.7213 40.0926 18.5466 40.2683 18.372 40.3562C18.1974 40.5319 18.1101 40.7076 18.0227 40.9711C17.9354 41.2347 17.9354 41.4104 17.9354 41.7618C17.9354 42.1132 18.0227 42.4647 18.1974 42.7282C18.372 42.9918 18.5466 43.2554 18.8959 43.4311H17.4115H15.5779C15.4033 43.4311 15.3159 43.4311 15.2286 43.3432C15.1413 43.2554 15.1413 43.0796 15.1413 42.9039V37.3691C15.1413 37.2812 15.1413 37.2813 15.054 37.2813H14.4428C14.3555 37.2813 14.3555 37.2812 14.3555 37.3691V42.9039C14.3555 43.3432 14.4428 43.6946 14.6174 43.8703C14.792 44.046 15.1413 44.2218 15.4906 44.2218H17.4115H18.372C18.5466 44.2218 18.8086 44.2218 19.0705 44.2218C19.3325 44.2218 19.5944 44.1339 19.7691 44.046C19.9437 44.1339 20.2057 44.2218 20.3803 44.2218C20.5549 44.2218 20.8169 44.2218 21.0788 44.2218H22.3886H26.4924C26.6671 44.2218 26.929 44.2217 27.1909 44.1339C27.4529 44.046 27.7148 44.046 27.8895 43.8703C28.0641 43.9582 28.3261 44.046 28.5007 44.1339C28.7626 44.2217 28.9373 44.2218 29.1992 44.2218H31.9933H34.1762C34.6128 44.2218 34.8748 44.1339 35.0494 43.8703C35.224 43.6946 35.3114 43.3432 35.3114 42.9039V37.3691C35.3114 37.2812 35.3114 37.2813 35.224 37.2813ZM19.6818 43.2554C19.3325 43.1675 19.0705 42.9039 18.8959 42.7282C18.7213 42.4647 18.5466 42.2011 18.5466 41.7618C18.5466 41.4104 18.634 41.1468 18.8959 40.9711C19.0705 40.7954 19.3325 40.7076 19.6818 40.7076C20.031 40.7076 20.293 40.7954 20.4676 40.9711C20.6422 41.1468 20.8169 41.4104 20.8169 41.7618C20.8169 42.1132 20.7295 42.4647 20.4676 42.7282C20.293 42.9039 20.031 43.0796 19.6818 43.2554ZM28.4134 42.7282C28.3261 42.8161 28.1514 42.9039 28.0641 42.9918C27.9768 42.4647 27.8022 42.1132 27.5402 41.7618C27.2783 41.4104 27.0163 41.1468 26.667 40.9711C26.7544 40.8833 26.929 40.8833 27.1036 40.7954C27.3656 40.7076 27.6275 40.7076 27.8895 40.7076C28.0641 40.7076 28.2387 40.7076 28.4134 40.7076C28.588 40.7076 28.6753 40.7954 28.7626 40.8833C28.85 40.9711 28.9373 41.059 29.0246 41.1468C29.1119 41.2347 29.1119 41.4104 29.1119 41.5861C29.1119 41.7618 29.1119 41.9375 29.0246 42.0254C28.9373 42.2011 28.85 42.289 28.7626 42.4647C28.6753 42.5525 28.588 42.6404 28.4134 42.7282Z" fill="#001F33"></path>
  <path d="M37.4954 37.2813H36.8842C36.7969 37.2813 36.7969 37.2812 36.7969 37.3691V44.1339C36.7969 44.2217 36.7969 44.2218 36.8842 44.2218H37.4954C37.5827 44.2218 37.5827 44.2217 37.5827 44.1339V37.3691C37.5827 37.2812 37.5827 37.2813 37.4954 37.2813Z" fill="#001F33"></path>
  <path d="M42.1225 38.5992H42.821C42.9083 38.5992 42.9083 38.5992 42.9083 38.5114V37.7207C42.9083 37.6328 42.9083 37.6328 42.821 37.6328H42.1225C42.0352 37.6328 42.0352 37.6328 42.0352 37.7207V38.5114C42.0352 38.5992 42.0352 38.5992 42.1225 38.5992Z" fill="#001F33"></path>
  <path d="M43.3451 38.5992H44.0437C44.131 38.5992 44.131 38.5992 44.131 38.5114V37.7207C44.131 37.6328 44.131 37.6328 44.0437 37.6328H43.3451C43.2578 37.6328 43.2578 37.6328 43.2578 37.7207V38.5114C43.2578 38.5992 43.3451 38.5992 43.3451 38.5992Z" fill="#001F33"></path>
  <path d="M58.5397 45.1895H57.8412C57.7539 45.1895 57.7539 45.1895 57.7539 45.2773V46.068C57.7539 46.1559 57.7539 46.1559 57.8412 46.1559H58.5397C58.6271 46.1559 58.6271 46.1559 58.6271 46.068V45.2773C58.6271 45.1895 58.5397 45.1895 58.5397 45.1895Z" fill="#001F33"></path>
  <path d="M59.7624 45.1895H59.0639C58.9766 45.1895 58.9766 45.1895 58.9766 45.2773V46.068C58.9766 46.1559 58.9766 46.1559 59.0639 46.1559H59.7624C59.8497 46.1559 59.8497 46.1559 59.8497 46.068V45.2773C59.8497 45.1895 59.8497 45.1895 59.7624 45.1895Z" fill="#001F33"></path>
  <path d="M65.1733 39.0387H65.8718C65.9591 39.0387 65.9591 39.0387 65.9591 38.9508V38.1601C65.9591 38.0723 65.9591 38.0723 65.8718 38.0723H65.1733C65.0859 38.0723 65.0859 38.0723 65.0859 38.1601V38.9508L65.1733 39.0387Z" fill="#001F33"></path>
  <path d="M73.381 37.2812H72.7698C72.6824 37.2812 72.6824 37.2812 72.6824 37.3691V42.9039C72.6824 43.0796 72.6824 43.2554 72.5951 43.3432C72.5078 43.4311 72.4205 43.4311 72.2459 43.4311H68.9278H68.8405C68.5786 43.4311 68.3166 43.3432 68.2293 43.2554C68.0547 43.1675 67.9674 42.9918 67.9674 42.8161C67.9674 42.7282 67.9674 42.7282 67.9674 42.6404C67.9674 42.5525 67.9674 42.5525 67.9674 42.4647C67.9674 42.1132 67.9674 41.7618 67.88 41.4983C67.7927 41.1468 67.7054 40.8833 67.5308 40.7076C67.3561 40.444 67.0942 40.2683 66.8323 40.0926C66.5703 39.9169 66.1337 39.829 65.6971 39.829C65.2606 39.829 64.9113 39.9169 64.6494 40.0926C64.3874 40.2683 64.1255 40.444 63.9508 40.7076C63.9508 40.7954 63.9508 40.7954 63.9508 40.8833L64.3874 41.2347C64.4747 41.2347 64.4747 41.2347 64.562 41.2347C64.7367 41.059 64.9113 40.9711 65.0859 40.8833C65.2606 40.7954 65.5225 40.7076 65.6971 40.7076C65.9591 40.7076 66.221 40.7076 66.3957 40.7954C66.5703 40.8833 66.7449 40.9711 66.8323 41.1468C66.9196 41.3226 67.0069 41.4983 67.0942 41.7618C67.1815 42.0254 67.1815 42.2011 67.1815 42.4647C67.1815 42.6404 67.1815 42.8161 67.1815 42.9039C67.1815 42.9918 67.0942 43.1675 67.0942 43.1675C67.0069 43.2554 66.9196 43.2554 66.8323 43.3432C66.7449 43.3432 66.5703 43.4311 66.3957 43.4311H63.5142H63.4269C63.165 43.4311 60.1962 43.3432 60.0216 43.2554C59.847 43.1675 59.7596 42.9918 59.7596 42.7282V40.0926C59.7596 40.0047 59.7596 40.0047 59.6723 40.0047H58.5372C58.4499 40.0047 58.4499 40.0047 58.4499 40.0926V42.8161C58.4499 42.9918 58.4499 43.1675 58.3626 43.2554C58.2753 43.3432 58.188 43.3432 58.0133 43.3432H54.608H54.5207H54.2587C54.0841 43.3432 53.9968 43.2554 53.8221 43.1675C53.6475 43.0796 53.6475 42.8161 53.6475 42.4647C53.6475 42.3768 53.6475 42.289 53.6475 42.289C53.6475 42.2011 53.6475 42.1132 53.6475 42.0254C53.6475 41.2347 53.4729 40.7076 53.1236 40.3562C52.7744 40.0047 52.3378 39.829 51.7266 39.829C51.1153 39.829 50.6788 40.0047 50.3295 40.3562C49.9802 40.7076 49.8056 41.2347 49.8056 42.0254V42.289C49.8056 42.3768 49.8056 42.3768 49.8056 42.4647C49.8056 42.6404 49.8056 42.8161 49.7183 42.9039C49.7183 42.9918 49.631 43.0796 49.5437 43.1675C49.4563 43.2554 49.4563 43.2554 49.369 43.3432C49.2817 43.3432 49.1944 43.4311 49.1071 43.4311H48.5832H45.4398C45.2652 43.4311 45.1778 43.4311 45.0905 43.3432C45.0032 43.2554 45.0032 43.0796 45.0032 42.9039V39.3898C45.0032 39.3019 45.0032 39.3019 44.9159 39.3019H44.3047C44.2174 39.3019 44.2174 39.3019 44.2174 39.3898V39.829H43.2569C42.9949 39.829 42.733 39.829 42.5584 39.9169C42.2964 40.0047 42.1218 40.0926 41.9472 40.2683C41.7725 40.444 41.5979 40.6197 41.5106 40.8833C41.4233 41.1468 41.3359 41.4983 41.3359 41.8497C41.3359 42.2011 41.4233 42.4647 41.5106 42.7282C41.5979 42.9918 41.7725 43.1675 41.8598 43.3432C42.0345 43.5189 42.2091 43.6068 42.471 43.6946C42.733 43.7825 42.9076 43.7825 43.1696 43.7825C43.4315 43.7825 43.6062 43.7825 43.7808 43.6946C43.9554 43.6068 44.1301 43.5189 44.3047 43.4311C44.392 43.6946 44.4793 43.9582 44.654 44.046C44.8286 44.1339 45.0905 44.2218 45.4398 44.2218H48.7578H49.1944C49.369 44.2218 49.631 44.2217 49.8056 44.1339C50.0676 44.046 50.2422 43.9582 50.3295 43.6946C50.5041 43.8703 50.6788 44.046 50.9407 44.1339C51.2027 44.2217 51.4646 44.3096 51.8139 44.3096C52.1631 44.3096 52.4251 44.2217 52.687 44.1339C52.949 44.046 53.1236 43.8703 53.2983 43.6946C53.3856 43.7825 53.4729 43.8703 53.5602 43.9582C53.6475 44.046 53.7348 44.046 53.8221 44.1339C53.9095 44.1339 53.9968 44.2218 54.1714 44.2218C54.2587 44.2218 54.346 44.2218 54.4334 44.2218H54.6953C54.6953 44.2218 54.6953 44.2218 54.7826 44.2218H58.3626C58.8865 44.2218 59.2358 44.046 59.4104 43.6946C59.4977 43.8703 59.585 44.046 59.7596 44.1339C59.9343 44.2217 60.1089 44.3096 60.3709 44.3096H63.3396H66.5703C66.9196 44.3096 67.1815 44.2217 67.3562 44.1339C67.5308 44.046 67.7054 43.8703 67.88 43.6946C67.9674 43.8703 68.0547 44.046 68.2293 44.1339C68.4039 44.2217 68.5786 44.3096 68.8405 44.3096H69.0152H72.5078C72.9444 44.3096 73.2063 44.2217 73.381 43.9582C73.5556 43.7825 73.6429 43.4311 73.6429 42.9918V37.457C73.4683 37.2813 73.4683 37.2812 73.381 37.2812ZM44.0427 41.674C44.0427 42.1132 43.9554 42.3768 43.7808 42.6404C43.6062 42.9039 43.3442 42.9918 42.9949 42.9918C42.6457 42.9918 42.3837 42.9039 42.2091 42.7282C42.0345 42.5525 41.9472 42.289 41.9472 41.9375C41.9472 41.4983 42.0345 41.1468 42.2091 40.9711C42.3837 40.7954 42.6457 40.7076 42.9949 40.7076H43.9554V41.674H44.0427ZM52.5124 43.1675C52.3378 43.4311 52.0758 43.5189 51.6392 43.5189C51.29 43.5189 50.9407 43.4311 50.7661 43.1675C50.5914 42.9039 50.5041 42.5525 50.5041 42.1132C50.5041 41.674 50.5914 41.3226 50.7661 41.059C50.9407 40.7954 51.2027 40.7076 51.6392 40.7076C51.9885 40.7076 52.3378 40.7954 52.5124 41.059C52.687 41.3226 52.7744 41.674 52.7744 42.1132C52.7744 42.5525 52.687 42.9039 52.5124 43.1675Z" fill="#001F33"></path>
  <path d="M75.6517 37.2813H75.0404C74.9531 37.2813 74.9531 37.2812 74.9531 37.3691V44.1339C74.9531 44.2217 74.9531 44.2218 75.0404 44.2218H75.6517C75.739 44.2218 75.739 44.2217 75.739 44.1339V37.3691C75.739 37.2812 75.739 37.2813 75.6517 37.2813Z" fill="#001F33"></path>
  <path d="M89.0122 40.0059H88.401C88.3136 40.0059 88.3136 40.0059 88.3136 40.0937V42.8172C88.3136 42.9929 88.3136 43.1686 88.2263 43.2565C88.139 43.3443 88.0517 43.3443 87.8771 43.3443H87.6151C87.3532 43.3443 87.0912 43.2565 86.9166 43.1686C86.742 43.0808 86.6546 42.9051 86.6546 42.6415V40.8844C86.6546 40.7966 86.6546 40.7966 86.5673 40.7966H85.9561C85.8688 40.7966 85.8688 40.7966 85.8688 40.8844V42.7294C85.8688 42.9051 85.8688 43.0808 85.7815 43.1686C85.6942 43.2565 85.6068 43.2565 85.4322 43.2565H85.1703C84.9083 43.2565 84.6464 43.1686 84.4717 43.0808C84.2971 42.9929 84.2098 42.8172 84.2098 42.5536V40.7966C84.2098 40.7087 84.2098 40.7087 84.1225 40.7087H83.5113C83.4239 40.7087 83.4239 40.7087 83.4239 40.7966V43.7836C83.4239 44.3107 83.2493 44.6622 82.9874 44.8379C82.7254 45.1014 82.3761 45.1893 81.9396 45.1893C81.7649 45.1893 81.5903 45.1893 81.4157 45.1014C81.241 45.0136 81.0664 45.0136 80.8918 44.8379C80.7171 44.75 80.6298 44.5743 80.5425 44.3986C80.4552 44.2229 80.3679 43.9593 80.3679 43.6958C80.3679 43.4322 80.4552 43.0808 80.5425 42.8172C80.6298 42.5536 80.8045 42.2901 80.8918 42.1144C80.8918 42.0265 80.8918 42.0265 80.8918 41.9387L80.3679 41.6751C80.2806 41.6751 80.2806 41.6751 80.1932 41.6751C80.0186 41.9387 79.844 42.2022 79.7567 42.6415C79.582 42.9929 79.582 43.4322 79.582 43.7836C79.582 44.135 79.6693 44.4864 79.7567 44.75C79.844 45.0136 80.0186 45.2771 80.2806 45.4528C80.4552 45.6286 80.7171 45.8043 81.0664 45.8921C81.3284 45.98 81.6776 46.0678 82.0269 46.0678C82.8127 46.0678 83.4239 45.8921 83.7732 45.4528C84.2098 45.0136 84.3844 44.4864 84.3844 43.7836V43.6958C84.5591 43.8715 84.821 44.0472 85.1703 44.0472H85.6942C86.2181 44.0472 86.5673 43.8715 86.742 43.52C86.8293 43.6958 86.9166 43.8715 87.0912 43.9593C87.2658 44.0472 87.4405 44.135 87.7024 44.135H88.2263C88.6629 44.135 88.9249 44.0472 89.0995 43.7836C89.2741 43.6079 89.3614 43.2565 89.3614 42.8172V40.0059C89.1868 40.0937 89.0995 40.0059 89.0122 40.0059Z" fill="#001F33"></path>
  <path d="M91.2806 37.2813H90.6693C90.582 37.2813 90.582 37.2812 90.582 37.3691V44.1339C90.582 44.2217 90.582 44.2218 90.6693 44.2218H91.2806C91.3679 44.2218 91.3679 44.2217 91.3679 44.1339V37.3691C91.3679 37.2812 91.3679 37.2813 91.2806 37.2813Z" fill="#001F33"></path>
  <path d="M91.9798 36.3158H90.932C90.8447 36.2279 90.7574 36.14 90.67 36.0522C90.5827 35.9643 90.5827 35.7886 90.5827 35.7008C90.5827 35.5251 90.67 35.4372 90.7574 35.2615C90.8447 35.1736 91.0193 35.0858 91.1939 35.0858C91.2813 35.0858 91.3686 35.0858 91.4559 35.1736C91.5432 35.2615 91.6305 35.2615 91.6305 35.3494H91.7178L91.8925 35.1736V35.0858C91.8051 34.9979 91.7178 34.9101 91.5432 34.8222C91.3686 34.7344 91.2812 34.7344 91.1066 34.7344C90.932 34.7344 90.7574 34.7344 90.5827 34.8222C90.4081 34.9101 90.3208 34.9979 90.2335 35.0858C90.1461 35.1736 90.0588 35.2615 90.0588 35.4372C90.0588 35.5251 89.9715 35.7008 89.9715 35.7886C89.9715 35.8765 89.9715 36.0522 90.0588 36.14C90.0588 36.2279 90.1461 36.3158 90.2335 36.4036H89.8842C89.8842 36.4036 89.7969 36.4036 89.7969 36.4915V36.755C89.7969 36.8429 89.7969 36.8429 89.8842 36.8429H91.9798C91.9798 36.8429 92.0671 36.8429 92.0671 36.755L91.9798 36.3158C92.0671 36.3158 91.9798 36.3158 91.9798 36.3158Z" fill="#001F33"></path>
  <path d="M93.9899 40.0059H93.3787C93.2914 40.0059 93.2914 40.0059 93.2914 40.0937V44.5743C93.2914 45.1893 93.0294 45.4528 92.5055 45.4528H92.2436C92.1562 45.4528 92.1562 45.4528 92.1562 45.5407V46.1557C92.1562 46.2435 92.1562 46.2435 92.2436 46.2435H92.5055C93.0294 46.2435 93.466 46.0678 93.7279 45.8043C93.9899 45.5407 94.1645 45.1014 94.1645 44.5743V40.1816C94.0772 40.0937 94.0772 40.0059 93.9899 40.0059Z" fill="#001F33"></path>
</svg>
