<?xml version="1.0" encoding="UTF-8"?>
<svg xmlns="http://www.w3.org/2000/svg" width="150" height="50" viewBox="0 0 150 50" fill="none">
  <path d="M30.7702 18.4964C30.7702 21.0835 30.8437 22.2154 31.1524 22.5387C31.4317 22.818 31.8874 22.9503 33.2691 22.9503C34.2099 22.9503 34.9743 22.9356 35.4006 22.4211C35.6357 22.1419 35.8121 21.7009 35.8562 21.3628C35.8709 21.2158 35.915 21.1276 36.0179 21.1276C36.1061 21.1276 36.1208 21.2011 36.1208 21.3922C36.1208 21.5833 36.0032 22.6416 35.8562 23.1561C35.7386 23.5677 35.6798 23.6265 34.7391 23.6265C33.4749 23.6265 32.5489 23.5971 31.8139 23.5677C31.0789 23.5383 30.5203 23.5089 30.0206 23.5089C29.9471 23.5089 29.6531 23.5236 29.3003 23.5236C28.9475 23.5383 28.5653 23.553 28.3007 23.553C28.1096 23.553 28.0214 23.5236 28.0214 23.406C28.0214 23.3472 28.0508 23.3031 28.1684 23.3031C28.3301 23.3031 28.5359 23.2737 28.6976 23.2296C29.0504 23.1561 29.1386 22.7739 29.2121 22.2595C29.3003 21.5245 29.3003 20.128 29.3003 18.4376V15.3654C29.3003 12.6166 29.3003 12.1168 29.2709 11.5583C29.2415 10.9556 29.0945 10.6763 28.5065 10.5587C28.3595 10.5293 28.0655 10.4999 27.9038 10.4999C27.8303 10.4999 27.7568 10.4705 27.7568 10.397C27.7568 10.2941 27.845 10.25 28.0361 10.25C28.8299 10.25 29.9471 10.3088 30.0353 10.3088C30.1235 10.3088 31.417 10.25 31.9462 10.25C32.1373 10.25 32.2255 10.2794 32.2255 10.397C32.2255 10.4705 32.152 10.4999 32.0785 10.4999C31.9609 10.4999 31.711 10.5146 31.4905 10.5587C30.976 10.6469 30.8437 10.9409 30.7996 11.5583C30.7702 12.1168 30.7702 12.6166 30.7702 15.3654V18.4964Z" fill="#001F33"></path>
  <path d="M42.4546 10.6909C42.6604 10.1029 42.7339 10 42.8368 10C42.9397 10 43.0132 10.0882 43.219 10.6321C43.4835 11.3083 46.247 18.5845 47.3201 21.2598C47.9522 22.8326 48.4667 23.1119 48.8341 23.2148C49.0987 23.303 49.3633 23.3177 49.5397 23.3177C49.6426 23.3177 49.7161 23.3324 49.7161 23.4206C49.7161 23.5235 49.5544 23.5676 49.3633 23.5676C49.0987 23.5676 47.8052 23.5676 46.5998 23.5382C46.2617 23.5235 46.0706 23.5235 46.0706 23.4206C46.0706 23.3471 46.1294 23.3177 46.1882 23.303C46.2911 23.2736 46.394 23.1119 46.2911 22.8326L44.6448 18.4963C44.6448 18.4963 44.5713 18.3934 44.4831 18.3934H40.6907C40.6025 18.3934 40.5437 18.4522 40.5143 18.5404L39.4559 21.6567C39.2942 22.0976 39.206 22.5239 39.206 22.8326C39.206 23.1854 39.5735 23.3471 39.8822 23.3471H40.0586C40.1762 23.3471 40.235 23.3765 40.235 23.45C40.235 23.5529 40.1321 23.597 39.9704 23.597C39.5441 23.597 38.7944 23.5382 38.5886 23.5382C38.3828 23.5382 37.4274 23.597 36.6042 23.597C36.369 23.597 36.2661 23.5676 36.2661 23.45C36.2661 23.3765 36.3396 23.3471 36.4278 23.3471C36.5454 23.3471 36.7953 23.3324 36.9423 23.3177C37.7508 23.2148 38.1035 22.5386 38.4269 21.6567L42.4252 10.7056L42.4546 10.6909ZM44.292 17.7466C44.3802 17.7466 44.3802 17.6878 44.3655 17.629L42.6898 12.8664C42.6016 12.6018 42.5134 12.6018 42.4252 12.8664L40.867 17.629C40.8376 17.7172 40.867 17.7466 40.9258 17.7466H44.292Z" fill="#001F33"></path>
  <path d="M52.7297 21.1716C52.7591 22.6121 52.9354 23.0825 53.4205 23.2148C53.7586 23.303 54.1408 23.3177 54.3025 23.3177C54.3907 23.3177 54.4495 23.3471 54.4495 23.4206C54.4495 23.5235 54.3466 23.5676 54.1261 23.5676C53.1265 23.5676 52.421 23.5088 52.2593 23.5088C52.0976 23.5088 51.3626 23.5676 50.5688 23.5676C50.3925 23.5676 50.2896 23.5529 50.2896 23.4206C50.2896 23.3471 50.3483 23.3177 50.4365 23.3177C50.5835 23.3177 50.8922 23.303 51.1568 23.2148C51.5978 23.0972 51.686 22.5827 51.686 20.9805V10.882C51.7007 10.1911 51.7595 10 51.8918 10C52.0241 10 52.3328 10.3822 52.5092 10.5586C52.7738 10.8526 55.405 13.6896 58.1097 16.6001C59.8589 18.4669 61.7698 20.613 62.3431 21.201L62.152 12.249C62.1373 11.1025 62.005 10.7203 61.4611 10.5733C61.1377 10.4998 60.7409 10.4851 60.5939 10.4851C60.4763 10.4851 60.4469 10.4263 60.4469 10.3675C60.4469 10.2646 60.5939 10.2499 60.7997 10.2499C61.5934 10.2499 62.446 10.3087 62.6371 10.3087C62.8282 10.3087 63.4162 10.2499 64.1364 10.2499C64.3275 10.2499 64.4598 10.2646 64.4598 10.3675C64.4598 10.441 64.3863 10.4851 64.2687 10.4851C64.1805 10.4851 64.0629 10.4851 63.8424 10.5439C63.2545 10.6615 63.1957 11.0584 63.1957 12.1167L63.1663 22.4504C63.1663 23.6117 63.1369 23.6999 63.0046 23.6999C62.8576 23.6999 62.6518 23.5088 61.711 22.568C61.5199 22.3916 58.9769 19.8045 57.1101 17.7907C55.0669 15.5858 53.0678 13.3662 52.5092 12.7341L52.7444 21.1716H52.7297Z" fill="#001F33"></path>
  <path d="M68.9587 15.3657C68.9587 12.6169 68.9587 12.1171 68.9293 11.5585C68.8999 10.9558 68.7529 10.6766 68.165 10.559C68.018 10.5296 67.724 10.5002 67.5623 10.5002C67.4888 10.5002 67.4153 10.4708 67.4153 10.3973C67.4153 10.2944 67.5035 10.2503 67.6946 10.2503C68.4883 10.2503 69.6055 10.3091 69.6937 10.3091C69.8995 10.3091 71.0166 10.2503 72.075 10.2503C73.8242 10.2503 77.0434 10.0886 79.1454 12.2641C80.0274 13.1755 80.8506 14.6454 80.8506 16.7474C80.8506 18.967 79.9392 20.6722 78.9396 21.7158C78.1753 22.5096 76.5877 23.7444 73.6038 23.7444C72.8394 23.7444 71.9133 23.6856 71.1489 23.6415C70.3699 23.5827 69.7672 23.5386 69.679 23.5386C69.6496 23.5386 69.3409 23.5386 68.9734 23.5533C68.6206 23.5533 68.2091 23.5827 67.9445 23.5827C67.7534 23.5827 67.6652 23.5533 67.6652 23.4357C67.6652 23.3769 67.6946 23.3328 67.8122 23.3328C67.9739 23.3328 68.1797 23.3034 68.3413 23.2593C68.6941 23.1858 68.7823 22.8036 68.8558 22.2891C68.944 21.5541 68.944 20.1577 68.944 18.4673V15.3657H68.9587ZM70.4434 17.2619C70.4434 19.1287 70.4581 20.7604 70.4728 21.0838C70.4875 21.5247 70.5316 22.2303 70.6639 22.4214C70.8991 22.7595 71.5752 23.127 73.6626 23.127C75.3089 23.127 76.8229 22.5243 77.8519 21.4806C78.7633 20.584 79.263 18.8935 79.263 17.2619C79.263 15.0276 78.2929 13.5723 77.5726 12.8227C75.9116 11.0734 73.9124 10.8382 71.8104 10.8382C71.4576 10.8382 70.8109 10.897 70.6639 10.9558C70.5022 11.0293 70.4581 11.1175 70.4581 11.3086C70.4434 11.9113 70.4434 13.7046 70.4434 15.057V17.2472V17.2619Z" fill="#001F33"></path>
  <path d="M98.1671 21.3039C98.2406 21.936 98.3582 22.9208 99.1226 23.1707C99.6371 23.3324 100.093 23.3324 100.269 23.3324C100.357 23.3324 100.416 23.3471 100.416 23.4206C100.416 23.5235 100.254 23.5823 100.049 23.5823C99.6665 23.5823 97.7555 23.5235 97.1088 23.4794C96.6972 23.45 96.609 23.3912 96.609 23.303C96.609 23.2295 96.6384 23.2001 96.7266 23.1854C96.8148 23.1707 96.8295 22.862 96.8001 22.5533L95.9475 13.4544H95.8887L91.5671 22.6268C91.1996 23.4059 91.1408 23.5676 90.9791 23.5676C90.8615 23.5676 90.7733 23.3912 90.4352 22.7591C89.9795 21.8919 88.4655 18.8491 88.3773 18.6727C88.2156 18.3493 86.2459 14.1305 86.0548 13.6455H85.9813L85.2757 21.8184C85.261 22.0976 85.261 22.421 85.261 22.715C85.261 22.9796 85.4521 23.2148 85.7167 23.2589C86.0107 23.3324 86.2753 23.3471 86.3929 23.3471C86.4664 23.3471 86.5399 23.3765 86.5399 23.4353C86.5399 23.5529 86.437 23.597 86.2165 23.597C85.5697 23.597 84.7171 23.5382 84.5701 23.5382C84.4084 23.5382 83.5706 23.597 83.0855 23.597C82.9091 23.597 82.7915 23.5676 82.7915 23.4353C82.7915 23.3765 82.8797 23.3471 82.9679 23.3471C83.1149 23.3471 83.2325 23.3471 83.4971 23.2883C84.0851 23.1854 84.1292 22.4945 84.2026 21.8184L85.4668 10.3234C85.4815 10.1323 85.555 10 85.6579 10C85.7608 10 85.8343 10.0735 85.9225 10.2646L91.3172 21.348L96.5061 10.2793C96.5796 10.1176 96.6531 10 96.7707 10C96.8883 10 96.9471 10.147 96.9765 10.4704L98.1524 21.2892L98.1671 21.3039Z" fill="#001F33"></path>
  <path d="M106.459 10.6909C106.665 10.1029 106.738 10 106.841 10C106.944 10 107.018 10.0882 107.223 10.6321C107.488 11.3083 110.251 18.5845 111.325 21.2598C111.957 22.8326 112.471 23.1119 112.839 23.2148C113.103 23.303 113.368 23.3177 113.544 23.3177C113.647 23.3177 113.721 23.3324 113.721 23.4206C113.721 23.5235 113.559 23.5676 113.368 23.5676C113.103 23.5676 111.81 23.5676 110.604 23.5382C110.266 23.5235 110.075 23.5235 110.075 23.4206C110.075 23.3471 110.134 23.3177 110.193 23.303C110.296 23.2736 110.398 23.1119 110.296 22.8326L108.649 18.4963C108.649 18.4963 108.576 18.3934 108.488 18.3934H104.695C104.607 18.3934 104.548 18.4522 104.519 18.5404L103.46 21.6567C103.299 22.0976 103.21 22.5239 103.21 22.8326C103.21 23.1854 103.578 23.3471 103.887 23.3471H104.063C104.181 23.3471 104.239 23.3765 104.239 23.45C104.239 23.5529 104.137 23.597 103.975 23.597C103.549 23.597 102.799 23.5382 102.593 23.5382C102.387 23.5382 101.432 23.597 100.594 23.597C100.359 23.597 100.256 23.5676 100.256 23.45C100.256 23.3765 100.329 23.3471 100.418 23.3471C100.535 23.3471 100.785 23.3324 100.932 23.3177C101.741 23.2148 102.093 22.5386 102.417 21.6567L106.415 10.7056L106.459 10.6909ZM108.296 17.7466C108.385 17.7466 108.385 17.6878 108.37 17.629L106.694 12.8664C106.606 12.6018 106.518 12.6018 106.43 12.8664L104.871 17.629C104.842 17.7172 104.871 17.7466 104.93 17.7466H108.296Z" fill="#001F33"></path>
  <path d="M116.277 15.3654C116.277 12.6166 116.277 12.1168 116.247 11.5583C116.218 10.9556 116.071 10.6763 115.483 10.5587C115.336 10.5293 115.042 10.4999 114.88 10.4999C114.807 10.4999 114.733 10.4705 114.733 10.397C114.733 10.2941 114.822 10.25 115.013 10.25C115.806 10.25 116.924 10.3088 117.012 10.3088C117.203 10.3088 118.541 10.25 119.099 10.25C120.216 10.25 121.392 10.3529 122.318 11.0291C122.759 11.3525 123.538 12.205 123.538 13.4251C123.538 14.7333 122.994 16.0269 121.407 17.4968C122.847 19.349 124.053 20.9218 125.067 22.0096C126.023 23.0091 126.772 23.2149 127.213 23.2737C127.551 23.3325 127.801 23.3325 127.904 23.3325C127.992 23.3325 128.066 23.3913 128.066 23.4354C128.066 23.5383 127.963 23.5824 127.64 23.5824H126.39C125.405 23.5824 124.964 23.4942 124.509 23.2443C123.744 22.8327 123.127 21.9802 122.127 20.6572C121.392 19.687 120.554 18.5111 120.202 18.0554C120.128 17.9819 120.084 17.9525 119.966 17.9525L117.791 17.9231C117.703 17.9231 117.673 17.9819 117.673 18.0701V18.4964C117.673 20.1868 117.673 21.5833 117.761 22.3183C117.82 22.8327 117.923 23.2149 118.452 23.2884C118.702 23.3178 119.084 23.3619 119.246 23.3619C119.349 23.3619 119.393 23.4207 119.393 23.4648C119.393 23.553 119.305 23.6118 119.114 23.6118C118.144 23.6118 117.027 23.553 116.938 23.553C116.924 23.553 115.806 23.6118 115.277 23.6118C115.086 23.6118 114.998 23.5824 114.998 23.4648C114.998 23.406 115.027 23.3619 115.145 23.3619C115.307 23.3619 115.512 23.3325 115.674 23.2884C116.027 23.2149 116.115 22.8327 116.189 22.3183C116.277 21.5833 116.277 20.1868 116.277 18.4964V15.3654ZM117.688 16.8942C117.688 16.9823 117.717 17.0558 117.806 17.0999C118.07 17.2616 118.879 17.3792 119.658 17.3792C120.084 17.3792 120.569 17.3204 120.981 17.0411C121.598 16.6149 122.054 15.6594 122.054 14.3217C122.054 12.1168 120.892 10.7939 118.996 10.7939C118.467 10.7939 117.997 10.8527 117.82 10.8968C117.732 10.9262 117.673 10.9997 117.673 11.1026V16.8648L117.688 16.8942Z" fill="#001F33"></path>
  <path d="M129.565 15.3654C129.565 12.6166 129.565 12.1168 129.535 11.5583C129.506 10.9556 129.359 10.6763 128.771 10.5587C128.624 10.5293 128.33 10.4999 128.168 10.4999C128.095 10.4999 128.021 10.4705 128.021 10.397C128.021 10.2941 128.109 10.25 128.301 10.25C129.094 10.25 130.138 10.3088 130.241 10.3088C130.403 10.3088 131.417 10.25 131.946 10.25C132.137 10.25 132.225 10.2794 132.225 10.397C132.225 10.4705 132.152 10.4999 132.078 10.4999C131.961 10.4999 131.843 10.5146 131.637 10.5587C131.167 10.6469 131.02 10.9409 130.991 11.5583C130.961 12.1168 130.961 12.6166 130.961 15.3654V16.4238H131.035C131.329 16.0857 134.533 12.8518 135.165 12.1609C135.665 11.6464 136.121 11.1908 136.121 10.8968C136.121 10.691 136.032 10.5734 135.885 10.5293C135.797 10.4999 135.724 10.4558 135.724 10.3823C135.724 10.2941 135.812 10.2647 135.93 10.2647C136.282 10.2647 136.826 10.3235 137.252 10.3235C137.341 10.3235 138.502 10.2647 138.943 10.2647C139.134 10.2647 139.208 10.2941 139.208 10.3823C139.208 10.4705 139.178 10.4999 139.031 10.4999C138.767 10.4999 138.399 10.5881 138.046 10.7498C137.326 11.0732 136.929 11.5142 136.135 12.2638C135.694 12.6901 132.622 15.6888 132.255 16.1298C132.71 16.6443 136.385 20.4367 137.106 21.0982C138.59 22.4799 138.884 22.7592 139.737 23.112C140.192 23.3031 140.707 23.3472 140.824 23.3472C140.942 23.3472 141.06 23.3766 141.06 23.4501C141.06 23.5383 140.971 23.5971 140.677 23.5971H139.781C139.281 23.5971 138.958 23.5971 138.561 23.5677C137.62 23.4795 137.179 23.0973 136.429 22.4946C135.636 21.8479 131.902 17.8055 131.049 16.7619H130.961V18.4964C130.961 20.1868 130.961 21.5833 131.049 22.3183C131.108 22.8327 131.211 23.2149 131.74 23.2884C131.99 23.3178 132.269 23.3619 132.431 23.3619C132.534 23.3619 132.578 23.4207 132.578 23.4648C132.578 23.553 132.49 23.6118 132.299 23.6118C131.432 23.6118 130.417 23.553 130.27 23.553C130.123 23.553 129.109 23.6118 128.58 23.6118C128.389 23.6118 128.301 23.5824 128.301 23.4648C128.301 23.406 128.33 23.3619 128.448 23.3619C128.609 23.3619 128.815 23.3325 128.977 23.2884C129.33 23.2149 129.418 22.8327 129.491 22.3183C129.579 21.5833 129.579 20.1868 129.579 18.4964V15.3654H129.565Z" fill="#001F33"></path>
  <path d="M83.5258 40.2508C83.5258 38.825 83.4376 38.6339 82.732 38.4281C82.585 38.3987 82.2911 38.3693 82.1294 38.3693C82.0559 38.3693 81.9824 38.3399 81.9824 38.2664C81.9824 38.1635 82.0706 38.1194 82.2617 38.1194C83.0554 38.1194 84.1726 38.1782 84.2608 38.1782C84.349 38.1782 85.4661 38.1194 85.9953 38.1194C86.1864 38.1194 86.2746 38.1488 86.2746 38.2664C86.2746 38.3399 86.2011 38.3693 86.1276 38.3693C86.01 38.3693 85.8924 38.384 85.6866 38.4281C85.2163 38.5163 85.0693 38.8103 85.0399 39.4276C85.0105 39.9862 85.0105 40.5154 85.0105 41.2651V43.2348C85.0105 44.0286 84.9958 44.058 84.7753 44.1903C83.6434 44.7929 82.0559 44.984 81.0416 44.984C79.704 44.984 77.205 44.8076 75.2353 43.1025C74.1623 42.1617 73.1333 40.2802 73.1333 38.0753C73.1333 35.253 74.515 33.2686 76.0732 32.269C77.6607 31.2841 79.41 31.1519 80.7623 31.1519C81.8795 31.1519 83.1289 31.387 83.4523 31.4458C83.8198 31.534 84.4372 31.6075 84.8782 31.6222C85.0546 31.6369 85.084 31.7104 85.084 31.7839C85.084 32.0338 84.9664 32.5189 84.9664 34.2828C84.9664 34.5621 84.937 34.6503 84.8047 34.6503C84.7165 34.6503 84.7018 34.5474 84.6871 34.3857C84.6724 34.1358 84.5842 33.6508 84.3196 33.2245C83.8786 32.5483 82.4528 31.7986 80.1743 31.7986C79.0572 31.7986 77.7342 31.9015 76.3966 32.9599C75.3676 33.7684 74.6473 35.3706 74.6473 37.4432C74.6473 39.9274 75.8968 41.7208 76.5142 42.3234C77.9106 43.6758 79.5129 44.205 81.1298 44.205C81.7619 44.205 82.6879 44.1021 83.1436 43.8375C83.3788 43.7199 83.4964 43.5141 83.4964 43.2201V40.2214L83.5258 40.2508Z" fill="#001F33"></path>
  <path d="M90.3621 36.5334C90.3621 33.7846 90.362 33.2848 90.3326 32.7262C90.3032 32.1235 90.1563 31.8443 89.5683 31.7267C89.4213 31.6973 89.1273 31.6679 88.9656 31.6679C88.8921 31.6679 88.8186 31.6385 88.8186 31.565C88.8186 31.4621 88.9068 31.418 89.0979 31.418C89.8917 31.418 91.0088 31.4768 91.097 31.4768C91.2881 31.4768 92.6258 31.418 93.1843 31.418C94.3015 31.418 95.4775 31.5209 96.4035 32.197C96.8445 32.5204 97.6236 33.373 97.6236 34.5931C97.6236 35.9013 97.0797 37.1949 95.4922 38.6648C96.9327 40.5169 98.1381 42.0898 99.1523 43.1775C100.108 44.1771 100.857 44.3829 101.298 44.4417C101.637 44.5005 101.886 44.5005 101.989 44.5005C102.078 44.5005 102.151 44.5593 102.151 44.6034C102.151 44.7063 102.048 44.7504 101.725 44.7504H100.475C99.4904 44.7504 99.0494 44.6622 98.5937 44.4123C97.8294 44.0007 97.212 43.1481 96.2124 41.8252C95.4775 40.855 94.6396 39.6791 94.2868 39.2234C94.2133 39.1499 94.1692 39.1205 94.0516 39.1205L91.8761 39.0911C91.7879 39.0911 91.7585 39.1499 91.7585 39.2381V39.6644C91.7585 41.3548 91.7585 42.7512 91.8467 43.4862C91.9055 44.0007 92.0084 44.3829 92.5376 44.4564C92.7875 44.4858 93.1696 44.5299 93.3313 44.5299C93.4342 44.5299 93.4783 44.5887 93.4783 44.6328C93.4783 44.721 93.3901 44.7798 93.199 44.7798C92.2289 44.7798 91.1117 44.721 91.0235 44.721C91.0088 44.721 89.8917 44.7798 89.3625 44.7798C89.1714 44.7798 89.0832 44.7504 89.0832 44.6328C89.0832 44.574 89.1126 44.5299 89.2302 44.5299C89.3919 44.5299 89.5977 44.5005 89.7594 44.4564C90.1122 44.3829 90.2004 44.0007 90.2739 43.4862C90.3621 42.7512 90.3621 41.3548 90.3621 39.6644V36.5628V36.5334ZM91.7732 38.0621C91.7732 38.1503 91.8026 38.2238 91.8908 38.2679C92.1554 38.4296 92.9638 38.5472 93.7429 38.5472C94.1692 38.5472 94.6543 38.4884 95.0659 38.2091C95.6832 37.7828 96.1389 36.8274 96.1389 35.4897C96.1389 33.2848 94.9777 31.9618 93.0814 31.9618C92.5523 31.9618 92.0819 32.0206 91.9055 32.0647C91.8173 32.0941 91.7585 32.1676 91.7585 32.2705V38.0327L91.7732 38.0621Z" fill="#001F33"></path>
  <path d="M108.854 31.168C112.823 31.168 115.778 33.6669 115.778 37.7827C115.778 41.8986 112.985 45.0002 108.737 45.0002C103.9 45.0002 101.901 41.2518 101.901 38.0767C101.901 35.225 103.989 31.1827 108.854 31.1827V31.168ZM109.222 44.324C110.809 44.324 114.087 43.4126 114.087 38.2825C114.087 34.0491 111.515 31.7706 108.722 31.7706C105.782 31.7706 103.577 33.711 103.577 37.5769C103.577 41.6781 106.047 44.324 109.222 44.324Z" fill="#001F33"></path>
  <path d="M119.042 36.5334C119.042 33.7846 119.042 33.2848 119.013 32.7262C118.983 32.1235 118.836 31.8443 118.248 31.7267C118.101 31.6973 117.807 31.6679 117.646 31.6679C117.572 31.6679 117.499 31.6385 117.499 31.565C117.499 31.4621 117.587 31.418 117.778 31.418C118.572 31.418 119.645 31.4768 119.807 31.4768C119.968 31.4768 121.027 31.418 121.556 31.418C121.747 31.418 121.835 31.4474 121.835 31.565C121.835 31.6385 121.762 31.6679 121.688 31.6679C121.571 31.6679 121.453 31.6826 121.247 31.7267C120.777 31.8002 120.63 32.1088 120.6 32.7262C120.571 33.2848 120.571 33.7846 120.571 36.5334V39.0029C120.571 41.5459 121.13 42.6337 121.894 43.3539C122.761 44.1624 123.555 44.3241 124.555 44.3241C125.628 44.3241 126.686 43.8096 127.318 43.0599C128.126 42.0604 128.347 40.561 128.347 38.7383V36.5334C128.347 33.7846 128.347 33.2848 128.318 32.7262C128.288 32.1235 128.141 31.8443 127.553 31.7267C127.406 31.6973 127.112 31.6679 126.951 31.6679C126.877 31.6679 126.804 31.6385 126.804 31.565C126.804 31.4621 126.892 31.418 127.083 31.418C127.877 31.418 128.847 31.4768 128.95 31.4768C129.067 31.4768 129.905 31.418 130.434 31.418C130.625 31.418 130.714 31.4474 130.714 31.565C130.714 31.6385 130.64 31.6679 130.567 31.6679C130.449 31.6679 130.331 31.6826 130.126 31.7267C129.655 31.8296 129.508 32.1088 129.479 32.7262C129.449 33.2848 129.449 33.7846 129.449 36.5334V38.4149C129.449 40.3111 129.244 42.4279 127.833 43.692C126.568 44.8239 125.245 45.0003 124.202 45.0003C123.599 45.0003 121.82 44.9268 120.571 43.7508C119.704 42.9276 119.042 41.6929 119.042 39.1205V36.5481V36.5334Z" fill="#001F33"></path>
  <path d="M134.71 36.5334C134.71 33.7846 134.71 33.2848 134.68 32.7262C134.651 32.1235 134.504 31.8443 133.916 31.7267C133.769 31.6973 133.475 31.6679 133.313 31.6679C133.24 31.6679 133.166 31.6385 133.166 31.565C133.166 31.4621 133.254 31.418 133.446 31.418C134.239 31.418 135.298 31.4768 135.445 31.4768C135.827 31.4768 136.856 31.418 137.664 31.418C139.869 31.418 140.663 32.1529 140.942 32.4175C141.324 32.785 141.824 33.5788 141.824 34.5196C141.824 37.0185 139.987 38.7089 137.488 38.7089C137.4 38.7089 137.209 38.7089 137.12 38.6942C137.032 38.6942 136.929 38.6648 136.929 38.5766C136.929 38.4296 137.032 38.4149 137.4 38.4149C139.105 38.4149 140.457 37.1655 140.457 35.5338C140.457 34.9458 140.398 33.7699 139.472 32.8144C138.532 31.859 137.459 31.9325 137.062 31.9325C136.768 31.9325 136.459 31.9618 136.297 32.0353C136.194 32.0647 136.15 32.197 136.15 32.3734V39.6203C136.15 41.3107 136.15 42.7071 136.238 43.4421C136.297 43.9566 136.4 44.3388 136.929 44.4123C137.179 44.4417 137.561 44.4858 137.723 44.4858C137.826 44.4858 137.87 44.5446 137.87 44.5887C137.87 44.6769 137.782 44.7357 137.591 44.7357C136.621 44.7357 135.503 44.6769 135.415 44.6769C135.356 44.6769 134.254 44.7357 133.725 44.7357C133.534 44.7357 133.446 44.7063 133.446 44.5887C133.446 44.5299 133.475 44.4858 133.593 44.4858C133.754 44.4858 133.96 44.4564 134.122 44.4123C134.475 44.3388 134.563 43.9566 134.636 43.4421C134.724 42.7071 134.724 41.3107 134.724 39.6203V36.5187L134.71 36.5334Z" fill="#001F33"></path>
  <path d="M9.77262 10V12.4067L9.49368 12.4214C6.67553 12.569 4.18925 14.3133 3.09134 16.913H19.0466L19.3957 19.3709H0L0.416561 17.5782C0.828725 15.8044 1.72723 14.1806 3.01117 12.8891L3.14152 12.758C4.89664 10.9926 7.28325 10 9.77262 10Z" fill="#001F33"></path>
  <path d="M19.3957 20.0234L18.8971 22.6235H3.24092L3.52893 23.165C4.12392 24.2838 5.0107 25.2264 6.08969 25.8909C8.52591 27.391 11.635 27.2896 13.9609 25.6235L9.87234 25.8236V23.2235H18.6478L18.4095 23.7811C17.6871 25.4713 16.4796 26.9093 14.9397 27.9131C11.5867 30.0987 7.21078 29.8913 4.07958 27.3983L3.79171 27.1691C2.04748 25.7804 0.828896 23.8384 0.337072 21.6638L0 20.1734L19.3957 20.0234Z" fill="#001F33"></path>
</svg>
