<?xml version="1.0" encoding="UTF-8"?>
<svg xmlns="http://www.w3.org/2000/svg" width="136" height="41" viewBox="0 0 136 41" fill="none">
  <path d="M39.5717 27.9438C39.5717 28.7018 39.1087 29.2901 38.3595 29.478C39.261 29.6478 39.8214 30.327 39.8214 31.2428C39.8214 32.4374 38.8103 33.1773 37.1778 33.1773H33.8398V26.1973H37.0682C38.6093 26.1973 39.5717 26.8643 39.5717 27.9438ZM37.9514 28.2288C37.9514 27.7497 37.5799 27.4829 36.989 27.4829H35.4236V29.0111H36.989C37.5799 29.0111 37.9514 28.72 37.9514 28.2288ZM38.189 31.0426C38.189 30.5332 37.7382 30.224 36.989 30.224H35.4236V31.8916H36.989C37.7382 31.8916 38.189 31.5824 38.189 31.0426Z" fill="#001F33"></path>
  <path d="M43.8224 33.1775V32.5468C43.463 32.9956 42.8783 33.2442 42.1291 33.2442C40.9778 33.2442 40.2773 32.5468 40.2773 31.5705C40.2773 30.5638 41.0083 29.9635 42.3301 29.9513H43.8102V29.8543C43.8102 29.2843 43.4326 28.9568 42.6895 28.9568C42.2083 28.9568 41.6479 29.1145 41.0875 29.4237L40.6063 28.3686C41.4103 27.9683 42.0986 27.75 43.0428 27.75C44.4864 27.75 45.3148 28.4656 45.327 29.6724L45.3391 33.1715H43.8224V33.1775ZM43.8163 31.3461V30.867H42.6042C42.0133 30.867 41.721 31.049 41.721 31.4735C41.721 31.8798 42.0438 32.1527 42.5615 32.1527C43.2133 32.1527 43.725 31.8009 43.8163 31.3461Z" fill="#001F33"></path>
  <path d="M48.174 28.8721C47.8147 28.8721 47.5527 28.9934 47.5527 29.2723C47.5527 30.0789 50.3973 29.6726 50.3852 31.5646C50.3852 32.6623 49.4106 33.2384 48.1923 33.2384C47.3213 33.2384 46.4685 32.9776 45.8594 32.4925L46.3589 31.4555C46.9192 31.886 47.6441 32.1225 48.235 32.1225C48.6248 32.1225 48.9172 31.9952 48.9172 31.7041C48.9172 30.8491 46.1213 31.3039 46.1213 29.4179C46.1213 28.3081 47.0715 27.7441 48.2471 27.7441C48.9903 27.7441 49.7517 27.9625 50.3486 28.3445L49.8187 29.3936C49.2278 29.0601 48.6248 28.8721 48.174 28.8721Z" fill="#001F33"></path>
  <path d="M54.5016 27.75V29.1933C53.3991 29.0963 52.7169 29.6845 52.7169 30.5881V33.1715H51.1758V27.8046H52.7169V28.7749C53.0884 28.1199 53.6975 27.7621 54.5016 27.75Z" fill="#001F33"></path>
  <path d="M58.0412 33.1775V32.5468C57.6818 32.9956 57.097 33.2442 56.3478 33.2442C55.1966 33.2442 54.4961 32.5468 54.4961 31.5705C54.4961 30.5638 55.227 29.9635 56.5488 29.9513H58.029V29.8543C58.029 29.2843 57.6513 28.9568 56.9082 28.9568C56.427 28.9568 55.8666 29.1145 55.3062 29.4237L54.825 28.3686C55.6291 27.9683 56.3174 27.75 57.2615 27.75C58.7051 27.75 59.5335 28.4656 59.5457 29.6724L59.5579 33.1715H58.0412V33.1775ZM58.029 31.3461V30.867H56.8168C56.226 30.867 55.9336 31.049 55.9336 31.4735C55.9336 31.8798 56.2565 32.1527 56.7742 32.1527C57.426 32.1527 57.9376 31.8009 58.029 31.3461Z" fill="#001F33"></path>
  <path d="M66.076 29.806V33.1777H64.535V30.2547C64.535 29.5755 64.1329 29.1571 63.4751 29.1571C62.7015 29.1692 62.2325 29.7453 62.2325 30.5337V33.1777H60.6914V25.7793H62.2325V28.7629C62.6101 28.0959 63.2558 27.7684 64.0964 27.7563C65.3085 27.7502 66.076 28.5507 66.076 29.806Z" fill="#001F33"></path>
  <path d="M74.0539 29.6597H75.4244V32.3401C74.6813 32.8798 73.5484 33.2497 72.5799 33.2497C70.454 33.2497 68.8398 31.7154 68.8398 29.69C68.8398 27.6766 70.4845 26.1484 72.6651 26.1484C73.7067 26.1484 74.7666 26.5487 75.4793 27.1672L74.59 28.2952C74.0661 27.8161 73.3473 27.519 72.6651 27.519C71.4225 27.519 70.4601 28.465 70.4601 29.696C70.4601 30.9331 71.4347 31.8792 72.6773 31.8792C73.0976 31.8792 73.5971 31.7276 74.0478 31.5032V29.6597H74.0539Z" fill="#001F33"></path>
  <path d="M79.6584 33.1775V32.5468C79.299 32.9956 78.7142 33.2442 77.965 33.2442C76.8138 33.2442 76.1133 32.5468 76.1133 31.5705C76.1133 30.5638 76.8442 29.9635 78.166 29.9513H79.6462V29.8543C79.6462 29.2843 79.2685 28.9568 78.5254 28.9568C78.0442 28.9568 77.4838 29.1145 76.9234 29.4237L76.4422 28.3686C77.2462 27.9683 77.9346 27.75 78.8787 27.75C80.3223 27.75 81.1507 28.4656 81.1629 29.6724L81.1751 33.1715H79.6584V33.1775ZM79.6523 31.3461V30.867H78.4401C77.8493 30.867 77.5569 31.049 77.5569 31.4735C77.5569 31.8798 77.8797 32.1527 78.3975 32.1527C79.0492 32.1527 79.5609 31.8009 79.6523 31.3461Z" fill="#001F33"></path>
  <path d="M84.0139 28.8721C83.6545 28.8721 83.3926 28.9934 83.3926 29.2723C83.3926 30.0789 86.2372 29.6726 86.225 31.5646C86.225 32.6623 85.2504 33.2384 84.0321 33.2384C83.1611 33.2384 82.3083 32.9776 81.6992 32.4925L82.1987 31.4555C82.7591 31.886 83.4839 32.1225 84.0748 32.1225C84.4646 32.1225 84.757 31.9952 84.757 31.7041C84.757 30.8491 81.9611 31.3039 81.9611 29.4179C81.9611 28.3081 82.9114 27.7441 84.087 27.7441C84.8301 27.7441 85.5915 27.9625 86.1884 28.3445L85.6585 29.3936C85.0616 29.0601 84.4646 28.8721 84.0139 28.8721Z" fill="#001F33"></path>
  <path d="M92.4614 27.5129C91.2614 27.5129 90.3295 28.4407 90.3295 29.6597C90.3295 30.8786 91.2614 31.8125 92.4614 31.8125C93.0949 31.8125 93.7832 31.4911 94.2827 30.9938L95.2146 32.0005C94.4715 32.7585 93.3994 33.2497 92.3822 33.2497C90.2868 33.2497 88.7031 31.7033 88.7031 29.6778C88.7031 27.6645 90.3173 26.1484 92.4431 26.1484C93.4543 26.1484 94.5141 26.5972 95.2085 27.3067L94.2888 28.4225C93.8015 27.8707 93.1132 27.5129 92.4614 27.5129Z" fill="#001F33"></path>
  <path d="M101.062 30.4967C101.062 32.1341 99.8984 33.2378 98.1746 33.2378C96.4386 33.2378 95.2812 32.128 95.2812 30.4967C95.2812 28.8533 96.4447 27.7617 98.1746 27.7617C99.8984 27.7617 101.062 28.8472 101.062 30.4967ZM96.8284 30.5149C96.8284 31.3942 97.3705 31.9885 98.1685 31.9885C98.9603 31.9885 99.5085 31.3882 99.5085 30.5149C99.5085 29.6356 98.9603 29.0413 98.1685 29.0413C97.3705 29.0413 96.8284 29.6356 96.8284 30.5149Z" fill="#001F33"></path>
  <path d="M110.912 29.8058V33.1775H109.377V30.2546C109.377 29.5693 108.975 29.1569 108.335 29.1569C107.592 29.169 107.141 29.7451 107.141 30.5214V33.1775H105.606V30.2546C105.606 29.5693 105.204 29.1569 104.577 29.1569C103.828 29.169 103.377 29.7451 103.377 30.5214V33.1775H101.836V27.8106H103.377V28.7385C103.755 28.0775 104.388 27.7621 105.198 27.75C106.112 27.75 106.764 28.2109 107.02 28.9871C107.373 28.1563 108.049 27.7621 108.963 27.75C110.163 27.75 110.912 28.5505 110.912 29.8058Z" fill="#001F33"></path>
  <path d="M117.831 30.527C117.831 32.1523 116.838 33.2378 115.328 33.2378C114.579 33.2378 113.988 32.9406 113.592 32.4009V35.1116H112.051V27.8102H113.592V28.5986C113.97 28.0589 114.566 27.7617 115.297 27.7617C116.808 27.7617 117.831 28.8715 117.831 30.527ZM116.266 30.4725C116.266 29.6174 115.724 28.9988 114.932 28.9988C114.14 28.9988 113.592 29.6053 113.592 30.4725C113.592 31.3578 114.146 31.9582 114.932 31.9582C115.724 31.9582 116.266 31.3518 116.266 30.4725Z" fill="#001F33"></path>
  <path d="M121.729 33.1775V32.5468C121.369 32.9956 120.785 33.2442 120.035 33.2442C118.884 33.2442 118.184 32.5468 118.184 31.5705C118.184 30.5638 118.915 29.9635 120.236 29.9513H121.716V29.8543C121.716 29.2843 121.339 28.9568 120.596 28.9568C120.115 28.9568 119.554 29.1145 118.994 29.4237L118.513 28.3686C119.317 27.9683 120.005 27.75 120.949 27.75C122.393 27.75 123.221 28.4656 123.233 29.6724L123.245 33.1715H121.729V33.1775ZM121.716 31.3461V30.867H120.504C119.913 30.867 119.621 31.049 119.621 31.4735C119.621 31.8798 119.944 32.1527 120.462 32.1527C121.12 32.1527 121.625 31.8009 121.716 31.3461Z" fill="#001F33"></path>
  <path d="M129.708 29.8056V33.1774H128.167V30.2544C128.167 29.5752 127.765 29.1567 127.107 29.1567C126.334 29.1689 125.877 29.745 125.877 30.5333V33.1774H124.336V27.8105H125.877V28.7504C126.255 28.0834 126.9 27.762 127.741 27.7559C128.935 27.7498 129.708 28.5503 129.708 29.8056Z" fill="#001F33"></path>
  <path d="M131.336 35.1847C130.763 35.1847 130.312 35.027 129.874 34.6632L130.526 33.5534C130.763 33.7535 130.976 33.8445 131.226 33.8445C131.549 33.8445 131.786 33.6868 131.939 33.3654L132.091 33.0683L129.855 27.8105H131.445L132.858 31.5037L134.131 27.8105H135.673L133.309 33.7778C132.925 34.7238 132.268 35.1847 131.336 35.1847Z" fill="#001F33"></path>
  <path d="M36.1023 21.0974C35.7185 21.0974 35.3774 21.0367 35.0729 20.9215C34.7744 20.8063 34.5186 20.6486 34.3115 20.4485C34.1044 20.2484 33.946 20.0119 33.8363 19.7451C33.7267 19.4782 33.6719 19.1932 33.6719 18.8839C33.6719 18.5504 33.7084 18.2472 33.7876 17.9622C33.8607 17.6832 33.9643 17.4285 34.0922 17.2041C34.2201 16.9797 34.3663 16.7857 34.5368 16.6159C34.7074 16.4461 34.8901 16.3066 35.0789 16.1914C35.2678 16.0762 35.4627 15.9913 35.6637 15.9367C35.8647 15.8821 36.0535 15.8518 36.2485 15.8518C36.5469 15.8518 36.8454 15.9124 37.1439 16.0398C37.4423 16.1671 37.7104 16.3551 37.9479 16.6038C38.1855 16.8524 38.3804 17.1738 38.5266 17.5498C38.6728 17.9318 38.752 18.3745 38.752 18.8839C38.752 19.1689 38.6971 19.4418 38.5875 19.7087C38.4778 19.9755 38.3195 20.212 38.1124 20.4182C37.9053 20.6244 37.6616 20.7881 37.3692 20.9094C37.0769 21.0307 36.754 21.0913 36.3946 21.0913H36.1023V21.0974ZM34.5064 14.0082C34.5064 13.8991 34.5246 13.8021 34.5673 13.7111C34.6038 13.6201 34.6587 13.5413 34.7317 13.4685C34.7988 13.4018 34.884 13.3472 34.9754 13.3048C35.0668 13.2623 35.1642 13.2441 35.2739 13.2441C35.3835 13.2441 35.481 13.2623 35.5723 13.3048C35.6637 13.3472 35.7429 13.4018 35.816 13.4685C35.883 13.5352 35.9378 13.6201 35.9804 13.7111C36.017 13.8021 36.0414 13.8991 36.0414 14.0082C36.0414 14.1174 36.0231 14.2144 35.9804 14.3054C35.9378 14.3964 35.8891 14.4752 35.816 14.548C35.749 14.6147 35.6637 14.6692 35.5723 14.7117C35.481 14.7541 35.3835 14.7723 35.2739 14.7723C35.1642 14.7723 35.0668 14.7541 34.9754 14.7117C34.884 14.6753 34.8048 14.6207 34.7317 14.548C34.6647 14.4813 34.6099 14.3964 34.5673 14.3054C34.5307 14.2144 34.5064 14.1113 34.5064 14.0082ZM35.1033 18.6899C35.1033 19.0659 35.2008 19.3448 35.4018 19.5267C35.6028 19.7087 35.8708 19.7996 36.2058 19.7996H36.3337C36.4921 19.7996 36.6322 19.7693 36.7479 19.7087C36.8698 19.648 36.9672 19.5692 37.0403 19.4661C37.1195 19.363 37.1743 19.2478 37.2109 19.1144C37.2474 18.981 37.2657 18.8354 37.2657 18.6899C37.2657 18.417 37.2352 18.1744 37.1682 17.9682C37.1073 17.762 37.022 17.5862 36.9185 17.4528C36.8149 17.3133 36.7053 17.2102 36.5835 17.1374C36.4617 17.0646 36.3398 17.0283 36.2241 17.0283C36.084 17.0283 35.9439 17.0646 35.8099 17.1313C35.6759 17.1981 35.5541 17.3011 35.4444 17.4406C35.3348 17.5801 35.2495 17.7499 35.1886 17.9561C35.1399 18.1623 35.1033 18.4109 35.1033 18.6899ZM36.2972 14.0082C36.2972 13.8991 36.3155 13.8021 36.3581 13.7111C36.3946 13.6201 36.4495 13.5413 36.5226 13.4685C36.5957 13.3957 36.6748 13.3472 36.7662 13.3048C36.8576 13.2684 36.955 13.2441 37.0647 13.2441C37.1743 13.2441 37.2718 13.2623 37.3632 13.3048C37.4545 13.3472 37.5337 13.4018 37.6068 13.4685C37.6738 13.5352 37.7286 13.6201 37.7713 13.7111C37.8078 13.8021 37.8322 13.8991 37.8322 14.0082C37.8322 14.1174 37.8139 14.2144 37.7713 14.3054C37.7286 14.3964 37.6738 14.4752 37.6068 14.548C37.5398 14.6147 37.4545 14.6692 37.3632 14.7117C37.2718 14.7541 37.1743 14.7723 37.0647 14.7723C36.955 14.7723 36.8576 14.7541 36.7662 14.7117C36.6748 14.6753 36.5957 14.6207 36.5226 14.548C36.4495 14.4752 36.4007 14.3964 36.3581 14.3054C36.3155 14.2144 36.2972 14.1113 36.2972 14.0082Z" fill="#001F33"></path>
  <path d="M40.1719 22.2239C40.5191 22.1572 40.7993 22.0723 41.0125 21.9692C41.2257 21.8661 41.3901 21.7388 41.5119 21.5872C41.6277 21.4356 41.7069 21.2536 41.7495 21.0475C41.7921 20.8413 41.8104 20.5987 41.8104 20.3197V16.2324H43.3576V19.7922H44.5515C44.6611 19.7922 44.7525 19.7982 44.8134 19.8164C44.8743 19.8346 44.923 19.8589 44.9535 19.8952C44.9839 19.9316 45.0022 19.9741 45.0083 20.0287C45.0144 20.0832 45.0144 20.1439 45.0144 20.2227V20.6351C45.0144 20.7382 45.0083 20.817 44.9961 20.8777C44.9839 20.9383 44.9596 20.9808 44.923 21.0171C44.8865 21.0475 44.8377 21.0717 44.7829 21.0778C44.722 21.0899 44.6489 21.0899 44.5515 21.0899H43.2723C43.2114 21.472 43.1018 21.7994 42.9617 22.0723C42.8155 22.3513 42.6266 22.5817 42.3891 22.7758C42.1515 22.9698 41.8652 23.1275 41.5363 23.2488C41.2074 23.3701 40.8175 23.4671 40.379 23.5338L40.1719 22.2239Z" fill="#001F33"></path>
  <path d="M52.4954 19.1444C52.4954 19.2535 52.4893 19.3566 52.4771 19.4658C52.6903 19.5931 52.9279 19.678 53.1776 19.7205C53.4274 19.7629 53.6649 19.7872 53.8903 19.7993C53.9877 19.5507 54.1096 19.2778 54.2558 18.9867C54.4019 18.6956 54.5786 18.3985 54.7796 18.1013C54.9806 17.8042 55.206 17.5191 55.4618 17.2402C55.7176 16.9612 55.9918 16.7186 56.2963 16.5064C56.6009 16.2941 56.9237 16.1243 57.277 15.9909C57.6303 15.8636 58.0079 15.7969 58.41 15.7969C58.8729 15.7969 59.2749 15.8757 59.616 16.0334C59.951 16.1911 60.2312 16.4094 60.4505 16.6883C60.6698 16.9673 60.8343 17.2887 60.9378 17.6647C61.0414 18.0407 61.0962 18.447 61.0962 18.8775V19.7932H62.1561C62.2657 19.7932 62.3571 19.7993 62.418 19.8175C62.4789 19.8357 62.5276 19.8599 62.5581 19.8963C62.5885 19.9327 62.6068 19.9752 62.6129 20.0297C62.619 20.0843 62.619 20.145 62.619 20.2238V20.6362C62.619 20.7393 62.6129 20.8181 62.6007 20.8787C62.5885 20.9394 62.5642 20.9818 62.5276 21.0182C62.4911 21.0485 62.4424 21.0728 62.3875 21.0789C62.3266 21.091 62.2535 21.091 62.1561 21.091H54.4994C53.9695 21.091 53.5065 21.0425 53.1106 20.9515C52.7147 20.8606 52.3858 20.7029 52.1238 20.4846C51.9837 20.6665 51.8071 20.812 51.5817 20.9212C51.3563 21.0304 51.0822 21.0849 50.7411 21.0849H44.5098C44.4123 21.0849 44.3393 21.0789 44.2783 21.0728C44.2174 21.0607 44.1687 21.0425 44.1382 21.0122C44.1017 20.9818 44.0773 20.9333 44.0651 20.8727C44.053 20.812 44.0469 20.7332 44.0469 20.6301V20.2177C44.0469 20.145 44.053 20.0783 44.053 20.0237C44.0591 19.9691 44.0773 19.9267 44.1078 19.8903C44.1382 19.8539 44.1809 19.8296 44.2418 19.8114C44.3027 19.7932 44.3941 19.7872 44.5037 19.7872H44.9788C45.1067 19.7872 50.4487 19.775 50.5462 19.7447C50.6376 19.7144 50.7168 19.672 50.7716 19.6052C50.8264 19.5385 50.869 19.4536 50.8995 19.3445C50.93 19.2353 50.9421 19.0958 50.9421 18.9321V17.41H52.4893V19.1444H52.4954ZM59.5551 19.0049C59.5551 18.635 59.5186 18.3317 59.4394 18.0831C59.3663 17.8345 59.2627 17.6344 59.1348 17.4888C59.0069 17.3433 58.8546 17.2341 58.6841 17.1735C58.5074 17.1128 58.3247 17.0764 58.1298 17.0764C57.8618 17.0764 57.5937 17.1492 57.3257 17.2948C57.0516 17.4403 56.7958 17.6404 56.5521 17.8891C56.3085 18.1377 56.0831 18.4288 55.8821 18.7562C55.6811 19.0837 55.5105 19.4354 55.3826 19.7993H59.5551V19.0049Z" fill="#001F33"></path>
  <path d="M65.0612 19.1448C65.0612 19.2176 65.0612 19.2843 65.0552 19.3571C65.0491 19.4238 65.043 19.4965 65.0369 19.5633C65.2318 19.6421 65.4389 19.7027 65.6643 19.7391C65.8896 19.7755 66.1211 19.7998 66.3648 19.7998H66.4135C66.5231 19.7998 66.6145 19.8058 66.6754 19.824C66.7363 19.8422 66.7851 19.8665 66.8155 19.9029C66.846 19.9392 66.8642 19.9817 66.8703 20.0363C66.8764 20.0908 66.8764 20.1515 66.8764 20.2303V20.6427C66.8764 20.7458 66.8703 20.8246 66.8582 20.8853C66.846 20.9459 66.8216 20.9884 66.7851 21.0247C66.7485 21.0551 66.6998 21.0793 66.645 21.0854C66.584 21.0975 66.511 21.0975 66.4135 21.0975H66.3465C65.9506 21.0975 65.6094 21.0551 65.3293 20.9641C65.0491 20.8731 64.8054 20.7579 64.5922 20.6124C64.4521 20.764 64.2816 20.8792 64.0745 20.9702C63.8674 21.0551 63.6176 21.0975 63.3192 21.0975H62.1192C62.0217 21.0975 61.9486 21.0915 61.8877 21.0854C61.8268 21.0733 61.7781 21.0551 61.7476 21.0247C61.7111 20.9944 61.6867 20.9459 61.6745 20.8853C61.6623 20.8246 61.6562 20.7458 61.6562 20.6427V20.2303C61.6562 20.1576 61.6623 20.0908 61.6623 20.0363C61.6684 19.9817 61.6867 19.9392 61.7172 19.9029C61.7476 19.8665 61.7903 19.8422 61.8512 19.824C61.9121 19.8058 62.0034 19.7998 62.1131 19.7998H62.7831C62.9171 19.7998 63.0268 19.7876 63.1181 19.7573C63.2095 19.727 63.2887 19.6845 63.3435 19.6178C63.3983 19.5511 63.441 19.4662 63.4714 19.3571C63.5019 19.2479 63.5141 19.1084 63.5141 18.9447V16.2461H65.0612V19.1448ZM63.5384 22.7955C63.5384 22.6864 63.5567 22.5893 63.5993 22.4984C63.6359 22.4074 63.6907 22.3286 63.7638 22.2558C63.8308 22.1891 63.9161 22.1345 64.0075 22.0921C64.0988 22.0496 64.1963 22.0314 64.3059 22.0314C64.4156 22.0314 64.513 22.0496 64.6044 22.0921C64.6958 22.1345 64.775 22.1891 64.8481 22.2558C64.9151 22.3225 64.9699 22.4074 65.0125 22.4984C65.0491 22.5893 65.0734 22.6864 65.0734 22.7955C65.0734 22.9047 65.0552 23.0017 65.0125 23.0927C64.976 23.1836 64.9211 23.2625 64.8481 23.3352C64.781 23.4019 64.6958 23.4565 64.6044 23.499C64.513 23.5414 64.4156 23.5596 64.3059 23.5596C64.1963 23.5596 64.0988 23.5414 64.0075 23.499C63.9161 23.4626 63.8369 23.408 63.7638 23.3352C63.6968 23.2685 63.642 23.1836 63.5993 23.0927C63.5567 23.0017 63.5384 22.9047 63.5384 22.7955Z" fill="#001F33"></path>
  <path d="M66.3614 21.0963C66.2639 21.0963 66.1908 21.0902 66.1299 21.0842C66.069 21.072 66.0203 21.0538 65.9898 21.0235C65.9533 20.9932 65.9289 20.9447 65.9167 20.884C65.9045 20.8234 65.8984 20.7446 65.8984 20.6415V20.2291C65.8984 20.1563 65.9045 20.0896 65.9045 20.035C65.9106 19.9805 65.9289 19.938 65.9593 19.9016C65.9898 19.8652 66.0324 19.841 66.0934 19.8228C66.1543 19.8046 66.2456 19.7985 66.3553 19.7985H67.7745V12.582H69.3217V21.0963H66.3614Z" fill="#001F33"></path>
  <path d="M71.7891 12.582H73.3362V21.0963H71.7891V12.582Z" fill="#001F33"></path>
  <path d="M76.1875 22.2253C76.5347 22.1586 76.8149 22.0737 77.0281 21.9706C77.2413 21.8676 77.4118 21.7402 77.5276 21.5886C77.6494 21.437 77.7286 21.2551 77.7712 21.0489C77.8138 20.8427 77.8321 20.6001 77.8321 20.3212V16.2338H79.3793V20.0119C79.3793 20.588 79.3245 21.0792 79.2148 21.4855C79.1052 21.8918 78.9285 22.2375 78.6849 22.5164C78.4412 22.7954 78.1306 23.0137 77.7529 23.1714C77.3753 23.3351 76.9184 23.4564 76.3824 23.5413L76.1875 22.2253ZM77.8382 14.0082C77.8382 13.8991 77.8565 13.8021 77.8991 13.7111C77.9357 13.6201 77.9905 13.5413 78.0636 13.4685C78.1306 13.4018 78.2159 13.3472 78.3072 13.3048C78.3986 13.2684 78.4961 13.2441 78.6057 13.2441C78.7153 13.2441 78.8128 13.2623 78.9042 13.3048C78.9955 13.3472 79.0747 13.4018 79.1478 13.4685C79.2148 13.5352 79.2696 13.6201 79.3123 13.7111C79.3488 13.8021 79.3732 13.8991 79.3732 14.0082C79.3732 14.1174 79.3549 14.2144 79.3123 14.3054C79.2696 14.3964 79.2148 14.4752 79.1478 14.548C79.0808 14.6147 78.9955 14.6692 78.9042 14.7117C78.8128 14.7541 78.7153 14.7723 78.6057 14.7723C78.4961 14.7723 78.3986 14.7541 78.3072 14.7117C78.2159 14.6753 78.1367 14.6207 78.0636 14.548C77.9966 14.4813 77.9418 14.3964 77.8991 14.3054C77.8565 14.2144 77.8382 14.1113 77.8382 14.0082Z" fill="#001F33"></path>
  <path d="M81.885 12.582H83.4322V18.7979C83.4322 18.998 83.4444 19.1618 83.4748 19.2891C83.5053 19.4165 83.5479 19.5196 83.6027 19.5923C83.6575 19.6651 83.7367 19.7197 83.822 19.75C83.9134 19.7803 84.0169 19.7925 84.1327 19.7925H84.425C84.5347 19.7925 84.626 19.7985 84.687 19.8167C84.7479 19.8349 84.7966 19.8592 84.8271 19.8956C84.8575 19.9319 90.3579 19.9744 90.364 20.029C90.3701 20.0835 90.3701 20.1442 90.3701 20.223V20.6354C90.3701 20.7385 90.364 20.8173 90.3518 20.878C90.3396 20.9386 84.8332 20.9811 84.7966 21.0174C84.7601 21.0478 84.7113 21.072 84.6565 21.0781C84.5956 21.0902 84.5164 21.0902 84.425 21.0902H83.7611C83.4261 21.0902 83.1459 21.0417 82.9083 20.9507C82.6708 20.8598 82.4759 20.7203 82.3236 20.5505C82.1713 20.3807 82.0616 20.1684 81.9886 19.9259C81.9155 19.6833 81.8789 19.4165 81.8789 19.1254V12.582H81.885Z" fill="#001F33"></path>
  <path d="M94.8386 17.5073C94.7777 17.4891 94.6924 17.4649 94.5949 17.4406C94.4975 17.4164 94.3939 17.3921 94.2782 17.3679C94.1625 17.3436 94.0467 17.3254 93.9249 17.3072C93.8031 17.289 93.6812 17.283 93.5655 17.283C93.4376 17.283 93.3097 17.3011 93.1696 17.3375C93.0356 17.3739 92.9138 17.4346 92.798 17.5195C92.6823 17.6044 92.5909 17.7196 92.5239 17.8651C92.4508 18.0107 92.4143 18.1926 92.4143 18.417C92.4143 18.6171 92.4447 18.8051 92.5117 18.9688C92.5787 19.1386 92.6701 19.2842 92.7919 19.4055C92.9138 19.5267 93.0539 19.6238 93.2244 19.6905C93.3889 19.7572 93.5777 19.7936 93.7787 19.7936H95.4721V21.0913H84.4043C84.3069 21.0913 84.2338 21.0853 84.1729 21.0792C84.112 21.0671 84.0632 21.0489 84.0328 21.0186C83.9962 20.9882 83.9719 20.9397 83.9597 20.8791C83.9475 20.8184 83.9414 20.7396 83.9414 20.6365V20.2241C83.9414 20.1514 83.9475 20.0847 83.9475 20.0301C83.9536 19.9755 83.9719 19.933 84.0023 19.8967C84.0328 19.8603 84.0754 19.836 84.1363 19.8178C84.1972 19.7996 84.2886 19.7936 84.3982 19.7936H91.2021C91.1656 19.6965 91.1351 19.5995 91.0986 19.4904C91.0681 19.3812 91.0377 19.272 91.0133 19.1629C90.9889 19.0537 90.9707 18.9446 90.9585 18.8415C90.9463 18.7384 90.9402 18.6414 90.9402 18.5565C90.9402 18.2047 91.0072 17.8712 91.1351 17.5558C91.263 17.2405 91.4458 16.9615 91.6772 16.725C91.9087 16.4885 92.1889 16.3005 92.5117 16.1611C92.8346 16.0216 93.194 15.9549 93.5777 15.9549C93.6691 15.9549 93.7787 15.9609 93.9066 15.9731C94.0345 15.9852 94.1624 15.9973 94.2965 16.0155C94.4305 16.0337 94.5584 16.0519 94.6802 16.0822C94.802 16.1065 94.9056 16.1368 94.9848 16.1671L94.8386 17.5073ZM92.5848 14.0082C92.5848 13.8991 92.6031 13.8021 92.6457 13.7111C92.6823 13.6201 92.7432 13.5413 92.8102 13.4685C92.8772 13.4018 92.9625 13.3472 93.0539 13.3048C93.1452 13.2684 93.2427 13.2441 93.3523 13.2441C93.462 13.2441 93.5594 13.2623 93.6508 13.3048C93.7422 13.3412 93.8213 13.4018 93.8944 13.4685C93.9614 13.5352 94.0163 13.6201 94.0589 13.7111C94.0954 13.8021 94.1198 13.8991 94.1198 14.0082C94.1198 14.1174 94.1015 14.2144 94.0589 14.3054C94.0163 14.3964 93.9614 14.4752 93.8944 14.548C93.8274 14.6147 93.7422 14.6692 93.6508 14.7117C93.5594 14.7541 93.462 14.7723 93.3523 14.7723C93.2427 14.7723 93.1452 14.7541 93.0539 14.7117C92.9625 14.6753 92.8833 14.6207 92.8102 14.548C92.7432 14.4813 92.6884 14.3964 92.6457 14.3054C92.6031 14.2144 92.5848 14.1113 92.5848 14.0082Z" fill="#001F33"></path>
  <path d="M104.843 19.0585C104.843 19.198 104.849 19.3193 104.861 19.4102C104.873 19.5012 104.904 19.58 104.946 19.6346C104.989 19.6892 105.044 19.7317 105.117 19.7559C105.19 19.7802 105.287 19.7923 105.409 19.7923H105.836C105.945 19.7923 106.037 19.7984 106.097 19.8166C106.158 19.8347 106.207 19.859 106.238 19.8954C106.268 19.9318 106.286 19.9742 106.292 20.0288C106.298 20.0834 106.298 20.144 106.298 20.2229V20.6352C106.298 20.7383 106.292 20.8172 106.28 20.8778C106.268 20.9384 106.244 20.9809 106.207 21.0173C106.171 21.0476 106.122 21.0719 106.067 21.0779C106.006 21.0901 105.927 21.0901 105.836 21.0901H105.141C104.873 21.0901 104.642 21.0719 104.447 21.0294C104.252 20.987 104.087 20.9324 103.947 20.8657C103.813 20.799 103.698 20.7141 103.612 20.6231C103.527 20.5321 103.454 20.429 103.405 20.326C103.149 20.4594 102.9 20.5564 102.656 20.611C102.412 20.6656 102.163 20.6959 101.895 20.6959C101.626 20.6959 101.358 20.6595 101.084 20.5867C100.81 20.5139 100.561 20.3987 100.341 20.2471C100.116 20.0955 99.9392 19.8954 99.7991 19.6528C99.659 19.4102 99.5859 19.1192 99.5859 18.7796C99.5859 18.4763 99.6468 18.2095 99.7626 17.9669C99.8844 17.7244 100.043 17.5061 100.244 17.312C100.445 17.1179 100.67 16.9481 100.926 16.7965C101.182 16.6449 101.45 16.5176 101.724 16.4024C101.998 16.2871 102.272 16.1962 102.546 16.1173C102.82 16.0385 103.07 15.9718 103.302 15.9172V15.2502H104.837V19.0585H104.843ZM103.308 17.1058C102.967 17.1786 102.656 17.2635 102.388 17.3545C102.114 17.4515 101.876 17.5606 101.681 17.688C101.486 17.8093 101.334 17.9548 101.231 18.1064C101.127 18.2641 101.072 18.4339 101.072 18.6219C101.072 18.7735 101.103 18.9069 101.164 19.0161C101.224 19.1192 101.304 19.2101 101.401 19.2708C101.499 19.3375 101.608 19.3799 101.73 19.4102C101.852 19.4406 101.974 19.4527 102.102 19.4527C102.327 19.4527 102.546 19.4224 102.753 19.3557C102.967 19.295 103.149 19.2101 103.308 19.107V17.1058ZM101.438 13.6977C101.438 13.5885 101.456 13.4915 101.499 13.4005C101.541 13.3096 101.596 13.2307 101.663 13.158C101.73 13.0913 101.815 13.0367 101.907 12.9942C101.998 12.9579 102.096 12.9336 102.205 12.9336C102.315 12.9336 102.412 12.9518 102.504 12.9942C102.595 13.0306 102.674 13.0913 102.747 13.158C102.814 13.2247 102.869 13.3096 102.912 13.4005C102.948 13.4915 102.973 13.5885 102.973 13.6977C102.973 13.8069 102.954 13.9039 102.912 13.9948C102.869 14.0858 102.814 14.1646 102.747 14.2374C102.68 14.3041 102.595 14.3587 102.504 14.4011C102.412 14.4436 102.315 14.4618 102.205 14.4618C102.096 14.4618 101.998 14.4436 101.907 14.4011C101.815 14.3648 101.736 14.3102 101.663 14.2374C101.596 14.1707 101.541 14.0858 101.499 13.9948C101.456 13.9039 101.438 13.8069 101.438 13.6977ZM103.222 13.6977C103.222 13.5885 103.241 13.4915 103.283 13.4005C103.32 13.3096 103.375 13.2307 103.448 13.158C103.515 13.0913 103.6 13.0367 103.691 12.9942C103.783 12.9579 103.88 12.9336 103.99 12.9336C104.1 12.9336 104.197 12.9518 104.288 12.9942C104.38 13.0306 104.459 13.0913 104.532 13.158C104.599 13.2247 104.654 13.3096 104.696 13.4005C104.733 13.4915 104.757 13.5885 104.757 13.6977C104.757 13.8069 104.739 13.9039 104.696 13.9948C104.66 14.0858 104.599 14.1646 104.532 14.2374C104.465 14.3102 104.38 14.3587 104.288 14.4011C104.197 14.4436 104.1 14.4618 103.99 14.4618C103.88 14.4618 103.783 14.4436 103.691 14.4011C103.6 14.3648 103.521 14.3102 103.448 14.2374C103.381 14.1707 103.326 14.0858 103.283 13.9948C103.247 13.9039 103.222 13.8069 103.222 13.6977Z" fill="#001F33"></path>
  <path d="M105.791 21.0964C105.694 21.0964 105.621 21.0903 105.56 21.0843C105.499 21.0721 105.45 21.0539 105.419 21.0236C105.383 20.9933 105.359 20.9448 105.346 20.8841C105.334 20.8235 105.328 20.7447 105.328 20.6416V20.2292C105.328 20.1564 105.334 20.0897 105.334 20.0351C105.34 19.9806 105.359 19.9381 105.389 19.9017C105.419 19.8653 105.462 19.8411 105.523 19.8229C105.584 19.8047 105.675 19.7986 105.785 19.7986H108.818C109.056 19.7986 109.251 19.7804 109.403 19.744C109.555 19.7077 109.677 19.6591 109.769 19.5924C109.86 19.5257 109.921 19.4469 109.951 19.3559C109.988 19.265 110 19.1619 110 19.0467C110 18.8829 109.951 18.7131 109.848 18.5373C109.744 18.3675 109.592 18.1916 109.397 18.0097C109.202 17.8277 108.958 17.6397 108.672 17.4457C108.386 17.2516 108.063 17.0515 107.704 16.8332L110.274 12.5215L111.407 13.2431L109.598 16.3602C109.909 16.5906 110.183 16.815 110.414 17.0272C110.646 17.2395 110.841 17.4578 110.993 17.6701C111.145 17.8884 111.261 18.1067 111.334 18.3311C111.407 18.5554 111.45 18.798 111.45 19.0527C111.45 19.3317 111.401 19.5985 111.31 19.8411C111.218 20.0836 111.072 20.302 110.871 20.49C110.67 20.6779 110.414 20.8235 110.098 20.9266C109.781 21.0357 109.403 21.0843 108.958 21.0843H105.791V21.0964Z" fill="#001F33"></path>
  <path d="M112.875 22.2239C113.222 22.1572 113.502 22.0723 113.716 21.9692C113.929 21.8661 114.093 21.7388 114.215 21.5872C114.331 21.4356 114.41 21.2536 114.453 21.0475C114.495 20.8413 114.514 20.5987 114.514 20.3197V16.2324H116.061V19.7922H117.255C117.364 19.7922 117.449 19.7982 117.516 19.8164C117.577 19.8346 117.626 19.8589 117.657 19.8952C117.687 19.9316 117.705 19.9741 117.711 20.0287C117.718 20.0832 117.718 20.1439 117.718 20.2227V20.6351C117.718 20.7382 117.711 20.817 117.699 20.8777C117.687 20.9383 117.663 20.9808 117.626 21.0171C117.59 21.0475 117.541 21.0717 117.486 21.0778C117.425 21.0899 117.352 21.0899 117.255 21.0899H115.975C115.915 21.472 115.805 21.7994 115.665 22.0723C115.519 22.3513 115.33 22.5817 115.092 22.7758C114.855 22.9698 114.568 23.1275 114.239 23.2488C113.911 23.3701 113.521 23.4671 113.082 23.5338L112.875 22.2239Z" fill="#001F33"></path>
  <path d="M129.919 19.799C130.053 19.799 130.163 19.7869 130.254 19.7566C130.346 19.7263 130.425 19.6838 130.48 19.6171C130.534 19.5504 130.577 19.4655 130.608 19.3563C130.638 19.2472 130.65 19.1077 130.65 18.944V16.8882H132.197V19.1502C132.197 19.1987 132.197 19.2533 132.191 19.3018C132.191 19.3503 132.185 19.3988 132.185 19.4473C132.392 19.5625 132.618 19.6474 132.867 19.7081C133.117 19.7687 133.403 19.799 133.726 19.799H134.171V16.2332H135.73V21.0907H133.83C133.391 21.0907 133.007 21.0361 132.672 20.927C132.337 20.8178 132.051 20.6723 131.814 20.4964C131.68 20.6784 131.503 20.8239 131.284 20.9331C131.064 21.0422 130.784 21.0968 130.449 21.0968H130.187C129.791 21.0968 129.432 21.0422 129.115 20.927C128.798 20.8118 128.518 20.6662 128.287 20.4843C128.147 20.6723 127.97 20.8178 127.745 20.927C127.525 21.0361 127.245 21.0907 126.904 21.0907H117.213C117.115 21.0907 117.042 21.0847 116.981 21.0786C116.921 21.0665 116.872 21.0483 116.841 21.018C116.805 20.9876 116.78 20.9391 116.768 20.8785C116.756 20.8178 116.75 20.739 116.75 20.6359V20.2235C116.75 20.1508 116.756 20.0841 116.756 20.0295C116.762 19.9749 116.78 19.9325 116.811 19.8961C116.841 19.8597 116.884 19.8354 116.951 19.8172C117.018 19.799 117.103 19.793 117.213 19.793H126.374C126.502 19.793 126.618 19.7808 126.709 19.7505C126.801 19.7202 126.88 19.6778 126.935 19.611C126.989 19.5443 127.032 19.4594 127.062 19.3503C127.093 19.2411 127.105 19.1016 127.105 18.9379V17.4158H128.652V19.1441C128.652 19.1926 128.652 19.2411 128.652 19.2836C128.652 19.326 128.646 19.3745 128.64 19.4231C128.859 19.5443 129.079 19.6414 129.292 19.702C129.505 19.7627 129.712 19.799 129.919 19.799ZM129.657 14.0076C129.657 13.8985 129.676 13.8015 129.718 13.7105C129.755 13.6195 129.816 13.5407 129.883 13.4679C129.95 13.4012 130.035 13.3466 130.126 13.3042C130.218 13.2678 130.315 13.2435 130.425 13.2435C130.534 13.2435 130.632 13.2617 130.723 13.3042C130.815 13.3406 130.894 13.4012 130.967 13.4679C131.04 13.5346 131.089 13.6195 131.131 13.7105C131.168 13.8015 131.192 13.8985 131.192 14.0076C131.192 14.1168 131.174 14.2138 131.131 14.3048C131.095 14.3958 131.04 14.4746 130.967 14.5474C130.894 14.6201 130.815 14.6687 130.723 14.7111C130.632 14.7536 130.534 14.7717 130.425 14.7717C130.315 14.7717 130.218 14.7536 130.126 14.7111C130.035 14.6747 129.956 14.6201 129.883 14.5474C129.816 14.4807 129.761 14.3958 129.718 14.3048C129.676 14.2138 129.657 14.1107 129.657 14.0076ZM130.559 12.4067C130.559 12.3036 130.577 12.2005 130.62 12.1095C130.656 12.0186 130.711 11.9397 130.784 11.867C130.851 11.8002 130.936 11.7457 131.028 11.7032C131.119 11.6668 131.217 11.6426 131.326 11.6426C131.436 11.6426 131.533 11.6608 131.625 11.7032C131.716 11.7396 131.795 11.8002 131.868 11.867C131.935 11.9337 131.99 12.0186 132.033 12.1095C132.069 12.2005 132.094 12.2975 132.094 12.4067C132.094 12.5158 132.075 12.6129 132.033 12.7038C131.996 12.7948 131.935 12.8736 131.868 12.9464C131.801 13.0131 131.716 13.0677 131.625 13.1101C131.533 13.1465 131.436 13.1708 131.326 13.1708C131.217 13.1708 131.119 13.1526 131.028 13.1101C130.936 13.0737 130.857 13.0131 130.784 12.9464C130.717 12.8797 130.662 12.7948 130.62 12.7038C130.577 12.6129 130.559 12.5158 130.559 12.4067ZM131.442 14.0076C131.442 13.8985 131.46 13.8015 131.503 13.7105C131.539 13.6195 131.6 13.5407 131.667 13.4679C131.734 13.3952 131.82 13.3466 131.911 13.3042C132.002 13.2678 132.1 13.2435 132.209 13.2435C132.319 13.2435 132.417 13.2617 132.508 13.3042C132.599 13.3406 132.679 13.4012 132.752 13.4679C132.825 13.5346 132.873 13.6195 132.916 13.7105C132.953 13.8015 132.977 13.8985 132.977 14.0076C132.977 14.1168 132.959 14.2138 132.916 14.3048C132.873 14.3958 132.819 14.4746 132.752 14.5474C132.685 14.6201 132.599 14.6687 132.508 14.7111C132.417 14.7536 132.319 14.7717 132.209 14.7717C132.1 14.7717 132.002 14.7536 131.911 14.7111C131.82 14.6747 131.74 14.6201 131.667 14.5474C131.594 14.4746 131.546 14.3958 131.503 14.3048C131.46 14.2138 131.442 14.1107 131.442 14.0076Z" fill="#001F33"></path>
  <path d="M18.1015 40.2246C18.1015 40.2246 5.55414 30.5945 11.1756 19.4787C13.6863 14.506 20.9061 0.224609 20.9061 0.224609C20.9061 0.224609 34.6414 7.48962 27.8319 20.9826C25.5784 25.4338 18.1015 40.2246 18.1015 40.2246Z" fill="#001F33"></path>
  <path d="M11.4286 40.2246C11.4286 40.2246 1.38832 32.7616 5.88568 24.1445C7.89501 20.2952 13.671 9.22461 13.671 9.22461C13.671 9.22461 24.6625 14.8566 19.2077 25.3108C17.4125 28.7552 11.4286 40.2246 11.4286 40.2246Z" fill="#001F33"></path>
  <path d="M5.33107 40.2246C5.33107 40.2246 -1.56867 34.9276 1.5241 28.8124C2.90902 26.0809 6.87745 18.2246 6.87745 18.2246C6.87745 18.2246 14.4293 22.2235 10.6844 29.6368C9.44234 32.0915 5.33107 40.2246 5.33107 40.2246Z" fill="#001F33"></path>
</svg>
