<?xml version="1.0" encoding="UTF-8"?>
<svg xmlns="http://www.w3.org/2000/svg" width="121" height="58" viewBox="0 0 121 58" fill="none">
  <path fill-rule="evenodd" clip-rule="evenodd" d="M57.5628 28.5975C57.5628 44.3914 44.7687 57.1949 28.9865 57.1949C13.2042 57.1949 0.410156 44.3914 0.410156 28.5975C0.410156 12.8035 13.2042 0 28.9865 0C44.7687 0 57.5628 12.8035 57.5628 28.5975ZM30.026 38.6598H35.9443V40.8553H30.026V40.8702H27.832V16.2793H30.026V38.6598ZM50.7171 29.5131H35.9812V27.3188H52.8764C52.8986 27.7441 52.9098 28.1693 52.9098 28.5995C52.9098 41.8209 42.1997 52.5389 28.9881 52.5389C15.7765 52.5389 5.06641 41.8209 5.06641 28.5995C5.06641 15.3782 15.7765 4.66016 28.9881 4.66016C29.3365 4.66016 29.6835 4.66757 30.0294 4.68241L30.027 6.86186C29.6823 6.84579 29.3364 6.83837 28.9893 6.83837C16.9797 6.83837 7.24429 16.581 7.24429 28.5995C7.24429 40.6181 16.9797 50.3607 28.9893 50.3607C40.6716 50.3607 50.2007 41.1422 50.7134 29.5786L50.7171 29.5131ZM23.4257 19.5434C23.4257 21.4015 21.9198 22.9072 20.0644 22.9072C18.2077 22.9072 16.7031 21.4002 16.7031 19.5434C16.7031 17.6854 18.2077 16.1797 20.0644 16.1797C21.9211 16.1797 23.4257 17.6854 23.4257 19.5434Z" fill="#001F33"></path>
  <path fill-rule="evenodd" clip-rule="evenodd" d="M71.7539 42.6351H92.1722V36.4639H79.8489H79.2522V35.8668V14.3652H71.7539V42.6351Z" fill="#001F33"></path>
  <path fill-rule="evenodd" clip-rule="evenodd" d="M116.845 16.3549C114.503 14.5401 111.49 13.6191 107.892 13.6191C103.62 13.6191 100.052 14.932 97.571 17.4131C94.9806 20.0067 93.6094 23.8266 93.6094 28.46C93.6094 33.4098 95.0596 37.587 97.6908 40.2201C99.755 42.2858 102.511 43.3787 105.66 43.3787C112.575 43.3787 114.166 39.2299 114.166 39.2299V41.1362V42.6332H120.412V26.6674H107.981V31.663H112.983H113.703C113.703 31.663 113.758 37.9529 107.852 37.9529C106.353 37.9529 105.015 37.409 103.986 36.3792C102.384 34.777 101.538 32.0784 101.538 28.5786C101.538 22.782 103.84 19.3218 107.694 19.3218C110.102 19.3218 111.912 20.8016 112.376 23.0441H120.33C119.919 19.7842 119.024 18.0856 116.845 16.3549Z" fill="#001F33"></path>
</svg>
