<?xml version="1.0" encoding="UTF-8"?>
<svg xmlns="http://www.w3.org/2000/svg" width="64" height="64" viewBox="0 0 64 64" fill="none">
  <g clip-path="url(#clip0_634_896)">
    <path d="M21.0623 50.7045C21.0623 51.6972 21.1961 53.327 20.1406 53.7271V53.7863H24.1543V53.7271C23.0989 53.3122 23.2178 51.6972 23.2178 50.7045V42.4072C23.2178 41.4145 23.084 39.7847 24.1543 39.3698V39.3105H20.1406V39.3698C21.2109 39.7847 21.0623 41.3997 21.0623 42.4072V50.7045Z" fill="#001F33"></path>
    <path d="M29.9663 46.7182H31.5271C32.1812 46.7182 33.0732 46.6738 33.4151 47.3405H33.4745V44.9995H33.4151C33.1624 45.1328 32.8204 45.1328 32.5083 45.1328H29.9663V41.0287C30.6352 40.8953 31.3785 40.8805 32.1218 40.8805C33.088 40.8805 33.9651 40.9694 34.6192 41.7399H34.6786V39.1914H34.6192C34.3367 39.3396 33.98 39.2951 33.6232 39.2951H26.8594V39.3544C27.9446 39.7693 27.8108 41.3843 27.8108 42.3918V50.6891C27.8108 51.6818 27.9297 53.3116 26.8594 53.7116V53.7709H30.8582V53.7116C29.8027 53.2968 29.9663 51.6818 29.9663 50.6891V46.7182Z" fill="#001F33"></path>
    <path fill-rule="evenodd" clip-rule="evenodd" d="M43.702 48.3478L44.8466 51.4593C45.4115 53.0002 45.5899 53.2373 44.5493 53.7262V53.7855H48.8752V53.7262C47.6859 53.0891 47.2994 51.8445 46.8089 50.5999L42.4087 39.2949H39.0788V39.3542C40.0896 39.6802 39.6883 40.6136 39.391 41.3989L35.8678 50.5999C35.407 51.8594 35.0502 53.0891 33.8164 53.7262V53.7855H37.7112V53.7262C36.7003 53.3262 36.849 52.6891 37.2949 51.4593L38.395 48.3478H43.702ZM43.0925 46.718H38.9301L41.0262 41.1618L43.0925 46.718Z" fill="#001F33"></path>
    <path d="M0.726562 63.1502H1.64822V61.15H3.47668V63.1502H4.38348V58.6016H3.47668V60.4388H1.64822V58.6016H0.726562V63.1502Z" fill="#001F33"></path>
    <path fill-rule="evenodd" clip-rule="evenodd" d="M5.48438 60.8547C5.48438 62.2474 6.25738 63.2253 7.7142 63.2253C9.15615 63.2253 9.94403 62.2326 9.94403 60.8547C9.94403 59.4767 9.14129 58.5137 7.7142 58.5137C6.27225 58.5137 5.48438 59.4619 5.48438 60.8547ZM6.45063 60.8547C6.45063 60.0546 6.82227 59.2249 7.72907 59.2249C8.63586 59.2249 9.0075 60.0398 9.0075 60.8547C9.0075 61.6696 8.66559 62.4993 7.72907 62.4993C6.79254 62.4993 6.45063 61.6844 6.45063 60.8547Z" fill="#001F33"></path>
    <path d="M11.8902 63.1502H12.8119V59.3128H14.12V58.6016H10.582V59.3128H11.8902V63.1502Z" fill="#001F33"></path>
    <path d="M14.9688 63.1502H17.6743V62.4242H15.8904V61.15H17.5108V60.4388H15.8904V59.3128H17.6594V58.6016H14.9688V63.1502Z" fill="#001F33"></path>
    <path d="M18.8633 63.1502H21.5539V62.4242H19.7849V58.6016H18.8633V63.1502Z" fill="#001F33"></path>
    <path d="M24.9414 58.6767C24.6144 58.5581 24.2427 58.5137 23.8562 58.5137C23.0535 58.5137 22.2656 58.8841 22.2656 59.9064C22.2656 61.4177 24.2725 61.0473 24.2725 61.9215C24.2725 62.3363 23.8116 62.5141 23.4549 62.5141C23.0981 62.5141 22.7413 62.3956 22.4291 62.2326L22.34 63.0475C22.7859 63.1513 23.0089 63.2253 23.5143 63.2253C24.436 63.2253 25.2239 62.8549 25.2239 61.8474C25.2239 60.3213 23.217 60.6621 23.217 59.862C23.217 59.373 23.6184 59.2249 23.9306 59.2249C24.2576 59.2249 24.5698 59.299 24.8522 59.4175L24.9414 58.6767Z" fill="#001F33"></path>
    <path fill-rule="evenodd" clip-rule="evenodd" d="M30.6958 62.2771C30.4876 62.4697 30.2052 62.5438 29.893 62.5438C29.4619 62.5438 29.12 62.2771 29.12 61.877C29.12 61.5214 29.3727 61.2992 29.67 61.151L30.6958 62.2771ZM29.893 60.2917C29.7146 60.1139 29.4619 59.9064 29.4619 59.6397C29.4619 59.3138 29.7146 59.1508 29.9822 59.1508C30.2498 59.1508 30.4876 59.299 30.4876 59.6249C30.4876 59.8916 30.116 60.1731 29.893 60.2917ZM30.3984 60.751C30.889 60.4695 31.2755 60.1731 31.2755 59.5508C31.2755 58.81 30.6066 58.5137 29.9673 58.5137C29.3281 58.5137 28.5849 58.8545 28.5849 59.5508C28.5849 60.0694 28.8673 60.3065 29.2241 60.6473C28.4957 60.9584 28.2578 61.3436 28.2578 61.8919C28.2578 62.7512 28.9862 63.2105 29.8782 63.2105C30.3241 63.2105 30.7998 63.0475 31.1269 62.7216L31.439 63.1216H32.5688L31.7512 62.203C32.1228 61.7733 32.3012 61.2251 32.331 60.6473H31.5282C31.5134 61.0029 31.4688 61.3881 31.2458 61.64L30.3984 60.751Z" fill="#001F33"></path>
    <path fill-rule="evenodd" clip-rule="evenodd" d="M36.3006 59.3128H36.5979C37.0587 59.3128 37.5641 59.3573 37.5641 59.9055C37.5641 60.4685 37.0438 60.5426 36.5979 60.5426H36.3006V59.3128ZM35.3789 63.1503H36.3006V61.2538H36.5979C36.9844 61.2538 37.1033 61.3871 37.2371 61.7279L37.7871 63.1503H38.8128L38.0844 61.3723C37.9952 61.1649 37.8466 60.9278 37.5939 60.8982V60.8834C38.1736 60.8093 38.5304 60.3648 38.5304 59.8314C38.5304 58.572 37.356 58.6016 36.3749 58.6016H35.3789V63.1503Z" fill="#001F33"></path>
    <path d="M39.7188 63.1502H42.4243V62.4242H40.6404V61.15H42.2608V60.4388H40.6404V59.3128H42.4094V58.6016H39.7188V63.1502Z" fill="#001F33"></path>
    <path d="M46.1563 58.6767C45.8292 58.5581 45.4576 58.5137 45.0711 58.5137C44.2683 58.5137 43.4805 58.8841 43.4805 59.9064C43.4805 61.4177 45.4873 61.0473 45.4873 61.9215C45.4873 62.3363 45.0265 62.5141 44.6697 62.5141C44.3129 62.5141 43.9562 62.3956 43.6291 62.2326L43.5399 63.0475C43.9859 63.1513 44.2237 63.2253 44.7143 63.2253C45.636 63.2253 46.4238 62.8549 46.4238 61.8474C46.4238 60.3213 44.417 60.6621 44.417 59.862C44.417 59.373 44.8184 59.2249 45.1305 59.2249C45.4576 59.2249 45.7698 59.299 46.0522 59.4175L46.1563 58.6767Z" fill="#001F33"></path>
    <path fill-rule="evenodd" clip-rule="evenodd" d="M47.3008 60.8547C47.3008 62.2474 48.0738 63.2253 49.5455 63.2253C50.9874 63.2253 51.7753 62.2326 51.7753 60.8547C51.7753 59.4767 50.9726 58.5137 49.5455 58.5137C48.0887 58.5137 47.3008 59.4619 47.3008 60.8547ZM48.2522 60.8547C48.2522 60.0546 48.6238 59.2249 49.5306 59.2249C50.4374 59.2249 50.809 60.0398 50.809 60.8547C50.809 61.6696 50.4671 62.4993 49.5306 62.4993C48.5941 62.4993 48.2522 61.6844 48.2522 60.8547Z" fill="#001F33"></path>
    <path fill-rule="evenodd" clip-rule="evenodd" d="M53.7076 59.3128H54.0049C54.4657 59.3128 54.9711 59.3573 54.9711 59.9055C54.9711 60.4685 54.4509 60.5426 54.0049 60.5426H53.7076V59.3128ZM52.8008 63.1503H53.7224V61.2538H54.0198C54.4063 61.2538 54.5252 61.3871 54.659 61.7279L55.209 63.1503H56.2347L55.5063 61.3723C55.4171 61.1649 55.2685 60.9278 55.0306 60.8982V60.8834C55.6104 60.8093 55.9671 60.3648 55.9671 59.8314C55.9671 58.572 54.7928 58.6016 53.8116 58.6016H52.8305V63.1503H52.8008Z" fill="#001F33"></path>
    <path d="M57.855 63.1502H58.7618V59.3128H60.07V58.6016H56.5469V59.3128H57.855V63.1502Z" fill="#001F33"></path>
    <path d="M63.457 58.6767C63.13 58.5581 62.7584 58.5137 62.3719 58.5137C61.5691 58.5137 60.7812 58.8841 60.7812 59.9064C60.7812 61.4177 62.7881 61.0473 62.7881 61.9215C62.7881 62.3363 62.3273 62.5141 61.9854 62.5141C61.6286 62.5141 61.2718 62.3956 60.9448 62.2326L60.8556 63.0475C61.3015 63.1513 61.5245 63.2253 62.03 63.2253C62.9516 63.2253 63.7395 62.8549 63.7395 61.8474C63.7395 60.3213 61.7326 60.6621 61.7326 59.862C61.7326 59.373 62.134 59.2249 62.4462 59.2249C62.7584 59.2249 63.0854 59.299 63.3678 59.4175L63.457 58.6767Z" fill="#001F33"></path>
    <path d="M49.6179 25.6054C47.8637 23.1014 45.2325 21.7086 42.7946 21.7234L42.8243 21.7679L39.2566 29.7096C40.7283 29.428 42.1554 28.2872 42.9135 26.5981C43.0325 26.3314 43.1365 26.0499 43.2257 25.7684L43.8798 32.8655C45.3366 31.6061 46.1839 29.428 45.961 27.0574C45.9312 26.7018 45.8718 26.3462 45.7826 26.0054L50.9706 33.4285C51.7882 31.0727 51.3571 28.0946 49.6179 25.6054ZM10.3432 35.9325C12.4838 35.9621 14.788 34.7472 16.334 32.5692C17.7611 30.5393 18.1773 28.139 17.657 26.1536L54.3451 18.6564C54.3897 18.6416 54.4046 18.6416 54.4343 18.6416C54.7316 18.5675 54.9843 18.4342 55.1924 18.2267C55.4749 17.9304 55.6533 17.5452 55.6533 17.1155C55.6533 16.5376 55.3411 16.0339 54.8803 15.7524C51.4315 13.441 47.1205 12.063 42.4824 11.8408C42.2 11.826 41.9175 11.826 41.6351 11.8112L41.6202 11.7815C41.6202 11.7667 41.6202 11.7519 41.6202 11.7519C41.5608 11.7519 41.5162 11.7519 41.4567 11.7519C41.427 9.58867 40.6986 7.29211 39.2417 5.21779C37.0119 2.06186 33.6523 0.269059 30.486 0.224609L37.1011 9.58867C36.7295 9.35161 36.3281 9.12936 35.9119 8.93674C33.1766 7.6477 30.1887 7.72179 28.0629 8.89229L35.4064 12.3446C34.901 12.4483 34.3807 12.5816 33.8902 12.715L33.9199 12.7298C32.4185 13.1298 30.9765 13.6484 29.6238 14.2559C24.0492 16.7599 19.7531 20.9233 17.5084 25.7684L17.4638 25.8276C16.2745 24.8794 14.5353 24.4645 12.7514 24.8201C10.7743 25.2201 9.2283 26.4795 8.57422 27.9908L16.5124 26.3758L10.3432 35.9325ZM48.6665 14.1374C49.4841 14.1374 50.153 14.8041 50.153 15.6338C50.153 16.4636 49.4989 17.1451 48.6813 17.1451C47.8637 17.1451 47.1948 16.4784 47.1948 15.6486C47.1948 14.8189 47.8489 14.1522 48.6665 14.1374Z" fill="#001F33"></path>
  </g>
  <defs>
    <clipPath id="clip0_634_896">
      <rect width="63" height="63" fill="white" transform="translate(0.726562 0.224609)"></rect>
    </clipPath>
  </defs>
</svg>
