<?xml version="1.0" encoding="UTF-8"?>
<svg xmlns="http://www.w3.org/2000/svg" width="164" height="77" viewBox="0 0 164 77" fill="none">
  <path d="M132.562 13.3508C130.196 23.4167 127.826 33.5113 125.447 43.6346C123.545 43.6346 121.684 43.6346 119.769 43.6346C120.058 42.3887 120.338 41.1591 120.622 39.9296C120.589 39.905 120.559 39.8804 120.526 39.8558C120.392 39.9542 120.242 40.0361 120.125 40.1509C117.252 42.9625 113.862 44.5609 109.731 44.3437C107.277 44.2166 105.174 43.278 103.535 41.4501C103.222 41.0976 102.975 40.6878 102.695 40.3025C102.624 40.2042 102.544 40.1099 102.381 39.905C102.064 41.2206 101.775 42.4174 101.483 43.6387C92.5315 43.6387 83.5804 43.6387 74.5625 43.6387C74.7214 42.5444 74.922 41.5403 75.7624 40.6837C77.6396 38.7656 79.4373 36.7696 81.2643 34.8065C84.0905 31.7695 86.9209 28.7325 89.7429 25.6873C92.3057 22.9249 94.8644 20.1543 97.423 17.3837C97.5066 17.2936 97.561 17.1829 97.6864 17.0067C92.3183 17.0067 87.0505 17.0067 81.6991 17.0067C81.8245 16.4739 81.929 16.0025 82.0419 15.5312C82.2092 14.8468 82.4057 14.1705 82.5478 13.4779C82.6063 13.1828 82.7443 13.0926 83.0202 13.1172C83.0704 13.1213 83.1206 13.1172 83.1707 13.1172C91.0766 13.1172 98.9825 13.1172 106.888 13.1172C107.022 13.1172 107.152 13.1172 107.394 13.1172C107.11 13.941 107.189 14.7771 106.533 15.4697C103.824 18.3264 101.165 21.2281 98.4849 24.1094C95.9179 26.8718 93.3509 29.6301 90.7839 32.3924C88.6517 34.6835 86.5195 36.9787 84.3915 39.2697C84.3204 39.3476 84.2619 39.4378 84.1407 39.5935C90.207 39.5935 96.1855 39.5935 102.214 39.5935C101.984 38.9746 101.742 38.409 101.562 37.827C100.646 34.9048 100.822 31.9785 101.558 29.0563C102.302 26.089 103.602 23.3634 105.463 20.9125C108.586 16.8018 112.746 14.2361 117.813 13.0516C122.131 12.0434 126.463 12.2565 130.798 12.9615C131.342 13.0516 131.885 13.1418 132.425 13.2361C132.45 13.2566 132.475 13.2852 132.562 13.3508ZM126.107 16.7116C123.862 16.3017 121.684 16.2444 119.527 16.6993C115.501 17.5518 112.553 19.8879 110.371 23.2323C108.891 25.5029 107.921 27.9784 107.365 30.6096C107.005 32.3187 106.863 34.0441 107.26 35.7737C107.67 37.5443 108.519 39.0443 110.291 39.7943C112.311 40.6468 114.292 40.2534 116.178 39.3435C118.047 38.4418 119.56 37.0934 120.856 35.5155C121.312 34.9622 121.881 34.4048 122.073 33.7572C122.596 32.0195 122.947 30.2325 123.361 28.4661C123.984 25.8266 124.606 23.1831 125.225 20.5396C125.518 19.2813 125.802 18.0231 126.107 16.7116Z" fill="#001F33"></path>
  <path d="M63.5625 13.2907C61.2346 23.3932 58.9108 33.4917 56.5788 43.6065C54.7181 43.6065 52.8902 43.6065 51.0131 43.6065C51.3 42.3406 51.5787 41.1075 51.8574 39.8785C51.8205 39.8539 51.7795 39.8252 51.7427 39.8006C51.4517 40.0669 51.1566 40.325 50.8697 40.5954C49.3369 42.0374 47.591 43.1436 45.5745 43.754C42.472 44.6921 39.431 44.6757 36.6359 42.7871C34.8654 41.5909 33.7957 39.8662 33.1768 37.8383C32.312 35.0198 32.435 32.193 33.0825 29.3622C33.7301 26.515 34.8981 23.8889 36.5621 21.4883C38.6318 18.5058 41.2917 16.1994 44.5745 14.6303C47.6934 13.1391 50.9926 12.4673 54.4394 12.373C57.4354 12.2952 60.378 12.6926 63.3125 13.2088C63.374 13.217 63.4314 13.2457 63.5625 13.2907ZM57.2263 16.6623C55.046 16.3469 52.9845 16.2608 50.8943 16.6705C47.7016 17.2932 45.1729 18.9565 43.1196 21.4022C40.8859 24.0651 39.5744 27.1663 38.8531 30.5379C38.4269 32.5289 38.3285 34.5159 38.9433 36.4987C39.6482 38.7765 41.5294 40.198 43.9106 40.2021C45.4926 40.2021 46.9229 39.69 48.259 38.8789C50.1033 37.7605 51.5664 36.2324 52.8451 34.52C53.046 34.2537 53.2304 33.9423 53.3083 33.6228C53.841 31.4351 54.3493 29.2393 54.8575 27.0434C55.4435 24.5117 56.0214 21.9799 56.5993 19.4481C56.8124 18.5427 57.0091 17.6373 57.2263 16.6623Z" fill="#001F33"></path>
  <path d="M0.5625 48.2756C1.53323 47.8616 2.40855 47.4886 3.3129 47.1033C3.78167 47.6977 4.22556 48.2961 4.71092 48.87C6.13383 50.5507 8.00477 51.3295 10.1827 51.4361C13.9329 51.6206 16.48 49.8661 18.0979 46.6237C19.0645 44.6929 19.6079 42.6228 20.1389 40.5486C20.8524 37.7653 21.5452 34.9737 22.2421 32.1863C22.9183 29.4726 23.5821 26.7548 24.2624 24.0411C24.7561 22.0735 25.2746 20.1141 25.7725 18.1465C26.8386 13.9325 27.9006 9.71443 28.9667 5.49635C29.2945 4.1969 29.6305 2.90155 29.979 1.6103C30.008 1.50782 30.1615 1.36435 30.2569 1.36435C32.327 1.36025 34.397 1.36845 36.4712 1.38074C36.4837 1.38074 36.4961 1.39714 36.5625 1.43403C36.4132 2.08991 36.268 2.77037 36.102 3.44264C35.1894 7.05814 34.2726 10.6695 33.3558 14.285C32.468 17.7858 31.5761 21.2865 30.6883 24.7872C29.7176 28.6364 28.7593 32.4937 27.7803 36.3429C27.0377 39.2574 26.3366 42.1842 25.507 45.0742C24.7976 47.5378 23.7148 49.8497 22.0347 51.8461C20.3173 53.8834 18.1518 55.2238 15.5549 55.8551C12.9746 56.4822 10.3818 56.5724 7.7932 55.8797C5.21288 55.1869 3.26727 53.6825 1.98541 51.3828C1.43367 50.4072 1.04372 49.3455 0.5625 48.2756Z" fill="#001F33"></path>
  <path d="M68.8538 16.4705C67.3449 16.4705 65.945 16.4705 64.478 16.4705C64.7672 15.2405 65.0312 14.0764 65.333 12.9205C65.3582 12.8217 65.6138 12.723 65.7647 12.723C66.9383 12.7066 68.1119 12.6983 69.2813 12.7189C69.625 12.723 69.7591 12.6325 69.8556 12.2911C70.325 10.6498 70.7735 9.00021 71.3435 7.39179C72.2488 4.82491 73.9547 2.87096 76.4025 1.59163C78.6659 0.406916 81.1053 0.151873 83.6159 0.517983C84.6009 0.661959 85.5649 0.921115 86.5625 1.13502C86.3613 1.98242 86.1853 2.7311 86.0092 3.488C85.2171 3.52913 84.4333 3.53736 83.6537 3.61963C81.2436 3.87879 79.1772 4.79201 77.748 6.79532C76.8887 8.00472 76.3732 9.37455 76.0253 10.8061C75.8786 11.4108 75.7487 12.0155 75.5936 12.7066C77.5677 12.7066 79.4916 12.7066 81.4867 12.7066C81.3065 13.4758 81.1514 14.1587 80.9879 14.8374C80.9251 15.1089 80.8454 15.3763 80.7825 15.6519C80.5897 16.4869 80.5939 16.4869 79.697 16.4869C78.0581 16.4869 76.4151 16.4869 74.7218 16.4869C74.4242 17.7375 74.1308 18.9798 73.8332 20.2221C73.2338 22.7478 72.6303 25.2695 72.0351 27.7952C71.3142 30.8475 70.5974 33.8998 69.8807 36.9562C69.4029 39.0006 68.9251 41.0451 68.4347 43.0854C68.4053 43.2006 68.2293 43.361 68.1161 43.361C66.2929 43.3693 64.4696 43.3528 62.6421 43.3446C62.6296 43.3446 62.617 43.3281 62.5625 43.2911C64.6582 34.3852 66.7455 25.4669 68.8538 16.4705Z" fill="#001F33"></path>
  <path d="M124.185 51.3777C123.736 53.3191 123.327 55.0836 122.914 56.8687C123.063 56.8975 123.154 56.9304 123.249 56.9304C124.553 56.9304 125.857 56.918 127.156 56.9304C127.429 56.9345 127.524 56.8604 127.586 56.5972C128.192 53.9607 128.807 51.3283 129.434 48.6959C129.471 48.5479 129.604 48.3957 129.731 48.297C130.128 47.9844 130.54 47.6923 130.99 47.3633C130.449 49.7119 129.909 52.0605 129.36 54.4584C130.813 54.4584 132.195 54.4584 133.577 54.4584C134.287 54.4584 134.997 54.4461 135.707 54.4707C136.99 54.516 137.712 55.318 137.592 56.589C137.564 56.9139 137.675 56.9386 137.939 56.9345C139.342 56.9263 140.741 56.918 142.144 56.9427C142.441 56.9468 142.557 56.8522 142.614 56.5808C142.738 55.9885 142.874 55.3962 143.031 54.8121C143.073 54.6517 143.163 54.4707 143.287 54.3679C143.704 54.0265 144.141 53.7139 144.628 53.352C144.356 54.5365 144.088 55.6841 143.803 56.9221C144.063 56.9221 144.253 56.9221 144.447 56.9221C145.586 56.9221 146.724 56.9139 147.859 56.9263C148.161 56.9304 148.354 56.8687 148.553 56.5931C149.085 55.8486 150.104 55.4826 150.855 55.791C151.202 55.935 151.532 56.2476 151.734 56.5684C151.899 56.8317 152.035 56.9345 152.332 56.9304C153.504 56.9263 154.672 56.9386 155.844 56.9509C156.195 56.9551 156.381 56.8646 156.475 56.4574C157.156 53.4178 157.878 50.3905 158.58 47.3838C158.889 47.717 159.215 48.0543 159.517 48.408C159.57 48.4738 159.57 48.6137 159.55 48.7083C158.939 51.3777 158.324 54.0471 157.705 56.7165C157.623 57.0661 157.499 57.4116 157.445 57.7653C157.396 58.1108 157.214 58.1766 156.905 58.1725C155.238 58.1602 153.575 58.1602 151.907 58.1766C151.734 58.1766 151.511 58.2877 151.392 58.4193C150.711 59.1967 149.708 59.5792 148.936 59.2378C148.631 59.1021 148.317 58.8265 148.165 58.5345C148.004 58.2178 147.826 58.1643 147.521 58.1643C140.857 58.1725 134.192 58.1684 127.528 58.1684C121.953 58.1684 116.378 58.1684 110.803 58.1684C110.725 58.1684 110.642 58.1684 110.564 58.1684C110.514 56.0748 111.954 54.697 115.185 53.936C114.963 54.9314 114.752 55.8898 114.529 56.8851C114.703 56.9016 114.81 56.9221 114.917 56.9221C116.964 56.9304 119.007 56.9221 121.053 56.9509C121.483 56.9551 121.693 56.8152 121.759 56.4121C121.792 56.2229 121.842 56.0337 121.903 55.7581C121.07 55.7581 120.278 55.7581 119.494 55.7581C119.518 54.0923 120.302 52.9941 121.73 52.3525C122.485 52.0111 123.278 51.7355 124.185 51.3777ZM128.844 56.8234C128.968 56.8604 129.055 56.9139 129.145 56.9139C131.399 56.918 133.652 56.9139 135.909 56.918C136.231 56.918 136.301 56.7535 136.272 56.482C136.222 55.9844 135.901 55.7376 135.195 55.7335C133.499 55.7211 131.807 55.7088 130.111 55.7293C128.96 55.7417 129.125 55.4949 128.844 56.8234ZM122.477 53.1751C121.511 53.4383 121.082 53.8414 121.053 54.5119C121.375 54.5119 121.693 54.5201 122.015 54.5036C122.097 54.4995 122.229 54.4255 122.246 54.3638C122.333 53.9936 122.394 53.6193 122.477 53.1751ZM113.514 55.6923C113.452 55.643 113.39 55.5895 113.329 55.5401C112.941 55.8527 112.54 56.1571 112.165 56.4903C112.091 56.5561 112.111 56.7247 112.086 56.844C112.367 56.8851 112.652 56.9509 112.932 56.9509C113.052 56.9509 113.246 56.8275 113.279 56.7206C113.395 56.3916 113.444 56.0378 113.514 55.6923ZM150.232 56.9263C149.675 56.9139 149.233 57.3047 149.312 57.6625C149.353 57.8517 149.605 58.0903 149.799 58.1355C150.141 58.2096 150.612 57.79 150.558 57.4692C150.517 57.2471 150.315 57.0538 150.232 56.9263Z" fill="#001F33"></path>
  <path d="M54.7107 56.8934C54.9521 56.9138 55.1412 56.9465 55.3263 56.9465C56.6138 56.9465 57.8973 56.9261 59.1848 56.9383C59.4825 56.9424 59.6475 56.8689 59.6716 56.5547C59.6797 56.4567 59.7159 56.3628 59.736 56.269C60.1142 54.4772 60.1142 54.4772 61.627 53.363C61.3695 54.5303 61.112 55.6772 60.8424 56.8893C62.9387 56.8893 64.9785 56.8893 67.0184 56.8893C66.9661 55.8323 66.9661 55.8323 66.0246 55.6731C66.085 55.3547 66.1373 55.0364 66.2097 54.7262C66.2298 54.6446 66.2902 54.5425 66.3626 54.5099C67.2196 54.1181 68.1088 54.6976 68.137 55.6527C68.141 55.7833 68.141 55.9139 68.1571 56.0445C68.2496 56.8036 68.3784 56.9179 69.1348 56.922C70.4545 56.9261 71.7701 56.9179 73.0898 56.9383C73.3916 56.9424 73.5083 56.8485 73.5726 56.5506C73.975 54.7262 74.3975 52.9059 74.8159 51.0815C75.0975 49.8489 75.3832 48.6122 75.6568 47.4245C75.9223 47.7429 76.208 48.0571 76.4534 48.4C76.5379 48.5183 76.5822 48.7142 76.554 48.8571C76.2925 50.0815 76.0109 51.3019 75.7332 52.5222C75.3389 54.2487 74.9245 55.9751 74.5544 57.7056C74.4659 58.1138 74.2727 58.175 73.9227 58.1709C72.6352 58.1587 71.3517 58.1668 70.0642 58.1668C64.9987 58.1668 59.9331 58.1709 54.8676 58.1587C54.5497 58.1587 54.3969 58.224 54.2802 58.5627C54.0347 59.2811 53.568 59.8443 52.8599 60.1341C51.7776 60.5749 51.0252 60.4484 50.5625 59.1464C50.8763 59.2933 51.1539 59.4402 51.4396 59.5504C52.0512 59.7831 52.5581 59.6035 52.8398 58.9954C53.049 58.5423 53.1979 58.0566 53.3105 57.5709C53.9583 54.767 54.598 51.9631 55.2176 49.155C55.3142 48.7102 55.5073 48.3959 55.8855 48.151C56.2396 47.9224 56.5534 47.6245 56.8793 47.3633C56.1631 50.5101 55.443 53.6691 54.7107 56.8934Z" fill="#001F33"></path>
  <path d="M38.3225 47.3633C38.5991 47.674 38.9176 48.0011 39.1942 48.3568C39.2823 48.4712 39.299 48.6838 39.2655 48.8351C38.6913 51.3005 38.1045 53.7617 37.5261 56.227C37.48 56.4151 37.4591 56.6072 37.4213 56.8526C38.7961 56.8526 40.154 56.8526 41.4198 56.8526C41.512 56.3619 41.5414 55.8795 41.7006 55.442C42.0108 54.5671 42.7023 54.0234 43.6286 53.9416C44.5842 53.8557 45.5566 53.9211 46.5625 53.9211C46.4703 54.3218 46.3865 54.6939 46.2901 55.115C45.4644 55.115 44.6471 55.1068 43.8298 55.1191C43.2179 55.1272 42.7904 55.532 42.7443 56.1207C42.7065 56.5623 42.9873 56.8771 43.44 56.8853C44.2112 56.9016 44.9782 56.9057 45.7494 56.9139C45.7662 56.9139 45.7787 56.9261 45.85 56.9629C45.7829 57.2737 45.7326 57.6048 45.632 57.9196C45.6027 58.0137 45.4309 58.12 45.3135 58.1282C44.9824 58.1527 44.6429 58.1322 44.3076 58.1322C39.7684 58.1322 35.2293 58.1322 30.6901 58.1322C30.4429 58.1322 30.1914 58.1322 29.8393 58.1322C30.0824 57.0774 30.3129 56.0758 30.5435 55.0659C29.8393 55.0782 29.1813 55.5892 29.0053 56.2597C28.8334 56.9221 28.6951 57.5926 28.5233 58.259C28.2885 59.1748 27.7269 59.8249 26.8216 60.1724C25.669 60.6139 25.0068 60.3032 24.5625 59.0971C24.8349 59.2361 25.0696 59.371 25.3211 59.4773C26.0839 59.7962 26.6581 59.6245 26.9641 58.8763C27.2533 58.169 27.4712 57.4249 27.6137 56.6768C27.8149 55.6301 28.4017 54.8778 29.328 54.4036C30.2333 53.9416 31.1973 53.5859 32.1361 53.1811C32.178 53.2302 32.22 53.2793 32.2577 53.3283C31.9852 54.4772 31.717 55.626 31.432 56.8403C31.608 56.8607 31.7631 56.8894 31.9182 56.8894C33.1588 56.8934 34.3994 56.8812 35.6358 56.8975C35.9544 56.9016 36.0885 56.8239 36.1681 56.4887C36.8136 53.6881 37.4842 50.8957 38.1506 48.1033C38.2009 47.8335 38.2722 47.5677 38.3225 47.3633Z" fill="#001F33"></path>
  <path d="M137.562 65.4935C137.271 65.8179 137 66.1614 136.687 66.4705C134.547 68.5888 132.403 70.6955 130.258 72.81C129.884 73.1802 129.506 73.5466 129.017 74.0198C131.182 74.0198 133.2 74.0198 135.295 74.0198C135.176 74.4664 135.093 74.8328 134.974 75.1877C134.946 75.2679 134.781 75.3556 134.679 75.3556C131.675 75.3633 128.672 75.3633 125.673 75.3633C125.636 75.3213 125.599 75.2831 125.562 75.2411C125.875 74.8976 126.175 74.5389 126.507 74.2068C128.767 71.9665 131.03 69.7337 133.294 67.4972C133.536 67.2606 133.775 67.0239 134.017 66.7873C134.001 66.7453 133.984 66.7072 133.968 66.6652C132.148 66.6652 130.328 66.6652 128.409 66.6652C128.537 66.253 128.603 65.9247 128.746 65.6309C128.808 65.5049 129.042 65.379 129.198 65.3752C131.938 65.3599 134.679 65.3637 137.419 65.3637C137.468 65.4057 137.513 65.4515 137.562 65.4935Z" fill="#001F33"></path>
  <path d="M44.2102 65.3633C43.8954 66.6162 43.593 67.8086 43.2906 69.0009C43.3279 69.0251 43.3652 69.0494 43.4024 69.0736C43.506 68.9928 43.6054 68.912 43.7131 68.8311C44.7528 68.039 45.8754 67.6833 47.1761 68.1562C47.9342 68.431 48.3401 69.0171 48.4809 69.7365C48.9159 71.9474 47.6318 75.6699 44.1356 76.3287C43.3486 76.4782 42.6858 76.1266 42.1307 75.5931C42.0148 75.4839 41.9278 75.3425 41.8284 75.2212C41.7869 75.2374 41.7331 75.2455 41.7289 75.2616C41.6378 75.9528 41.1614 76.0053 40.5857 75.9447C40.275 75.9124 39.9602 75.9407 39.5625 75.9407C39.782 75.0717 39.985 74.2512 40.1963 73.4347C40.8176 71.0016 41.4514 68.5684 42.0562 66.1272C42.1556 65.727 42.3627 65.5573 42.7438 65.5169C43.216 65.4684 43.6924 65.4158 44.2102 65.3633ZM43.6344 75.1606C44.0238 75.1525 44.5747 74.9706 44.9807 74.5422C46.1488 73.3175 46.6459 71.8544 46.4222 70.1932C46.3435 69.6072 45.95 69.1989 45.3203 69.0939C44.2143 68.9039 43.0752 69.6678 42.8225 70.7308C42.5988 71.6725 42.3586 72.6102 42.1018 73.5439C41.8449 74.4856 42.4124 75.197 43.6344 75.1606Z" fill="#001F33"></path>
  <path d="M76.5625 75.3503C75.9385 75.3503 75.3757 75.3732 74.8167 75.335C74.6789 75.3273 74.476 75.1513 74.4377 75.0136C74.296 74.5008 74.2003 73.9766 74.1161 73.4485C74.0702 73.1654 73.9515 73.0774 73.6605 73.085C72.5005 73.108 71.3366 73.1195 70.1766 73.0927C69.8512 73.085 69.6789 73.196 69.5143 73.4485C69.1659 73.9842 68.7792 74.4932 68.4308 75.0327C68.27 75.2776 68.0862 75.3771 67.7953 75.3618C67.4163 75.3388 67.0334 75.3579 66.5625 75.3579C66.9262 74.8452 67.2478 74.3822 67.577 73.9268C69.4683 71.3134 71.3673 68.6999 73.247 66.0788C73.5457 65.6656 73.9017 65.4207 74.4645 65.3633C75.1574 68.6808 75.8542 71.9945 76.5625 75.3503ZM73.0748 68.5737C73.0326 68.5622 72.9867 68.5507 72.9446 68.5354C72.198 69.6144 71.4553 70.6935 70.636 71.8797C71.7042 71.8797 72.6268 71.8874 73.5495 71.8644C73.6069 71.8644 73.7179 71.6425 73.7026 71.5391C73.6375 71.0876 73.5342 70.6438 73.4385 70.1961C73.3198 69.6565 73.1934 69.1132 73.0748 68.5737Z" fill="#001F33"></path>
  <path d="M93.7033 55.6736C93.7281 55.5586 93.7488 55.4519 93.7735 55.341C94.0048 54.3802 94.0048 54.3802 95.0044 54.45C95.496 54.4829 95.8264 54.9017 95.8966 55.575C95.9049 55.6736 95.9007 55.7721 95.9049 55.8707C95.9379 56.7124 96.1321 56.9054 96.9706 56.9054C98.3088 56.9095 99.6471 56.9012 100.981 56.9136C101.254 56.9177 101.386 56.8643 101.452 56.5646C102.022 54.0723 102.613 51.5882 103.195 49.1001C103.332 48.5129 103.464 47.9217 103.592 47.3633C103.897 47.6918 104.224 48.0161 104.513 48.3692C104.583 48.4554 104.567 48.6484 104.538 48.7839C103.852 51.7853 103.154 54.7867 102.472 57.7881C102.394 58.1289 102.2 58.1576 101.907 58.1576C97.6149 58.1494 93.3192 58.1576 89.0276 58.1412C88.6558 58.1412 88.4824 58.2357 88.3543 58.5888C88.061 59.3976 87.491 59.956 86.6484 60.2311C85.6034 60.5719 84.9756 60.2681 84.5625 59.1513C84.8971 59.3032 85.1945 59.4551 85.5043 59.5701C86.066 59.7795 86.5617 59.6522 86.7971 59.1061C87.1069 58.3958 87.3093 57.6321 87.5199 56.8848C87.6149 56.544 87.7099 56.2689 88.0569 56.0719C88.4493 55.846 88.7756 55.5176 89.1804 55.1932C89.0648 55.7721 88.9615 56.3059 88.8417 56.9095C89.4861 56.9095 90.0437 56.9095 90.6013 56.9095C91.857 56.9136 93.1127 56.9095 94.3642 56.9218C94.6533 56.9259 94.8103 56.8766 94.7236 56.5358C94.5831 55.9487 94.7896 55.69 93.7033 55.6736Z" fill="#001F33"></path>
  <path d="M120.695 73.6398C119.855 75.4529 118.571 76.264 117.029 76.3551C115.121 76.4636 113.267 75.505 113.602 72.5468C113.868 70.2132 114.955 68.5346 116.944 67.7018C117.869 67.3157 118.852 67.2507 119.805 67.5543C121.061 67.9577 121.736 69.2806 121.524 70.7988C121.35 72.0263 121.35 72.0263 120.24 72.0263C118.837 72.0263 117.434 72.035 116.035 72.0176C115.695 72.0133 115.549 72.087 115.537 72.5208C115.487 74.6982 117.029 75.7479 118.914 74.7589C119.365 74.5204 119.743 74.1083 120.167 73.8003C120.283 73.7136 120.448 73.7136 120.695 73.6398ZM115.973 70.7814C116.011 70.8248 116.023 70.8465 116.035 70.8465C117.141 70.8638 118.243 70.8812 119.35 70.8812C119.435 70.8812 119.569 70.7467 119.6 70.6469C119.924 69.6016 119.292 68.6213 118.309 68.63C117.26 68.6387 116.378 69.4498 115.973 70.7814Z" fill="#001F33"></path>
  <path d="M33.5903 72.0372C33.5903 72.3586 33.5903 72.5801 33.5903 72.8016C33.6019 74.4781 34.5656 75.3293 36.1252 75.06C36.9379 74.9167 37.5958 74.4737 38.1763 73.844C38.2769 73.7354 38.4666 73.7267 38.6446 73.7441C37.9441 75.3163 36.8063 76.1328 35.3009 76.3195C34.0818 76.4715 32.9518 76.2631 32.139 75.1252C31.4811 74.2001 31.4695 73.0926 31.694 72.0068C32.1274 69.8874 33.2343 68.363 35.0958 67.6638C36.0865 67.2903 37.1275 67.2338 38.1299 67.6724C38.9658 68.0373 39.4534 68.7582 39.5463 69.7398C39.6005 70.313 39.5037 70.908 39.4766 71.4944C39.4573 71.9243 39.2676 72.0546 38.8768 72.0503C37.3017 72.0199 35.7227 72.0372 34.1476 72.0372C33.9812 72.0372 33.8148 72.0372 33.5903 72.0372ZM33.9386 70.8646C35.2119 70.8646 36.4038 70.8646 37.619 70.8646C37.6461 70.6344 37.6848 70.4303 37.6887 70.2262C37.7158 69.11 37.1933 68.5367 36.2026 68.6279C35.0067 68.7322 34.4224 69.6486 33.9386 70.8646Z" fill="#001F33"></path>
  <path d="M56.6646 73.8194C55.8889 75.2865 54.7775 76.1006 53.3072 76.314C52.2729 76.462 51.2966 76.2965 50.4862 75.5477C49.5793 74.7119 49.4558 73.5364 49.6295 72.3175C50.1041 68.9914 52.6241 66.967 55.422 67.4285C57.1007 67.7028 57.7104 69.2091 57.5329 70.8199C57.4017 72.0258 57.3708 72.0214 56.2825 72.0214C54.8354 72.0171 53.3844 72.0084 51.9372 72.0258C51.8137 72.0258 51.5783 72.2391 51.586 72.3392C51.6285 72.9008 51.6748 73.4711 51.8176 74.0066C51.9604 74.5377 52.3578 74.8338 52.8364 74.96C54.0404 75.2778 55.0824 74.9426 55.9854 73.9936C56.1475 73.8151 56.3134 73.3971 56.6646 73.8194ZM53.751 70.8808C54.2604 70.8808 54.7698 70.8982 55.2753 70.8721C55.3949 70.8678 55.6033 70.7459 55.6188 70.6457C55.7963 69.5704 55.4953 68.5386 54.2527 68.5996C53.311 68.6475 52.2151 69.6227 52.0105 70.6109C51.999 70.6762 52.1765 70.8634 52.2729 70.8678C52.7631 70.8939 53.257 70.8808 53.751 70.8808Z" fill="#001F33"></path>
  <path d="M162.525 73.8114C161.697 75.2819 160.458 76.078 158.83 76.3043C157.6 76.4739 156.434 76.3043 155.495 75.4472C154.503 74.5467 154.446 73.3416 154.672 72.1235C155.265 68.9694 158.05 66.916 161.238 67.4467C162.94 67.7295 163.763 69.1564 163.521 70.7009C163.27 72.2888 163.62 71.9973 162.005 72.0147C160.415 72.0278 158.821 72.0191 157.231 72.006C156.937 72.0016 156.842 72.1104 156.807 72.3888C156.621 74.0681 157.483 75.0513 159.163 75.0687C160.19 75.0818 161.035 74.6859 161.767 73.9811C161.948 73.8027 162.135 73.4503 162.525 73.8114ZM157.288 70.8749C158.592 70.8749 159.878 70.8792 161.164 70.8705C161.229 70.8705 161.32 70.7922 161.359 70.727C161.784 70.0004 161.147 68.7214 160.29 68.617C158.869 68.4386 157.743 69.3261 157.288 70.8749Z" fill="#001F33"></path>
  <path d="M105.681 72.0283C105.266 73.8076 106.045 75.0082 107.399 75.0865C108.5 75.1475 109.389 74.6863 110.145 73.8424C110.331 73.6335 110.479 73.5291 110.665 73.8554C109.982 75.1605 108.997 75.9566 107.651 76.2655C106.941 76.4264 106.274 76.3786 105.591 76.1959C104.137 75.8044 103.408 74.4514 103.59 72.4894C103.815 70.0619 105.425 68.0086 107.55 67.5126C108.431 67.3082 109.323 67.2647 110.192 67.6997C111.088 68.1478 111.499 68.9439 111.557 69.9793C111.588 70.51 111.483 71.0494 111.444 71.5845C111.417 71.9587 111.243 72.05 110.917 72.0457C109.319 72.0239 107.721 72.0326 106.127 72.0326C105.975 72.0283 105.82 72.0283 105.681 72.0283ZM106.014 70.8928C107.158 70.8928 108.268 70.8972 109.377 70.8885C109.455 70.8885 109.567 70.8363 109.606 70.7667C109.967 70.175 109.517 68.9004 108.881 68.6829C107.713 68.2826 106.193 69.4094 106.014 70.8928Z" fill="#001F33"></path>
  <path d="M142.157 67.3633C143.436 67.385 144.523 67.7589 145.176 68.9109C145.644 69.7325 145.636 70.6454 145.421 71.5409C144.979 73.3971 144.019 74.8969 142.249 75.7663C140.895 76.427 139.476 76.6096 138.07 75.9532C137.018 75.462 136.558 74.5317 136.563 73.4145C136.567 70.8279 138.039 68.4022 140.817 67.585C141.25 67.4546 141.71 67.4328 142.157 67.3633ZM138.744 73.0624C138.757 74.4752 139.248 75.1751 140.168 75.1186C140.646 75.0881 141.206 74.9273 141.553 74.623C143.06 73.3015 143.498 71.5626 143.244 69.6368C143.156 68.9848 142.652 68.6283 141.995 68.5892C141.285 68.5501 140.698 68.8022 140.212 69.3064C139.156 70.4193 138.867 71.8104 138.744 73.0624Z" fill="#001F33"></path>
  <path d="M99.5625 65.3678C99.4438 65.8236 99.337 66.2148 99.2302 66.625C97.8931 66.625 96.5836 66.6402 95.2741 66.6174C94.9023 66.6098 94.748 66.7161 94.6768 67.0732C94.5502 67.7112 94.3524 68.3342 94.1902 68.9684C94.1506 69.1242 94.1308 69.2837 94.0952 69.4926C95.381 69.4926 96.6073 69.4926 97.8891 69.4926C97.7902 69.8876 97.7348 70.2446 97.6043 70.5751C97.5607 70.6852 97.3273 70.7878 97.181 70.7916C96.184 70.8106 95.1871 70.8144 94.1941 70.7878C93.85 70.7802 93.6917 70.8713 93.6126 71.2094C93.3119 72.4628 92.9717 73.7048 92.6552 74.9544C92.5801 75.2506 92.4456 75.3836 92.1054 75.3608C91.6188 75.3304 91.1282 75.3532 90.5625 75.3532C90.7366 74.6695 90.8948 74.0314 91.057 73.3933C91.6662 71.0271 92.2636 68.657 92.8966 66.2983C93.1181 65.4741 93.0548 65.3526 94.0794 65.364C95.8794 65.3792 97.6794 65.3678 99.5625 65.3678Z" fill="#001F33"></path>
  <path d="M149.149 68.5844C149.098 68.8598 149.052 69.0923 148.987 69.4607C149.234 69.2998 149.384 69.2032 149.531 69.103C150.357 68.5415 151.249 68.2232 152.295 68.4235C153.167 68.5916 153.684 69.1674 153.538 69.9865C153.368 70.9415 153.086 71.8751 152.847 72.8193C152.658 73.5562 152.449 74.2858 152.272 75.0227C152.21 75.2802 152.086 75.3732 151.801 75.3625C151.341 75.3446 150.882 75.3589 150.349 75.3589C150.515 74.7222 150.666 74.1356 150.824 73.549C151.079 72.5797 151.357 71.614 151.592 70.6411C151.812 69.7218 151.187 69.1567 150.214 69.4321C149.403 69.661 148.693 70.0008 148.543 70.9344C148.423 71.6783 148.168 72.4009 147.967 73.1341C147.767 73.8638 147.562 74.5934 147.358 75.3374C146.763 75.3374 146.184 75.3374 145.562 75.3374C145.918 74.0069 146.257 72.7085 146.609 71.4101C146.836 70.566 147.08 69.729 147.296 68.8813C147.354 68.6559 147.454 68.5737 147.701 68.5773C148.168 68.5916 148.643 68.5844 149.149 68.5844Z" fill="#001F33"></path>
  <path d="M22.5737 74.1424C22.7555 74.0854 22.9156 74.0365 23.0931 73.9836C23.4263 74.7247 23.924 75.2418 24.8285 75.2174C25.8239 75.193 26.5466 74.7247 26.9405 73.8859C27.2304 73.2669 27.4598 72.6154 27.6415 71.9598C28.1912 69.9809 28.7062 67.9938 29.2212 66.0067C29.2861 65.7542 29.3813 65.6076 29.6843 65.5832C30.2815 65.5302 30.8787 65.4447 31.5625 65.3633C31.3591 66.141 31.1773 66.8577 30.9826 67.5703C30.4416 69.5655 29.9439 71.5689 29.338 73.5479C28.8706 75.0627 27.7021 75.9056 26.0662 76.2598C25.3998 76.4023 24.7896 76.3983 24.1404 76.2435C23.1493 75.9951 22.4656 75.1237 22.5737 74.1424Z" fill="#001F33"></path>
  <path d="M82.5625 65.3633C81.5777 68.7464 80.6195 72.0414 79.6525 75.3633C78.9707 75.3633 78.3023 75.3633 77.5625 75.3633C77.7408 74.7234 77.9101 74.0951 78.0928 73.4706C78.7924 71.0568 79.5055 68.6468 80.1828 66.2292C80.321 65.7388 80.5661 65.4974 81.1721 65.4974C81.6133 65.4974 82.05 65.4169 82.5625 65.3633Z" fill="#001F33"></path>
  <path d="M62.5625 65.3633C62.3595 66.2442 62.1778 67.0564 61.989 67.861C61.4441 70.2024 60.8884 72.5438 60.3577 74.889C60.2758 75.2589 60.1297 75.3924 59.7807 75.3581C59.3995 75.3238 59.0184 75.3505 58.5625 75.3505C58.7157 74.6755 58.851 74.0501 58.9971 73.4247C59.567 70.9613 60.144 68.4979 60.7068 66.0306C60.7709 65.7446 60.8884 65.5806 61.1769 65.5463C61.6222 65.5044 62.0638 65.4319 62.5625 65.3633Z" fill="#001F33"></path>
  <path d="M101.468 68.5843C101.426 68.8645 101.393 69.0836 101.342 69.4285C102.12 68.825 102.868 68.4406 103.785 68.3723C104.012 68.3544 104.243 68.3687 104.562 68.3687C104.42 68.886 104.293 69.3351 104.159 69.8237C103.226 69.4357 102.317 69.4644 101.443 69.8883C101.266 69.9746 101.081 70.147 101.031 70.3087C100.514 71.9828 100.026 73.664 99.5259 75.3633C98.8742 75.3633 98.2436 75.3633 97.5625 75.3633C97.9283 74.0915 98.2814 72.8414 98.643 71.5948C98.891 70.7326 99.1601 69.874 99.3913 69.0118C99.4754 68.6956 99.6352 68.5519 100.035 68.5771C100.497 68.6094 100.968 68.5843 101.468 68.5843Z" fill="#001F33"></path>
  <path d="M83.5475 75.3633C82.8887 75.3633 82.2598 75.3633 81.5625 75.3633C81.6652 74.9629 81.7593 74.5811 81.8662 74.203C82.3882 72.3941 82.9272 70.5888 83.432 68.7799C83.5219 68.4499 83.6844 68.3499 84.0523 68.3647C84.5443 68.3869 85.0363 68.3684 85.5625 68.3684C84.8866 70.7297 84.2192 73.0391 83.5475 75.3633Z" fill="#001F33"></path>
  <path d="M158.562 58.3175C158.824 57.2262 159.064 56.1845 159.317 55.1428C159.806 53.1339 160.316 51.1291 160.792 49.116C160.879 48.7398 161.023 48.4628 161.38 48.252C161.773 48.0164 162.113 47.7064 162.562 47.3633C162.344 48.252 162.148 49.0498 161.956 49.8517C161.319 52.4725 160.674 55.0891 160.059 57.714C159.945 58.2059 159.718 58.4291 159.182 58.3464C158.994 58.3175 158.807 58.3258 158.562 58.3175Z" fill="#001F33"></path>
  <path d="M107.562 47.3633C106.698 50.9095 105.856 54.3235 105.052 57.7416C104.939 58.2293 104.735 58.4194 104.227 58.3492C104.027 58.3202 103.823 58.345 103.562 58.345C103.949 56.7455 104.318 55.2286 104.687 53.7076C105.052 52.199 105.43 50.6946 105.777 49.1819C105.873 48.7768 106.016 48.4627 106.42 48.2395C106.802 48.0287 107.12 47.7146 107.562 47.3633Z" fill="#001F33"></path>
  <path d="M84.5625 54.3633C84.2948 55.6123 84.0342 56.8185 83.7844 58.0208C83.738 58.2504 83.6666 58.3671 83.4239 58.3632C82.4709 58.3515 81.5215 58.3593 80.5685 58.3593C80.4543 56.301 81.9748 54.9819 84.5625 54.3633ZM83.1348 55.908C82.5851 56.1415 82.1604 56.336 81.9213 56.8107C81.8749 56.9002 81.9034 57.0325 81.8963 57.1453C82.2175 57.1298 82.6565 57.2465 82.835 57.0636C83.0456 56.8457 83.0277 56.371 83.1348 55.908Z" fill="#001F33"></path>
  <path d="M83.5625 67.3585C83.685 66.6872 83.7751 66.1179 83.8976 65.5647C83.9193 65.468 84.0634 65.3821 84.1499 65.3767C84.5931 65.3552 85.0328 65.366 85.5625 65.366C85.4616 65.9997 85.3859 66.5529 85.2778 67.09C85.2526 67.2081 85.1048 67.3424 85.0111 67.3477C84.5571 67.3746 84.103 67.3585 83.5625 67.3585Z" fill="#001F33"></path>
  <path d="M144.422 52.3631C143.907 52.3688 143.552 52.1975 143.563 51.9503C143.579 51.6386 144.167 51.3577 144.798 51.3634C145.27 51.3662 145.54 51.4897 145.562 51.7481C145.588 52.0767 145.068 52.3547 144.422 52.3631Z" fill="#001F33"></path>
  <path d="M123.42 50.3632C122.882 50.366 122.562 50.2152 122.562 49.9526C122.562 49.6426 123.101 49.3661 123.713 49.3633C124.203 49.3633 124.528 49.4778 124.56 49.7487C124.603 50.0783 124.07 50.3577 123.42 50.3632Z" fill="#001F33"></path>
  <path d="M121.205 50.3631C120.815 50.3687 120.59 50.1993 120.564 49.9521C120.532 49.6633 121.178 49.3578 121.793 49.3634C122.263 49.3689 122.552 49.48 122.562 49.7411C122.573 50.0799 122.023 50.3659 121.205 50.3631Z" fill="#001F33"></path>
  <path d="M26.3711 63.3629C25.8978 63.3065 25.5521 63.0976 25.5627 62.5332C25.5734 61.8615 26.1371 61.331 26.7806 61.3648C27.2806 61.393 27.5677 61.664 27.5624 62.2115C27.5518 62.8267 26.9668 63.3798 26.3711 63.3629Z" fill="#001F33"></path>
  <path d="M24.9479 63.3632C24.6785 63.3632 24.5573 63.0472 24.5627 62.5013C24.5681 61.8404 24.8294 61.352 25.1581 61.3635C25.3925 61.3692 25.5541 61.5589 25.5622 62.1048C25.573 62.8231 25.3009 63.369 24.9479 63.3632Z" fill="#001F33"></path>
  <path d="M60.5625 59.7502C60.5625 60.0871 60.014 60.3549 59.3769 60.3631C58.8728 60.3687 58.557 60.2113 58.5626 59.9545C58.5737 59.6481 59.2108 59.3499 59.8312 59.3637C60.3575 59.3748 60.5237 59.5515 60.5625 59.7502Z" fill="#001F33"></path>
  <path d="M84.5616 51.754C84.553 52.1231 84.3105 52.3602 83.9881 52.3632C83.7285 52.3662 83.5744 52.2342 83.563 51.9611C83.5487 51.6489 83.8626 51.3488 84.1707 51.3638C84.4246 51.3818 84.5758 51.5049 84.5616 51.754Z" fill="#001F33"></path>
  <path d="M66.8237 59.3633C66.6988 59.3602 66.5683 59.2478 66.5626 58.9956C66.5569 58.6491 66.8351 58.3544 67.1672 58.3635C67.3745 58.3696 67.5505 58.4425 67.5618 58.7069C67.5789 59.0503 67.2751 59.3572 66.8237 59.3633Z" fill="#001F33"></path>
  <path d="M114.356 52.3631C113.814 52.3691 113.568 52.2126 113.563 51.9446C113.557 51.6315 114.116 51.3545 114.71 51.3635C115.218 51.3695 115.526 51.508 115.561 51.773C115.601 52.0801 114.984 52.3691 114.356 52.3631Z" fill="#001F33"></path>
  <path d="M83.5625 52.1546C83.5566 52.8387 83.0217 53.3919 82.3751 53.3621C81.8814 53.3383 81.5933 53.0647 81.5639 52.571C81.5287 51.9642 82.1459 51.3516 82.7807 51.3635C83.2803 51.3753 83.5625 51.6311 83.5625 52.1546Z" fill="#001F33"></path>
  <path d="M112.886 51.3639C113.31 51.4118 113.579 51.699 113.562 52.2076C113.545 52.8419 112.983 53.3865 112.388 53.3625C111.936 53.3446 111.592 53.1351 111.563 52.6145C111.535 51.9982 112.216 51.34 112.886 51.3639Z" fill="#001F33"></path>
</svg>
