<?xml version="1.0" encoding="UTF-8"?>
<svg xmlns="http://www.w3.org/2000/svg" width="187" height="42" viewBox="0 0 187 42" fill="none">
  <path d="M41.2267 19.8233C38.8198 22.3263 35.5634 24.5826 31.7407 26.2395C31.0682 26.5215 30.3957 26.8035 29.7232 27.0503C30.6788 21.9033 30.0063 15.6986 27.4225 9.81127C25.7589 5.96862 23.5289 2.76053 20.9805 0.363281C30.0063 3.64187 37.3332 10.7279 41.2267 19.8233Z" fill="#001F33"></path>
  <path d="M0.699219 21.9028C3.10611 19.3998 6.3625 17.1435 10.1852 15.4866C10.8577 15.2046 11.5302 14.9226 12.2028 14.6758C11.2471 19.8228 11.9196 26.0275 14.5035 31.9148C16.1671 35.7222 18.4324 38.9303 20.9455 41.3628C11.9196 38.1195 4.59273 30.9982 0.699219 21.9028Z" fill="#001F33"></path>
  <path d="M19.9211 0.679688C22.4342 3.07694 24.6995 6.32028 26.3631 10.1277C26.6463 10.7975 26.9294 11.4673 27.1772 12.1371C22.0095 11.1853 15.7799 11.8551 9.86881 14.4286C6.0107 16.0855 2.78971 18.3418 0.382812 20.8448C3.6746 11.8551 10.7891 4.55759 19.9211 0.679688Z" fill="#001F33"></path>
  <path d="M22.01 41.046C19.4969 38.6487 17.2316 35.4054 15.568 31.598C15.2848 30.9282 15.0017 30.2583 14.7539 29.5885C19.9217 30.5756 26.1513 29.8705 32.0623 27.297C35.885 25.6401 39.106 23.3839 41.5483 20.8809C38.2919 29.8705 31.142 37.1681 22.01 41.046Z" fill="#001F33"></path>
  <path d="M50.7852 12.1387H60.6959V15.5935H54.5725V19.1189H60.6959V22.5385H54.5725V26.1696H60.6959V29.6245H50.7852V12.1387Z" fill="#001F33"></path>
  <path d="M75.3844 12.1387H79.1009V29.6597H75.4198L67.385 18.3081V29.6597H63.5977V12.1387H67.3496L75.4198 23.4198V12.1387H75.3844Z" fill="#001F33"></path>
  <path d="M81.9688 12.1387H87.986C89.6142 12.1387 90.9238 12.597 91.9149 13.5488C92.906 14.5007 93.4015 15.7345 93.4015 17.2505C93.4015 18.2728 93.1537 19.2247 92.6582 20.106C92.1627 21.0226 91.4194 21.6924 90.4637 22.1155C89.4726 22.5738 88.6585 22.7853 87.9506 22.8205L85.7561 22.891V29.6597H82.0041V12.1387H81.9688ZM85.6853 15.2762V19.7535H87.1719C87.809 19.7535 88.3399 19.5419 88.8001 19.0836C89.2602 18.6253 89.4726 18.0965 89.4726 17.462C89.4726 16.7569 89.2248 16.1928 88.6939 15.8051C88.1984 15.4173 87.4551 15.2057 86.5348 15.2057L85.6853 15.2762Z" fill="#001F33"></path>
  <path d="M95.1367 12.1387H98.924V29.6597H95.1367V12.1387Z" fill="#001F33"></path>
  <path d="M123.877 15.9454L121.364 18.3074C120.833 17.3908 120.196 16.721 119.417 16.2627C118.639 15.8044 117.825 15.5928 116.975 15.5928C115.595 15.5928 114.391 16.1216 113.4 17.144C112.374 18.2016 111.878 19.4002 111.878 20.8456C111.878 22.3615 112.374 23.6307 113.4 24.6883C114.427 25.7459 115.63 26.2747 117.081 26.2747C117.86 26.2747 118.603 26.0632 119.311 25.6754C120.019 25.2876 120.621 24.5473 121.046 23.4897H116.834V20.0701H124.974V22.3263C124.974 23.4897 124.585 24.7588 123.771 26.0984C122.957 27.4381 121.895 28.4252 120.585 29.0245C119.276 29.6591 117.931 29.9411 116.621 29.9411C114.179 29.9411 112.126 29.0597 110.462 27.2971C108.799 25.5344 107.949 23.3839 107.949 20.8104C107.949 18.3779 108.799 16.2627 110.533 14.5352C112.267 12.8078 114.32 11.9265 116.763 11.9265C119.807 11.8912 122.214 13.2308 123.877 15.9454Z" fill="#001F33"></path>
  <path d="M126.746 12.1387H132.551C134.321 12.1387 135.701 12.597 136.728 13.5136C137.754 14.4302 138.25 15.6993 138.25 17.2505C138.25 18.167 138.002 19.0836 137.542 20.0707C137.082 21.0578 136.197 21.7982 134.958 22.3622L139.878 29.6597H135.524L130.958 22.891H130.533V29.6597H126.746V12.1387ZM130.569 15.241V19.824H131.383C133.365 19.824 134.356 19.0131 134.356 17.3915C134.356 16.7216 134.108 16.1928 133.577 15.8403C133.046 15.4525 132.339 15.2762 131.418 15.2762H130.569V15.241Z" fill="#001F33"></path>
  <path d="M139.875 20.8802C139.875 18.3067 140.724 16.1562 142.459 14.464C144.193 12.7719 146.211 11.9258 148.582 11.9258C151.202 11.9258 153.361 12.7719 155.06 14.464C156.759 16.1562 157.608 18.3067 157.608 20.8802C157.608 23.4537 156.759 25.6042 155.06 27.2964C153.361 28.9886 151.237 29.8347 148.688 29.8347C146.105 29.8347 144.016 28.9886 142.353 27.2964C140.689 25.6395 139.875 23.489 139.875 20.8802ZM148.759 15.4159C147.273 15.3806 146.105 15.9094 145.184 16.9318C144.264 17.9894 143.839 19.3291 143.839 20.9507C143.839 22.5019 144.299 23.8063 145.22 24.8286C146.14 25.851 147.308 26.3798 148.688 26.3798C150.175 26.3798 151.343 25.8862 152.263 24.8639C153.184 23.8415 153.608 22.5371 153.608 20.8802C153.608 19.2585 153.148 17.9542 152.263 16.9671C151.414 15.98 150.21 15.4511 148.759 15.4159Z" fill="#001F33"></path>
  <path d="M159.059 12.1387H162.811V22.8558C162.811 23.8429 163.094 24.6537 163.66 25.253C164.226 25.8524 164.934 26.1696 165.855 26.1696C166.881 26.1696 167.695 25.8524 168.261 25.253C168.828 24.6537 169.111 23.7724 169.111 22.6795V12.1387H172.827V23.4904C172.827 24.4775 172.58 25.5351 172.049 26.5927C171.518 27.6503 170.739 28.4964 169.642 29.0604C168.58 29.6245 167.377 29.9065 166.032 29.9065C163.625 29.9065 161.855 29.2367 160.722 27.8971C159.59 26.5574 159.059 25.1473 159.059 23.6666V12.1387Z" fill="#001F33"></path>
  <path d="M175.129 12.1387H181.146C182.774 12.1387 184.084 12.597 185.075 13.5488C186.066 14.5007 186.562 15.7345 186.562 17.2505C186.562 18.2728 186.314 19.2247 185.818 20.106C185.323 21.0226 184.58 21.6924 183.624 22.1155C182.633 22.5738 181.783 22.7853 181.111 22.8205L178.916 22.891V29.6597H175.164V12.1387H175.129ZM178.845 15.2762V19.7535H180.332C180.969 19.7535 181.5 19.5419 181.96 19.0836C182.42 18.6253 182.633 18.0965 182.633 17.462C182.633 16.7569 182.385 16.1928 181.854 15.8051C181.359 15.4173 180.615 15.2057 179.695 15.2057L178.845 15.2762Z" fill="#001F33"></path>
</svg>
