<?xml version="1.0" encoding="UTF-8"?>
<svg xmlns="http://www.w3.org/2000/svg" width="145" height="92" viewBox="0 0 145 92" fill="none">
  <path d="M73.6299 0.363281C74.2231 0.712021 74.7073 0.984719 75.1754 1.27315C77.6732 2.83461 80.0002 4.62288 82.233 6.50162C84.2156 8.18369 86.1054 9.94181 87.932 11.7917C90.68 14.5659 93.241 17.5053 95.5209 20.6583C97.0515 22.7652 98.441 24.9481 99.6583 27.2359C101.126 29.9943 102.312 32.859 103.03 35.8901C103.406 37.4817 103.593 39.1179 103.796 40.7554C104.061 42.7862 103.796 44.8026 103.562 46.8334C103.342 48.7738 102.952 50.6827 102.281 52.5168C101.188 55.5336 99.4713 58.1399 97.1282 60.3831C95.7536 61.7165 94.2552 62.8991 92.7245 64.0515C91.7722 64.7791 90.6786 65.0819 89.5394 65.2642C87.1196 65.6431 84.6675 65.7794 82.2316 65.9617C80.7951 66.0679 79.3424 66.2199 77.9072 66.3563C77.6571 66.372 77.3921 66.3563 77.1419 66.3563C77.111 65.9617 77.3289 65.9171 77.5481 65.8568C78.0014 65.7362 78.4533 65.63 78.9066 65.4936C80.9363 64.8564 82.997 64.2665 84.9957 63.5231C87.1976 62.7194 89.1964 61.5382 91.0848 60.1734C93.3795 58.5057 95.4415 56.5968 97.2049 54.4139C99.1727 51.9885 100.64 49.3061 101.436 46.3208C102.046 44.0619 102.249 41.7584 101.983 39.4404C101.843 38.2133 101.404 37.0451 100.921 35.894C99.9058 33.4988 98.4854 31.3316 96.987 29.2103C94.6923 25.951 92.1313 22.9199 89.3672 20.0251C87.9777 18.5554 86.6354 17.0543 85.1827 15.6449C82.997 13.5236 80.7332 11.4771 78.4843 9.40035C77.6261 8.61241 76.7357 7.85462 75.8614 7.0811C75.5184 6.77825 75.2212 6.67205 75.049 6.83856C74.784 7.09683 74.94 7.3538 75.0651 7.61208C75.4713 8.50621 75.8614 9.40035 76.2986 10.2643C77.953 13.6285 79.9679 16.7973 82.0137 19.9346C83.8094 22.6629 85.636 25.3912 87.3698 28.1497C90.1487 32.56 92.7406 37.0766 94.7555 41.8816C95.8168 44.4277 96.7691 47.0196 97.4873 49.6719C97.5963 50.0665 97.5963 50.0665 97.2842 50.4598C97.1901 50.3392 97.0811 50.233 97.0341 50.1111C96.2997 47.7472 95.2693 45.4883 94.2552 43.2307C92.7877 40.0029 91.1171 36.8655 89.3215 33.8187C87.9791 31.5453 86.6206 29.2864 85.1988 27.0589C83.5121 24.4066 81.7635 21.8003 80.0459 19.1782C78.2812 16.48 76.5635 13.7373 75.0961 10.8727C74.1908 9.11454 73.4416 7.28038 73.0031 5.34003C72.9413 5.08175 72.8942 4.82478 72.909 4.56651C73.0179 3.42983 73.1592 2.29315 73.3152 1.15647C73.3798 0.924411 73.5196 0.696288 73.6299 0.363281Z" fill="#001F33"></path>
  <path d="M55.9071 28.3967C56.1646 28.7333 55.9986 28.9639 55.9071 29.1931C55.0419 31.2153 53.5401 32.563 51.5077 33.2984C50.0818 33.8033 48.6244 34.2181 47.1684 34.662C44.6041 35.4439 43.1023 37.2209 42.4645 39.7785C41.4934 43.7314 42.4946 47.2232 45.0132 50.3029C46 51.5127 47.2586 52.447 48.7604 52.9068C50.9457 53.5654 53.0539 53.3361 54.9961 52.1409C57.8336 50.3943 59.5327 47.8208 60.1849 44.5424C60.4738 43.1324 60.3209 41.7079 60.0333 40.3138C59.6543 38.5368 59.2439 36.7757 58.8047 35.0132C58.38 33.3276 57.8493 31.6579 57.4089 29.9577C56.9083 28.0429 56.392 26.1121 55.9829 24.1668C55.664 22.6349 55.4523 21.0725 55.2549 19.5102C55.0732 18.0552 55.0419 16.5842 55.315 15.1292C55.3608 14.8682 55.4823 14.6243 55.5581 14.3633C55.6039 14.3633 55.6496 14.3633 55.6941 14.3633C55.7542 14.4852 55.8457 14.6084 55.8757 14.7303C56.2548 16.7525 56.6037 18.7747 57.0285 20.781C57.3775 22.4971 57.7722 24.1973 58.227 25.8829C58.7276 27.7818 59.274 29.6662 60.0634 31.475C60.5182 32.5166 61.0502 33.5131 61.8083 34.3705C61.854 34.4169 61.8997 34.4619 61.9442 34.5083C63.4159 36.1316 65.1006 35.6413 66.2678 34.6461C67.0572 33.9716 67.648 33.1302 68.0584 32.18C68.589 30.9397 69.0595 29.6675 69.5144 28.3967C69.5902 28.1674 69.5902 27.8759 69.5301 27.6308C69.0752 25.9147 68.9994 24.184 69.0595 22.4216C69.0752 22.0995 69.1053 21.763 69.2112 21.4568C69.3628 20.9665 69.6359 20.8897 70.045 21.1812C70.1365 21.2422 70.2123 21.319 70.3025 21.3959C71.6069 22.5753 73.11 22.8059 74.7176 22.2387C75.6586 21.9021 76.5382 21.4568 77.4479 21.0593C77.5394 21.0129 77.6453 20.9983 77.8126 20.9374C77.8583 21.1362 77.9185 21.2899 77.9041 21.4423C77.8126 22.4375 77.7525 23.4486 77.6009 24.4451C77.4492 25.4098 76.963 26.2062 76.1749 26.7893C75.507 27.2637 74.8391 27.7699 74.1268 28.1674C72.6394 29.0102 71.7755 30.297 71.2292 31.8898C70.6828 33.4826 70.1365 35.0768 69.5144 36.6233C68.9079 38.1247 67.9969 39.4273 66.4795 40.1614C65.3725 40.7127 64.204 40.8359 63.0055 40.6213C62.7781 40.5749 62.565 40.453 62.3533 40.3602C61.8828 40.1614 61.6553 40.2688 61.5952 40.7896C61.5194 41.4336 61.4893 42.0922 61.4593 42.7508C61.3678 44.5583 60.9587 46.289 60.4882 48.0209C59.9719 49.9199 59.3053 51.7738 58.2584 53.4594C57.5448 54.6083 56.7109 55.6658 55.6941 56.5695C53.2813 58.7136 49.5041 58.7759 47.2129 57.5965C45.1648 56.539 43.8447 54.8548 42.8135 52.8631C41.7064 50.7335 41.2359 48.4198 40.9628 46.0769C40.8111 44.7743 40.9928 43.4571 41.1758 42.1558C41.3431 40.8532 41.4947 39.5519 41.9038 38.2956C42.2371 37.315 42.6174 36.3808 43.2082 35.5234C44.1035 34.2367 45.3177 33.4098 46.7737 32.9195C48.1696 32.445 49.5812 32.0462 50.9914 31.5863C52.7964 31.0046 54.4053 30.1154 55.6339 28.614C55.6797 28.5491 55.7856 28.5027 55.9071 28.3967Z" fill="#001F33"></path>
  <path d="M75.1271 47.6615C75.1271 47.9665 75.1111 48.2716 75.1271 48.5779C75.1886 50.5626 75.7016 52.4549 76.6622 54.2111C77.0028 54.8529 77.3288 54.8674 77.7016 54.2573C78.4618 53.0214 78.9882 51.6929 79.3302 50.2734C79.6094 49.1286 79.6094 47.9982 79.3609 46.8388C79.0509 45.4193 78.5232 44.0909 77.8405 42.8087C77.5773 42.3056 77.2206 41.8474 76.8639 41.4196C76.4912 40.9917 76.1198 41.0683 75.934 41.6031C75.8566 41.8316 75.7951 42.0613 75.7323 42.2898C75.3288 44.0434 75.1271 45.8445 75.1271 47.6615ZM75.7002 33.6327C75.8392 33.7859 75.9955 33.9377 76.1184 34.0909C77.7002 36.0597 78.7089 38.2887 79.4224 40.6709C79.8726 42.167 80.2293 43.7093 80.4765 45.2503C80.6622 46.411 80.6475 47.6008 80.6314 48.7615C80.6154 49.9974 80.5379 51.2493 80.3682 52.4707C80.2133 53.539 79.934 54.6072 79.6709 55.661C79.5159 56.2869 79.5773 56.5312 80.244 56.7451C81.6708 57.173 83.0817 57.173 84.4471 56.5167C85.7336 55.8908 86.7891 54.9743 87.4865 53.708C88.3242 53.0055 88.5726 51.9834 88.9748 51.0512C89.6107 49.5551 89.8125 47.9824 89.5947 46.3806C89.2072 43.5112 88.1839 40.8544 86.741 38.3508C86.1211 37.2667 85.4544 36.2142 84.8185 35.1446C84.725 34.9915 84.6328 34.8238 84.4925 34.7326C84.3682 34.6415 84.1358 34.5795 84.0115 34.6415C83.9033 34.7023 83.8726 34.9162 83.8258 35.0694C83.8098 35.146 83.8726 35.2371 83.8873 35.3137C84.5393 37.8477 85.2674 40.3671 85.8258 42.9157C86.3682 45.3427 87.067 47.7394 87.2687 50.2272C87.3155 50.8993 87.3462 51.5701 87.3462 52.2581C87.3462 52.5486 87.238 52.8233 87.1752 53.1283C86.7717 53.0213 86.7877 52.7467 86.725 52.5328C86.4925 51.5094 86.26 50.4873 86.0583 49.464C85.4998 46.5483 84.7717 43.6789 83.9955 40.8082C83.5306 39.0678 83.1271 37.297 82.6929 35.5421C82.4137 34.3972 82.1184 33.2524 81.886 32.1075C81.56 30.5348 81.1886 28.9634 81.1565 27.3445C81.1565 27.2838 81.1565 27.2072 81.1565 27.1465C81.1725 26.8718 81.063 26.5364 81.405 26.3991C81.7149 26.2617 81.8859 26.5522 82.0716 26.7199C83.5145 27.9414 84.6301 29.4375 85.6548 30.9785C86.7717 32.6727 87.8565 34.3986 88.6942 36.2604C89.5626 38.1989 90.3068 40.1994 90.6167 42.2898C90.8492 43.8163 91.0042 45.3586 90.8345 46.9154C90.6956 48.3204 90.6488 49.7399 90.431 51.1436C90.0436 53.5865 89.4223 55.9528 88.2908 58.1963C87.6388 59.4785 86.7557 60.5626 85.5773 61.3562C85.0496 61.7075 84.3682 61.9214 83.7323 62.0284C82.057 62.3334 80.5379 61.8145 79.1111 60.9905C78.7076 60.762 78.3362 60.5019 77.9474 60.2431C77.4664 59.9222 77.3422 59.938 76.924 60.35C76.8465 60.4266 76.7851 60.5177 76.7063 60.5943C75.8071 61.6019 74.737 62.3189 73.3716 62.579C71.9447 62.8537 70.5339 63.2353 69.1071 63.51C67.556 63.815 65.9741 64.0751 64.4083 64.3498C64.2534 64.3802 64.0824 64.3498 63.9127 64.3498C63.8659 64.0289 64.0837 63.984 64.2534 63.8916C65.4317 63.3264 66.6101 62.7771 67.7737 62.2119C70.4257 60.9297 72.8759 59.3425 75.0777 57.3882C75.4811 57.0224 75.6201 56.6712 75.4183 56.1205C74.7517 54.3339 74.3175 52.4879 74.1465 50.5943C73.9608 48.5792 73.9287 46.5483 74.069 44.5188C74.2079 42.336 74.5646 40.1981 74.9374 38.0457C75.1552 36.8098 75.2473 35.5421 75.3876 34.2903C75.4184 34.0922 75.4491 33.8783 75.4811 33.6802C75.5613 33.6789 75.6228 33.6485 75.7002 33.6327Z" fill="#001F33"></path>
  <path d="M81.6975 79.9568C81.8211 80.0011 81.9141 80.0595 81.9911 80.0595C83.41 80.0595 84.8449 80.1761 86.2624 79.8985C87.3106 79.693 88.1596 79.2683 88.5754 78.2565C88.9913 77.2307 89.0378 76.1745 88.776 75.1196C88.4372 73.7414 87.3571 73.0529 85.9848 72.76C84.797 72.4963 83.5788 72.5254 82.3764 72.6433C81.667 72.7017 81.651 72.7308 81.651 73.4206C81.651 75.3998 81.651 77.393 81.651 79.3723C81.667 79.5612 81.6829 79.7666 81.6975 79.9568ZM81.667 85.6156C81.667 86.7884 81.667 87.9612 81.667 89.1341C81.667 89.8669 81.667 89.9253 82.4694 89.9697C83.7647 90.028 85.0601 90.028 86.3554 89.9988C86.7713 89.9988 87.1725 89.8822 87.5896 89.7795C88.7003 89.5157 89.3792 88.8412 89.6874 87.8154C89.9956 86.7897 90.0581 85.7487 89.8415 84.7077C89.6409 83.7111 89.1015 82.8908 88.2074 82.2898C87.405 81.7623 86.5268 81.4694 85.5702 81.4098C84.4901 81.3363 83.4114 81.3363 82.3472 81.3223C81.7307 81.3223 81.6842 81.3667 81.6842 81.9677C81.667 83.1963 81.667 84.4136 81.667 85.6156ZM78.9062 91.0677C78.9062 84.5302 78.9062 78.0802 78.9062 71.5732C79.4775 71.5149 80.0169 71.397 80.5563 71.397C82.407 71.3678 84.2576 71.3386 86.0924 71.397C87.2176 71.4261 88.3137 71.6759 89.3314 72.1298C91.0744 72.9071 91.922 74.2701 91.8609 76.087C91.7839 78.3009 90.3955 79.6195 88.4213 80.2788C88.2207 80.3524 88.0201 80.4259 87.773 80.4982C88.0201 80.7911 88.3283 80.7771 88.5754 80.8494C89.8867 81.2311 91.0585 81.8016 91.9061 82.8718C92.7391 83.9267 93.0008 85.1287 92.8773 86.4194C92.8467 86.7859 92.7696 87.1675 92.6766 87.5339C92.1373 89.5271 90.6413 90.539 88.6671 91.0081C87.68 91.2427 86.6929 91.3897 85.6593 91.3593C83.701 91.301 81.7414 91.2427 79.799 91.1691C79.524 91.1704 79.2464 91.1121 78.9062 91.0677Z" fill="#001F33" stroke="#231F20" stroke-width="0.5" stroke-miterlimit="10"></path>
  <path d="M25.5437 91.3004C24.6087 91.3004 23.7802 91.3004 22.9062 91.3004C22.9062 86.7697 22.9062 82.2694 22.9062 77.6782C23.5698 77.6782 24.2023 77.6782 24.836 77.6782C25.0918 77.6782 25.1529 77.8755 25.1983 78.0741C25.3035 78.4384 25.3944 78.8185 25.5152 79.2748C25.7866 79.138 25.997 79.0618 26.1931 78.9408C27.1735 78.3476 28.2137 77.8913 29.3292 77.5875C30.2642 77.3284 31.1979 77.2837 32.133 77.5415C32.9615 77.769 33.6549 78.2253 34.1224 78.9855C34.2133 79.138 34.3029 79.2748 34.4237 79.4563C34.6497 79.3353 34.8458 79.2288 35.0574 79.1065C36.1574 78.4528 37.2885 77.89 38.5248 77.5704C39.4598 77.3271 40.3935 77.2811 41.3285 77.5244C42.7609 77.8887 43.7712 79.1814 43.8764 80.7622C43.9062 81.1725 43.9062 81.5829 43.9062 81.9932C43.9062 84.8207 43.9062 87.6338 43.9062 90.4613C43.9062 90.7204 43.9062 90.9624 43.9062 91.282C43.0024 91.282 42.1726 91.282 41.2687 91.282C41.2532 91.0387 41.2233 90.7809 41.2233 90.5376C41.2233 87.5878 41.2233 84.6392 41.2077 81.6894C41.2077 81.3093 41.1623 80.9135 41.0571 80.5334C40.8155 79.6509 40.1221 79.1038 39.2182 79.0736C38.7962 79.0578 38.3585 79.1196 37.9365 79.1946C36.9417 79.3919 36.0067 79.7877 35.0873 80.2283C34.7406 80.3953 34.6497 80.6241 34.6653 81.0042C34.6951 84.2578 34.6951 87.5115 34.6951 90.7651C34.6951 90.9177 34.6653 91.0689 34.6653 91.2359C34.2588 91.449 33.8212 91.3267 33.3991 91.3425C32.9926 91.3582 32.5849 91.3425 32.1031 91.3425C32.0875 91.0834 32.0732 90.8559 32.0732 90.6283C32.0732 87.9376 32.0732 85.2468 32.0732 82.5547C32.0732 82.0076 32.0433 81.475 31.9823 80.9279C31.8771 79.8942 31.0928 79.1486 30.0526 79.0736C29.3292 79.0131 28.6358 79.1643 27.9566 79.3932C27.3086 79.6207 26.6904 79.91 26.0424 80.1533C25.636 80.3059 25.5295 80.5939 25.5295 81.0042C25.545 84.1053 25.545 87.2077 25.545 90.3088C25.5437 90.6152 25.5437 90.919 25.5437 91.3004Z" fill="#001F33" stroke="#231F20" stroke-width="0.5" stroke-miterlimit="10"></path>
  <path d="M143.906 90.2926C143.906 90.5479 143.906 90.772 143.906 91.0415C142.875 91.3409 141.844 91.4756 140.799 91.2515C140.061 91.1011 139.461 90.6671 139 90.128C138.338 89.3337 137.708 88.5096 137.123 87.657C136.493 86.7137 135.955 85.7095 135.354 84.7209C135.247 84.5407 135.108 84.3762 134.954 84.152C134.477 84.4669 134.109 84.8258 133.77 85.2003C133.632 85.3506 133.632 85.6344 133.632 85.8598C133.616 87.3577 133.632 88.8556 133.632 90.3535C133.632 90.5777 133.632 90.8174 133.632 91.0726C132.694 91.0726 131.832 91.0726 130.941 91.0726C130.925 90.8329 130.91 90.623 130.91 90.4131C130.91 83.508 130.91 76.6017 130.91 69.7109C130.91 69.5463 130.894 69.3662 130.926 69.2016C130.957 69.0967 131.064 68.9619 131.157 68.9321C131.941 68.7378 132.726 68.5732 133.617 68.3633C133.617 69.247 133.633 70.0711 133.633 70.8952C133.633 71.7335 133.633 72.5576 133.633 73.3973C133.633 74.2512 133.633 75.1051 133.633 75.959C133.633 76.7973 133.633 77.6214 133.633 78.4611C133.633 79.2994 133.633 80.1235 133.633 80.9632C133.633 81.7873 133.633 82.6114 133.633 83.4795C133.987 83.4342 134.094 83.21 134.264 83.0597C135.556 81.7717 136.833 80.4837 138.125 79.21C138.448 78.8952 138.817 78.6256 139.171 78.3263C140.201 77.4569 141.416 77.5178 142.662 77.6668C142.693 77.8171 142.723 77.922 142.723 78.0114C142.723 78.1164 142.693 78.2214 142.677 78.3263C142.569 78.3561 142.492 78.4015 142.416 78.4157C141.261 78.5051 140.354 79.1193 139.539 79.8385C138.724 80.5576 137.954 81.3221 137.155 82.0399C136.939 82.2343 136.848 82.4144 137.032 82.6995C138.001 84.2427 138.924 85.83 139.939 87.3435C140.37 88.003 140.939 88.5874 141.508 89.1407C142.245 89.9026 142.799 90.1423 143.906 90.2926Z" fill="#001F33" stroke="#231F20" stroke-width="0.5" stroke-miterlimit="10"></path>
  <path d="M6.30884 82.1034C6.55394 82.1515 6.66067 82.1983 6.75291 82.1983C8.95612 82.1983 11.158 82.1983 13.3612 82.1983C13.4982 82.1983 13.6366 82.135 13.7895 82.0869C13.7288 81.8639 13.6972 81.6892 13.6366 81.5144C12.5653 78.5076 11.4795 75.4856 10.3937 72.4788C10.3476 72.3522 10.2409 72.2407 10.088 72.0178C8.81644 75.4223 7.5778 78.7154 6.30884 82.1034ZM19.9062 91.3633C18.9575 91.3633 18.1629 91.3633 17.3512 91.3633C17.0152 91.3633 16.923 91.1403 16.8307 90.8706C16.2799 89.2633 15.7291 87.6725 15.1783 86.0666C14.949 85.3978 14.7343 84.7455 14.505 84.0781C14.2902 83.4575 14.2902 83.4423 13.6788 83.4575C11.2463 83.474 8.81512 83.5056 6.39713 83.5056C5.95306 83.5056 5.7396 83.6804 5.58674 84.0946C4.77635 86.2895 3.95015 88.4858 3.12395 90.6807C3.04752 90.8871 2.95528 91.0949 2.87886 91.3165C2.23582 91.3165 1.60991 91.3165 0.90625 91.3165C1.13553 90.7124 1.3345 90.1716 1.56379 89.6307C4.11882 83.2676 6.68834 76.9195 9.24206 70.5564C9.3646 70.2385 9.53327 70.0321 9.86929 69.9523C10.5268 69.7775 11.1699 69.5862 11.9038 69.3633C14.5524 76.6787 17.1997 83.9488 19.9062 91.3633Z" fill="#001F33" stroke="#231F20" stroke-width="0.5" stroke-miterlimit="10"></path>
  <path d="M116.409 79.29C116.715 79.1371 116.948 79.0303 117.151 78.9091C118.156 78.3448 119.205 77.8729 120.326 77.5829C121.433 77.2929 122.539 77.2626 123.632 77.6594C124.943 78.1313 125.845 79.3507 125.875 80.7981C125.919 82.9772 125.904 85.1417 125.904 87.3208C125.904 88.4334 125.904 89.5302 125.904 90.6428C125.904 90.8563 125.889 91.0699 125.875 91.3138C125.031 91.3138 124.229 91.3138 123.341 91.3138C123.341 91.0237 123.341 90.7654 123.341 90.5057C123.341 87.8389 123.341 85.1562 123.341 82.4894C123.341 82.0623 123.326 81.6207 123.297 81.1936C123.209 79.9597 122.438 79.1213 121.259 79.0752C120.69 79.0593 120.079 79.091 119.54 79.2584C118.667 79.5023 117.821 79.8674 116.948 80.1733C116.541 80.3104 116.439 80.6004 116.439 81.0262C116.454 84.1807 116.454 87.3353 116.454 90.474C116.454 90.7337 116.454 90.9921 116.454 91.3269C115.595 91.3876 114.779 91.3573 113.906 91.3428C113.906 86.7711 113.906 82.26 113.906 77.658C114.532 77.658 115.144 77.658 115.755 77.658C116.002 77.658 116.061 77.8558 116.105 78.039C116.189 78.4068 116.277 78.7878 116.409 79.29Z" fill="#001F33" stroke="#231F20" stroke-width="0.5" stroke-miterlimit="10"></path>
  <path d="M104.783 84.6173C104.565 84.6017 104.361 84.5719 104.158 84.5719C103.679 84.5875 103.2 84.5875 102.734 84.6615C101.978 84.7965 101.237 84.9614 100.496 85.1561C99.9733 85.2912 99.7268 85.6963 99.6104 86.2065C99.4364 86.9271 99.4214 87.6477 99.5954 88.3683C99.8131 89.2837 100.351 89.7498 101.281 89.7641C102.371 89.7797 103.402 89.494 104.405 89.0591C104.768 88.8942 104.884 88.654 104.869 88.2632C104.84 87.2426 104.854 86.2065 104.84 85.186C104.827 85.0081 104.798 84.8419 104.783 84.6173ZM109.867 89.6901C109.94 90.3354 109.955 90.3652 109.505 90.5457C108.909 90.8015 108.313 91.0261 107.689 91.2066C106.642 91.5065 105.611 91.1767 105.176 89.9601C105.147 89.8706 105.074 89.7797 104.987 89.6304C104.754 89.7654 104.536 89.8861 104.333 90.0212C103.535 90.5613 102.692 91.0417 101.748 91.2222C100.818 91.4026 99.8882 91.4468 98.9871 91.1326C97.8395 90.7418 97.1863 89.9173 96.9823 88.6709C96.8809 88.0256 96.8809 87.4101 96.9823 86.7648C97.1713 85.6093 97.7807 84.8134 98.8132 84.3486C99.6116 83.9889 100.469 83.8227 101.341 83.7786C102.315 83.7188 103.288 83.689 104.261 83.6435C104.421 83.6279 104.58 83.5981 104.828 83.5682C104.828 82.8178 104.843 82.0972 104.828 81.3766C104.813 81.0013 104.77 80.6105 104.698 80.2353C104.552 79.5303 104.117 79.1395 103.434 78.9888C102.46 78.7642 101.545 79.0187 100.615 79.2589C99.962 79.4238 99.3225 79.664 98.6255 79.8899C98.4803 79.5303 98.3639 79.1992 98.2037 78.7941C98.7844 78.5695 99.3075 78.3435 99.8594 78.1488C100.978 77.758 102.126 77.4438 103.302 77.3827C103.999 77.3373 104.726 77.3672 105.395 77.5178C106.441 77.758 107.065 78.5084 107.254 79.6043C107.356 80.1743 107.4 80.7456 107.4 81.3298C107.415 83.4462 107.4 85.5625 107.415 87.6945C107.415 88.1294 107.487 88.5956 107.604 89.0149C107.793 89.6602 108.184 89.8861 108.839 89.8407C109.185 89.781 109.505 89.7355 109.867 89.6901Z" fill="#001F33" stroke="#231F20" stroke-width="0.5" stroke-miterlimit="10"></path>
  <path d="M56.4707 86.7306C56.4546 86.7306 56.4546 86.7306 56.4398 86.7306C56.4398 86.1919 56.4559 85.6675 56.4398 85.1288C56.4236 84.6652 56.3617 84.5746 55.9082 84.5901C55.1277 84.6199 54.3458 84.6355 53.5801 84.7248C52.9396 84.8141 52.33 85.0097 51.7056 85.1741C51.2372 85.3088 50.9708 85.6532 50.847 86.087C50.6128 86.9105 50.5967 87.7341 50.8631 88.5563C51.0973 89.2892 51.6437 89.7243 52.4255 89.7541C53.7214 89.8136 54.9407 89.53 56.0966 88.9901C56.3779 88.8554 56.4869 88.6754 56.4721 88.3919C56.4559 87.839 56.4707 87.2848 56.4707 86.7306ZM56.4398 83.5879C56.4398 83.259 56.4398 82.9741 56.4398 82.675C56.4398 82.1208 56.4707 81.5679 56.4236 81.0137C56.3146 79.5764 55.705 78.8435 53.8614 78.9484C52.7835 79.008 51.7527 79.2773 50.7366 79.6075C50.4392 79.6968 50.1432 79.8017 49.7839 79.9221C49.6278 79.5932 49.4865 79.2631 49.3156 78.9044C49.4717 78.815 49.5807 78.7101 49.722 78.6648C51.3153 78.0511 52.9557 77.5875 54.6742 77.4075C55.487 77.3182 56.2837 77.3622 57.0642 77.5577C58.1892 77.827 58.8446 78.591 59.0478 79.6683C59.1568 80.2523 59.2039 80.8506 59.2039 81.4501C59.22 83.5452 59.2039 85.6416 59.22 87.7367C59.22 88.1407 59.2671 88.5447 59.3923 88.9344C59.5955 89.6375 60.0328 89.8926 60.7985 89.833C61.1417 89.8033 61.501 89.7437 61.8455 89.7139C61.9545 90.3575 61.9707 90.3873 61.4243 90.597C60.8147 90.8366 60.1741 91.0606 59.5336 91.2263C58.3938 91.5254 57.2997 91.2108 56.8152 89.9833C56.7843 89.8939 56.7062 89.8033 56.612 89.6388C56.3779 89.7579 56.1747 89.8628 55.9715 89.9833C55.0806 90.5219 54.1749 91.0308 53.128 91.2263C51.972 91.4206 50.8322 91.4659 49.722 90.9712C48.7531 90.5375 48.2228 89.8033 48.0196 88.8153C47.8797 88.142 47.8635 87.4686 48.0035 86.7798C48.2228 85.5975 48.8944 84.8038 50.0342 84.3545C50.8779 84.01 51.7836 83.8611 52.7054 83.8158C53.7362 83.7705 54.7522 83.7265 55.7831 83.6811C55.9715 83.663 56.1585 83.6177 56.4398 83.5879Z" fill="#001F33" stroke="#231F20" stroke-width="0.5" stroke-miterlimit="10"></path>
  <path d="M67.7535 91.3633C66.7263 91.3633 65.6991 91.3633 64.6488 91.3633C64.4256 91.3633 64.2236 91.3331 63.912 91.303C63.912 91.0603 63.912 90.8636 63.912 90.6511C63.912 83.6621 63.912 76.6875 63.912 69.6971C63.912 69.5305 63.8889 69.3482 63.9351 69.1817C63.9793 69.0754 64.114 68.9233 64.2487 68.9089C65.3874 68.7121 66.5262 68.5456 67.665 68.3633C67.9324 68.8485 67.9997 90.4387 67.7535 91.3633Z" fill="#001F33" stroke="#231F20" stroke-width="0.5" stroke-miterlimit="10"></path>
  <path d="M48.0956 39.3633C48.1224 39.4836 48.1493 39.5895 48.1633 39.7111C48.3538 40.8147 48.4894 41.9183 48.7605 42.9918C49.0188 44.0496 49.561 44.9414 50.4421 45.5167C50.9843 45.8645 51.5277 45.8789 52.0968 45.5769C52.68 45.2591 53.1147 44.8054 53.3986 44.1555C53.4524 44.0196 53.5202 43.8979 53.6569 43.6717C53.7387 43.9136 53.8334 44.0653 53.8334 44.2157C53.9152 45.3494 53.9958 46.4987 53.6709 47.6167C53.3998 48.5542 52.8973 49.1884 51.9893 49.3401C51.474 49.4303 51.0393 49.2498 50.6197 48.9321C49.8333 48.3424 49.3308 47.4964 49.0188 46.5288C48.3269 44.5034 47.9062 42.4021 47.9062 40.225C47.9062 39.9373 47.9472 39.6509 47.974 39.3633C48.0138 39.3633 48.0547 39.3633 48.0956 39.3633Z" fill="#001F33"></path>
  <path d="M66.3634 54.6741C66.2172 54.3929 66.1342 54.2165 66.0372 54.0388C65.891 53.8023 65.7603 53.5518 65.5634 53.3447C65.368 53.1376 65.0742 53.0929 64.7958 53.2118C64.5189 53.3153 64.3389 53.5224 64.3389 53.8023C64.3389 54.1871 64.3389 54.5565 64.3881 54.94C64.5835 56.5366 64.4528 58.1025 63.9143 59.6249C63.7189 60.1567 63.4082 60.6591 63.0989 61.1474C63.0174 61.265 62.7236 61.3992 62.5928 61.3545C62.4621 61.3097 62.3482 61.0732 62.3313 60.9109C62.3144 60.6591 62.3805 60.4085 62.396 60.1567C62.4607 59.5214 62.4607 58.9001 62.1837 58.2942C62.0206 57.9095 61.8083 57.6436 61.2867 57.6295C60.7314 57.6142 60.3406 57.2754 60.0791 56.8753C59.7037 56.3142 59.9652 55.4718 60.6175 55.1765C60.7975 55.1024 61.0745 55.1024 61.2699 55.1612C61.7099 55.3235 62.0853 55.5894 62.2821 55.9882C62.5267 56.5353 62.7222 57.0965 62.9344 57.6436C62.9836 57.7765 62.9991 57.9248 63.0483 58.0718C63.0975 58.2636 63.2114 58.486 63.456 58.4118C63.6022 58.3671 63.7991 58.146 63.7991 58.013C63.7991 57.2154 63.7667 56.4164 63.7344 55.6188C63.7175 55.1318 63.6205 54.6588 63.6205 54.1705C63.6205 53.1363 64.0943 52.294 64.9744 51.6433C65.5128 51.2445 65.7575 51.2739 66.2312 51.7174C67.0649 52.4576 67.1465 53.5505 66.3634 54.6741Z" fill="#001F33"></path>
  <path d="M63.6495 30.2812C63.7505 30.1159 63.8228 29.9791 63.9101 29.8685C64.3152 29.332 64.749 28.7956 65.1541 28.2461C65.5879 27.668 65.8634 27.009 66.0367 26.3215C66.1962 25.7304 65.8335 25.3176 65.1828 25.3176C64.9372 25.3176 64.6904 25.3724 64.4448 25.3997C63.7505 25.4544 63.3304 25.207 63.1858 24.5469C62.9403 23.4336 62.838 22.2917 62.954 21.151C62.9976 20.7656 63.0412 20.3672 63.0986 19.9818C63.1422 19.7475 63.1709 19.4727 63.591 19.3633C63.6059 19.5691 63.6196 19.7344 63.6196 19.8854C63.6047 20.724 63.576 21.5768 63.576 22.4154C63.576 23.0755 63.8939 23.3229 64.5894 23.2956C64.9796 23.2813 65.371 23.1992 65.7612 23.1862C66.5141 23.1588 66.7883 23.3646 66.8606 24.0794C67.0339 25.7566 66.716 27.3659 65.8622 28.8646C65.4421 29.6068 64.6617 30.0195 63.8652 30.3633C63.8241 30.3633 63.7804 30.3359 63.6495 30.2812Z" fill="#001F33"></path>
  <path d="M47.9062 29.3201C48.1867 29.1002 48.3518 28.9234 48.5838 28.8052C48.9311 28.6285 49.294 28.4822 49.6584 28.35C50.4014 28.0855 50.9636 27.6151 51.476 27.0862C51.5913 26.9692 51.6411 26.7187 51.5757 26.5865C51.5429 26.4835 51.2782 26.3957 51.1131 26.3957C50.733 26.3957 50.3701 26.4695 49.99 26.4835C49.4449 26.5127 48.9154 26.542 48.3703 26.542C48.04 26.542 47.9404 26.3945 48.0557 26.13C48.3034 25.5566 48.5681 24.9984 48.8329 24.4542C48.9652 24.1745 49.2456 24.102 49.5758 24.0575C50.4839 23.9545 51.3935 23.8375 52.2859 23.7053C52.6005 23.6608 52.9136 23.5438 53.2282 23.4408C53.7235 23.2794 53.8886 23.3531 53.9057 23.8235C53.9228 25.0581 53.5584 26.1758 52.6005 27.1167C51.6098 28.0868 50.3701 28.7187 49.015 29.1599C48.7161 29.2464 48.4187 29.4524 47.9062 29.3201Z" fill="#001F33"></path>
  <path d="M62.6785 9.83041C62.5896 9.70412 62.5128 9.61043 62.436 9.4855C62.3471 9.34428 62.2702 9.18676 62.1813 9.06184C62.0288 8.85815 61.8378 8.71693 61.5953 8.85815C61.3527 8.98443 61.3022 9.25058 61.3406 9.53303C61.4175 10.0355 61.4932 10.5528 61.6205 11.0403C61.9772 12.4525 61.8883 13.8661 61.7346 15.2946C61.7094 15.5771 61.5821 15.8446 61.48 16.0958C61.4295 16.2207 61.3011 16.2845 61.2002 16.3633C61.1233 16.2221 61.0213 16.0958 60.996 15.9546C60.9576 15.7346 60.9829 15.4997 60.9455 15.2946C60.8566 14.8234 60.7546 14.3373 60.6273 13.8824C60.4999 13.4424 60.2322 13.255 59.825 13.27C59.2521 13.3012 58.8822 12.7676 58.9075 12.0614C58.9206 11.7002 59.0479 11.4015 59.3026 11.229C59.5704 11.0403 59.7866 11.229 59.9907 11.4178C60.3606 11.7627 60.6273 12.2027 60.793 12.7526C60.8819 13.0201 60.9587 13.3026 61.086 13.5375C61.1365 13.6475 61.3022 13.7412 61.3922 13.7099C61.4811 13.6787 61.5964 13.49 61.5964 13.38C61.5832 13.0188 61.5327 12.6739 61.4691 12.3276C61.3417 11.7002 61.176 11.0878 61.0235 10.4591C60.8577 9.76794 60.9093 9.07813 61.1124 8.41819C61.176 8.19821 61.2781 7.96329 61.4054 7.77454C61.7368 7.25718 62.144 7.22459 62.5271 7.69578C62.9463 8.22944 63.0484 9.21799 62.6785 9.83041Z" fill="#001F33"></path>
  <path d="M66.092 48.3633C66.0344 48.2324 65.9619 48.1594 65.9468 48.0575C65.8592 47.1415 65.8893 46.2242 66.281 45.3812C66.5425 44.8137 66.9492 44.3922 67.5449 44.1594C67.7627 44.0726 67.9667 43.9845 68.1844 43.9116C69.6085 43.4171 70.2618 42.3551 70.4508 40.9295C70.4658 40.7697 70.4946 40.6099 70.5233 40.4501C70.5233 40.435 70.5521 40.4212 70.6109 40.3633C70.6835 40.479 70.7849 40.5961 70.8149 40.7118C71.0615 42.1374 70.8149 43.475 70.0015 44.698C69.755 45.0616 69.4208 45.3384 68.9841 45.4831C68.7075 45.57 68.446 45.7008 68.1706 45.8027C67.2258 46.1513 66.6164 46.8068 66.3986 47.7958C66.3698 47.9556 66.2972 48.1154 66.2384 48.2614C66.2509 48.2752 66.1934 48.2903 66.092 48.3633Z" fill="#001F33"></path>
  <path d="M95.0412 37.3633C95.1904 37.8982 95.2909 38.4031 95.4573 38.8942C95.6913 39.5878 96.007 40.2527 96.7561 40.6851C97.7062 41.2337 98.705 41.0612 99.3379 40.2227C99.4542 40.0777 99.5546 39.919 99.7039 39.7165C99.7871 39.8315 99.8876 39.8902 99.8876 39.9477C99.9206 40.6851 99.9378 41.4362 99.6881 42.1585C99.5546 42.5347 99.3551 42.8959 98.9547 43.1121C98.3219 43.4582 97.656 43.4582 97.1049 43.0396C96.6715 42.7071 96.2223 42.3022 96.0056 41.8548C95.3397 40.4964 94.9393 39.0804 94.9062 37.5932C94.9062 37.5357 94.9235 37.4783 94.9393 37.4195C94.9407 37.4208 94.9737 37.4058 95.0412 37.3633Z" fill="#001F33"></path>
  <path d="M67.9917 4.82701C68.4472 4.84256 68.942 4.94618 69.3787 4.87235C69.8138 4.79722 70.2113 4.55758 70.7061 4.36328C71.0235 4.91769 70.9433 5.42675 70.6072 5.90603C70.3103 6.31017 69.9537 6.70007 69.5187 7.04463C68.4301 7.9125 67.2802 8.73634 66.1917 9.60551C65.1032 10.4889 64.3695 11.5071 64.39 12.7648C64.39 12.9293 64.3508 13.0939 64.3303 13.3633C63.9942 13.0641 63.9737 12.7946 63.9345 12.5252C63.7963 11.4177 64.1716 10.4138 64.924 9.47079C65.6372 8.58737 66.5278 7.82313 67.4986 7.08997C68.0531 6.67028 68.2118 6.25188 67.9934 5.71173C67.7938 5.23116 67.833 5.23116 67.9917 4.82701Z" fill="#001F33"></path>
  <path d="M89.9062 25.3633C91.3733 26.094 93.3215 30.7565 92.8281 32.3633C92.7695 32.1585 92.7109 32.0131 92.6755 31.8664C92.3115 30.1559 91.6189 28.7388 90.3865 27.7742C90.1165 27.5693 89.9993 27.2925 89.9871 26.8968C89.9881 26.4151 89.9406 25.9183 89.9062 25.3633Z" fill="#001F33"></path>
  <path d="M67.906 58.9365C67.9166 59.7456 67.5584 60.8628 67.1702 61.2016C66.915 61.4438 66.5673 61.4284 66.3737 61.056C66.2003 60.7326 66.026 60.328 65.9855 59.9234C65.8834 58.8721 65.8632 57.8039 66.026 56.7679C66.0462 56.6223 66.0973 56.4921 66.1897 56.3633C66.1897 56.6055 66.1791 56.8491 66.1897 57.0913C66.2205 57.5771 66.2099 58.0783 66.3226 58.5151C66.5779 59.502 67.2116 59.761 67.671 59.1297C67.7423 59.0499 67.8242 59.0177 67.906 58.9365Z" fill="#001F33"></path>
  <path d="M72.9057 13.1562C72.8964 13.967 72.9508 14.7778 72.761 15.5511C72.5532 16.419 72.1283 16.6262 71.7672 16.003C71.5866 15.6816 71.3967 15.2672 71.3244 14.8333C71.1524 13.8153 71.0357 12.7206 70.9088 11.6651C70.8995 11.59 70.9181 11.5134 70.9267 11.3633C71.08 11.5329 71.0621 11.8543 71.1251 12.0795C71.252 12.5705 71.3508 13.117 71.5314 13.5135C71.866 14.3063 72.2357 14.2867 72.5975 13.533C72.6606 13.4009 72.7244 13.2688 72.7874 13.1366C72.7968 13.1382 72.8333 13.1562 72.9057 13.1562Z" fill="#001F33"></path>
  <path d="M66.9062 15.3633C67.5729 16.3515 68.2396 17.3751 68.9062 18.3633C68.1267 18.024 67.46 17.0358 66.9062 15.3633Z" fill="#001F33"></path>
</svg>
