<?xml version="1.0" encoding="UTF-8"?>
<svg xmlns="http://www.w3.org/2000/svg" width="219" height="62" viewBox="0 0 219 62" fill="none">
  <path d="M52.6962 0.434872C53.9309 0.707808 55.1916 0.863771 56.3873 1.31866C57.3231 1.66958 58.1939 2.13747 59.0517 2.64435C59.3377 2.81331 59.3636 2.98227 59.2337 3.26821C58.6228 4.77585 58.1159 6.30949 57.791 7.89512C57.739 8.12907 57.687 8.32402 57.4011 8.28503C57.1152 8.24604 56.7643 8.45399 56.5563 8.01209C56.2964 7.44023 56.0104 6.88136 55.6725 6.36148C53.762 3.43717 48.8881 2.95628 46.4187 5.4387C44.6771 7.19329 44.7031 10.2216 46.4837 12.0801C47.7964 13.4448 49.499 14.2506 51.1236 15.1214C53.1381 16.2002 55.1786 17.2399 57.0632 18.5656C59.4026 20.2162 60.5204 22.5297 60.8973 25.285C61.8591 32.3034 56.8032 37.9571 50.1488 38.7889C46.2107 39.2828 42.4416 38.7629 38.8805 36.9303C38.4776 36.7224 38.3736 36.5404 38.5425 36.0985C39.2444 34.2659 39.6603 32.3814 39.8422 30.4318C39.8552 30.2109 39.7772 29.873 40.1672 29.9509C40.5571 30.0419 41.1029 29.613 41.3369 30.2759C41.6228 31.0687 41.9607 31.8355 42.4286 32.5503C43.5854 34.3439 45.236 35.3317 47.3545 35.5006C48.4332 35.5916 49.525 35.5396 50.5777 35.2667C52.5402 34.7598 53.8399 33.5121 54.3988 31.5756C54.9577 29.665 54.4378 28.0014 52.9951 26.6107C52.3843 26.0259 51.6954 25.532 50.9546 25.1161C48.7581 23.8944 46.5617 22.7116 44.3652 21.4899C41.8568 20.0863 39.8812 18.1887 39.1794 15.3034C38.2826 11.6512 38.4776 8.10307 40.817 4.97081C42.6106 2.55337 45.132 1.24068 48.0563 0.668817C48.3552 0.616829 48.6932 0.668817 48.9531 0.421875C50.1878 0.434872 51.4485 0.434872 52.6962 0.434872Z" fill="#001F33"></path>
  <path d="M218.538 32.5372C218.265 33.356 218.304 34.2138 218.174 35.0456C217.187 41.3621 214.47 46.8209 210.012 51.3958C205.632 55.8927 200.356 58.791 194.182 59.8958C185.214 61.5074 177.052 59.5319 169.904 53.8522C164.107 49.2643 160.494 43.2467 159.181 35.9814C156.192 19.4363 166.914 4.68475 182.043 1.31854C197.34 -2.08666 212.274 6.76426 217.018 21.1519C217.784 23.5043 218.291 25.8958 218.408 28.3652C218.408 28.4692 218.395 28.5861 218.538 28.6251C218.538 29.9378 218.538 31.2375 218.538 32.5372ZM159.376 30.4707C159.233 46.041 171.814 59.6488 188.372 59.7658C204.697 59.8698 217.875 46.8078 217.849 30.5487C217.836 14.1855 204.749 1.4745 188.996 1.27955C172.204 1.0716 159.285 14.7314 159.376 30.4707Z" fill="#001F33"></path>
  <path d="M151.931 38.2293C150.28 38.2293 148.734 38.2163 147.174 38.2293C145.77 38.2423 144.367 38.2293 142.963 38.3203C142.326 38.3593 142.001 38.1773 141.702 37.6315C139.051 32.8746 136.581 28.0267 133.657 23.4258C133.15 22.633 132.643 21.8402 132.123 21.0474C131.955 21.2033 132.02 21.3333 132.02 21.4503C132.02 26.1422 131.968 30.847 132.253 35.5389C132.305 36.2928 132.318 37.0596 132.409 37.8004C132.461 38.2683 132.292 38.3593 131.877 38.3333C129.667 38.2033 127.471 38.2163 125.261 38.2813C125.092 38.2813 124.91 38.2813 124.741 38.2813C123.714 38.3333 123.714 38.3333 123.844 37.3325C124.156 34.8631 124.169 32.3677 124.182 29.8853C124.195 22.542 124.195 15.1987 124.182 7.85545C124.182 5.84092 124.13 3.8264 123.818 1.83786C123.714 1.18802 123.896 1.04505 124.52 1.08404C129.342 1.34398 134.164 0.993061 138.999 1.11003C141.806 1.18802 144.367 1.94184 146.472 4.02135C150.475 7.98542 149.695 17.0443 142.846 19.1498C142.183 19.3577 141.533 19.5917 140.857 19.7477C140.39 19.8516 140.364 19.9946 140.584 20.3845C142.82 24.3356 145.12 28.2477 147.603 32.0558C148.838 33.9533 150.15 35.8119 151.489 37.6445C151.645 37.8134 151.775 38.0084 151.931 38.2293ZM132.007 11.5336C132.007 13.7171 132.007 15.9006 132.007 18.084C132.007 18.305 131.929 18.5779 132.305 18.6039C134.476 18.7859 136.438 18.396 137.946 16.6544C139.948 14.3539 140.429 11.6636 139.935 8.76524C139.506 6.28282 138.128 4.98312 135.698 4.47624C134.671 4.26829 133.631 4.34627 132.604 4.43725C132.136 4.47624 131.994 4.60621 131.994 5.1001C132.02 7.25759 132.007 9.38909 132.007 11.5336Z" fill="#001F33"></path>
  <path d="M35.3711 38.2301C33.7465 38.2301 32.1739 38.2171 30.6012 38.2301C29.2366 38.2431 27.8719 38.2301 26.5202 38.3211C25.9223 38.3601 25.6884 38.1781 25.5324 37.6323C24.6356 34.435 23.5049 31.3027 22.4002 28.1705C22.2572 27.7806 22.0752 27.6246 21.6333 27.5726C17.7732 27.0917 13.9132 27.0787 10.0531 27.5726C9.62416 27.6246 9.48119 27.8066 9.35122 28.1575C8.1945 31.2767 7.16774 34.435 6.28394 37.6452C6.14098 38.1521 5.97202 38.3731 5.36116 38.3081C3.8925 38.1651 2.42385 38.2041 0.955194 38.3081C0.474306 38.3471 0.370331 38.2821 0.604276 37.8142C4.08746 30.9128 7.07676 23.7775 9.98808 16.6292C11.9896 11.7163 13.9002 6.75151 15.6547 1.74768C15.8497 1.18881 16.0966 1.00686 16.6685 1.09783C17.5913 1.2538 18.5271 1.18881 19.4499 1.08484C20.0217 1.01985 20.2687 1.20181 20.4636 1.74768C22.2052 6.64753 24.0118 11.5344 25.8963 16.3692C28.7427 23.6735 31.771 30.8868 35.2411 37.9312C35.2801 38.0222 35.3191 38.1261 35.3711 38.2301ZM15.8757 11.5734C14.3161 15.4855 12.8214 19.2286 11.3138 22.9587C11.1318 23.4006 11.4047 23.3746 11.6647 23.4136C14.459 23.7775 17.2534 23.8945 20.0607 23.4396C20.5546 23.3616 20.5286 23.1926 20.3726 22.8027C19.8268 21.503 19.3199 20.2033 18.8 18.9037C17.8512 16.5252 16.9025 14.1468 15.8757 11.5734Z" fill="#001F33"></path>
  <path d="M105.024 27.6242C105.024 29.6128 105.037 31.6143 105.011 33.6028C105.011 33.9798 105.089 34.1097 105.505 34.1227C109.248 34.2137 112.991 34.0447 116.721 33.7458C117.267 33.7068 117.384 33.8108 117.332 34.3307C117.228 35.5784 117.241 36.8391 117.332 38.0868C117.358 38.5157 117.254 38.6457 116.812 38.6197C113.771 38.4637 110.73 38.2428 107.675 38.2168C104.244 38.1908 100.787 38.1388 97.3688 38.5937C96.7969 38.6717 96.7319 38.4767 96.7709 37.9828C97.4857 28.638 97.0568 19.2932 97.1088 9.9484C97.1218 7.10206 97.0308 4.24274 96.7709 1.3964C96.7319 0.915517 96.8099 0.759554 97.3428 0.811541C101.567 1.24044 105.817 1.22744 110.054 1.18845C112.302 1.16246 114.551 1.05848 116.786 0.811541C117.241 0.759554 117.449 0.824538 117.371 1.35741C117.215 2.60512 117.254 3.86582 117.371 5.11353C117.41 5.49044 117.384 5.64641 116.929 5.63341C113.927 5.50344 110.925 5.39946 107.922 5.29549C107.103 5.26949 106.285 5.26949 105.453 5.2305C105.128 5.21751 104.998 5.30849 105.011 5.6594C105.024 9.29855 105.024 12.9377 105.011 16.5768C105.011 17.0967 105.297 17.0447 105.622 17.0447C109.222 17.0837 112.809 16.9927 116.383 16.6548C116.981 16.6028 117.072 16.8108 117.007 17.3177C116.864 18.4744 116.851 19.6571 117.007 20.8138C117.085 21.4247 116.89 21.5287 116.318 21.4767C112.757 21.1258 109.196 21.0608 105.622 21.1128C105.141 21.1128 104.985 21.2167 104.998 21.7236C105.037 23.6862 105.024 25.6617 105.024 27.6242Z" fill="#001F33"></path>
  <path d="M81.5767 21.4893C81.6287 26.792 81.7327 32.0948 81.9666 37.3846C82.0056 38.3333 82.0056 38.3073 81.0828 38.2813C78.7044 38.2164 76.326 38.1644 73.9475 38.3203C73.4536 38.3463 73.3367 38.2164 73.3497 37.7225C73.5446 32.9006 73.6486 28.0787 73.7006 23.2439C73.7656 17.2263 73.7266 11.2087 73.7656 5.17811C73.7656 4.67123 73.5706 4.63224 73.1677 4.63224C70.3474 4.63224 67.54 4.8142 64.7457 5.02215C64.1868 5.06114 63.9139 5.02215 64.0179 4.3593C64.1738 3.39753 64.1738 2.40976 64.0179 1.44799C63.9269 0.83713 64.1608 0.746152 64.7067 0.772145C69.4636 0.993094 74.2205 1.21404 78.9773 1.16205C82.8504 1.12306 86.7235 0.9671 90.5836 0.772145C91.1685 0.746152 91.4414 0.811136 91.3374 1.49997C91.1945 2.50074 91.2335 3.5275 91.3504 4.54126C91.4024 5.03514 91.2465 5.06114 90.8306 5.03515C87.9582 4.8142 85.0859 4.65823 82.2136 4.61924C81.6807 4.61924 81.5767 4.77521 81.5767 5.28209C81.5897 10.026 81.5897 14.7699 81.5897 19.5137C81.5767 20.1896 81.5767 20.8394 81.5767 21.4893Z" fill="#001F33"></path>
  <path d="M76.2204 44.8715C51.2012 44.8715 26.1951 44.8715 1.17596 44.8585C0.916025 44.8585 0.513119 45.0404 0.422141 44.7025C0.292171 44.2736 0.331162 43.8057 0.435138 43.3508C0.448134 43.2988 0.617095 43.2468 0.708073 43.2338C0.903028 43.2208 1.09798 43.2209 1.29294 43.2209C51.2532 43.2209 101.226 43.2209 151.187 43.2209C151.486 43.2209 151.954 43.0779 152.032 43.3248C152.175 43.7277 152.097 44.2216 152.084 44.6635C152.084 44.8325 151.915 44.8325 151.785 44.8325C151.59 44.8325 151.395 44.8325 151.2 44.8325C126.207 44.8715 101.213 44.8715 76.2204 44.8715Z" fill="#001F33"></path>
  <path d="M81.8124 52.4741C81.8124 55.2424 81.8124 58.0108 81.7994 60.7791C81.7994 60.9741 81.9684 61.325 81.6305 61.364C81.2275 61.416 80.8116 61.455 80.4217 61.312C80.3697 61.286 80.3568 61.078 80.3568 60.9611C80.3568 57.4909 80.3567 54.0337 80.3438 50.5635C80.3438 50.2126 80.4737 50.1346 80.7986 50.1216C82.5532 50.0566 82.5402 50.0436 83.0991 51.6943C83.9699 54.2676 84.8537 56.841 85.7765 59.5574C86.1664 58.4007 86.5303 57.3869 86.8682 56.3732C87.5181 54.4496 88.1809 52.5391 88.8178 50.6025C88.9347 50.2386 89.1167 50.0696 89.5066 50.1216C90.0395 50.1736 90.7413 49.9007 91.0792 50.2386C91.4172 50.5765 91.1832 51.2654 91.1832 51.7982C91.1962 54.7875 91.1832 57.7768 91.1962 60.7661C91.1962 61.208 91.1572 61.429 90.6243 61.39C89.7146 61.338 89.7146 61.377 89.7146 60.4542C89.7146 57.7638 89.7146 55.0865 89.7146 52.3961C89.6886 52.3831 89.6756 52.3701 89.6496 52.3701C89.4676 52.89 89.2727 53.4098 89.0907 53.9427C88.2979 56.2692 87.4921 58.5956 86.7253 60.9351C86.6083 61.273 86.4653 61.39 86.0884 61.39C85.0097 61.377 85.0097 61.39 84.6717 60.4022C83.762 57.7508 82.8392 55.1124 81.9294 52.4611C81.8904 52.4741 81.8514 52.4741 81.8124 52.4741Z" fill="#001F33"></path>
  <path d="M67.3575 55.8937C68.4363 56.3096 68.6572 57.1804 68.6702 58.1682C68.6832 58.831 68.7222 59.5069 68.7742 60.1697C68.7872 60.3777 68.8912 60.5856 68.9561 60.7806C69.0211 60.9885 69.398 61.0665 69.2681 61.2874C69.1251 61.5214 68.8002 61.3914 68.5532 61.3914C67.1236 61.3654 67.3315 61.7033 67.1886 60.0787C67.1366 59.4549 67.1496 58.831 67.0976 58.2072C67.0066 57.1804 66.5777 56.6865 65.5639 56.6345C64.3552 56.5566 63.1465 56.6085 61.9248 56.5955C61.5219 56.5826 61.6129 56.8685 61.6129 57.0764C61.6129 58.3371 61.5869 59.5848 61.6259 60.8455C61.6389 61.3004 61.5089 61.4824 61.054 61.4174C60.885 61.3914 60.7031 61.3914 60.5341 61.4174C60.1182 61.4824 60.0272 61.3004 60.0402 60.9105C60.0532 57.4923 60.0532 54.0741 60.0402 50.6559C60.0402 50.305 60.1052 50.1491 60.4951 50.1621C62.3277 50.214 64.1733 50.0841 66.0058 50.24C68.3843 50.435 69.645 52.6315 68.5662 54.698C68.3063 55.1789 67.8644 55.5298 67.3575 55.8937ZM63.7054 55.2959C64.4332 55.2309 65.174 55.3738 65.9019 55.1919C66.9676 54.9189 67.3835 54.2821 67.2665 53.0474C67.1756 52.1246 66.5777 51.5657 65.5769 51.5267C64.8231 51.5007 64.0693 51.5007 63.3025 51.5007C62.7696 51.5137 62.0678 51.2668 61.7428 51.5917C61.3919 51.9426 61.6389 52.6575 61.6259 53.2033C61.6129 53.8662 61.3919 54.776 61.7298 55.1399C62.1067 55.5818 63.0165 55.2309 63.7054 55.2959Z" fill="#001F33"></path>
  <path d="M28.6802 55.7502C28.6802 57.4398 28.6672 59.1295 28.6932 60.8191C28.6932 61.248 28.6152 61.4169 28.1343 61.4039C27.0946 61.3779 27.0946 61.4039 27.0946 60.3512C27.0946 59.1165 27.0816 57.8817 27.1076 56.647C27.1076 56.2961 27.0296 56.1661 26.6527 56.1661C25.054 56.1921 23.4424 56.1921 21.8438 56.1661C21.4149 56.1531 21.3499 56.3221 21.3629 56.699C21.3759 58.0637 21.3499 59.4284 21.3759 60.7931C21.3889 61.261 21.2979 61.4299 20.791 61.4169C19.7643 61.3779 19.7513 61.4169 19.7513 60.4032C19.7513 57.1929 19.7643 53.9957 19.7383 50.7854C19.7383 50.2655 19.8812 50.1226 20.3881 50.1356C21.3629 50.1746 21.3629 50.1356 21.3629 51.0973C21.3629 52.1631 21.3759 53.2158 21.3499 54.2816C21.3369 54.6585 21.4149 54.8145 21.8438 54.8015C23.4424 54.7755 25.054 54.7755 26.6527 54.8015C27.0426 54.8015 27.1076 54.6585 27.1076 54.3206C27.0946 53.1119 27.1205 51.8902 27.0946 50.6814C27.0816 50.2395 27.2245 50.1356 27.6404 50.1486C28.6932 50.1616 28.6932 50.1356 28.6932 51.2143C28.6802 52.722 28.6802 54.2296 28.6802 55.7502Z" fill="#001F33"></path>
  <path d="M123.386 55.8801C123.347 56.569 123.451 57.2708 123.685 57.9596C124.204 59.5063 125.413 60.3641 127.012 60.3251C128.519 60.2991 129.533 59.4543 130.027 57.8557C130.105 57.6087 130.014 57.2578 130.508 57.2318C131.756 57.1798 131.847 57.2578 131.457 58.4535C130.846 60.3121 129.286 61.5338 127.389 61.6638C125.023 61.8197 123.243 60.9229 122.424 59.0254C121.501 56.8419 121.436 54.6064 122.515 52.4359C124.23 48.9917 129.338 49.2387 130.846 51.5911C131.015 51.8511 131.184 52.098 131.301 52.3709C131.457 52.7219 131.743 53.2028 131.535 53.4627C131.275 53.7876 130.729 53.5407 130.313 53.5797C130.118 53.6057 130.079 53.4627 130.014 53.3197C129.195 51.5651 128.311 51.0583 126.44 51.2662C125.023 51.4222 123.88 52.5789 123.542 54.1905C123.425 54.7234 123.373 55.2823 123.386 55.8801Z" fill="#001F33"></path>
  <path d="M0.216122 55.7499C0.216122 54.0603 0.216122 52.3707 0.216122 50.6811C0.216122 50.3952 0.177131 50.1222 0.619027 50.1352C2.34762 50.1742 4.08921 50.1222 5.81781 50.2132C7.5334 50.3042 8.63815 51.5389 8.65114 53.2415C8.67714 55.178 7.66337 56.4517 5.88279 56.6077C4.70007 56.7117 3.50435 56.6727 2.30863 56.6467C1.86673 56.6337 1.76276 56.7767 1.76276 57.2056C1.78875 58.4143 1.74976 59.636 1.78875 60.8447C1.80175 61.3126 1.67178 61.4686 1.21689 61.4036C1.04793 61.3776 0.865969 61.3776 0.697009 61.4036C0.26811 61.4686 0.203125 61.2736 0.203125 60.8837C0.216122 59.1681 0.216122 57.4525 0.216122 55.7499ZM1.77576 53.3585C1.77576 53.8783 1.78875 54.3982 1.77576 54.9181C1.76276 55.217 1.85374 55.347 2.17866 55.347C3.23141 55.321 4.29716 55.36 5.34992 55.282C6.51964 55.204 7.10451 54.4892 7.09151 53.3585C7.06551 52.2407 6.42866 51.5649 5.25894 51.5259C4.24518 51.4869 3.23141 51.5129 2.21765 51.4869C1.86673 51.4739 1.76276 51.6039 1.78875 51.9418C1.78875 52.4097 1.77576 52.8906 1.77576 53.3585Z" fill="#001F33"></path>
  <path d="M111.703 61.3518C110.117 61.4817 110.117 61.4817 109.597 60.0131C109.415 59.4802 109.207 58.9603 109.039 58.4275C108.948 58.1285 108.792 58.0246 108.48 58.0376C107.284 58.0506 106.101 58.0506 104.905 58.0376C104.594 58.0376 104.451 58.1415 104.347 58.4405C104.074 59.2333 103.749 60.0131 103.502 60.8189C103.359 61.2868 103.112 61.4817 102.618 61.4168C102.319 61.3778 102.02 61.4038 101.656 61.4038C102.384 59.4672 103.086 57.5957 103.801 55.7241C104.425 54.0735 105.087 52.4229 105.685 50.7593C105.854 50.3044 106.049 50.1224 106.556 50.1354C107.687 50.1744 107.674 50.1484 108.064 51.2012C109.22 54.3464 110.364 57.4787 111.508 60.624C111.599 60.8579 111.768 61.0788 111.703 61.3518ZM106.738 51.903C106.166 53.4886 105.659 54.8793 105.152 56.283C105.074 56.4909 104.892 56.7639 105.334 56.7639C106.257 56.7769 107.193 56.7639 108.116 56.7639C108.363 56.7639 108.402 56.6469 108.324 56.4389C107.83 54.9833 107.31 53.5276 106.738 51.903Z" fill="#001F33"></path>
  <path d="M49.3045 61.3906C48.8885 61.3906 48.4597 61.3646 48.0308 61.4036C47.7188 61.4296 47.6278 61.2736 47.5369 61.0267C47.2379 60.1689 46.926 59.3241 46.6401 58.4533C46.5361 58.1284 46.3801 58.0244 46.0422 58.0244C44.8725 58.0374 43.7028 58.0504 42.533 58.0244C42.1821 58.0114 42.0392 58.1414 41.9352 58.4533C41.6622 59.2461 41.3373 60.0259 41.0904 60.8317C40.9474 61.2996 40.7135 61.4426 40.2586 61.3906C39.9596 61.3516 39.6607 61.3906 39.2578 61.3906C39.5307 60.6758 39.7647 60.0129 40.0116 59.3631C41.1034 56.4778 42.2211 53.6054 43.2999 50.7071C43.4688 50.2652 43.6638 50.0703 44.1317 50.1353C44.3916 50.1742 44.6515 50.1613 44.9115 50.1353C45.1714 50.1093 45.3144 50.2132 45.3924 50.4472C46.6921 54.0343 48.0048 57.6215 49.3174 61.2087C49.3304 61.2476 49.3174 61.2996 49.3045 61.3906ZM44.3396 51.9158C43.7678 53.4755 43.2349 54.9181 42.702 56.3478C42.585 56.6597 42.663 56.7767 43.0009 56.7637C43.8717 56.7507 44.7295 56.7507 45.6003 56.7637C45.9512 56.7637 46.0162 56.6337 45.9123 56.3348C45.4054 54.9311 44.8985 53.5015 44.3396 51.9158Z" fill="#001F33"></path>
  <path d="M147.002 55.4378C147.925 53.9042 148.861 52.4095 149.732 50.8629C150.057 50.304 150.408 50.0311 151.057 50.135C151.33 50.174 151.616 50.148 151.928 50.148C151.967 50.434 151.772 50.5899 151.655 50.7719C150.447 52.6694 149.238 54.567 148.016 56.4516C147.808 56.7765 147.717 57.1014 147.73 57.4783C147.743 58.609 147.717 59.7268 147.743 60.8575C147.756 61.2604 147.665 61.4164 147.223 61.4034C146.171 61.3774 146.171 61.4034 146.171 60.3376C146.171 59.1679 146.392 57.9332 146.08 56.8545C145.781 55.8017 144.923 54.8919 144.312 53.9301C143.636 52.8774 142.947 51.8246 142.285 50.7589C142.181 50.5899 141.986 50.434 142.025 50.135C142.518 50.135 143.012 50.135 143.493 50.135C143.805 50.135 143.87 50.382 143.987 50.5769C144.858 52.0196 145.729 53.4623 146.6 54.9049C146.717 55.0869 146.782 55.3078 147.002 55.4378Z" fill="#001F33"></path>
  <path d="M167.8 30.9769C167.176 22.204 172.972 12.2093 183.942 9.70094C194.404 7.2965 205.166 13.496 208.259 23.6727C205.387 23.1528 203.528 24.8034 201.774 26.6879C198.563 30.1451 195.47 33.7063 192.39 37.2805C192.273 37.4234 192.182 37.6184 191.935 37.6574C191.61 35.6298 191.376 33.6023 190.713 31.6528C190.609 31.3279 190.83 31.1719 190.973 30.9769C192.273 29.1444 193.378 27.2338 193.754 24.9723C193.806 24.6734 193.832 24.3745 193.832 24.0756C193.819 23.3997 193.65 22.7759 193.001 22.4249C192.338 22.087 191.701 22.23 191.09 22.5939C190.648 22.8538 190.349 23.2438 190.115 23.6986C189.179 25.4662 188.894 27.3768 188.842 29.3393C188.842 29.6253 188.751 29.9112 188.803 30.1841C189.024 31.4448 188.439 32.3156 187.581 33.1734C185.54 35.1879 183.474 37.1505 180.874 38.4372C177.534 40.0878 173.206 39.4769 170.893 36.9425C169.06 34.941 168.722 32.5496 169.593 30.0412C170.191 28.3126 171.686 27.6627 173.401 27.6237C175.767 27.5847 177.989 28.1566 179.848 29.7292C180.939 30.652 182.031 31.5618 183.11 32.5106C183.539 32.8875 183.968 32.9395 184.475 32.7315C185.397 32.3546 186.268 31.8737 187.113 31.3538C187.321 31.2239 187.425 31.0809 187.36 30.821C187.282 30.509 187.152 30.2491 186.801 30.1841C186.554 30.1451 186.372 30.1841 186.203 30.4181C185.618 31.1849 185.475 31.2109 184.67 30.652C183.11 29.5733 181.563 28.4555 180.017 27.3508C177.82 25.7912 175.39 25.2713 172.816 25.9471C170.438 26.571 168.774 28.1046 168.046 30.548C168.007 30.704 168.046 30.886 167.8 30.9769Z" fill="#001F33"></path>
  <path d="M169.437 37.8407C170.724 39.3224 172.297 40.3491 174.259 40.6611C177.079 41.103 179.822 40.804 182.356 39.3874C184.436 38.2176 186.359 36.814 187.997 35.0594C188.387 34.6305 188.777 34.2016 189.232 33.6687C189.894 36.0341 190.193 38.2176 189.622 40.4401C189.583 40.5831 189.57 40.739 189.544 40.882C189.466 41.3239 189.817 41.5189 190.076 41.6878C190.297 41.8178 190.414 41.4929 190.544 41.3499C192.78 38.7635 194.989 36.1641 197.225 33.5777C197.498 33.2528 197.758 32.9019 198.135 32.6679L198.122 32.6549C198.044 33.8507 197.641 34.9684 197.407 36.1251C197.03 37.9447 196.627 39.7643 196.653 41.6358C196.653 42.1557 196.796 42.2207 197.238 42.0127C198.2 41.5708 199.2 41.1939 200.266 41.077C200.799 41.012 200.695 40.6611 200.721 40.3231C200.747 39.9332 200.513 39.9202 200.24 39.9072C199.889 39.8942 199.551 39.8163 199.2 39.8163C198.875 39.8163 198.719 39.7383 198.771 39.3744C199.226 36.1641 199.655 32.9409 201.163 30.0036C201.93 28.5219 202.826 27.1052 204.139 26.0395C204.516 25.7406 204.919 25.4936 205.426 25.5066C206.024 25.5196 206.349 25.8445 206.31 26.4424C206.284 26.7803 206.297 27.0273 206.726 27.0792C207.154 27.1312 207.284 26.9233 207.349 26.5464C207.492 25.6106 207.57 24.6618 208.22 23.791C208.61 24.5968 208.727 25.4026 208.87 26.1825C210.898 36.827 204.1 47.4974 193.573 50.0319C186.333 51.7734 179.861 50.0968 174.311 45.093C172.102 43.0915 170.425 40.687 169.32 37.9057C169.385 37.8927 169.411 37.8667 169.437 37.8407Z" fill="#001F33"></path>
  <path d="M183.41 52.3707C183.28 53.3195 183.189 54.0733 183.085 54.8401C182.994 55.594 182.89 56.3348 182.799 57.1016C182.227 57.1666 182.071 56.9327 182.175 56.4128C182.292 55.8019 182.37 55.1781 182.487 54.3853C181.746 55.2041 181.123 55.8929 180.408 56.6597C180.278 55.62 180.174 54.7102 180.044 53.6184C179.654 54.3723 179.303 54.9701 179.017 55.607C178.848 55.9709 178.627 55.9449 178.354 55.8019C178.055 55.633 178.289 55.451 178.38 55.295C179.043 54.0603 179.706 52.8386 180.447 51.4609C180.603 52.7346 180.733 53.8654 180.889 55.1521C181.746 54.2163 182.513 53.3585 183.41 52.3707Z" fill="#001F33"></path>
  <path d="M176.272 54.3845C175.414 54.4105 174.842 53.9556 174.218 53.6307C173.958 53.5007 174.114 53.3578 174.192 53.2148C174.803 52.1231 175.414 51.0443 175.999 49.9396C176.142 49.6666 176.285 49.6796 176.493 49.8226C176.818 50.0306 177.169 50.1995 177.48 50.4205C178.286 50.9923 178.585 51.9021 178.273 52.8119C177.948 53.8257 177.182 54.3975 176.272 54.3845ZM176.064 53.7217C176.935 53.7087 177.597 53.1108 177.701 52.305C177.792 51.6682 177.286 50.9014 176.662 50.6674C176.389 50.5634 176.376 50.7324 176.298 50.8754C175.973 51.4602 175.648 52.0451 175.323 52.63C174.92 53.3448 174.959 53.4358 175.739 53.6697C175.869 53.6957 176.025 53.7087 176.064 53.7217Z" fill="#001F33"></path>
  <path d="M204.581 49.173C204.256 48.7571 204.009 48.4582 203.775 48.1462C203.645 47.9643 203.346 47.8343 203.71 47.5354C204.035 47.2754 204.139 47.4834 204.308 47.6913C205.049 48.6271 205.776 49.5629 206.53 50.4857C206.712 50.7066 206.764 50.8366 206.491 51.0445C206.231 51.2395 206.127 51.1355 205.997 50.9406C205.932 50.8496 205.867 50.7716 205.802 50.6806C204.854 49.4979 204.854 49.5109 203.723 50.5897C203.528 50.7846 203.567 50.8886 203.71 51.0575C203.996 51.4085 204.256 51.7854 204.568 52.1233C204.763 52.3442 204.724 52.4482 204.516 52.6302C204.295 52.8121 204.178 52.7731 204.009 52.5652C203.255 51.5904 202.488 50.6286 201.708 49.6799C201.5 49.4199 201.552 49.316 201.786 49.121C202.059 48.8871 202.137 49.095 202.28 49.251C202.566 49.5759 202.8 50.2127 203.112 50.1608C203.567 50.0828 203.944 49.6019 204.36 49.29C204.412 49.225 204.503 49.212 204.581 49.173Z" fill="#001F33"></path>
  <path d="M186.331 55.4262C186.331 54.8024 186.344 54.1785 186.331 53.5546C186.331 53.3077 186.396 53.2167 186.656 53.2297C186.89 53.2427 187.033 53.2947 187.007 53.5546C186.994 53.6846 186.994 53.8146 187.007 53.9446C187.059 54.2695 186.786 54.8024 187.085 54.9063C187.592 55.0753 188.189 54.9973 188.748 54.9973C188.917 54.9973 188.878 54.8024 188.878 54.6854C188.891 54.3605 188.891 54.0355 188.891 53.7106C188.891 53.4767 188.891 53.3077 189.216 53.3077C189.515 53.3077 189.58 53.4247 189.567 53.6976C189.528 54.9453 189.489 56.193 189.476 57.4537C189.476 57.7397 189.346 57.7527 189.125 57.7397C188.904 57.7267 188.761 57.7137 188.787 57.4277C188.826 56.9728 188.826 56.5179 188.865 56.0761C188.891 55.8161 188.826 55.6731 188.527 55.6731C188.099 55.6731 187.67 55.6472 187.241 55.6212C186.981 55.6082 186.968 55.7511 186.968 55.9461C186.968 56.401 186.929 56.8559 186.942 57.3108C186.955 57.5967 186.838 57.6747 186.565 57.6747C186.214 57.6877 186.253 57.4927 186.266 57.2718C186.279 56.6739 186.266 56.0631 186.266 55.4522C186.279 55.4262 186.305 55.4262 186.331 55.4262Z" fill="#001F33"></path>
  <path d="M214.262 39.3994C214.301 40.1402 213.794 40.2312 213.313 40.3351C212.858 40.4261 212.403 40.5301 211.767 40.6731C212.338 40.907 212.754 41.089 213.157 41.2579C213.391 41.3489 213.56 41.4269 213.404 41.7648C213.261 42.0767 213.131 42.0117 212.91 41.9208C211.78 41.4399 210.649 40.972 209.505 40.5041C209.258 40.4001 209.141 40.3221 209.297 40.0492C209.479 39.6853 209.583 39.2824 209.843 38.9575C210.168 38.5416 210.584 38.3856 211.104 38.5026C211.611 38.6195 212.001 38.8925 212.066 39.4124C212.131 39.9452 212.403 39.8803 212.767 39.7763C213.248 39.6333 213.742 39.5163 214.262 39.3994ZM211.507 39.9192C211.533 39.4513 211.299 39.1914 210.883 39.1394C210.428 39.0874 210.129 39.4643 210.142 39.7763C210.155 40.2962 210.766 40.2442 211.117 40.3871C211.52 40.5431 211.325 40.0232 211.507 39.9192Z" fill="#001F33"></path>
  <path d="M171.774 49.46C171.683 50.2268 171.592 50.9157 171.501 51.6825C170.357 50.9027 171.384 49.8759 171.046 48.9921C170.721 49.3431 170.409 49.655 170.123 49.9929C169.941 50.2138 169.824 50.2008 169.616 50.0059C169.395 49.8109 169.434 49.694 169.616 49.499C170.461 48.6022 171.28 47.6794 172.112 46.7697C172.281 46.5747 172.424 46.5097 172.632 46.7307C172.788 46.9126 172.982 47.0426 173.151 47.2245C173.723 47.8224 173.827 48.3683 173.502 48.9142C173.138 49.512 172.632 49.681 171.774 49.46ZM173.008 48.2643C172.918 47.9264 172.645 47.4715 172.463 47.5495C172.099 47.7054 171.748 48.0823 171.605 48.4593C171.527 48.6412 172.008 48.9271 172.333 48.9271C172.736 48.9142 172.931 48.6282 173.008 48.2643Z" fill="#001F33"></path>
  <path d="M161.91 35.916C163.587 36.176 165.237 36.4489 167.005 36.7218C165.666 37.8526 164.393 38.9313 163.093 40.0101C162.82 39.5942 162.755 39.2562 163.223 38.9963C163.691 38.7494 163.769 38.3854 163.548 37.9175C163.457 37.7226 163.405 37.5016 163.366 37.2937C163.301 36.8908 163.093 36.6698 162.677 36.6958C162.157 36.7348 161.91 36.4879 161.91 35.916ZM164.289 38.1775C164.666 37.7486 165.12 37.5796 165.38 37.1247C164.873 37.0987 164.445 36.9038 163.964 36.9818C164.068 37.3457 164.159 37.6966 164.289 38.1775Z" fill="#001F33"></path>
  <path d="M207.738 42.2715C209.493 42.5054 211.156 42.7264 212.82 42.9473C212.664 43.4022 212.469 43.7141 211.936 43.5062C211.52 43.3502 211.195 43.4932 211.014 43.9221C210.923 44.1171 210.819 44.312 210.676 44.468C210.351 44.8319 210.351 45.1698 210.702 45.5207C211.065 45.8846 210.975 46.2226 210.572 46.5605C209.623 45.1438 208.713 43.7531 207.738 42.2715ZM209.935 44.416C210.182 44.0261 210.377 43.7011 210.598 43.3632C210.104 43.1943 209.649 43.1943 209.09 43.1293C209.389 43.5842 209.623 43.9611 209.935 44.416Z" fill="#001F33"></path>
  <path d="M198.29 55.9714C197.822 56.2573 197.471 56.2573 197.224 55.7894C197.003 55.3735 196.678 55.3085 196.25 55.5035C196.055 55.5944 195.847 55.6464 195.626 55.6854C195.184 55.7504 194.937 55.9714 194.963 56.4392C194.976 56.5822 194.924 56.7382 194.885 56.8811C194.807 57.1541 194.534 57.1541 194.352 57.1411C194.079 57.1281 194.222 56.8681 194.248 56.7382C194.469 55.2305 194.703 53.7229 194.963 52.0723C196.107 53.411 197.185 54.6717 198.29 55.9714ZM195.366 53.6319C195.288 54.1648 195.223 54.6197 195.158 55.1136C195.574 54.9966 196.12 55.0226 196.237 54.7366C196.354 54.4507 195.86 54.1908 195.652 53.9048C195.6 53.8269 195.509 53.7619 195.366 53.6319Z" fill="#001F33"></path>
  <path d="M191.871 56.8666C192.326 56.8016 192.625 56.7496 192.923 56.7106C193.118 56.6846 193.313 56.6456 193.339 56.9576C193.352 57.2175 193.313 57.3475 193.001 57.3735C192.443 57.4125 191.884 57.4904 191.338 57.5944C191.039 57.6464 190.909 57.5684 190.87 57.2565C190.74 56.0348 190.584 54.8131 190.428 53.5914C190.389 53.3314 190.415 53.2014 190.727 53.1884C191.312 53.1365 191.884 53.0455 192.456 52.9675C192.676 52.9285 192.806 52.9545 192.845 53.2274C192.871 53.5004 192.819 53.6174 192.534 53.6174C192.274 53.6174 192.014 53.7213 191.767 53.7213C191.247 53.7083 191.117 53.8903 191.221 54.4102C191.286 54.7871 191.429 54.8131 191.728 54.7611C192.04 54.7091 192.365 54.6831 192.689 54.6311C192.975 54.5791 193.001 54.7871 193.04 54.969C193.079 55.19 192.988 55.294 192.767 55.294C192.611 55.294 192.469 55.3199 192.313 55.3329C191.338 55.4759 191.364 55.4759 191.494 56.4507C191.533 56.8536 191.689 56.9186 191.871 56.8666Z" fill="#001F33"></path>
  <path d="M210.427 37.0474C210.583 36.4106 210.739 35.8127 210.882 35.2019C210.947 34.9159 211.129 34.9679 211.324 34.9939C211.584 35.0329 211.558 35.2148 211.506 35.3838C211.441 35.6827 211.376 35.9817 211.272 36.2546C211.142 36.6315 211.207 36.8265 211.636 36.9175C212.026 37.0084 212.234 36.9564 212.286 36.5145C212.312 36.2546 212.403 36.0077 212.468 35.7607C212.533 35.5398 212.533 35.3058 212.922 35.4358C213.234 35.5398 213.195 35.6697 213.117 35.8907C213.052 36.0986 213.039 36.3196 212.948 36.5145C212.727 37.0474 212.922 37.1904 213.442 37.3593C214.144 37.5933 214.248 37.2944 214.404 36.7355C214.482 36.4366 214.313 35.7737 214.911 35.9167C215.548 36.0597 215.067 36.5535 215.002 36.8525C214.898 37.3464 214.95 38.0612 214.547 38.2691C214.209 38.4381 213.611 38.1002 213.143 37.9832C212.325 37.7752 211.519 37.5543 210.7 37.3593C210.518 37.3334 210.284 37.3334 210.427 37.0474Z" fill="#001F33"></path>
  <path d="M166.941 47.0027C168.007 46.1189 169.073 45.2351 170.139 44.3383C170.321 44.1823 170.425 44.2343 170.555 44.3903C170.944 44.8842 171.334 45.3781 171.75 45.833C171.971 46.0799 171.776 46.1579 171.646 46.2879C171.49 46.4438 171.373 46.4568 171.23 46.2619C171.061 46.0409 170.853 45.846 170.698 45.599C170.412 45.1311 170.152 45.1311 169.775 45.508C169.541 45.742 169.541 45.859 169.749 46.0669C169.97 46.3009 170.139 46.5868 170.373 46.8077C170.607 47.0417 170.477 47.1457 170.308 47.3146C170.087 47.5356 169.983 47.3796 169.853 47.2236C169.723 47.0677 169.58 46.9377 169.476 46.7687C169.151 46.2229 168.891 46.1969 168.371 46.6388C167.903 47.0417 167.916 47.2626 168.319 47.6265C168.514 47.7955 168.644 48.0424 168.813 48.2244C168.969 48.3934 168.943 48.4973 168.774 48.6403C168.605 48.7703 168.488 48.8872 168.293 48.6533C167.89 48.1204 167.422 47.5745 166.941 47.0027Z" fill="#001F33"></path>
  <path d="M167.915 41.5969C167.629 41.441 167.37 41.35 167.551 40.8821C167.694 40.5052 167.408 40.1413 166.98 40.1153C166.538 40.0893 166.512 40.4662 166.512 40.8041C166.512 41.1291 166.538 41.454 166.499 41.7789C166.421 42.4677 165.953 42.7797 165.329 42.8966C164.744 43.0006 164.12 42.6237 163.873 42.0388C163.626 41.467 163.743 40.8171 164.185 40.4402C164.328 40.3102 164.484 40.1413 164.64 40.4272C164.731 40.5832 165.017 40.7132 164.705 40.9471C164.354 41.207 164.302 41.558 164.536 41.9089C164.705 42.1558 164.952 42.2858 165.264 42.1948C165.693 42.0778 165.823 41.7529 165.836 41.363C165.849 41.1291 165.836 40.8821 165.836 40.6482C165.823 40.1283 165.979 39.6994 166.499 39.4914C166.941 39.3095 167.357 39.4005 167.707 39.7124C168.097 40.0633 168.318 40.4922 168.188 41.0381C168.149 41.233 168.084 41.441 167.915 41.5969Z" fill="#001F33"></path>
  <path d="M207.425 45.066C206.373 45.4039 205.84 46.0667 205.957 46.8725C206.074 47.6784 206.815 48.3542 207.581 48.3802C208.439 48.4062 209.024 47.8213 209.245 46.7036C209.817 46.9245 209.921 47.2624 209.635 47.7823C209.193 48.6271 208.257 49.147 207.334 49.043C206.399 48.9391 205.619 48.2632 205.385 47.3794C205.125 46.3787 205.45 45.4299 206.243 44.845C206.711 44.5201 207.087 44.4421 207.425 45.066Z" fill="#001F33"></path>
  <path d="M190.791 29.0023C190.726 27.5336 190.765 26.0779 191.129 24.6483C191.168 24.4793 191.246 24.3234 191.324 24.1674C191.493 23.7905 191.831 23.7775 192.156 23.8425C192.494 23.9075 192.598 24.1934 192.546 24.4923C192.286 26.1169 191.649 27.5986 190.791 29.0023Z" fill="#001F33"></path>
  <path d="M165.926 45.3906C165.718 45.3257 165.679 45.1437 165.588 45.0137C165.445 44.8058 165.653 44.7538 165.757 44.6758C166.575 44.1429 167.381 43.6101 168.213 43.1162C168.551 42.9082 168.707 42.7523 168.395 42.3883C168.252 42.2194 168.018 42.0114 168.395 41.7645C168.785 41.5046 168.824 41.8555 168.941 42.0374C169.279 42.5443 169.591 43.0512 169.929 43.5581C170.059 43.766 170.15 43.909 169.877 44.078C169.63 44.2339 169.5 44.1819 169.383 43.935C169.175 43.4281 168.889 43.4411 168.473 43.753C167.758 44.2729 166.991 44.7148 166.237 45.1827C166.147 45.2477 166.03 45.3257 165.926 45.3906Z" fill="#001F33"></path>
  <path d="M199.954 51.0058C199.798 51.0968 199.616 51.1747 199.46 51.2917C199.252 51.4347 199.135 51.4087 199.005 51.1877C198.875 50.9668 198.901 50.8498 199.109 50.7328C199.733 50.3819 200.344 50.031 200.955 49.6671C201.176 49.5371 201.254 49.6281 201.345 49.7971C201.449 49.979 201.553 50.148 201.254 50.252C200.591 50.4729 200.708 50.8238 201.02 51.2917C201.462 51.9546 201.839 52.6564 202.228 53.3582C202.345 53.5792 202.709 53.8131 202.228 54.0731C201.722 54.346 201.761 53.8651 201.644 53.6702C201.163 52.9033 200.721 52.1105 200.266 51.3307C200.188 51.2007 200.162 51.0318 199.954 51.0058Z" fill="#001F33"></path>
  <path d="M200.864 54.6707C200.864 54.6837 200.864 54.7877 200.825 54.8007C200.279 55.0606 199.734 55.3205 199.188 55.5415C199.045 55.5935 199.019 55.3725 198.98 55.2685C198.473 54.1508 197.979 53.0201 197.446 51.9153C197.329 51.6554 197.368 51.5384 197.615 51.4214C197.888 51.2915 197.992 51.4085 198.096 51.6294C198.447 52.4222 198.85 53.189 199.149 53.9948C199.383 54.6317 199.643 54.7747 200.24 54.4107C200.604 54.1638 200.825 54.2808 200.864 54.6707Z" fill="#001F33"></path>
  <path d="M169.358 37.9177C169.293 37.8526 169.254 37.7484 169.319 37.7093C169.423 37.6572 169.41 37.7875 169.436 37.8396C169.41 37.8656 169.384 37.8917 169.358 37.9177Z" fill="#001F33"></path>
  <path d="M198.133 32.6673C198.146 32.6412 198.172 32.6152 198.185 32.5762C198.237 32.6673 198.198 32.6803 198.133 32.6673C198.133 32.6673 198.133 32.6542 198.133 32.6673Z" fill="#001F33"></path>
</svg>
