<?xml version="1.0" encoding="UTF-8"?>
<svg xmlns="http://www.w3.org/2000/svg" width="183" height="54" viewBox="0 0 183 54" fill="none">
  <path d="M53.5579 14.6592C52.4614 14.6592 51.5319 14.6592 50.6025 14.6592C50.5311 14.5821 50.4617 14.5031 50.3903 14.426C50.6419 14.1213 50.8485 13.6136 51.1526 13.544C53.3964 13.0344 54.2714 11.4678 55.1764 9.46683C57.3751 4.59791 61.2543 1.4949 66.5774 0.563993C68.0251 0.31011 69.6493 0.541425 71.095 0.92131C73.1135 1.44976 73.4327 2.85458 72.1277 4.46063C71.97 4.65433 71.8085 4.84615 71.632 5.02293C70.2614 6.40518 69.7262 6.36945 68.4776 4.88C67.4336 3.63504 66.2075 2.73422 64.4595 2.90912C62.8297 3.07273 61.7951 4.10519 61.3013 5.50437C60.539 7.6652 60.0132 9.90877 59.326 12.331C60.0245 12.331 60.4169 12.331 60.8093 12.331C62.9029 12.331 65.0002 12.284 67.0919 12.3517C68.0345 12.3818 68.4889 12.1523 68.8099 11.1725C70.3646 6.42963 73.628 3.22882 78.1493 1.2711C80.5546 0.229243 83.1006 0.123929 85.5923 0.752054C87.7309 1.29179 88.8406 3.06145 89.6273 5.00601C89.7118 5.21287 89.6348 5.50437 89.5841 5.74509C88.2134 12.1806 86.8353 18.616 85.4608 25.0515C85.382 25.4182 85.3144 25.7868 85.2543 26.1554C84.922 28.1507 85.1266 28.4498 87.0643 28.8108C87.2803 29.9618 87.147 30.1385 86.0373 30.1404C82.8528 30.1423 79.6664 30.1404 76.4163 30.1404C76.467 29.2847 76.5327 28.683 77.6161 28.6566C78.921 28.6228 79.473 27.6091 79.7265 26.4808C80.3799 23.5602 80.9789 20.6264 81.6154 17.702C82.312 14.5012 82.8415 11.2497 83.7916 8.12595C84.5277 5.70748 82.8791 3.69898 81.0728 3.11599C78.5436 2.30168 76.3918 3.29088 75.5244 5.82784C74.8221 7.88335 74.3509 10.0197 73.7312 12.2915C75.2972 12.2915 76.6472 12.2915 78.1249 12.2915C77.9916 13.0362 77.9296 13.6568 77.7475 14.2361C77.6855 14.4317 77.3156 14.6404 77.0772 14.6498C76.0783 14.6968 75.0775 14.6949 74.0767 14.6592C73.5472 14.6404 73.2787 14.8134 73.1679 15.3456C72.4206 18.9489 71.6414 22.5465 70.9035 26.1535C70.5092 28.0812 70.7796 28.4253 72.8168 28.8202C72.9257 30.0483 72.8525 30.1385 71.709 30.1404C68.8325 30.1423 65.9578 30.1404 63.0813 30.1404C62.7752 30.1404 62.4673 30.1404 62.1312 30.1404C62.15 29.2735 62.2326 28.6792 63.2747 28.666C64.4351 28.651 65.0584 27.8292 65.3063 26.776C65.8264 24.5606 66.3033 22.3359 66.7821 20.1111C67.1614 18.3452 67.5163 16.5756 67.8937 14.7589C67.6345 14.7269 67.4261 14.6761 67.2158 14.6761C64.7148 14.6705 62.2138 14.6818 59.7147 14.6648C59.2096 14.6611 58.9505 14.7626 58.8322 15.3419C58.0717 19.0711 57.2381 22.7853 56.4739 26.5146C56.1734 27.9852 56.5152 28.3407 58.4398 28.8635C58.5149 30.1141 58.4961 30.1404 57.377 30.1423C54.1925 30.1461 51.0081 30.1442 47.7109 30.1442C47.7879 29.3393 47.7541 28.6924 48.83 28.683C50.1387 28.6698 50.7546 27.737 51.0175 26.5973C51.5582 24.2579 52.0389 21.9052 52.5365 19.5563C52.8763 17.9672 53.1993 16.3837 53.5579 14.6592Z" fill="#001F33"></path>
  <path d="M0 30.1379C0.110781 29.538 0.19903 29.0566 0.298544 28.5244C0.837427 28.4567 1.35565 28.4003 1.87013 28.325C3.65952 28.058 4.5927 26.9033 4.95133 25.2333C6.20184 19.409 7.41479 13.5772 8.66342 7.75486C9.10842 5.67678 8.78547 4.16288 5.84133 4.19109C5.75308 4.19109 5.66296 4.14784 5.46956 4.09706C5.60099 3.53288 5.73243 2.9781 5.89578 2.28227C11.3372 2.2014 16.7391 2.02651 22.1374 2.09609C23.8723 2.11866 25.6467 2.64523 27.3215 3.19061C30.0835 4.09142 31.3885 6.66786 30.844 9.52076C29.9934 13.959 26.9817 16.0822 22.9072 17.1203C22.7044 17.1711 22.5035 17.2332 22.2331 17.3065C24.7886 20.8402 26.2531 24.8177 27.7346 28.782C28.4612 30.7266 29.4151 32.3778 31.6908 32.594C31.7509 32.7181 31.8053 32.7783 31.7978 32.8235C31.4392 34.627 31.9086 34.3505 29.9821 34.39C28.5532 34.4201 27.1018 34.3919 25.6917 34.1794C23.9418 33.9142 22.5279 32.9777 21.7787 31.3077C20.0006 27.349 18.245 23.3771 16.5401 19.3865C16.189 18.5665 15.7534 18.2844 14.8709 18.307C12.5764 18.3672 12.5783 18.3258 12.0807 20.575C11.7578 22.0363 11.4029 23.4918 11.1044 24.9568C10.6124 27.364 11.324 28.2761 13.7706 28.4454C13.8926 28.4529 14.0128 28.4755 14.1273 28.4905C14.2588 29.9894 14.1273 30.1398 12.7191 30.1417C8.87372 30.1417 5.03019 30.1417 1.18479 30.1417C0.814895 30.1379 0.445 30.1379 0 30.1379ZM12.9895 16.2929C14.3752 16.3587 15.5544 16.5016 16.726 16.4565C21.5553 16.2703 24.6647 12.8043 24.4131 7.95797C24.3154 6.07547 23.1701 4.66689 21.3825 4.12527C19.7509 3.63067 18.1155 3.81121 16.4669 3.94661C15.7515 4.00491 15.4624 4.33402 15.3309 5.02233C14.946 7.04023 14.4935 9.04684 14.0729 11.0572C13.7218 12.7272 13.3801 14.3991 12.9895 16.2929Z" fill="#001F33"></path>
  <path d="M47.4122 27.054C47.3333 27.4659 47.384 27.889 47.2057 28.0395C45.8124 29.2111 44.346 30.3018 42.4458 30.4448C40.7391 30.5727 40.2171 30.1194 39.5186 28.1561C38.4746 28.7485 37.4626 29.4274 36.366 29.9201C34.7813 30.6328 33.114 30.7325 31.4466 30.1458C30.0891 29.6681 29.37 28.6826 29.308 27.2571C29.2216 25.2355 29.9051 23.4639 31.6776 22.4672C33.4294 21.4818 35.354 20.8047 37.2166 20.0224C38.4221 19.5165 39.6669 19.1009 40.8536 18.5574C41.1841 18.407 41.4845 17.9819 41.6028 17.619C41.8243 16.942 41.9614 16.2236 42.0252 15.5127C42.1473 14.153 41.3944 13.3782 40.0425 13.3763C38.4465 13.3744 37.3912 14.1963 36.9199 15.9434C36.751 16.5658 36.4674 16.8592 35.8553 17.0304C34.4471 17.4215 33.0633 17.8973 31.595 18.3618C31.5555 16.6806 31.9142 15.193 33.2585 14.2376C36.3022 12.0749 39.7195 11.2663 43.3753 12.1088C46.6686 12.8686 47.6488 14.5799 46.9616 17.8973C46.449 20.3684 45.8688 22.8283 45.4012 25.3069C45.0126 27.3662 45.1609 27.4753 47.4122 27.054ZM41.0376 20.4455C40.9587 20.3572 40.8799 20.2669 40.801 20.1785C39.3646 20.9345 37.825 21.5513 36.5294 22.5011C35.7408 23.0784 35.1418 24.1015 34.7945 25.0493C34.2424 26.5538 35.0536 27.8345 36.4261 28.0338C37.4138 28.1768 39.5543 27.0352 39.8078 26.0611C40.2922 24.2087 40.6358 22.3186 41.0376 20.4455Z" fill="#001F33"></path>
  <path d="M104.343 25.475C104.354 25.4882 104.51 25.68 104.653 25.853C104.63 25.9489 104.636 26.0279 104.6 26.0636C102.319 28.3129 99.7898 30.1634 96.5415 30.7069C94.247 31.0905 92.0371 30.8122 90.1463 29.3227C87.8293 27.5004 87.5232 24.9691 87.8612 22.278C88.5878 16.4988 94.2621 11.6167 100.083 11.8123C102.465 11.8913 104.482 12.8034 105.55 15.0959C105.868 15.7785 105.883 16.6023 106.031 17.362C106.172 18.0879 106.262 18.8251 106.45 19.5398C106.653 20.3146 106.298 20.828 105.455 20.828C101.893 20.8318 98.3309 20.8524 94.769 20.8111C93.9842 20.8017 93.6875 21.0706 93.7269 21.8153C93.7776 22.812 93.6687 23.8426 93.8922 24.798C94.4817 27.3199 96.8739 28.625 99.6302 27.7675C101.226 27.271 102.678 26.3044 104.343 25.475ZM94.2546 19.1542C94.3897 19.2144 94.4461 19.2614 94.5005 19.2614C95.905 19.2727 97.3095 19.2821 98.7139 19.284C101.26 19.2878 101.254 19.2859 101.174 16.7189C101.138 15.598 100.9 14.5185 99.7861 14.0615C98.6182 13.582 97.4409 13.8058 96.4645 14.6671C95.1089 15.8632 94.6 17.4711 94.2546 19.1542Z" fill="#001F33"></path>
  <path d="M33.8125 49.2604C34.9522 43.8668 36.0544 38.6443 37.166 33.3842C38.7451 33.3842 40.2697 33.3842 41.922 33.3842C42.3332 37.2019 42.7444 41.027 43.1575 44.8522C43.2307 44.8748 43.3058 44.8973 43.3791 44.9199C43.5518 44.651 43.7452 44.3952 43.8935 44.115C45.6735 40.7788 47.4611 37.4463 49.2054 34.0913C49.5114 33.5027 49.8738 33.2958 50.5197 33.3203C51.7646 33.3673 53.0113 33.3334 54.3783 33.3334C54.076 34.7966 53.8037 36.1619 53.5127 37.5216C52.7316 41.1888 51.9298 44.8522 51.1675 48.5232C51.0473 49.1005 50.7995 49.3018 50.2287 49.2698C49.5208 49.2303 48.8111 49.2604 47.9342 49.2604C48.9031 44.982 49.8363 40.8634 50.7676 36.7468C50.6812 36.7129 50.5948 36.6772 50.5085 36.6433C49.9114 37.7435 49.3086 38.8418 48.7172 39.9457C47.1644 42.8362 45.6191 45.7305 44.0644 48.621C43.7659 49.1776 41.7699 49.5763 41.3174 49.1532C41.1822 49.0272 41.1447 48.7639 41.1203 48.5551C40.6659 44.9274 40.2228 41.2997 39.7721 37.6701C39.7289 37.3166 39.6482 36.9668 39.5844 36.6151C39.5074 36.6132 39.4285 36.6095 39.3515 36.6076C39.1037 37.9146 38.8596 39.2216 38.6099 40.5287C38.1067 43.1672 37.5866 45.8038 37.1059 48.4479C36.997 49.046 36.766 49.3149 36.1295 49.2717C35.4179 49.2228 34.7025 49.2604 33.8125 49.2604Z" fill="#001F33"></path>
  <path d="M120.824 12.6372C120.571 14.1154 120.387 15.3791 120.113 16.626C120.056 16.8817 119.696 17.1808 119.42 17.256C118.971 17.3782 118.596 17.224 118.487 16.641C118.192 15.0764 117.407 13.9198 115.721 13.6151C114.641 13.4195 113.46 14.0458 113.015 15.0312C112.589 15.9715 112.858 16.8949 113.845 17.6509C114.885 18.4483 115.927 19.2494 117.024 19.9641C120.404 22.1719 119.833 25.7488 117.833 28.1579C116.243 30.0724 114.065 30.74 111.652 30.7193C110.909 30.7137 110.163 30.5877 109.421 30.4974C108.612 30.3977 107.822 30.0272 107.02 30.6685C106.776 30.8622 106.246 30.6986 105.719 30.6986C105.95 28.8857 106.171 27.1405 106.393 25.384C107.238 25.2411 107.741 25.3238 108.004 26.2284C108.642 28.4193 110.426 29.3258 112.61 28.6901C113.528 28.4231 114.125 27.8044 114.373 26.9073C114.611 26.0385 114.125 25.3896 113.505 24.8725C112.259 23.8344 110.948 22.8715 109.729 21.8052C107.589 19.934 107.688 17.414 109.153 15.2024C111.032 12.3626 113.924 11.6424 117.103 11.8661C118.321 11.947 119.519 12.3551 120.824 12.6372Z" fill="#001F33"></path>
  <path d="M133.555 38.4264C132.515 38.4264 131.557 38.4396 130.602 38.4114C130.468 38.4076 130.256 38.2252 130.222 38.0879C129.933 36.9332 129.33 36.1133 128.089 35.8707C126.508 35.5623 125.038 35.7409 123.769 36.8148C122.706 37.7137 122.011 38.8797 121.749 40.2206C121.536 41.3057 121.416 42.4528 121.518 43.5474C121.69 45.4054 122.721 46.5225 124.231 46.8253C126.238 47.2277 128.106 46.5676 129.032 45.0707C129.351 44.5554 129.552 43.9686 129.89 43.2389C128.544 43.2389 127.404 43.2389 126.137 43.2389C126.283 42.4698 126.373 41.8304 126.544 41.2135C126.591 41.0424 126.882 40.8242 127.064 40.8205C129.058 40.7923 131.05 40.8035 133.217 40.8035C132.915 42.3043 132.646 43.6941 132.353 45.0782C132.062 46.451 131.749 47.8164 131.437 49.2174C130.778 49.2174 130.166 49.2174 129.503 49.2174C129.443 48.7191 129.391 48.2734 129.336 47.8145C128.459 48.3561 127.689 49.0124 126.801 49.3491C122.836 50.8536 118.487 47.9725 118.16 43.7655C117.92 40.6888 118.577 37.9394 120.648 35.5886C123.348 32.5232 128.927 32.0098 131.901 34.5749C133.029 35.551 133.512 36.8166 133.555 38.4264Z" fill="#001F33"></path>
  <path d="M75.1132 49.2619C75.1714 48.7748 75.2183 48.3911 75.2878 47.8119C74.978 48.0714 74.809 48.188 74.6682 48.3328C73.3332 49.6925 71.7316 49.9201 70.0098 49.3315C68.3743 48.7729 67.5294 47.543 67.3191 45.8316C66.9323 42.7098 68.4063 39.3454 70.8847 38.1549C71.7766 37.7262 72.8525 37.5475 73.8533 37.5174C75.0963 37.4798 76.1196 38.1061 76.9007 39.43C77.0678 38.8188 77.203 38.4032 77.295 37.9782C77.5823 36.6674 77.8696 35.3566 78.123 34.0383C78.2226 33.5211 78.4385 33.2917 78.9924 33.3255C79.7021 33.3707 80.4156 33.3368 81.2625 33.3368C80.9489 34.8827 80.6748 36.3119 80.3687 37.7356C79.5951 41.337 78.7877 44.9308 78.0423 48.5397C77.9165 49.1453 77.6574 49.3014 77.1054 49.2732C76.4595 49.2355 75.8098 49.2619 75.1132 49.2619ZM70.3008 44.3158C70.2895 45.9369 70.8059 46.8641 71.786 47.2421C72.8563 47.6558 74.1537 47.2778 74.9836 46.2943C75.8661 45.2486 76.1966 43.9886 76.3243 42.6665C76.4501 41.367 75.9243 40.3007 75.008 39.9002C73.9228 39.4244 72.646 39.7102 71.7522 40.628C70.682 41.7262 70.4003 43.1141 70.3008 44.3158Z" fill="#001F33"></path>
  <path d="M174.593 37.8085C174.52 38.3426 174.471 38.6999 174.405 39.1776C174.618 39.0516 174.738 39.0121 174.813 38.9294C176.227 37.3478 177.973 37.1258 179.851 37.8217C181.668 38.4949 182.348 40.0333 182.382 41.833C182.421 43.8716 181.963 45.8124 180.633 47.4391C179.18 49.2163 177.284 49.9573 175.059 49.4025C174.218 49.1919 173.489 48.5224 172.633 48.0165C172.456 48.7669 172.233 49.6884 172.025 50.6136C171.818 51.522 171.625 52.4322 171.422 53.3631C170.436 53.3631 169.51 53.3631 168.457 53.3631C168.787 51.7834 169.099 50.2695 169.424 48.7593C170.151 45.3723 170.905 41.9891 171.598 38.5946C171.726 37.9646 171.97 37.7615 172.578 37.8029C173.221 37.8424 173.872 37.8085 174.593 37.8085ZM179.366 42.8429C179.379 41.1899 178.831 40.2082 177.83 39.832C176.782 39.4371 175.588 39.7794 174.715 40.7667C173.761 41.8443 173.384 43.1551 173.314 44.558C173.245 45.9497 173.771 46.8712 174.76 47.2379C175.885 47.6554 177.271 47.2774 178.071 46.3221C178.974 45.2407 179.27 43.945 179.366 42.8429Z" fill="#001F33"></path>
  <path d="M65.4518 45.7537C63.9722 49.7162 58.5327 50.9856 55.7688 48.1026C55.1285 47.435 54.6892 46.3837 54.5559 45.4528C53.955 41.2139 57.1846 36.3657 62.6203 37.6915C65.8742 38.4851 66.4807 41.3136 66.0564 43.7509C66.0207 43.954 65.5231 44.2079 65.2358 44.2135C62.9545 44.2511 60.6732 44.2775 58.3937 44.2154C57.4775 44.1909 57.2446 44.5351 57.3498 45.3588C57.4643 46.2521 57.9074 46.8934 58.7486 47.1868C59.8076 47.5572 61.0224 47.6607 61.7078 46.7241C62.7536 45.2967 64.0755 45.9249 65.4518 45.7537ZM63.208 42.3367C63.3282 40.6911 62.6672 39.811 61.306 39.6869C59.5673 39.5289 58.0145 40.708 57.8624 42.3367C59.6255 42.3367 61.3848 42.3367 63.208 42.3367Z" fill="#001F33"></path>
  <path d="M108.71 49.2078C107.893 49.2078 107.002 49.2078 106.097 49.2078C106.038 48.8674 105.99 48.574 105.939 48.2769C105.207 48.6474 104.559 49.1326 103.838 49.2981C102.982 49.4955 102.05 49.5331 101.175 49.4316C99.9492 49.2868 98.9747 48.6248 98.7268 47.3253C98.464 45.9487 98.7775 44.7131 100.011 43.8537C101.378 42.9002 102.968 42.761 104.549 42.5767C105.199 42.5015 105.854 42.4395 106.489 42.2909C107.156 42.1348 107.576 41.7229 107.556 40.9594C107.537 40.2373 107.186 39.7897 106.523 39.5621C105.135 39.0844 103.86 39.532 103.034 40.7507C102.916 40.9256 102.67 41.1042 102.473 41.1174C101.763 41.1606 101.048 41.1343 100.218 41.1343C100.317 39.9119 100.858 39.0243 101.791 38.4695C104.012 37.1512 106.374 37.1474 108.725 38.0539C109.985 38.5391 110.492 39.4718 110.304 40.8202C110.1 42.3003 109.765 43.7653 109.482 45.2341C109.24 46.5148 108.986 47.7936 108.71 49.2078ZM107.047 43.7502C106.245 43.9195 105.74 44.0455 105.227 44.1301C104.705 44.2148 104.17 44.2279 103.654 44.3314C103.203 44.4216 102.627 44.4686 102.366 44.7639C101.992 45.1852 101.673 45.8189 101.677 46.3587C101.678 46.7517 102.159 47.3121 102.565 47.5002C103.776 48.0606 105.417 47.4701 106.044 46.2834C106.427 45.5556 106.66 44.7451 107.047 43.7502Z" fill="#001F33"></path>
  <path d="M143.094 44.5714C143.153 39.7137 146.902 36.6258 151.51 37.6846C153.373 38.1115 154.646 39.2285 154.95 41.1975C155.708 46.1041 152.218 50.4163 147.013 49.4666C144.42 48.9927 143.062 47.3095 143.094 44.5714ZM146.08 44.5093C146.067 46.0119 146.637 46.9503 147.787 47.3076C148.917 47.6593 150.323 47.2287 150.924 46.0439C151.487 44.9324 151.876 43.6781 152.066 42.4463C152.263 41.1637 151.602 40.2196 150.652 39.8604C149.508 39.4279 148.254 39.7495 147.435 40.7161C146.51 41.805 146.093 43.0876 146.08 44.5093Z" fill="#001F33"></path>
  <path d="M161.365 37.9099C160.871 40.3284 160.451 42.6979 159.888 45.0318C159.454 46.8297 160.655 47.4803 162.114 47.2077C163.252 46.9951 164.092 46.3087 164.414 45.2255C164.905 43.5837 165.256 41.9006 165.646 40.2306C166.352 37.2103 165.526 37.8949 168.665 37.8178C168.784 37.814 168.904 37.8591 169.133 37.9024C168.329 41.6824 167.533 45.4286 166.728 49.2218C165.823 49.2218 164.959 49.2218 164.018 49.2218C164.058 48.7441 164.093 48.3078 164.148 47.6421C163.733 47.9919 163.487 48.2081 163.232 48.4169C162.052 49.3798 160.708 49.7672 159.208 49.5152C157.249 49.1842 156.331 47.8471 156.714 45.8593C157.069 44.0181 157.479 42.1883 157.863 40.3547C157.877 40.2926 157.897 40.2343 157.91 40.1723C158.5 37.515 158.5 37.515 161.365 37.9099Z" fill="#001F33"></path>
  <path d="M97.509 45.2446C96.0144 49.8672 91.4742 50.2677 88.7779 48.9701C87.2383 48.2292 86.6712 46.7905 86.5905 45.1788C86.3426 40.2064 89.8426 36.5373 94.9122 37.6808C96.925 38.1359 98.1136 39.5219 98.1999 41.5849C97.3625 41.5849 96.5288 41.6037 95.6971 41.568C95.5375 41.5605 95.3234 41.3687 95.2427 41.2069C94.4447 39.5802 92.7867 39.1458 91.3391 40.2027C89.8745 41.2709 89.0784 44.7387 89.9327 46.3222C90.6781 47.7045 92.8261 47.7816 93.9358 46.4595C94.2682 46.0646 94.516 45.3894 94.9084 45.2991C95.7008 45.1167 96.5645 45.2446 97.509 45.2446Z" fill="#001F33"></path>
  <path d="M117.704 33.3335C117.319 35.1897 116.966 36.9274 116.595 38.6613C115.889 41.9561 115.151 45.2435 114.473 48.5439C114.351 49.1401 114.112 49.3093 113.545 49.2699C112.868 49.2247 112.184 49.2586 111.371 49.2586C111.75 47.425 112.103 45.6967 112.466 43.9703C113.138 40.7657 113.838 37.5649 114.473 34.3528C114.629 33.5648 114.925 33.2226 115.752 33.3185C116.36 33.3918 116.983 33.3335 117.704 33.3335Z" fill="#001F33"></path>
  <path d="M134.02 49.2609C134.476 47.0681 134.902 45.022 135.328 42.9777C135.614 41.6011 135.953 40.232 136.164 38.8442C136.295 37.9697 136.688 37.6932 137.523 37.7967C138.04 37.8606 138.573 37.8079 139.191 37.8079C139.048 38.5132 138.93 39.098 138.811 39.6848C140.105 38.1145 141.626 37.2814 143.806 37.5296C143.62 38.5 143.443 39.4215 143.257 40.3919C142.912 40.3468 142.672 40.3129 142.431 40.2847C140.736 40.0797 139.232 40.8075 138.663 42.4117C138.102 43.9895 137.782 45.6595 137.427 47.3032C137.005 49.2646 137.037 49.2703 135.024 49.2609C134.746 49.259 134.468 49.2609 134.02 49.2609Z" fill="#001F33"></path>
  <path d="M80.4805 49.2603C80.9743 46.8908 81.4324 44.6622 81.9037 42.4394C82.1816 41.1267 82.4971 39.8197 82.7599 38.5032C82.8632 37.9823 83.0941 37.766 83.6405 37.798C84.3522 37.8412 85.0657 37.8093 85.8899 37.8093C85.6684 38.9395 85.4844 39.9701 85.2647 40.9932C84.7258 43.4963 84.1494 45.9918 83.6349 48.4987C83.5185 49.0666 83.3044 49.3036 82.7167 49.2697C82.0107 49.2303 81.301 49.2603 80.4805 49.2603Z" fill="#001F33"></path>
  <path d="M83.3711 35.7741C83.7466 33.3029 83.7466 33.3029 86.0204 33.3368C86.2645 33.3406 86.5086 33.3669 86.8372 33.3876C86.687 34.0984 86.5725 34.7661 86.3922 35.4149C86.3509 35.5653 86.0955 35.7496 85.9303 35.7571C85.0985 35.7929 84.2667 35.7741 83.3711 35.7741Z" fill="#001F33"></path>
  <path d="M179.366 42.8432C179.271 43.9472 178.976 45.241 178.071 46.3224C177.271 47.2777 175.885 47.6557 174.76 47.2382C173.769 46.8696 173.245 45.95 173.315 44.5584C173.384 43.1554 173.762 41.8446 174.715 40.767C175.59 39.7797 176.783 39.4374 177.83 39.8324C178.831 40.2085 179.379 41.1902 179.366 42.8432Z" fill="white"></path>
  <path d="M146.078 44.5094C146.091 43.0877 146.508 41.807 147.434 40.7143C148.255 39.7477 149.507 39.4261 150.65 39.8586C151.6 40.2178 152.261 41.1619 152.064 42.4445C151.875 43.6782 151.486 44.9307 150.923 46.0421C150.322 47.2269 148.915 47.6576 147.785 47.3059C146.638 46.9505 146.065 46.012 146.078 44.5094Z" fill="white"></path>
</svg>
