<?xml version="1.0" encoding="UTF-8"?>
<svg xmlns="http://www.w3.org/2000/svg" width="199" height="85" viewBox="0 0 199 85" fill="none">
  <path d="M99.8056 82.4949C74.2956 82.4949 48.7745 82.4509 23.2645 82.5389C18.8309 82.5499 15.6104 80.8329 13.0848 77.3219C9.34593 72.127 6.40119 66.5137 3.8535 60.6804C2.84986 58.3801 1.89034 56.0688 0.94185 53.7575C0.809502 53.4383 0.776415 52.987 0.886705 52.6568C5.2983 38.7889 9.72092 24.932 14.1656 11.0861C14.9376 8.67567 16.1288 6.47442 17.9265 4.64737C20.0661 2.47913 22.691 1.23542 25.6578 0.751143C27.5658 0.442966 29.529 0.288878 31.459 0.288878C76.6006 0.266866 121.753 0.277872 166.895 0.255859C169.851 0.255859 172.762 0.475985 175.586 1.3785C178.387 2.28102 180.902 3.6458 182.655 6.07819C183.317 6.99171 183.846 8.0153 184.266 9.04989C186.791 15.3455 188.787 21.8282 190.839 28.2999C193.398 36.3785 195.978 44.4571 198.57 52.5358C198.736 53.0531 198.725 53.5043 198.504 54.0106C196.221 59.4587 193.916 64.9068 191.004 70.0688C189.184 73.3046 187.144 76.3754 184.629 79.138C182.578 81.4053 180.075 82.4949 176.986 82.4949C151.267 82.4839 125.536 82.4949 99.8056 82.4949ZM99.7835 81.8015C118.224 81.8015 136.653 81.8015 155.094 81.8015C162.781 81.8015 170.457 81.8015 178.144 81.7905C178.597 81.7905 179.06 81.7244 179.501 81.6364C181.519 81.2402 183.074 80.0625 184.42 78.5877C187.078 75.671 189.184 72.3581 191.07 68.9131C193.739 64.0153 195.978 58.9304 198.052 53.7575C198.206 53.3722 198.217 53.0531 198.096 52.6568C195.548 44.7103 193.056 36.7417 190.475 28.8062C188.534 22.8298 186.493 16.8754 184.464 10.932C183.902 9.29203 183.284 7.6631 182.148 6.28731C180.063 3.77787 177.317 2.4241 174.229 1.64265C171.637 0.982275 168.99 0.905231 166.321 0.905231C121.455 0.916237 76.5896 0.916237 31.7237 0.927243C29.8598 0.927243 27.9739 1.0263 26.132 1.30146C20.419 2.15995 16.5809 5.41781 14.8053 10.8549C10.2613 24.7999 5.82769 38.7779 1.36095 52.7559C1.28375 52.987 1.31683 53.2952 1.40507 53.5263C2.09989 55.2763 2.81678 57.0153 3.54469 58.7543C6.03724 64.6757 8.90477 70.399 12.5664 75.693C13.57 77.1458 14.6068 78.5656 15.9854 79.6993C17.8713 81.2512 20.0551 81.8125 22.4814 81.8125C48.2451 81.8015 74.0199 81.8015 99.7835 81.8015Z" fill="#001F33"></path>
  <path d="M188.918 79.4783C188.929 76.8699 190.925 74.8777 193.517 74.8887C195.877 74.8997 197.94 77.0129 197.94 79.4123C197.94 82.1089 195.943 84.145 193.341 84.134C190.881 84.134 188.907 82.0538 188.918 79.4783ZM189.458 79.5334C189.458 81.8007 191.223 83.6057 193.429 83.5947C195.546 83.5947 197.388 81.7346 197.388 79.6104C197.399 77.2771 195.635 75.45 193.385 75.45C191.179 75.45 189.458 77.2441 189.458 79.5334Z" fill="#001F33"></path>
  <path d="M99.7816 81.8025C74.0069 81.8025 48.2432 81.7915 22.4685 81.8135C20.0421 81.8135 17.8583 81.2522 15.9724 79.7003C14.5938 78.5667 13.557 77.1469 12.5534 75.694C8.89178 70.4 6.01322 64.6767 3.5317 58.7553C2.80379 57.0163 2.0869 55.2773 1.39208 53.5273C1.30385 53.2962 1.27076 52.988 1.34796 52.7569C5.82573 38.7789 10.2594 24.8009 14.8143 10.8559C16.59 5.41883 20.4281 2.16097 26.1411 1.30248C27.9829 1.02732 29.8689 0.928263 31.7328 0.928263C76.5877 0.917256 121.454 0.917256 166.319 0.90625C168.988 0.90625 171.635 0.983294 174.227 1.64367C177.315 2.42512 180.073 3.7899 182.146 6.28833C183.282 7.66411 183.9 9.29305 184.462 10.933C186.491 16.8874 188.521 22.8308 190.473 28.8072C193.054 36.7427 195.546 44.7113 198.094 52.6578C198.215 53.0431 198.204 53.3733 198.05 53.7585C195.976 58.9314 193.737 64.0163 191.068 68.9141C189.183 72.3701 187.076 75.672 184.418 78.5887C183.072 80.0635 181.517 81.2412 179.499 81.6374C179.047 81.7255 178.595 81.7915 178.143 81.7915C170.455 81.8025 162.779 81.8025 155.092 81.8025C136.663 81.8135 118.222 81.8025 99.7816 81.8025ZM100.355 72.073C111.572 72.073 122.777 72.073 133.993 72.073C148.243 72.073 162.481 72.073 176.731 72.0619C178.297 72.0619 179.863 71.9519 181.33 71.3906C184.528 70.1579 187.241 68.1877 189.337 65.4802C191.741 62.3764 193.991 59.1626 196.329 56.0148C196.715 55.4975 196.737 55.0132 196.539 54.4189C195.833 52.2506 195.138 50.0714 194.476 47.8811C192.271 40.5619 190.032 33.2648 187.175 26.1657C186.348 24.0965 185.598 21.9613 184.495 20.0352C181.881 15.4346 177.779 13.1122 172.485 13.1122C124.42 13.0902 76.356 13.1012 28.2918 13.1122C27.4536 13.1122 26.6043 13.2223 25.7882 13.4094C21.2773 14.433 18.1341 17.1846 16.204 21.2899C14.4394 25.0431 12.8071 28.8732 11.1748 32.6924C8.24107 39.5714 5.42868 46.4943 3.00231 53.5824C2.75967 54.2978 2.83687 54.8371 3.28906 55.4094C4.81106 57.3355 6.26689 59.3277 7.84403 61.1987C10.0939 63.8843 12.4762 66.4707 15.2334 68.65C18.1341 70.9393 21.3545 72.106 25.1264 72.095C50.2174 72.0509 75.2862 72.073 100.355 72.073Z" fill="#001F33"></path>
  <path d="M100.357 72.0718C75.2877 72.0718 50.2188 72.0388 25.1499 72.1048C21.367 72.1158 18.1465 70.9492 15.2569 68.6598C12.4887 66.4696 10.1174 63.8941 7.86753 61.2086C6.29038 59.3265 4.83456 57.3454 3.31256 55.4193C2.86037 54.8469 2.78317 54.3076 3.02581 53.5922C5.43012 46.5152 8.25354 39.5812 11.1873 32.7023C12.8195 28.8831 14.4518 25.0639 16.2165 21.2998C18.1465 17.1944 21.2898 14.4428 25.8007 13.4193C26.6168 13.2321 27.466 13.1221 28.3042 13.1221C76.3685 13.1111 124.433 13.1001 172.497 13.1221C177.791 13.1221 181.894 15.4444 184.508 20.045C185.6 21.9711 186.35 24.1064 187.188 26.1755C190.044 33.2746 192.283 40.5718 194.489 47.891C195.151 50.0812 195.845 52.2495 196.551 54.4287C196.739 55.012 196.717 55.5073 196.342 56.0246C194.004 59.1724 191.754 62.3863 189.349 65.49C187.254 68.1866 184.552 70.1677 181.342 71.4004C179.876 71.9617 178.309 72.0718 176.743 72.0718C162.494 72.0828 148.255 72.0828 134.006 72.0828C122.778 72.0718 111.573 72.0718 100.357 72.0718ZM100.357 70.8501C118.863 70.8501 137.381 70.8501 155.887 70.8501C162.913 70.8501 169.927 70.8501 176.953 70.8281C178.42 70.8281 179.887 70.663 181.276 70.1127C184.475 68.8359 187.1 66.7558 189.173 64.0592C191.357 61.2306 193.375 58.2809 195.459 55.3752C195.581 55.2102 195.614 54.891 195.559 54.6819C194.687 51.7542 193.794 48.8375 192.901 45.9208C190.651 38.5356 188.291 31.1944 185.28 24.0844C184.728 22.7746 184.177 21.4428 183.427 20.2432C181.971 17.8988 179.986 16.1158 177.317 15.1913C175.276 14.4759 173.159 14.2998 171.03 14.2998C123.826 14.2998 76.6222 14.2998 29.4182 14.2998C28.7013 14.2998 27.9734 14.2998 27.2675 14.3988C22.4368 15.0922 18.9958 17.7007 16.9334 22.0812C15.7312 24.6237 14.6283 27.2211 13.5033 29.8076C10.0844 37.6331 6.86389 45.5356 4.01841 53.5922C3.85298 54.0765 3.86401 54.4287 4.19488 54.8359C5.95952 57.0482 7.62489 59.3595 9.51085 61.4837C11.2755 63.4759 13.1614 65.369 15.1467 67.13C18.1135 69.7605 21.5766 70.9051 25.6352 70.8941C50.5387 70.8061 75.4531 70.8501 100.357 70.8501Z" fill="#001F33"></path>
  <path d="M194.069 79.7422C194.499 80.4466 194.929 81.1621 195.392 81.9215C194.852 82.1196 194.576 82.0316 194.433 81.5913C194.356 81.3712 194.212 81.1731 194.124 80.9529C193.771 80.1275 193.131 79.8303 192.194 79.9293C192.194 80.6007 192.194 81.2831 192.194 81.9985C191.951 81.9985 191.797 81.9985 191.609 81.9985C191.609 80.3806 191.609 78.7847 191.609 77.1558C192.403 77.1558 193.198 77.1007 193.97 77.1778C194.742 77.2548 195.161 77.7391 195.183 78.3665C195.205 78.9828 194.797 79.5001 194.124 79.7312C194.058 79.7532 193.992 79.7643 194.069 79.7422ZM192.216 79.39C192.778 79.357 193.308 79.357 193.815 79.28C194.256 79.2139 194.433 78.8948 194.444 78.4545C194.455 78.0032 194.223 77.7501 193.815 77.6951C193.297 77.629 192.767 77.64 192.205 77.607C192.216 78.2234 192.216 78.7627 192.216 79.39Z" fill="#001F33"></path>
  <path d="M28.5799 38.9215C27.499 38.9215 26.5285 38.9215 25.5028 38.9215C25.5028 41.1778 25.5028 43.4231 25.5028 45.7014C74.9788 45.7014 124.455 45.7014 173.975 45.7014C173.975 43.4561 173.975 41.2108 173.975 38.9325C173.004 38.9325 172.056 38.9325 171.03 38.9325C171.03 40.5174 171.03 42.1024 171.03 43.7093C168.769 43.7093 166.586 43.7093 164.369 43.7093C164.369 35.7517 164.369 27.8052 164.369 19.7266C165.637 19.8807 166.894 19.9687 168.13 20.2108C171.924 20.9483 175.199 22.6322 177.725 25.5929C179.622 27.8162 180.647 30.3807 180.636 33.3413C180.614 39.2847 180.625 45.2281 180.625 51.1715C180.625 51.3917 180.625 51.6008 180.625 51.8429C126.694 51.8429 72.8061 51.8429 18.8523 51.8429C18.8523 51.6118 18.8523 51.4027 18.8523 51.1825C18.8523 45.4263 18.9295 39.659 18.8302 33.9027C18.7641 30.0285 20.253 26.9357 23.0102 24.3492C25.6682 21.8508 28.8666 20.497 32.44 19.9797C33.3444 19.8476 34.2598 19.8256 35.2193 19.7376C35.2193 27.7612 35.2193 35.6857 35.2193 43.6652C33.0466 43.6652 30.8518 43.6652 28.5799 43.6652C28.5799 42.1354 28.5799 40.5615 28.5799 38.9215ZM171.052 32.8351C172.144 32.8351 173.159 32.8351 174.184 32.8351C174.14 30.986 172.541 28.6417 171.052 28.2674C171.052 29.7753 171.052 31.2832 171.052 32.8351ZM25.3815 32.6369C26.2417 32.6369 27.0689 32.659 27.885 32.6149C27.9953 32.6149 28.1938 32.3398 28.1938 32.1967C28.2159 31.008 28.2049 29.8193 28.2049 28.6196C28.2049 28.5206 28.1608 28.4215 28.1387 28.3225C26.7601 28.6747 25.3594 30.8539 25.3815 32.6369Z" fill="#001F33"></path>
  <path d="M61.4025 43.5992C59.3732 43.5992 57.399 43.5992 55.3586 43.5992C55.3586 43.3681 55.3586 43.1479 55.3586 42.9388C55.3586 37.6338 55.3586 32.3398 55.3586 27.0347C55.3586 25.9231 54.6528 25.2077 53.594 25.2297C53.0205 25.2407 52.6455 25.5269 52.5021 26.0552C52.4139 26.3633 52.3918 26.7045 52.3918 27.0347C52.3808 32.3177 52.3918 37.6008 52.3918 42.8838C52.3918 43.1039 52.3918 43.324 52.3918 43.5882C50.3846 43.5882 48.4104 43.5882 46.3479 43.5882C46.3479 43.4011 46.3479 43.192 46.3479 42.9828C46.3479 37.6778 46.3479 32.3838 46.3479 27.0787C46.3479 26.8366 46.359 26.5945 46.3259 26.3633C46.2266 25.6259 45.7855 25.1636 45.1568 25.1086C44.451 25.0426 43.7892 25.4608 43.5907 26.1432C43.5025 26.4514 43.4804 26.7926 43.4804 27.1228C43.4694 32.3838 43.4804 37.6448 43.4804 42.9168C43.4804 43.1369 43.4804 43.3461 43.4804 43.6102C41.4621 43.6102 39.4879 43.6102 37.4255 43.6102C37.4255 43.4011 37.4255 43.192 37.4255 42.9828C37.4255 37.6998 37.4586 32.4168 37.4145 27.1338C37.3704 22.4341 40.9437 19.5394 45.5428 19.8256C45.984 19.8476 46.4141 19.9136 46.8553 19.9797C47.8038 20.1228 48.653 20.497 49.3809 21.2124C50.2522 20.519 51.2558 20.0897 52.3587 19.9357C54.5866 19.6275 56.7372 19.7926 58.6122 21.2014C60.6746 22.7533 61.4135 24.9435 61.4356 27.4199C61.4577 30.5017 61.4356 33.5835 61.4356 36.6652C61.4356 38.7784 61.4356 40.8806 61.4356 42.9939C61.4025 43.181 61.4025 43.3791 61.4025 43.5992Z" fill="#001F33"></path>
  <path d="M93.3642 32.087C95.1178 33.3857 95.4928 35.2788 95.57 37.2379C95.6582 39.3071 95.592 41.3763 95.592 43.5005C93.6509 43.5005 91.7208 43.5005 89.7025 43.5005C89.7025 43.3134 89.7025 43.1153 89.7025 42.9172C89.7025 41.2662 89.7025 39.6153 89.7025 37.9644C89.7025 36.0273 88.9195 35.2238 86.8901 35.1137C86.8901 37.8983 86.8901 40.6719 86.8901 43.5005C84.6623 43.5005 82.4896 43.5005 80.2617 43.5005C80.2617 35.631 80.2617 27.7615 80.2617 19.826C80.4382 19.815 80.6146 19.793 80.7911 19.793C83.1182 19.826 85.4564 19.826 87.7835 19.903C88.6438 19.9361 89.504 20.0571 90.3422 20.2662C93.0112 20.9376 95.1619 23.6562 95.2722 26.4188C95.3714 28.521 94.7979 30.392 93.3642 32.087ZM86.824 25.4942C86.824 26.9691 86.824 28.4219 86.824 29.8747C87.6511 29.9078 88.4893 30.0728 88.9415 29.1813C89.4599 28.1798 89.4378 27.1562 88.8202 26.2096C88.357 25.5052 87.6401 25.3732 86.824 25.4942Z" fill="#001F33"></path>
  <path d="M141.916 43.5209C139.963 43.5209 138.055 43.5209 136.092 43.5209C136.081 43.3118 136.059 43.1137 136.048 42.9266C136.048 41.7379 136.037 40.5382 136.048 39.3495C136.059 38.9533 135.96 38.7882 135.53 38.8102C134.526 38.8432 133.511 38.8212 132.442 38.8212C132.442 40.3951 132.442 41.925 132.442 43.5099C130.368 43.5099 128.35 43.5099 126.287 43.5099C126.276 43.3008 126.265 43.0916 126.265 42.8825C126.265 37.5665 126.32 32.2394 126.243 26.9234C126.177 22.6309 129.133 20.3416 132.563 19.7913C135 19.3951 137.283 19.8464 139.313 21.2992C141 22.5099 141.938 24.1718 141.949 26.252C141.982 31.8982 141.971 37.5555 141.971 43.2017C141.949 43.2788 141.938 43.3668 141.916 43.5209ZM132.431 29.3338C132.42 29.3338 132.42 29.3338 132.408 29.3338C132.408 30.3023 132.42 31.2709 132.397 32.2505C132.386 32.5916 132.475 32.7457 132.85 32.7347C133.765 32.7127 134.68 32.7127 135.607 32.7347C135.96 32.7457 136.048 32.5916 136.037 32.2725C136.026 31.5901 136.037 30.9187 136.037 30.2363C136.026 28.8825 136.026 27.5287 135.982 26.175C135.96 25.4376 135.563 24.8872 134.868 24.6011C133.721 24.1278 132.497 24.9313 132.431 26.252C132.386 27.2756 132.431 28.3102 132.431 29.3338Z" fill="#001F33"></path>
  <path d="M161.061 43.6104C159.109 43.6104 157.167 43.6104 155.171 43.6104C155.171 43.3683 155.171 43.1481 155.171 42.939C155.171 37.568 155.182 32.1969 155.149 26.8148C155.149 26.3305 155.006 25.7912 154.752 25.373C154.377 24.7236 153.495 24.5035 152.745 24.7236C152.061 24.9217 151.598 25.5271 151.521 26.3305C151.499 26.5507 151.51 26.7708 151.51 26.9909C151.51 32.3069 151.51 37.623 151.51 42.95C151.51 43.1702 151.51 43.3793 151.51 43.6214C149.436 43.6214 147.429 43.6214 145.355 43.6214C145.355 43.3903 145.355 43.1702 145.355 42.961C145.355 37.656 145.422 32.362 145.333 27.0569C145.267 23.0947 147.705 20.7503 151.024 20.0459C153.605 19.4956 156.076 19.8588 158.303 21.3447C160.101 22.5334 161.061 24.2613 161.072 26.3856C161.116 32.0538 161.094 37.722 161.094 43.3903C161.094 43.4453 161.083 43.5114 161.061 43.6104Z" fill="#001F33"></path>
  <path d="M77.4715 19.8145C77.4715 21.6305 77.4715 23.4025 77.4715 25.2516C75.1443 25.2516 72.8172 25.2516 70.4681 25.2516C70.4681 26.4623 70.4681 27.5849 70.4681 28.7626C72.1334 28.7626 73.7767 28.7626 75.4642 28.7626C75.4642 30.7107 75.4642 32.6038 75.4642 34.5739C73.8098 34.5739 72.1555 34.5739 70.4681 34.5739C70.4681 35.7185 70.4681 36.7862 70.4681 37.9088C72.7952 37.9088 75.1002 37.9088 77.4494 37.9088C77.4494 39.8129 77.4494 41.673 77.4494 43.5881C73.104 43.5881 68.7475 43.5881 64.3359 43.5881C64.3359 35.6855 64.3359 27.772 64.3359 19.8145C68.7144 19.8145 73.0599 19.8145 77.4715 19.8145Z" fill="#001F33"></path>
  <path d="M122.968 28.8606C121.214 28.8606 119.505 28.8606 117.718 28.8606C117.718 28.3103 117.718 27.771 117.718 27.2317C117.718 25.4266 116.549 24.5681 114.784 25.0744C113.792 25.3606 113.362 25.9109 113.362 26.9455C113.362 30.1373 113.362 33.3291 113.362 36.521C113.362 38.326 114.784 39.2395 116.45 38.5241C117.244 38.1829 117.707 37.5886 117.707 36.6971C117.707 36.0587 117.707 35.4203 117.707 34.76C119.483 34.76 121.181 34.76 122.935 34.76C123.177 36.0037 123.056 37.2364 122.714 38.4361C121.159 43.9722 113.946 45.9314 109.932 41.9031C108.476 40.4392 107.792 38.6122 107.77 36.587C107.715 33.3071 107.759 30.0162 107.759 26.7364C107.748 22.4769 110.737 20.2977 114.001 19.8794C116.373 19.5823 118.578 20.0555 120.508 21.5084C122.008 22.642 122.869 24.1499 122.968 26.043C123.012 26.9565 122.968 27.881 122.968 28.8606Z" fill="#001F33"></path>
  <path d="M104.591 43.6088C102.628 43.6088 100.698 43.6088 98.7461 43.6088C98.7461 35.6843 98.7461 27.7708 98.7461 19.8242C100.687 19.8242 102.617 19.8242 104.591 19.8242C104.591 27.7488 104.591 35.6513 104.591 43.6088Z" fill="#001F33"></path>
  <path d="M75.442 65.6557C75.8611 66.0189 76.2581 66.3601 76.6883 66.7343C76.2802 67.1195 75.8831 67.4827 75.442 67.8899C75.1442 67.6368 74.7802 67.3616 74.4604 67.0535C74.2067 66.8003 74.0082 66.8113 73.6994 66.9654C71.5929 68.011 68.6371 67.5267 67.082 65.8538C65.8798 64.566 65.6482 62.9701 65.7916 61.2972C65.9681 59.239 66.9276 57.6981 68.8907 56.9607C71.0083 56.1682 73.0818 56.3223 74.9126 57.7752C75.8721 58.5346 76.4236 59.5692 76.578 60.7689C76.7985 62.4969 76.6552 64.1698 75.442 65.6557ZM73.7325 64.1918C74.3501 63.1242 74.3722 62.0456 74.2067 60.934C73.9861 59.5031 72.9935 58.4906 71.7252 58.3915C69.9495 58.2484 68.7694 58.9418 68.3283 60.4277C68.0084 61.5283 68.0084 62.6399 68.3834 63.7296C68.9459 65.3695 70.9642 66.173 72.4421 65.3365C72.0892 65.0173 71.7473 64.7091 71.3723 64.3679C71.8024 63.9717 72.1994 63.5975 72.5965 63.2343C72.9935 63.5755 73.3465 63.8616 73.7325 64.1918Z" fill="#001F33"></path>
  <path d="M85.2476 56.873C86.0858 56.873 86.8468 56.873 87.674 56.873C87.674 57.7205 87.674 58.546 87.674 59.3605C87.674 60.7583 87.6961 62.1451 87.663 63.5429C87.6189 65.8432 86.4167 67.1749 84.1337 67.3841C83.2845 67.4611 82.4022 67.4281 81.564 67.296C79.7331 67.0098 78.6633 65.9532 78.5641 64.1042C78.4428 61.7158 78.531 59.3164 78.531 56.8841C79.314 56.8841 80.075 56.8841 80.9243 56.8841C80.9243 57.0712 80.9243 57.2583 80.9243 57.4564C80.9243 59.4705 80.9243 61.4847 80.9353 63.5098C80.9353 64.2913 81.0677 65.0507 81.8728 65.4029C82.7551 65.7882 83.6705 65.7992 84.5087 65.2709C85.1594 64.8636 85.2256 64.1482 85.2366 63.4658C85.2587 61.4847 85.2476 59.5035 85.2476 57.5224C85.2476 57.3133 85.2476 57.1152 85.2476 56.873Z" fill="#001F33"></path>
  <path d="M99.9152 67.1853C99.1101 67.1853 98.3712 67.1963 97.6212 67.1743C97.4999 67.1743 97.3234 66.9982 97.2683 66.8661C97.0698 66.3928 96.9484 65.8976 96.7279 65.4353C96.6507 65.2702 96.408 65.0941 96.2316 65.0831C95.0735 65.0501 93.9155 65.0501 92.7574 65.0831C92.592 65.0831 92.3714 65.2592 92.2942 65.4133C92.0736 65.8976 91.9303 66.4039 91.7207 66.8991C91.6656 67.0202 91.5112 67.1743 91.4009 67.1853C90.673 67.2073 89.9451 67.1963 89.1289 67.1963C89.5039 66.2498 89.8458 65.3693 90.1987 64.4888C91.1362 62.1114 92.0736 59.734 92.989 57.3457C93.1214 56.9935 93.2868 56.8174 93.6949 56.8504C94.4228 56.8944 95.3272 56.6413 95.8455 56.9715C96.3308 57.2907 96.4301 58.2152 96.6838 58.8866C97.6874 61.473 98.7021 64.0595 99.7057 66.646C99.7719 66.8001 99.838 66.9762 99.9152 67.1853ZM94.5221 59.2057C94.0037 60.6366 93.5405 61.9133 93.0663 63.245C94.0478 63.245 94.9522 63.245 95.9228 63.245C95.4706 61.9133 95.0294 60.6366 94.5221 59.2057Z" fill="#001F33"></path>
  <path d="M130.531 67.1638C129.714 67.1638 128.964 67.1638 128.148 67.1638C128.148 66.1403 128.126 65.1167 128.159 64.1041C128.181 63.5538 128.038 63.0915 127.74 62.6182C126.56 60.7472 125.424 58.8431 124.211 56.8509C125.159 56.8509 126.031 56.8399 126.891 56.873C127.001 56.873 127.145 57.1151 127.222 57.2582C127.928 58.5789 128.612 59.9107 129.35 61.3195C129.483 61.0884 129.582 60.9343 129.67 60.7692C130.266 59.5805 130.861 58.3808 131.479 57.1921C131.556 57.038 131.788 56.8729 131.953 56.8619C132.703 56.8289 133.453 56.8509 134.313 56.8509C134.192 57.0711 134.115 57.2362 134.016 57.4013C132.935 59.2283 131.854 61.0553 130.795 62.8934C130.652 63.1465 130.564 63.4657 130.553 63.7629C130.52 64.8855 130.531 66.0082 130.531 67.1638Z" fill="#001F33"></path>
  <path d="M120.332 67.1744C119.494 67.1744 118.744 67.1744 117.939 67.1744C117.939 64.3568 117.939 61.5612 117.939 58.6886C116.781 58.6886 115.667 58.6886 114.531 58.6886C114.531 58.0502 114.531 57.4889 114.531 56.8945C117.575 56.8945 120.608 56.8945 123.696 56.8945C123.696 57.4448 123.696 58.0172 123.696 58.6665C122.604 58.6665 121.502 58.6665 120.344 58.6665C120.332 61.5392 120.332 64.3238 120.332 67.1744Z" fill="#001F33"></path>
  <path d="M109.391 65.3026C109.391 65.963 109.391 66.5353 109.391 67.1407C106.733 67.1407 104.086 67.1407 101.406 67.1407C101.406 63.7287 101.406 60.3278 101.406 56.8828C102.167 56.8828 102.928 56.8828 103.744 56.8828C103.744 59.6564 103.744 62.441 103.744 65.3026C105.641 65.3026 107.494 65.3026 109.391 65.3026Z" fill="#001F33"></path>
  <path d="M110.898 56.873C111.682 56.873 112.431 56.873 113.215 56.873C113.215 60.296 113.215 63.697 113.215 67.1529C112.465 67.1529 111.704 67.1529 110.898 67.1529C110.898 63.752 110.898 60.34 110.898 56.873Z" fill="#001F33"></path>
</svg>
