<?xml version="1.0" encoding="UTF-8"?>
<svg xmlns="http://www.w3.org/2000/svg" width="88" height="100" viewBox="0 0 88 100" fill="none">
  <path fill-rule="evenodd" clip-rule="evenodd" d="M15.9896 61.2169L17.9612 76.9901V76.942H38.6875C40.0821 77.9999 41.8132 78.9136 44.5543 79.0098C47.3434 78.9136 49.1227 77.9999 50.373 76.942H71.2916L73.2633 61.1689L86.4396 51.503C89.0845 37.8458 85.4778 26.3045 78.6973 17.1677C71.484 7.50184 59.2214 0.144266 44.5543 0C29.8872 0 17.7208 7.21331 10.1228 16.9272C4.01551 25.487 -0.120115 34.4796 2.09197 51.0702C2.95109 51.7037 3.78515 52.32 4.60547 52.9261C8.33088 55.6787 11.7727 58.2217 15.9896 61.2169ZM43.2223 28.6769C43.5788 37.7452 43.9407 46.9521 44.5538 55.1098C45.12 47.6264 45.409 39.2357 45.6981 30.8409C45.9737 22.8362 46.2495 14.8276 46.7659 7.59814C48.3528 7.3577 50.3726 7.40579 52.4404 7.79049C54.2197 8.31947 55.6143 8.84845 56.9607 9.81022C56.2345 13.571 55.4593 17.6011 54.6606 21.7533C52.4977 32.9984 50.1624 45.1394 48.1605 55.2541C49.0819 52.0916 50.0599 48.722 51.0695 45.2431C54.3279 34.0158 57.9163 21.6515 61.0002 11.4452C62.7795 11.878 64.5587 12.8879 66.0014 13.9939C67.2036 15.0519 68.1173 15.9656 69.3195 17.841C66.6107 23.4671 63.7012 29.8845 60.7736 36.3421C57.6203 43.2972 54.446 50.2988 51.4786 56.4082C54.3887 51.6087 57.6029 46.0834 60.8553 40.4923C64.8048 33.703 68.8107 26.8166 72.3972 21.0149C73.5994 22.169 74.3689 22.9865 75.7153 25.1024C76.8695 26.8336 77.3023 28.8053 77.687 30.7769C75.0554 33.9736 72.2552 37.4039 69.4102 40.8889C64.5089 46.8931 59.4747 53.06 54.941 58.476C58.4086 55.121 62.2664 51.302 66.1489 47.4585C70.5581 43.0936 74.9993 38.6971 78.9373 34.9125C79.5624 36.259 80.0433 37.5093 80.2838 40.0099C80.428 42.3663 80.1395 45.0112 79.5624 46.7905L65.2801 57.4181L63.6932 69.3441H47.872C47.3911 70.2578 46.3812 71.3638 44.5538 71.46C42.8883 71.3746 42.4364 70.834 41.5477 69.771C41.4357 69.637 41.3168 69.4948 41.1876 69.3441L25.3183 69.2479L23.8276 57.37L9.40098 46.6943C8.92009 45.0112 8.4392 42.222 8.72773 39.9138C8.92009 37.5093 9.40098 36.259 10.1223 34.8164C13.5098 38.1158 17.2695 41.8379 21.061 45.5914C25.5584 50.0437 30.1004 54.5402 34.1186 58.4279C27.0015 49.82 18.4897 39.4329 11.4207 30.7769C11.6611 28.8053 12.1901 26.7855 13.2481 25.0543C14.4595 23.0043 15.4 22.1731 16.5945 21.1174C16.6329 21.0835 16.6715 21.0493 16.7105 21.0149C20.109 26.6199 23.9087 33.1745 27.6865 39.6912C31.0718 45.5309 34.4394 51.3401 37.4848 56.4082C34.3584 49.8321 30.8847 42.1986 27.4614 34.676C24.7765 28.7762 22.1228 22.9447 19.692 17.7449C20.9423 15.8213 21.7598 15.0519 23.1063 13.9459C24.4047 12.8879 26.1839 11.878 28.0113 11.4933C29.9349 18.2257 32.183 25.8117 34.4311 33.3976C36.6793 40.9837 38.9275 48.5697 40.851 55.3022C39.5257 48.7213 38.0701 41.2501 36.6028 33.7192C34.9823 25.4012 33.3475 17.0103 31.8584 9.66596C33.3973 8.80036 34.7437 8.31947 36.6192 7.74241C38.4947 7.45387 40.6587 7.30961 42.2456 7.69432C42.6527 14.1875 42.9358 21.3874 43.2223 28.6769Z" fill="#001F33"></path>
  <path d="M0.792969 93.8206H8.15055C8.05437 95.4556 8.87188 95.8403 9.25659 96.1288C9.68939 96.2731 12.7671 96.4174 14.2578 96.1769C14.883 96.0327 15.46 95.8403 15.46 93.9648C15.46 93.1473 15.2677 92.2817 14.354 92.0894C11.084 91.8489 7.9101 92.1856 4.68816 91.8489C1.41813 91.1276 0.937235 90.3101 0.792969 87.7133C1.03341 84.1547 2.23563 83.1449 5.89038 83.0487C9.68939 82.9525 13.4884 82.9525 17.2393 83.0487C21.1345 83.0487 22.2886 84.5394 22.2886 87.7614H15.5081C15.5081 86.1745 15.2196 85.5493 14.4021 85.4531C12.7671 85.357 11.132 85.357 9.40086 85.4531C8.7757 85.4531 8.00628 85.7898 8.00628 87.2324C8.00628 88.5789 8.39099 88.9636 9.30468 89.0598C12.0938 89.156 14.9311 89.2041 17.6721 89.3964C22.2405 89.6849 22.3848 91.7047 22.5772 93.8687C22.6253 96.8982 21.5673 98.0043 20.7498 98.4852C19.9804 98.8699 16.2295 99.2546 15.5562 99.2546H8.19864C6.56362 99.2546 4.4958 99.0622 2.71652 98.5333C0.985324 98.0043 0.792969 95.7441 0.792969 93.8206Z" fill="#001F33"></path>
  <path d="M76.9178 83.0977H70.4258V99.2555H76.9178V83.0977Z" fill="#001F33"></path>
  <path d="M87.69 83.0977H81.2461V99.2555H87.69V83.0977Z" fill="#001F33"></path>
  <path d="M66.5798 90.7432C66.4837 90.2623 66.3394 89.7333 66.147 89.2524C65.041 87.425 61.242 87.425 57.5392 87.377C54.75 87.377 50.5663 87.4731 49.3641 88.6273C48.8832 89.2043 48.5947 89.9737 48.4504 90.7432C48.258 91.7049 48.3061 92.7148 48.3061 93.1957C48.3061 94.0613 48.4023 97.2832 49.9411 98.1007C51.3838 99.0625 55.7599 99.1587 57.4911 99.1587C59.3184 99.1587 64.2716 98.9663 64.9929 98.1488C66.2432 97.6679 66.5798 96.081 66.8203 94.8307H60.4726C60.4726 96.081 59.4627 96.8504 57.4911 96.7543C55.7118 96.8504 54.6538 96.4657 54.6538 94.1575L66.8203 94.2056C66.8203 93.0995 66.8203 91.9454 66.5798 90.7432ZM60.4245 91.8973H54.6057C54.6057 91.4164 54.7019 91.0317 54.7981 90.7913C55.2309 89.7814 56.2889 89.7333 57.443 89.6852C59.1742 89.6852 59.9436 90.118 60.2802 90.7913C60.4245 91.0798 60.4726 91.4645 60.4245 91.8973Z" fill="#001F33"></path>
  <path d="M26.3293 99.2547H32.6771V92.378C32.8213 91.4644 33.0618 90.6949 35.37 90.6949C37.5821 90.6469 38.1592 91.272 38.1592 92.378V99.2547H44.5069V92.378C44.5069 90.166 44.4588 88.9157 43.0161 88.2424C41.7177 87.3768 39.8423 87.5211 38.1111 87.5211C36.2837 87.5211 34.2159 87.7615 32.629 88.4829V83.0488H26.2812V99.2547H26.3293Z" fill="#001F33"></path>
</svg>
