<?xml version="1.0" encoding="UTF-8"?>
<svg xmlns="http://www.w3.org/2000/svg" width="267" height="35" viewBox="0 0 267 35" fill="none">
  <path fill-rule="evenodd" clip-rule="evenodd" d="M193.841 27.3105C193.65 27.2551 193.241 27.1187 192.613 26.8736C192.231 28.2654 191.686 29.411 191.03 30.3116L192.585 30.9936C192.804 30.529 193.241 29.3013 193.841 27.3105ZM162.384 31.0746L163.257 30.5567C161.429 29.2746 160.529 27.7464 160.529 25.9731C160.529 24.1997 161.429 22.6449 163.257 21.3628L162.412 20.8438C161.539 21.4715 160.802 22.2356 160.229 23.1084C159.656 24.009 159.356 24.9361 159.356 25.9187C159.356 26.8459 159.602 27.7741 160.12 28.6746C160.639 29.5475 161.375 30.3659 162.384 31.0746ZM194.577 22.7269C194.086 22.372 193.323 21.9905 192.258 21.5813L191.44 22.3177C192.477 22.7536 193.213 23.1628 193.596 23.491C194.031 23.0818 194.359 22.809 194.577 22.7269ZM210.701 30.5567L211.574 31.0746C212.583 30.3659 213.32 29.5475 213.839 28.6746C214.357 27.7741 214.603 26.8459 214.603 25.9187C214.603 24.9361 214.302 24.009 213.729 23.1084C213.157 22.2079 212.42 21.4715 211.546 20.8438L210.701 21.3628C212.529 22.6449 213.429 24.1997 213.429 25.9731C213.429 27.7198 212.529 29.2469 210.701 30.5567ZM193.159 26.1915C193.323 25.9731 193.622 25.6736 194.059 25.3187C193.431 24.9361 192.613 24.5823 191.576 24.2541L190.812 24.9915C190.867 25.0182 190.976 25.0725 191.167 25.1546C192.067 25.5638 192.749 25.9187 193.159 26.1915ZM174.525 26.3557H172.424L171.142 26.3002L171.169 27.2008V30.011L171.088 31.0203H172.533V30.2562H178.017V30.9382H179.435L179.381 29.8469V27.2551L179.435 26.3002L178.017 26.3557H175.943V24.0633C176.434 24.6633 177.226 25.2367 178.29 25.7546C179.353 26.2736 180.418 26.6285 181.509 26.8192C181.754 26.3823 182.055 26.0274 182.354 25.7823C181.373 25.6459 180.637 25.5372 180.2 25.4551C179.763 25.3731 179.272 25.209 178.753 24.9915C178.235 24.7731 177.744 24.4725 177.253 24.0633H180.418L182.109 24.1177V23.2448L180.418 23.2992H175.943V22.3443C176.599 22.29 178.153 22.2079 180.581 22.0992C180.172 21.772 179.872 21.4172 179.654 21.0623C178.753 21.253 177.526 21.4172 175.971 21.5259C174.416 21.6356 172.942 21.7177 171.524 21.7177C170.842 21.7177 170.214 21.69 169.614 21.6623C169.887 22.0449 169.997 22.3443 169.997 22.5628C172.506 22.5084 174.007 22.4541 174.525 22.4264V23.2726H169.696L168.441 23.2182V24.0633L169.805 24.009H173.433C173.052 24.3638 172.26 24.7731 171.06 25.209C169.86 25.6736 168.878 25.9464 168.113 26.0551C168.523 26.3279 168.878 26.6008 169.205 26.8736C171.361 26.2192 173.161 25.3454 174.552 24.2818L174.525 26.3557ZM177.989 29.4931H172.506V28.6469H177.989V29.4931ZM177.989 27.0921V27.9105H172.506V27.0921H177.989ZM203.771 30.611C204.017 30.3926 204.208 29.9833 204.372 29.411C203.771 29.3567 203.253 29.1649 202.789 28.8377C202.816 29.411 202.68 29.7659 202.435 29.9023C202.189 30.0387 201.616 30.1197 200.743 30.1197C200.061 30.1197 199.406 30.1197 198.724 30.1197C198.069 30.1197 197.742 29.9833 197.742 29.7382V29.0562H201.043L202.38 29.0839L202.298 28.0192V27.1464C203.035 27.5013 203.771 27.8008 204.535 27.9926C204.645 27.5834 204.918 27.2008 205.354 26.8459C203.417 26.6551 202.244 26.1915 201.861 25.4008H203.662L204.89 25.4551V24.5269L203.58 24.5823H201.835V23.2992H203.498L204.29 23.3813V22.4541L203.498 22.4807H201.835V22.0172L201.889 21.2264H200.416L200.47 22.0172V22.4807H198.397V21.9351L198.506 21.2264H197.032L197.087 21.9351V22.4807H195.778C195.423 22.4807 195.177 22.4541 194.986 22.3997V23.2992L195.75 23.2726H197.087V24.5546H195.177L194.332 24.5003V25.4274C194.414 25.4274 194.85 25.4008 195.642 25.3731H197.06C196.16 26.2192 195.096 26.9013 193.895 27.3649C194.168 27.4192 194.523 27.6377 194.904 28.0469C195.532 27.7464 196.023 27.4736 196.405 27.2008V29.9833C196.405 30.3116 196.515 30.5567 196.733 30.7208C196.95 30.8839 197.251 30.9659 197.632 31.0203C198.015 31.048 198.587 31.0746 199.351 31.0746C200.988 31.0746 202.08 31.048 202.599 30.9936C203.144 30.9382 203.526 30.8295 203.771 30.611ZM200.988 28.21H197.742V27.3649H200.988V28.21ZM198.424 23.2448H200.497V24.5546H198.424V23.2448ZM197.387 26.5731C198.015 26.1095 198.451 25.7002 198.697 25.4008H200.607C200.661 25.6736 200.934 26.0828 201.452 26.5731H197.387ZM41.4421 28.7556C42.0975 28.4828 42.8062 28.1013 43.5437 27.61C44.2801 27.1187 44.9078 26.4921 45.4258 25.728C45.917 25.0182 46.2165 24.1997 46.3263 23.2448H41.5242C40.7878 23.2448 40.0237 23.2726 39.2873 23.3269V21.4992C40.0237 21.5259 40.7601 21.5536 41.4976 21.5536H46.435L46.4893 19.6715C46.4627 19.0161 46.3529 18.3618 46.2442 17.7341L49.5458 17.8705C49.2453 18.5525 49.0545 19.1259 49.0001 19.8889L48.8904 21.5536H54.5109C55.1653 21.5536 55.8207 21.5259 56.5027 21.4715V23.3546L54.5109 23.2726H48.8083C48.8637 23.4633 48.9724 23.6818 49.1088 24.009C49.2996 24.4459 49.6822 25.0182 50.2545 25.7002C50.8278 26.3823 51.6463 27.0377 52.7376 27.7198C54.1283 28.5926 55.6843 29.0285 57.2658 29.411C56.4473 29.929 55.6022 30.448 55.193 31.4029C52.4648 30.3116 49.2453 28.5649 48.0176 25.6182C46.7899 28.7833 42.916 30.4203 40.1057 31.3474C39.5324 30.8295 38.9324 30.3659 38.3047 29.9023C39.3416 29.5197 40.4063 29.1649 41.4421 28.7556ZM144.215 29.2469V24.3095H140.831L138.458 24.3905V22.6171L140.831 22.6726H147.734L150.189 22.6171V24.3905L147.734 24.3095H146.615V30.011C146.397 31.5116 143.042 31.4029 142.632 31.4029H142.442C142.55 30.2295 141.868 29.9567 141.022 29.411C141.677 29.4931 142.305 29.5741 142.987 29.5741C143.068 29.5475 144.215 29.5475 144.215 29.2469ZM137.612 19.2346C137.367 19.3433 136.466 19.9987 134.884 21.2264C134.638 21.4172 133.329 22.5084 132.783 22.7536C132.183 22.0715 131.746 21.9085 130.901 21.6356C132.865 20.7074 134.201 19.7525 135.156 17.7341L137.994 19.0438L137.612 19.2346ZM148.716 20.571L146.261 20.5166H142.113L139.44 20.571V18.8531L142.113 18.9074H146.315L148.743 18.8531V20.571H148.716ZM138.185 22.5905C137.585 22.972 136.875 23.5177 136.085 24.2274V29.411L136.193 31.4029H133.82L133.902 29.411V26.1372C133.356 26.6008 132.865 26.9823 132.265 27.3372C131.774 26.4921 131.419 26.3002 130.546 25.9731C132.701 24.7731 134.747 23.409 135.838 21.1166L138.486 22.3997L138.185 22.5905ZM81.7387 24.2274L79.7736 24.3638V28.2654C81.0013 27.1741 82.0925 25.9187 81.9561 24.1997L81.7387 24.2274ZM74.2628 24.7187C74.9182 24.8274 75.5448 24.9361 76.2002 25.1002C75.8997 25.3187 75.6002 25.5095 75.2997 25.728C75.0546 26.0551 74.8084 26.3002 74.6177 26.5187C75.6546 27.0644 76.6638 27.8285 77.6187 28.5382V24.5546L74.2628 24.7187ZM70.5253 22.4264L70.6074 21.4715V19.7259L70.4976 18.0889L72.2443 18.171H85.0392L87.4403 18.1156L87.3316 19.6715V21.1987L87.4403 22.5084L85.9675 22.4264H84.8485L86.7859 23.8726L83.2115 24.1454L82.6936 24.1731L85.0669 24.4459C84.7398 24.7454 84.3028 25.1002 84.3572 25.6182C85.0392 27.4736 87.2495 28.3741 88.9131 28.9198L88.668 29.1382C88.15 29.6018 87.631 30.0654 87.1397 30.529C85.6946 29.7659 84.0577 28.7013 83.2115 27.2285C82.5018 28.3464 81.6833 29.2469 80.592 30.011L79.7736 29.3567V30.3659L79.8833 31.648H77.51L77.6187 30.3116V29.0285C77.0187 29.2469 76.391 29.5197 75.8454 29.8746C75.2177 29.2469 74.3171 28.3464 73.5541 27.8008C72.7623 28.7833 71.5623 29.6295 70.5253 30.2839C69.8433 29.6018 69.5161 29.4377 68.6433 29.1649C70.6617 28.1833 72.4894 27.0644 73.0084 24.7731L71.3161 24.8551L70.2248 23.2992C72.872 23.2182 79.9654 23.0541 83.7849 22.372H72.5715L70.5253 22.4264ZM85.2034 19.5618H82.229V20.9802H85.2034V19.5618ZM80.1284 19.5618H77.5366V20.9802H80.1562L80.1284 19.5618ZM75.4361 19.5618H72.7079V20.9802H75.4361V19.5618ZM105.801 27.8285V28.4828L107.165 28.3198L105.801 27.7464V27.8285ZM107.765 21.6623C106.865 21.09 105.964 20.5166 105.037 19.9987C104.6 20.4346 103.974 21.0079 103.155 21.7177H106.293L107.765 21.6623ZM116.523 24.7731H114.313C114.45 25.3454 114.668 25.891 114.995 26.4366C115.569 25.9187 116.059 25.3731 116.523 24.7731ZM118.815 25.891C118.514 26.0008 117.888 26.3823 116.933 27.01C116.468 27.3105 116.114 27.5556 115.868 27.6921C116.933 28.6746 118.406 29.1382 119.77 29.5197C118.951 30.0654 118.514 30.3926 117.914 31.211C115.104 29.8746 112.977 27.9372 112.295 24.7997H111.203V28.9741C111.94 28.6469 112.649 28.3198 113.386 27.9926C113.495 28.2377 113.631 28.4828 113.74 28.729C113.822 28.9741 113.986 29.1926 114.149 29.411L112.431 30.3116C111.531 30.7752 110.63 31.211 109.73 31.7023C109.157 31.1567 108.612 30.611 108.011 30.1197C108.202 30.0387 109.212 29.6018 109.212 29.411V20.8715C108.829 21.172 108.448 21.4715 108.093 21.8264V23.1905L106.211 23.1361H105.801V23.9269H107.302L108.693 23.8448V25.4274L107.302 25.3731H105.801V27.2285C106.374 26.7095 106.756 26.2459 107.138 25.4551L109.075 26.0551C108.502 26.8459 107.902 27.6377 107.22 28.3198L107.411 28.292L108.584 28.0469C108.53 28.5649 108.502 29.0562 108.475 29.5741L108.339 29.6018C107.82 29.7105 106.456 29.929 104.273 30.2562C102.882 30.4746 102.118 30.5844 102.036 30.611L100.618 30.9936C100.345 30.3382 100.044 29.7105 99.6895 29.0839L103.946 28.7013V28.0192C103.318 28.1556 102.718 28.3198 102.173 28.6192C101.791 27.6377 101.518 27.01 100.863 26.1915L101.136 26.1095C101.681 25.9187 102.2 25.728 102.691 25.4818C103.21 26.1915 103.619 26.7915 103.974 27.5556V25.3731H101.982L100.7 25.4274V23.8726L101.928 23.9269H103.946V23.1361H103.373L102.227 23.1905V22.4264L101.436 23.0818C100.917 22.3997 100.099 22.1536 99.3357 21.8807C100.644 21.3894 101.463 20.8715 102.473 19.9166C103.182 19.2346 103.892 18.4982 104.247 17.5977L106.947 18.2254C106.702 18.4438 106.456 18.6612 106.211 18.8797C107.248 19.3166 108.257 19.7525 109.212 20.2982V19.6438L109.102 18.252L110.985 18.3618H116.032L118.57 18.2797L118.46 19.3987V23.7084L118.57 24.8274L117.014 24.7731L119.252 25.7002L118.815 25.891ZM116.468 19.8079H111.203V20.8992H116.468V19.8079ZM111.203 22.2633V23.3813H116.468V22.2633H111.203Z" fill="#001F33"></path>
  <path fill-rule="evenodd" clip-rule="evenodd" d="M22.0708 13.0954L19.398 10.4216H7.99389L5.32002 13.0954L4.22873 12.0041L13.6954 2.5641L23.1355 12.0041L22.0708 13.0954ZM9.44005 17.2421L13.6954 12.9867L17.9242 17.2155L13.6954 21.4708L9.44005 17.2421ZM20.7888 24.7991L13.6954 31.8924L4.25644 22.4534L5.34773 21.3621L7.85747 23.8719H19.5888L22.0985 21.3621L23.1898 22.4534L20.7888 24.7991ZM7.99389 0L0 8.02053V16.0421L1.19999 17.2421L0 18.4432V26.4637L7.82977 34.2935H19.5611L27.2544 26.6001V18.279L26.2186 17.2421L27.2544 16.2052V7.85747L19.398 0H7.99389Z" fill="#001F33"></path>
  <path fill-rule="evenodd" clip-rule="evenodd" d="M252.989 11.5413L247.777 5.67564H246.632V12.3598H247.396V6.4664L252.606 12.3321H253.753V5.67564H252.989V11.5413ZM243.003 5.59358H239.729C238.202 5.59358 237.711 6.41205 237.711 8.10333V9.93102C237.711 11.6234 238.202 12.4418 239.729 12.4418H243.003C244.531 12.4418 245.022 11.6234 245.022 9.93102V8.10333C245.022 6.41205 244.531 5.59358 243.003 5.59358ZM244.258 10.2593C244.258 11.4315 243.658 11.6777 242.921 11.6777H239.811C239.075 11.6777 238.475 11.4315 238.475 10.2593V7.74845C238.475 6.57617 239.075 6.32999 239.811 6.32999H242.921C243.658 6.32999 244.258 6.57617 244.258 7.74845V10.2593ZM197.905 8.54027H192.777V5.67564H192.013V12.3598H192.777V9.27668H197.905V12.3598H198.669V5.67564H197.905V8.54027ZM265.593 5.53923C265.429 5.21206 265.265 4.91153 265.075 4.611H264.229C264.393 4.91153 264.556 5.21206 264.692 5.53923C265.156 6.57617 265.374 7.6941 265.374 8.89515C265.374 10.4223 264.965 11.8408 264.229 13.1505H265.075C265.92 11.8685 266.411 10.3957 266.411 8.89515C266.383 7.58539 266.056 6.49411 265.593 5.53923ZM215.639 11.5413L210.428 5.67564H209.283V12.3598H210.046V6.4664L215.257 12.3321H216.403V5.67564H215.639V11.5413ZM205.626 5.59358H202.352C200.825 5.59358 200.334 6.41205 200.334 8.10333V9.93102C200.334 11.6234 200.825 12.4418 202.352 12.4418H205.626C207.154 12.4418 207.646 11.6234 207.646 9.93102V8.10333C207.672 6.41205 207.181 5.59358 205.626 5.59358ZM206.882 10.2593C206.882 11.4315 206.282 11.6777 205.544 11.6777H202.434C201.698 11.6777 201.098 11.4315 201.098 10.2593V7.74845C201.098 6.57617 201.698 6.32999 202.434 6.32999H205.544C206.282 6.32999 206.882 6.57617 206.882 7.74845V10.2593ZM221.45 9.76797H224.369V10.45C224.369 11.3772 223.905 11.6777 223.141 11.6777H220.14C219.404 11.6777 218.804 11.4315 218.804 10.2593V7.74845C218.804 6.57617 219.404 6.32999 220.14 6.32999H222.132C224.042 6.32999 224.342 6.41205 224.342 7.66745H225.051V7.42128C225.051 5.86641 223.96 5.59358 222.95 5.59358H220.059C218.531 5.59358 218.04 6.41205 218.04 8.10333V9.93102C218.04 11.6234 218.531 12.4418 220.059 12.4418H223.223C224.642 12.4418 225.133 11.7864 225.133 9.98644V9.0582H221.45V9.76797ZM236.373 5.67564L235.091 5.64794L231.518 8.48592H230.563V5.67564H229.799V12.3598H230.563V9.22232H231.462L235.364 12.3321H236.701L232.281 8.86744L236.373 5.67564ZM258.826 9.76797H261.745V10.45C261.745 11.3772 261.282 11.6777 260.518 11.6777H257.517C256.78 11.6777 256.18 11.4315 256.18 10.2593V7.74845C256.18 6.57617 256.78 6.32999 257.517 6.32999H259.509C261.418 6.32999 261.719 6.41205 261.719 7.66745H262.427V7.42128C262.427 5.86641 261.336 5.59358 260.327 5.59358H257.436C255.907 5.59358 255.416 6.41205 255.416 8.10333V9.93102C255.416 11.6234 255.907 12.4418 257.436 12.4418H260.6C262.018 12.4418 262.537 11.7864 262.537 9.98644V9.0582H258.854L258.826 9.76797ZM189.503 5.56588C189.64 5.26641 189.776 4.93924 189.967 4.63871H189.121C188.93 4.93924 188.766 5.2387 188.603 5.56588H189.23H188.575C188.057 6.63052 187.756 7.74845 187.756 8.89515C187.756 10.6685 188.356 11.9772 189.094 13.1505H189.939C189.175 11.8408 188.793 10.4223 188.793 8.89515C188.793 7.6941 189.038 6.60281 189.503 5.56588ZM133.792 7.14845C134.53 6.90334 135.075 6.63052 135.266 5.53923C135.293 5.32076 135.32 5.04794 135.32 4.74741C135.32 2.72896 134.093 2.0469 131.583 2.0469H122.498V12.3321H132.538C134.338 12.3321 135.675 11.8685 135.675 9.60385C135.675 8.07669 135.156 7.33922 133.792 7.14845ZM125.635 4.53001H131.228C131.801 4.53001 132.155 4.74741 132.155 5.34847C132.155 5.42946 132.155 5.48488 132.129 5.56588C132.046 6.00282 131.719 6.13923 131.228 6.13923H125.635V4.53001ZM131.282 9.87667H125.635V8.26745H131.282C131.964 8.26745 132.428 8.4305 132.428 9.11256C132.428 9.71362 131.964 9.87667 131.282 9.87667ZM86.6217 2.0469H83.4565V12.3321H93.6874V9.68591H86.594V2.0469H86.6217ZM109.647 9.82232H106.347C104.901 9.82232 104.574 9.24897 104.574 7.77616V6.65716C104.574 6.24793 104.6 5.86641 104.71 5.56588C104.928 4.93924 105.419 4.611 106.51 4.611H109.866C110.794 4.611 111.312 4.82947 111.312 5.56588V5.8387H114.395V5.56588C114.395 2.86537 113.713 1.96484 109.457 1.96484H105.828C103.073 1.96484 101.436 2.6469 101.382 5.56588V8.73103C101.382 11.7321 103.045 12.4418 105.828 12.4418H110.821C113.932 12.4418 114.532 11.0777 114.532 9.33103V8.37615H111.448C111.448 9.6582 111.039 9.82232 109.647 9.82232ZM79.7468 7.14845C80.4832 6.90334 81.0289 6.63052 81.2196 5.53923C81.2473 5.32076 81.274 5.04794 81.274 4.74741C81.274 2.72896 80.0463 2.0469 77.5365 2.0469H68.4514V12.3321H78.4914C80.2925 12.3321 81.6289 11.8685 81.6289 9.60385C81.6289 8.07669 81.1109 7.33922 79.7468 7.14845ZM71.5888 4.53001H77.1816C77.755 4.53001 78.1099 4.74741 78.1099 5.34847C78.1099 5.42946 78.1099 5.48488 78.0822 5.56588C78.0001 6.00282 77.6729 6.13923 77.1816 6.13923H71.5888V4.53001ZM77.2637 9.87667H71.6165V8.26745H77.2637C77.9458 8.26745 78.4093 8.4305 78.4093 9.11256C78.3827 9.71362 77.9458 9.87667 77.2637 9.87667ZM179.872 5.53923L183.746 2.0469H179.463L175.78 5.53923L175.479 5.81205H174.007V2.0469H170.842V12.3321H174.007V8.40386H175.397L179.954 12.3598H184.401L178.181 7.0941L179.872 5.53923ZM157.882 5.56588L163.257 12.3598H168.141V5.53923H164.976V9.52179L161.784 5.53923L159.028 2.0469H154.145V12.3321H157.31V4.88382L157.882 5.56588ZM165.004 5.53923H168.168V2.0469H165.004V5.53923ZM146.807 2.0469H142.714L140.831 5.53923L137.148 12.3321H140.668L141.595 10.5044H147.979L148.961 12.3321H152.48L148.743 5.53923L146.807 2.0469ZM142.769 8.29409L144.187 5.53923L144.76 4.42024L145.333 5.53923L146.779 8.29409H142.769ZM95.9253 12.3321H99.0894V2.0469H95.9253V12.3321ZM63.0226 2.0469V7.99463C63.0226 9.30438 62.5591 9.82232 61.2493 9.82232H58.1396C56.8564 9.82232 56.3662 9.30438 56.3662 7.99463V2.0469H53.2011V8.67668C53.2011 11.2408 54.5108 12.4418 57.4298 12.4418H61.9591C64.8503 12.4418 66.1878 11.2141 66.1878 8.67668V2.0469H63.0226ZM47.2267 2.0469H38.6328V12.3321H41.7969V9.74026H48.0718C50.3087 9.74026 50.9641 7.96692 50.9641 6.43976V5.29305C50.8821 3.43872 50.0913 2.0469 47.2267 2.0469ZM47.7169 6.11152C47.7169 6.71258 47.4441 7.2028 46.7077 7.2028H41.7969V4.611H46.4349C47.3077 4.611 47.6626 4.93924 47.7169 5.53923V6.11152Z" fill="#001F33"></path>
</svg>
