<?xml version="1.0" encoding="UTF-8"?>
<svg xmlns="http://www.w3.org/2000/svg" width="103" height="33" viewBox="0 0 103 33" fill="none">
  <path d="M25.0401 30.6434C25.1429 30.652 25.2513 30.6596 25.4587 30.6624L28.5208 30.6929C34.6042 30.8167 40.6913 31.047 46.7718 30.5939C57.4907 30.236 68.2029 28.5205 78.3786 25.0829C80.9974 24.1195 83.6229 22.9952 85.8042 21.2141C87.8285 19.6338 88.9405 16.6922 87.9702 14.2352C87.1017 12.3988 85.3847 11.1289 83.6886 10.0998C78.4147 7.00874 72.4408 5.29995 66.4412 4.32513C55.9734 2.4783 45.3278 1.55487 34.6955 1.87949C28.0899 2.00325 21.4672 2.3831 14.9605 3.58068C12.8668 3.85485 10.8396 4.48982 8.73828 4.70497C9.08454 3.86152 10.0254 3.71586 10.7921 3.46359C20.1002 0.857087 29.8307 0.339208 39.448 0.269714C48.9017 0.0326725 58.3659 0.743795 67.7216 2.07656C74.5859 3.16752 81.5121 4.67164 87.7191 7.9093C90.4797 9.32203 93.3173 11.2888 94.3827 14.3475C95.0315 16.0811 94.7071 18.0707 93.7007 19.5995C92.1035 22.1623 89.3714 23.6835 86.7745 25.0525C79.6913 28.7023 71.7768 30.2978 63.9536 31.4145C51.2761 32.8967 38.4378 32.7872 25.7603 31.4326C25.3274 31.384 24.8955 31.3002 24.7367 31.2527L25.0401 30.6434Z" fill="#001F33"></path>
  <path d="M74.4766 1.47214C74.8599 0.99044 75.3413 0.847644 75.9206 1.0447C82.6204 2.34035 89.3972 3.88445 95.4843 7.08214C97.5819 8.14835 99.4597 9.65152 100.995 11.4327C102.764 13.4908 103.358 16.6809 101.918 19.0761C100.236 21.8759 97.4211 23.7951 94.5102 25.1421C91.3739 26.5548 88.1567 27.8429 84.794 28.6092C84.8891 28.434 85.0746 28.0799 85.1698 27.9047C87.2892 26.8975 89.5465 26.0941 91.3958 24.5947C93.4857 22.9116 95.8268 21.04 96.3196 18.2326C97.0891 15.3272 95.9181 12.2323 93.7778 10.2208C88.7037 4.96113 81.3143 3.1876 74.4766 1.47214Z" fill="#001F33"></path>
  <path d="M7.51529 9.48294C5.84106 9.67238 4.50262 11.0232 4.31332 12.6987C4.00701 14.7721 4.17824 17.6481 6.40706 18.601C8.54075 19.4483 11.6771 19.1817 12.7492 16.8493C13.3656 15.0825 13.4236 13.0129 12.6179 11.2946C11.64 9.55244 9.33126 9.13261 7.51529 9.48294ZM5.25698 7.19819C8.03944 6.65461 11.0416 6.61748 13.708 7.69417C15.7105 8.45004 17.0308 10.472 17.2677 12.5559C17.5816 14.8988 17.3514 17.589 15.6448 19.3816C13.8032 21.2941 10.9579 21.5464 8.45228 21.575C5.83725 21.5169 2.78463 21.0314 1.19031 18.7133C-0.188078 16.3553 -0.341231 13.3337 0.585304 10.7891C1.34061 8.82226 3.25171 7.58565 5.25698 7.19819Z" fill="#001F33"></path>
  <path d="M19.2148 7.17721C20.4001 7.16674 21.5892 7.16673 22.7745 7.16959C22.7745 8.05301 22.7707 8.93645 22.7602 9.82272C21.5826 9.81511 20.4001 9.8151 19.2225 9.8151C19.2187 8.93644 19.2186 8.05683 19.2148 7.17721Z" fill="#001F33"></path>
  <path d="M24.7617 7.19172C26.0126 7.16602 27.2635 7.16602 28.5145 7.16602C28.5401 9.94008 28.4821 12.718 28.5402 15.4949C28.5801 16.4107 28.5915 17.5902 29.5323 18.0824C31.1114 18.9325 32.9864 18.466 34.7006 18.564C34.7148 19.418 34.7262 20.2719 34.7367 21.1268C31.9105 20.984 28.5221 21.7361 26.2571 19.5827C25.0319 18.5936 24.8131 16.9514 24.7912 15.4768C24.7579 12.717 24.8093 9.95436 24.7617 7.19172Z" fill="#001F33"></path>
  <path d="M36.7227 7.18031C37.9374 7.16603 39.1513 7.16602 40.3622 7.16602C40.3698 8.04945 40.3727 8.93288 40.3698 9.81631C39.1551 9.81631 37.9441 9.81631 36.7303 9.81631C36.7265 8.93574 36.7265 8.05612 36.7227 7.18031Z" fill="#001F33"></path>
  <path d="M45.9475 13.2849C45.9295 15.1098 45.9361 16.9386 45.9475 18.7635C47.5561 18.694 49.3902 19.0339 50.7876 18.0409C51.6998 16.9643 51.6523 15.1213 50.7581 14.0408C49.4092 12.9784 47.5457 13.3534 45.9475 13.2849ZM42.3594 7.1818C43.5561 7.17133 44.7518 7.17418 45.9485 7.17418C45.9371 8.41841 45.9371 9.66359 45.9371 10.9078C48.4104 11.0354 51.3022 10.4004 53.3741 12.1159C55.8283 14.0103 55.7123 18.3094 53.1258 20.0287C51.8168 20.974 50.1388 21.1234 48.574 21.1387C46.5059 21.1311 44.4379 21.1282 42.3698 21.1311C42.3774 16.4816 42.406 11.8322 42.3594 7.1818Z" fill="#001F33"></path>
  <path d="M19.2205 10.8125C20.4058 10.8201 21.5911 10.8201 22.7802 10.8201C22.7659 14.2587 22.784 17.6934 22.7659 21.131C21.5882 21.131 20.4058 21.131 19.2244 21.131C19.2282 17.6924 19.2139 14.251 19.2205 10.8125Z" fill="#001F33"></path>
  <path d="M36.7299 10.8086C37.9447 10.8191 39.1586 10.8191 40.3733 10.8162C40.3657 14.2548 40.3771 17.6924 40.3733 21.1309C39.1586 21.1309 37.9438 21.1309 36.7299 21.1309C36.7299 17.6885 36.7223 14.2509 36.7299 10.8086Z" fill="#001F33"></path>
  <path d="M56.2266 10.9042C57.4118 10.9118 58.5971 10.9118 59.7862 10.9004C59.8081 12.9119 59.7681 14.9263 59.7967 16.9379C59.8261 17.5842 59.888 18.5619 60.6975 18.6752C61.9408 18.8504 63.1993 18.7371 64.4502 18.7333C64.4388 16.1239 64.4388 13.5136 64.4502 10.9004C65.6279 10.9109 66.8103 10.9109 67.9918 10.9004C67.9956 14.1305 67.9918 17.3605 68.0022 20.5877C68.006 21.6063 67.9109 22.7268 67.1994 23.5189C66.3204 24.5813 64.8469 24.7926 63.5522 24.8621C61.1998 24.8916 58.8473 24.8697 56.4948 24.8621C56.5024 24.1034 56.5053 23.3475 56.5091 22.5878C58.7341 22.5621 60.9619 22.665 63.1831 22.544C63.927 22.5364 64.2191 21.7339 64.6205 21.2522C62.4326 21.1532 60.1562 21.4198 58.0663 20.6353C56.8772 20.1793 56.257 18.9084 56.2503 17.6899C56.1971 15.4299 56.2551 13.1632 56.2266 10.9042Z" fill="#001F33"></path>
  <path d="M73.4207 17.6859C73.1182 18.1818 73.5776 18.7987 74.117 18.7987C75.8131 18.9444 77.5197 18.8063 79.2234 18.872C79.2158 18.2551 79.2129 17.6459 79.2053 17.0328C77.7432 17.0328 76.2764 16.9709 74.8143 17.0471C74.3187 17.1128 73.6328 17.1347 73.4207 17.6859ZM70.3681 11.0021C72.8261 11.0164 75.2842 10.984 77.7423 11.0059C79.2043 11.083 80.8748 11.2287 81.9297 12.3853C82.5566 13.006 82.7468 13.9142 82.7611 14.769C82.7944 16.89 82.7649 19.0101 82.7611 21.1349C79.6353 21.1168 76.5132 21.1491 73.3874 21.1206C72.1545 21.0911 70.7105 20.7922 69.9952 19.6793C69.5462 18.7673 69.5215 17.6497 69.882 16.7044C70.4803 15.562 71.8073 15.0803 73.0221 14.989C75.1225 14.8357 77.2314 14.989 79.3356 14.8938C79.0369 14.295 78.8029 13.4991 78.0153 13.4192C75.4802 13.0726 72.9051 13.4449 70.3595 13.204C70.3643 12.47 70.3643 11.7361 70.3681 11.0021Z" fill="#001F33"></path>
</svg>
