<?xml version="1.0" encoding="UTF-8"?>
<svg xmlns="http://www.w3.org/2000/svg" width="166" height="78" viewBox="0 0 166 78" fill="none">
  <path d="M11.3815 17.3034C11.3815 20.7069 11.1465 24.1305 11.5306 27.5039C11.6395 28.4827 13.4912 29.3512 14.6378 30.1694C15.0563 30.4656 15.7557 30.4606 16.2544 31.1885C11.0376 31.1885 5.82069 31.1885 0.351562 31.1885C0.684067 30.7266 0.787258 30.4054 0.976442 30.3552C5.34486 29.1654 5.56844 29.0048 5.61431 25.0943C5.6831 18.9951 5.64297 12.896 5.62577 6.79678C5.62004 4.13624 5.27034 1.66645 1.25735 1.50581C1.0395 1.49577 0.792991 1.2498 0.638204 1.06406C0.552212 0.953625 0.621006 0.742789 0.621006 0.592192C0.747128 0.466695 0.867518 0.255859 0.976442 0.255859C7.71252 0.361277 14.4715 0.2157 21.179 0.68255C26.2812 1.03896 28.6947 3.37823 28.9928 6.97248C29.3884 11.7263 27.422 14.4471 22.4516 16.0334C21.7694 16.2492 21.1102 16.5253 19.9464 16.9571C25.6162 21.5402 28.838 27.805 36.0327 31.2136C35.041 31.329 34.0434 31.4043 33.0631 31.5649C28.7578 32.2527 25.7595 30.8973 23.3402 27.6394C21.0127 24.507 18.089 21.7059 15.2971 18.8546C14.4601 18.0012 13.1816 17.4691 12.1096 16.7914C11.8631 16.9621 11.6223 17.1327 11.3815 17.3034ZM11.2096 15.3758C13.7721 15.2553 15.9563 15.4712 17.894 14.9591C19.4706 14.5475 21.3509 13.5335 22.0446 12.3237C23.5581 9.67318 23.4664 6.73152 21.2993 4.25672C19.1209 1.77187 15.8589 1.73171 12.6714 2.04294C12.1268 2.09816 11.2898 3.00174 11.2726 3.52883C11.1522 7.35399 11.2096 11.1842 11.2096 15.3758Z" fill="#001F33"></path>
  <path d="M59.1211 0.255859C69.5664 0.255859 79.9843 0.255859 90.6045 0.255859C90.6045 2.82238 90.6045 5.36846 90.6045 7.91453C90.3858 7.98611 90.1672 8.0628 89.9431 8.13437C89.6042 7.49019 89.156 6.87156 88.9374 6.19159C87.877 2.94509 81.2852 0.634192 78.3883 2.59743C77.9346 2.90419 77.6941 3.75288 77.6941 4.35616C77.6504 11.8512 77.6832 19.3463 77.6504 26.8363C77.6449 28.866 78.7053 29.9958 80.7331 30.4713C81.5421 30.6605 82.3456 30.8701 83.1545 31.0746C83.1217 31.2944 83.0944 31.5194 83.0616 31.7392C77.5629 31.7392 72.0588 31.7392 66.4016 31.7392C66.6203 31.2484 66.6531 30.9979 66.7514 30.9724C72.0588 29.6175 72.3376 29.275 72.3376 23.9374C72.343 17.7205 72.261 11.5036 72.3758 5.28666C72.4195 2.92975 71.3482 1.99926 68.9924 2.10662C67.3582 2.1782 65.7129 2.21398 64.106 2.45939C61.9142 2.79682 60.9686 4.25391 60.6351 6.20692C60.5258 6.86645 60.1377 7.49019 59.8808 8.12926C59.6294 8.07814 59.3725 8.0219 59.1211 7.97077C59.1211 5.50139 59.1211 3.02689 59.1211 0.255859Z" fill="#001F33"></path>
  <path d="M38.3583 31.7392C38.7629 31.2078 38.9155 30.8245 39.0747 30.8245C43.6844 30.7683 44.3543 28.2797 44.3941 25.5765C44.4803 19.2757 44.5002 12.9749 44.3941 6.67416C44.3543 4.2213 43.9099 1.80422 39.6517 1.51806C39.2405 1.49251 38.8956 0.915064 38.1328 0.255859C44.7191 0.255859 50.6952 0.255859 56.6779 0.255859C56.7907 0.398942 56.9101 0.542026 57.0228 0.685109C56.28 1.02238 55.5835 1.55894 54.7942 1.65092C52.0682 1.96775 51.0003 3.28615 50.9871 5.19734C50.9406 12.5201 50.9473 19.8429 50.9937 27.1657C51.007 29.2404 52.3335 30.5128 55.1856 30.6815C55.7892 30.7172 56.3728 31.0136 56.804 31.7392C50.7615 31.7392 44.7191 31.7392 38.3583 31.7392Z" fill="#001F33"></path>
  <path d="M6.45874 48.7774H4.09354V54.3191H1.08203V39.9629H7.38007C9.04396 39.9629 10.2953 40.4442 11.1341 41.3105C11.9317 42.1356 12.413 43.1394 12.413 44.4183C12.413 46.4259 11.3679 47.8286 9.56649 48.4336L13.1555 54.3191H9.78652L6.45874 48.7774ZM4.09354 46.4122H7.10504C8.63141 46.4122 9.42899 45.7109 9.42899 44.4458C9.42899 43.1394 8.59017 42.4931 7.13254 42.4931H4.09354V46.4122Z" fill="#001F33"></path>
  <path d="M13.1016 49.1759C13.1016 46.1094 15.288 43.7305 18.4783 43.7305C21.6685 43.7305 23.855 46.0957 23.855 49.1759C23.855 52.2562 21.6685 54.6214 18.4783 54.6214C15.288 54.6214 13.1016 52.2424 13.1016 49.1759ZM21.091 49.1759C21.091 47.1683 20.1422 45.8069 18.4783 45.8069C16.7869 45.8069 15.8655 47.1683 15.8655 49.1759C15.8655 51.1836 16.7869 52.5312 18.4783 52.5312C20.1559 52.5312 21.091 51.1836 21.091 49.1759Z" fill="#001F33"></path>
  <path d="M24.6211 49.1759C24.6211 46.1094 26.6288 43.7305 29.764 43.7305C32.4318 43.7305 34.0819 45.2706 34.4394 47.4983H31.7717C31.5929 46.5907 30.8916 45.9169 29.8878 45.9169C28.2377 45.9169 27.3988 47.182 27.3988 49.1622C27.3988 51.1148 28.1826 52.4212 29.8465 52.4212C30.9466 52.4212 31.7304 51.8437 31.9092 50.6748H34.5357C34.3569 52.8612 32.6518 54.6076 29.9015 54.6076C26.6563 54.6214 24.6211 52.2424 24.6211 49.1759Z" fill="#001F33"></path>
  <path d="M38.4515 45.3671H38.5065C39.2491 44.2808 40.0879 43.7445 41.4905 43.7445C43.6219 43.7445 45.0383 45.3533 45.0383 47.5948V54.3191H42.3018V47.9936C42.3018 46.8935 41.6555 46.1097 40.5142 46.1097C39.3041 46.1097 38.424 47.0722 38.424 48.4749V54.3191H35.6875V39.9629H38.424V45.3671H38.4515Z" fill="#001F33"></path>
  <path d="M46.2422 49.1601C46.2422 46.1074 48.3049 43.7422 51.3164 43.7422C54.6304 43.7422 56.3905 46.2724 56.3905 49.944H48.9237C49.1299 51.5253 50.01 52.5154 51.5501 52.5154C52.609 52.5154 53.2415 52.0341 53.5441 51.2503H56.2393C55.8542 53.0792 54.2316 54.6194 51.5776 54.6194C48.1811 54.6194 46.2422 52.2267 46.2422 49.1601ZM48.9787 48.0463H53.5578C53.4753 46.7399 52.609 45.8324 51.3714 45.8324C49.9275 45.8461 49.2124 46.7124 48.9787 48.0463Z" fill="#001F33"></path>
  <path d="M57.0234 50.9753H59.5537C59.7324 52.1579 60.585 52.6804 61.8088 52.6804C63.0189 52.6804 63.6928 52.2129 63.6928 51.4978C63.6928 50.5078 62.3864 50.4115 60.9838 50.1365C59.1411 49.7789 57.326 49.2702 57.326 47.0287C57.326 44.801 59.1686 43.7422 61.5201 43.7422C64.2291 43.7422 65.7279 45.0898 65.9342 47.1525H63.4727C63.349 46.0524 62.6477 45.6536 61.4788 45.6536C60.42 45.6536 59.7187 46.0524 59.7187 46.7949C59.7187 47.675 61.08 47.7575 62.5514 48.0601C64.2841 48.4176 66.1817 48.8989 66.1817 51.3053C66.1817 53.368 64.4078 54.6194 61.8501 54.6194C58.8523 54.6194 57.1885 53.1755 57.0234 50.9753Z" fill="#001F33"></path>
  <path d="M66.6036 44.0205H68.0337V40.8027H70.7014V44.0205H72.4616V45.8219H70.7014V51.2811C70.7014 52.0512 71.1277 52.2987 71.719 52.2987C72.0628 52.2987 72.5166 52.285 72.5166 52.285V54.2926C72.5166 54.2926 71.8978 54.3339 70.8114 54.3339C69.4913 54.3339 68.02 53.8113 68.02 51.8587V45.8219H66.5898V44.0205H66.6036Z" fill="#001F33"></path>
  <path d="M73.2617 49.1601C73.2617 46.1074 75.3244 43.7422 78.3359 43.7422C81.6499 43.7422 83.4101 46.2724 83.4101 49.944H75.9432C76.1495 51.5253 77.0295 52.5154 78.5697 52.5154C79.6285 52.5154 80.2611 52.0341 80.5636 51.2503H83.2588C82.8738 53.0792 81.2511 54.6194 78.5972 54.6194C75.1869 54.6194 73.2617 52.2267 73.2617 49.1601ZM75.9982 48.0463H80.5773C80.4948 46.7399 79.6285 45.8324 78.3909 45.8324C76.9333 45.8461 76.232 46.7124 75.9982 48.0463Z" fill="#001F33"></path>
  <path d="M87.3179 45.6703H87.3729C87.9917 44.5015 88.693 43.9102 89.9031 43.9102C90.2056 43.9102 90.3844 43.9239 90.5494 43.9927V46.3854H90.4944C88.7067 46.2066 87.4279 47.1417 87.4279 49.3144V54.3335H84.6914V44.0202H87.3179V45.6703Z" fill="#001F33"></path>
  <path d="M98.259 39.9629H95.3438V54.3191H98.259V39.9629Z" fill="#001F33"></path>
  <path d="M102.933 45.4219H102.989C103.69 44.3218 104.639 43.7305 106.041 43.7305C108.173 43.7305 109.589 45.3394 109.589 47.5808V54.3051H106.853V47.9796C106.853 46.8795 106.206 46.0957 105.065 46.0957C103.855 46.0957 102.975 47.0583 102.975 48.4609V54.3051H100.238V44.0192H102.906V45.4219H102.933Z" fill="#001F33"></path>
  <path d="M110.633 50.9753H113.163C113.342 52.1579 114.194 52.6804 115.418 52.6804C116.628 52.6804 117.302 52.2129 117.302 51.4978C117.302 50.5078 115.996 50.4115 114.593 50.1365C112.75 49.7789 110.935 49.2702 110.935 47.0287C110.935 44.801 112.778 43.7422 115.129 43.7422C117.838 43.7422 119.351 45.0898 119.544 47.1525H117.082C116.958 46.0524 116.257 45.6536 115.088 45.6536C114.029 45.6536 113.328 46.0524 113.328 46.7949C113.328 47.675 114.689 47.7575 116.161 48.0601C117.893 48.4176 119.791 48.8989 119.791 51.3053C119.791 53.368 118.031 54.6194 115.459 54.6194C112.462 54.6194 110.798 53.1755 110.633 50.9753Z" fill="#001F33"></path>
  <path d="M120.225 44.0205H121.655V40.8027H124.323V44.0205H126.083V45.8219H124.323V51.2811C124.323 52.0512 124.749 52.2987 125.34 52.2987C125.684 52.2987 126.138 52.285 126.138 52.285V54.2926C126.138 54.2926 125.519 54.3339 124.433 54.3339C123.112 54.3339 121.641 53.8113 121.641 51.8587V45.8219H120.211V44.0205H120.225Z" fill="#001F33"></path>
  <path d="M127.48 39.9629H130.217V42.4106H127.48V39.9629ZM127.48 44.0195H130.217V54.3191H127.48V44.0195Z" fill="#001F33"></path>
  <path d="M131.373 44.0205H132.803V40.8027H135.471V44.0205H137.231V45.8219H135.471V51.2811C135.471 52.0512 135.897 52.2987 136.489 52.2987C136.832 52.2987 137.286 52.285 137.286 52.285V54.2926C137.286 54.2926 136.667 54.3339 135.581 54.3339C134.261 54.3339 132.79 53.8113 132.79 51.8587V45.8219H131.359V44.0205H131.373Z" fill="#001F33"></path>
  <path d="M145.153 54.3211V53.111H145.098C144.397 54.0598 143.586 54.5961 142.142 54.5961C139.859 54.5961 138.566 53.1248 138.566 50.8833V44.0215H141.275V50.4295C141.275 51.6396 141.812 52.2997 142.981 52.2997C144.259 52.2997 145.043 51.3371 145.043 49.9757V44.0215H147.766V54.3211H145.153Z" fill="#001F33"></path>
  <path d="M148.943 44.0205H150.374V40.8027H153.041V44.0205H154.801V45.8219H153.041V51.2811C153.041 52.0512 153.468 52.2987 154.059 52.2987C154.403 52.2987 154.856 52.285 154.856 52.285V54.2926C154.856 54.2926 154.238 54.3339 153.151 54.3339C151.831 54.3339 150.36 53.8113 150.36 51.8587V45.8219H148.93V44.0205H148.943Z" fill="#001F33"></path>
  <path d="M155.605 49.1601C155.605 46.1074 157.668 43.7422 160.68 43.7422C163.994 43.7422 165.754 46.2724 165.754 49.944H158.287C158.493 51.5253 159.373 52.5154 160.913 52.5154C161.972 52.5154 162.605 52.0341 162.907 51.2503H165.603C165.218 53.0792 163.595 54.6194 160.941 54.6194C157.544 54.6194 155.605 52.2267 155.605 49.1601ZM158.342 48.0463H162.921C162.839 46.7399 161.986 45.8324 160.735 45.8324C159.291 45.8461 158.589 46.7124 158.342 48.0463Z" fill="#001F33"></path>
  <path d="M0.351562 69.2541C0.351562 66.1875 2.53799 63.8086 5.72826 63.8086C8.91853 63.8086 11.105 66.1738 11.105 69.2541C11.105 72.3343 8.91853 74.6995 5.72826 74.6995C2.53799 74.6995 0.351562 72.3206 0.351562 69.2541ZM8.34098 69.2541C8.34098 67.2464 7.39215 65.885 5.72826 65.885C4.03687 65.885 3.11555 67.2464 3.11555 69.2541C3.11555 71.2617 4.03687 72.6093 5.72826 72.6093C7.4059 72.6093 8.34098 71.2617 8.34098 69.2541Z" fill="#001F33"></path>
  <path d="M11.5742 64.0949H12.9768V63.1736C12.9768 60.6709 14.9295 59.777 17.556 60.0658V62.1697C16.2771 62.1147 15.7133 62.266 15.7133 63.3386V64.1086H17.556V65.9926H15.7133V74.4083H12.9768V65.9926H11.5742V64.0949Z" fill="#001F33"></path>
  <path d="M21.6523 60.0371H33.2033V62.4848H28.8855V74.3933H25.9702V62.4848H21.6523V60.0371Z" fill="#001F33"></path>
  <path d="M31.6367 69.2266C31.6367 66.1738 33.6994 63.8086 36.7109 63.8086C40.0249 63.8086 41.7851 66.3388 41.7851 70.0104H34.3182C34.5245 71.5918 35.4045 72.5818 36.9447 72.5818C38.0035 72.5818 38.6361 72.1005 38.9386 71.3167H41.6338C41.2488 73.1456 39.6261 74.6858 36.9722 74.6858C33.5619 74.6858 31.6367 72.3068 31.6367 69.2266ZM34.3595 68.1265H38.9386C38.8561 66.8201 37.9898 65.9125 36.7522 65.9125C35.3083 65.9263 34.607 66.7788 34.3595 68.1265Z" fill="#001F33"></path>
  <path d="M42.5508 69.2541C42.5508 66.1875 44.5584 63.8086 47.6937 63.8086C50.3614 63.8086 52.0116 65.3487 52.3691 67.5902H49.7014C49.5226 66.6826 48.8213 66.0088 47.8175 66.0088C46.1673 66.0088 45.3285 67.2739 45.3285 69.2541C45.3285 71.2067 46.1123 72.4993 47.7762 72.4993C48.8763 72.4993 49.6601 71.9218 49.8389 70.7529H52.4654C52.2866 72.9394 50.5815 74.6858 47.8312 74.6858C44.5722 74.6995 42.5508 72.3206 42.5508 69.2541Z" fill="#001F33"></path>
  <path d="M56.3929 65.4413H56.4479C57.1905 64.355 58.0293 63.8187 59.4319 63.8187C61.5633 63.8187 62.9797 65.4276 62.9797 67.669V74.3933H60.2432V68.0678C60.2432 66.9677 59.5969 66.1839 58.4556 66.1839C57.2455 66.1839 56.3654 67.1465 56.3654 68.5491V74.3933H53.6289V60.0371H56.3654V65.4413H56.3929Z" fill="#001F33"></path>
  <path d="M67.3515 65.5H67.4065C68.1078 64.3999 69.0566 63.8086 70.4592 63.8086C72.5907 63.8086 74.007 65.4175 74.007 67.6589V74.3832H71.2706V68.0577C71.2706 66.9576 70.6242 66.1738 69.4829 66.1738C68.2728 66.1738 67.3927 67.1364 67.3927 68.539V74.3832H64.6562V64.0836H67.324V65.5H67.3515Z" fill="#001F33"></path>
  <path d="M75.1836 69.2541C75.1836 66.1875 77.37 63.8086 80.5603 63.8086C83.7506 63.8086 85.937 66.1738 85.937 69.2541C85.937 72.3343 83.7506 74.6995 80.5603 74.6995C77.37 74.6995 75.1836 72.3206 75.1836 69.2541ZM83.173 69.2541C83.173 67.2464 82.2242 65.885 80.5603 65.885C78.8689 65.885 77.9476 67.2464 77.9476 69.2541C77.9476 71.2617 78.8689 72.6093 80.5603 72.6093C82.2379 72.6093 83.173 71.2617 83.173 69.2541Z" fill="#001F33"></path>
  <path d="M89.9943 60.0371H87.2578V74.3933H89.9943V60.0371Z" fill="#001F33"></path>
  <path d="M91.2852 69.2541C91.2852 66.1875 93.4716 63.8086 96.6619 63.8086C99.8521 63.8086 102.039 66.1738 102.039 69.2541C102.039 72.3343 99.8521 74.6995 96.6619 74.6995C93.4716 74.6995 91.2852 72.3206 91.2852 69.2541ZM99.2746 69.2541C99.2746 67.2464 98.3258 65.885 96.6619 65.885C94.9705 65.885 94.0492 67.2464 94.0492 69.2541C94.0492 71.2617 94.9705 72.6093 96.6619 72.6093C98.3395 72.6093 99.2746 71.2617 99.2746 69.2541Z" fill="#001F33"></path>
  <path d="M103.031 74.6994H105.74C105.96 75.3457 106.537 75.8408 107.802 75.8408C109.342 75.8408 110.085 75.0982 110.085 73.6956V72.568H110.03C109.425 73.2556 108.641 73.7781 107.335 73.7781C105.052 73.7781 102.797 71.9767 102.797 68.8552C102.797 65.7887 104.64 63.8223 107.252 63.8223C108.531 63.8223 109.48 64.3173 110.099 65.1836H110.14V64.0973H112.766V73.6131C112.766 75.057 112.299 76.047 111.543 76.7484C110.676 77.5459 109.356 77.9172 107.83 77.9172C105.038 77.9035 103.319 76.7071 103.031 74.6994ZM110.236 68.7864C110.236 67.2738 109.439 65.9949 107.789 65.9949C106.4 65.9949 105.478 67.0813 105.478 68.8002C105.478 70.5466 106.4 71.5642 107.802 71.5642C109.535 71.5779 110.236 70.3128 110.236 68.7864Z" fill="#001F33"></path>
  <path d="M114.774 75.6192H115.736C116.823 75.6192 117.263 75.0554 117.263 74.2166C117.263 73.6528 117.056 72.9927 116.479 71.4251L113.715 64.0957H116.589L118.115 68.7298C118.432 69.6787 118.775 70.985 118.775 70.985H118.817C118.817 70.985 119.105 69.6787 119.422 68.7298L120.865 64.0957H123.616L120.027 74.6566C119.243 76.9393 118.487 77.7644 116.396 77.7644H114.787V75.6192H114.774Z" fill="#001F33"></path>
</svg>
