<?xml version="1.0" encoding="UTF-8"?>
<svg xmlns="http://www.w3.org/2000/svg" width="78" height="100" viewBox="0 0 78 100" fill="none">
  <path d="M42.3286 99.245C42.1692 99.1996 42.0213 99.1315 41.8619 99.0974C40.6782 98.859 39.8474 98.1549 39.2669 97.133C38.9027 96.4971 38.6979 95.8044 38.584 95.0777C38.3678 93.7151 38.4361 92.3752 38.8686 91.058C39.1645 90.1836 39.6425 89.4342 40.3823 88.8551C41.7936 87.7536 44.7756 87.6514 46.1755 89.9225C46.6194 90.6492 46.8811 91.4327 47.0177 92.2616C47.2112 93.522 47.1657 94.7711 46.8015 96.0088C46.5625 96.8377 46.1641 97.5872 45.5268 98.1776C45.0487 98.6319 44.491 98.9271 43.8423 99.0861C43.6488 99.1315 43.4439 99.1996 43.2505 99.2564C42.9318 99.245 42.6245 99.245 42.3286 99.245ZM45.0943 93.6583C45.0487 93.2382 45.0373 92.8067 44.9691 92.3979C44.8439 91.6371 44.5935 90.9103 44.013 90.3426C43.3187 89.6726 42.2603 89.6726 41.566 90.3312C41.2246 90.6492 40.9969 91.0353 40.849 91.4668C40.3823 92.8294 40.3709 94.2033 40.7807 95.5887C40.9173 96.0656 41.1563 96.4971 41.5205 96.8491C42.2375 97.5418 43.3301 97.5418 44.0472 96.8491C44.3658 96.5539 44.5707 96.1905 44.73 95.7817C44.9804 95.1004 45.0829 94.385 45.0943 93.6583Z" fill="#001F33"></path>
  <path d="M28.3871 99.2446C28.2164 99.1878 28.0571 99.1311 27.875 99.0856C26.7823 98.8585 25.997 98.234 25.4166 97.3029C24.9841 96.6102 24.7451 95.8381 24.6199 95.0319C24.4264 93.7601 24.4719 92.4883 24.8475 91.2506C25.1548 90.24 25.667 89.377 26.5547 88.7525C27.9319 87.7759 30.8 87.6737 32.1885 89.8653C32.6438 90.6033 32.917 91.3982 33.0535 92.2385C33.2584 93.5897 33.1901 94.9183 32.7576 96.2128C32.5755 96.7805 32.3024 97.3029 31.9268 97.7571C31.3805 98.427 30.6976 98.8699 29.844 99.0629C29.6619 99.1083 29.4797 99.1651 29.2976 99.2219C28.9903 99.2446 28.683 99.2446 28.3871 99.2446ZM26.5319 93.6238C26.5775 94.044 26.5889 94.4754 26.6571 94.8842C26.7823 95.611 27.01 96.2923 27.5449 96.826C28.2847 97.5527 29.3887 97.5527 30.1285 96.8146C30.5041 96.4512 30.7203 95.997 30.8683 95.5088C31.187 94.396 31.1984 93.2718 30.9593 92.1363C30.8341 91.5572 30.6293 91.0008 30.2537 90.5352C29.4797 89.5927 28.2164 89.5814 27.4425 90.5125C27.2148 90.7964 27.0441 91.137 26.9075 91.4663C26.623 92.159 26.5433 92.8857 26.5319 93.6238Z" fill="#001F33"></path>
  <path d="M38.9128 0C39.0039 0.136262 39.0722 0.249813 39.1405 0.363364C43.3061 7.53981 47.4717 14.7163 51.6487 21.8927C51.8194 22.1879 51.808 22.3923 51.6373 22.6762C47.4831 29.7845 43.3402 36.8929 39.186 44.0012C39.1063 44.1374 39.0153 44.285 38.9128 44.4667C38.8104 44.3078 38.7421 44.2056 38.6738 44.092C34.531 36.9383 30.3881 29.7732 26.2339 22.6194C26.0973 22.381 26.0745 22.1993 26.2225 21.9495C30.3881 14.739 34.5423 7.52846 38.708 0.317944C38.7649 0.215748 38.8332 0.124907 38.9128 0Z" fill="#001F33"></path>
  <path d="M64.7627 44.5469C69.0194 51.905 73.2988 59.2858 77.601 66.7348C77.3848 66.7348 77.2482 66.7348 77.1116 66.7348C68.8487 66.7348 60.5857 66.7348 52.3228 66.7462C51.9813 66.7462 51.8106 66.6326 51.6513 66.3487C47.5084 59.2291 43.3656 52.1208 39.2113 45.0124C39.1317 44.8762 39.052 44.7286 38.9609 44.5469C47.5881 44.5469 56.1583 44.5469 64.7627 44.5469Z" fill="#001F33"></path>
  <path d="M13.1915 44.5352C21.7504 44.5352 30.2865 44.5352 38.8795 44.5352C34.5773 51.9614 30.3093 59.3309 26.0412 66.7117C17.4824 66.7117 8.94626 66.7117 0.410156 66.7117C0.489827 66.3938 12.5769 45.4322 13.1915 44.5352Z" fill="#001F33"></path>
  <path d="M9.84429 78.056C10.5955 76.3982 11.3125 74.8085 12.0295 73.2301C12.7466 73.2301 13.4295 73.2301 14.1351 73.2301C14.1351 76.7956 14.1351 80.3384 14.1351 83.9039C13.5091 83.9039 12.8945 83.9039 12.223 83.9039C12.223 83.3475 12.223 82.7911 12.223 82.2347C12.223 81.667 12.223 81.1106 12.223 80.5428C12.223 79.9751 12.223 79.4187 12.223 78.8509C12.223 78.2945 12.223 77.7381 12.223 77.193C12.1889 77.1817 12.1661 77.1817 12.132 77.1703C11.3808 78.7601 10.6296 80.3384 9.83291 82.0076C9.08174 80.3611 8.37609 78.7941 7.64767 77.193C7.51109 77.3407 7.55662 77.4996 7.55662 77.6359C7.55662 79.5549 7.55662 81.4739 7.55662 83.3929C7.55662 83.5519 7.55662 83.7109 7.55662 83.8926C6.89649 83.8926 6.28189 83.8926 5.64453 83.8926C5.64453 80.3271 5.64453 76.7843 5.64453 73.2188C6.35018 73.2188 7.03307 73.2188 7.7501 73.2188C8.43299 74.8085 9.12726 76.3982 9.84429 78.056Z" fill="#001F33"></path>
  <path d="M17.2445 98.8918C16.573 98.8918 15.9697 98.8918 15.3438 98.8918C15.3438 95.3263 15.3438 91.7835 15.3438 88.218C15.4462 88.2067 15.5259 88.1953 15.6055 88.1953C16.2087 88.1953 16.812 88.1953 17.4379 88.1953C18.1322 89.7964 18.8151 91.3748 19.5321 93.044C20.2833 91.3861 21.0003 89.8077 21.7174 88.218C22.4116 88.218 23.0945 88.218 23.7774 88.218C23.8685 88.5133 23.9026 98.097 23.8116 98.8805C23.2083 98.8805 22.5937 98.8805 21.9336 98.8805C21.9109 98.1538 21.9222 97.4157 21.9222 96.6776C21.9222 95.9282 21.9222 95.1674 21.9222 94.4179C21.9222 93.6798 21.9222 92.9418 21.9222 92.1923C21.8995 92.181 21.8767 92.1696 21.854 92.1582C21.797 92.2491 21.7401 92.3399 21.6946 92.4421C21.0572 93.7934 20.4199 95.1446 19.7825 96.4959C19.7142 96.6435 19.6346 96.7798 19.5321 96.9955C18.781 95.3377 18.0525 93.7593 17.3355 92.181C17.3014 92.1923 17.2786 92.1923 17.2445 92.2037C17.2445 93.3165 17.2445 94.4406 17.2445 95.5534C17.2445 96.6435 17.2445 97.7563 17.2445 98.8918Z" fill="#001F33"></path>
  <path d="M41.4961 83.8926C41.4961 80.3498 41.4961 76.8183 41.4961 73.2642C41.5644 73.2528 41.6327 73.2188 41.6896 73.2188C42.9529 73.2188 44.2163 73.2187 45.4796 73.2528C45.8552 73.2642 46.2422 73.355 46.6064 73.4799C47.5283 73.7865 48.1087 74.4337 48.2453 75.3989C48.4047 76.4663 48.0974 77.3747 47.221 78.056C47.1185 78.1355 46.9934 78.2036 46.8909 78.2831C47.1527 78.4421 47.4145 78.567 47.6307 78.7373C49.0989 79.8956 49.0193 82.2461 47.4714 83.3134C46.9251 83.6882 46.3105 83.9039 45.6617 83.9153C44.3187 83.938 42.9643 83.9266 41.6213 83.9266C41.5985 83.9266 41.5758 83.9039 41.4961 83.8926ZM43.4196 82.2915C43.6927 82.2915 43.9317 82.3028 44.1594 82.2915C44.6146 82.2688 45.0699 82.2915 45.5138 82.212C46.1853 82.0984 46.5609 81.6329 46.6178 80.9629C46.6291 80.8267 46.6291 80.6904 46.6291 80.5542C46.6064 79.8728 46.2649 79.4527 45.582 79.3278C45.252 79.2597 44.8992 79.2597 44.5577 79.2483C44.3984 79.237 44.239 79.2483 44.0683 79.2483C44.0683 78.6465 44.0683 78.1015 44.0683 77.5223C44.2959 77.5223 44.4894 77.5337 44.6943 77.5223C44.9561 77.4996 45.2178 77.4883 45.4682 77.4315C45.8211 77.352 46.0828 77.1476 46.2308 76.807C46.6405 75.8418 46.0828 74.9334 45.0357 74.8766C44.5577 74.8539 44.0797 74.8652 43.5903 74.8652C43.5334 74.8652 43.4651 74.8993 43.3968 74.9107C43.4196 77.3634 43.4196 79.8047 43.4196 82.2915Z" fill="#001F33"></path>
  <path d="M60.7648 73.2285C61.4249 73.2285 62.0736 73.2285 62.7679 73.2285C62.7679 74.6138 62.7679 75.9992 62.7679 77.3958C64.054 77.3958 65.2832 77.3958 66.5807 77.3958C66.5921 76.0105 66.5807 74.6365 66.5921 73.2399C67.275 73.2399 67.9123 73.2399 68.5497 73.2399C68.6294 73.5578 68.6521 83.4481 68.5725 83.9023C67.9692 83.9023 67.3546 83.9023 66.7059 83.9023C66.7059 82.358 66.7059 80.8364 66.7059 79.2467C65.397 79.2354 64.1223 79.2467 62.8021 79.2467C62.7565 80.8024 62.8134 82.3467 62.7679 83.9137C62.0964 83.9137 61.459 83.9137 60.8103 83.9137C60.7079 83.6185 60.6623 74.171 60.7648 73.2285Z" fill="#001F33"></path>
  <path d="M47.8477 88.2291C47.9387 88.2177 47.9842 88.2063 48.0411 88.2063C49.3159 88.2063 50.602 88.195 51.8767 88.2404C52.3092 88.2518 52.7531 88.3653 53.1514 88.5243C54.4034 89.0126 54.9838 90.0572 54.9269 91.4312C54.8814 92.6349 54.3806 93.6001 53.2538 94.1678C53.2197 94.1905 53.1969 94.2246 53.14 94.27C54.0392 95.7916 54.9497 97.3246 55.883 98.8916C55.0863 98.8916 54.3578 98.8916 53.5725 98.8916C52.5482 97.0293 51.5011 95.1444 50.4312 93.2026C50.5906 93.1913 50.7044 93.1799 50.8296 93.1686C50.9434 93.1686 51.0458 93.1686 51.1597 93.1686C52.4571 93.1231 53.1856 91.999 52.6962 90.7953C52.4685 90.2389 52.0019 89.9664 51.4556 89.8983C50.9206 89.8301 50.363 89.8869 49.7825 89.8869C49.7825 92.8847 49.7825 95.8711 49.7825 98.8462C49.4638 98.9484 48.3029 98.9597 47.859 98.8689C47.8477 95.326 47.8477 91.7946 47.8477 88.2291Z" fill="#001F33"></path>
  <path d="M32.9614 73.2399C33.6102 73.2399 34.2134 73.2399 34.8963 73.2399C34.8963 73.3989 34.8963 73.5352 34.8963 73.6828C34.8963 75.9425 34.8963 78.2021 34.8963 80.4732C34.8963 80.7343 34.919 80.9955 34.9759 81.2453C35.1125 81.8131 35.4767 82.1878 36.0572 82.3013C36.3531 82.3581 36.6604 82.3922 36.9563 82.3695C37.6961 82.3014 38.1969 81.7677 38.2879 80.9842C38.3107 80.7684 38.3107 80.5413 38.3107 80.3256C38.3107 78.1454 38.3107 75.9652 38.3107 73.785C38.3107 73.626 38.3107 73.4557 38.3107 73.3081C38.618 73.2059 39.7106 73.1832 40.2342 73.2626C40.2456 73.3762 40.2569 73.4897 40.2569 73.6146C40.2569 75.9311 40.2569 78.2476 40.2569 80.564C40.2569 80.916 40.2228 81.2794 40.1431 81.62C39.87 82.8805 39.0846 83.6753 37.8441 83.9819C36.9222 84.209 35.9889 84.175 35.0784 83.8797C33.8719 83.4823 33.2118 82.6193 33.0183 81.3929C32.9728 81.0863 32.95 80.7684 32.95 80.4505C32.95 78.1908 32.95 75.9311 32.95 73.6601C32.9386 73.5238 32.95 73.3875 32.9614 73.2399Z" fill="#001F33"></path>
  <path d="M25.2578 80.5874C25.8838 80.5874 26.4642 80.5874 27.0788 80.5874C27.1016 80.7464 27.1244 80.9053 27.1471 81.0756C27.352 82.2793 28.5471 82.8584 29.6283 82.2793C30.3112 81.9159 30.4478 80.9167 29.8559 80.4852C29.5031 80.224 29.1389 79.9742 28.7747 79.7471C28.1715 79.361 27.5455 79.0204 26.9537 78.6229C26.6122 78.3958 26.3049 78.112 26.0431 77.8054C25.3033 76.9424 25.1781 75.9318 25.5196 74.8758C25.77 74.1036 26.3391 73.6153 27.0902 73.3655C28.0007 73.0589 28.9226 73.0362 29.8445 73.2974C30.6754 73.5359 31.2558 74.0582 31.6087 74.8417C31.8363 75.3527 31.9387 75.875 31.9501 76.4541C31.3128 76.4541 30.6982 76.4541 30.0722 76.4541C30.0266 76.2497 30.0039 76.0453 29.947 75.8523C29.5942 74.6714 28.5812 74.6032 27.8186 74.9212C27.2837 75.1483 27.113 75.8409 27.4317 76.3633C27.5569 76.5563 27.7276 76.738 27.9097 76.8629C28.2739 77.1127 28.6609 77.3057 29.0365 77.5329C29.6966 77.9416 30.4022 78.305 31.0168 78.7819C32.0753 79.5995 32.3599 80.7236 32.0526 81.9841C31.7908 83.0287 31.0624 83.6646 30.0608 84.0053C29.2299 84.2891 28.3877 84.2891 27.5455 84.0734C26.7033 83.8577 26.0773 83.3467 25.7017 82.5632C25.4058 81.9386 25.3033 81.2914 25.2578 80.5874Z" fill="#001F33"></path>
  <path d="M62.3951 91.3293C61.7463 91.3293 61.1317 91.3293 60.5171 91.3293C60.4716 91.1136 60.4488 90.9092 60.4033 90.7161C60.1415 89.7396 59.0717 89.3195 58.2067 89.8645C57.7287 90.1597 57.5693 90.7615 57.9108 91.2158C58.0929 91.4656 58.3433 91.6813 58.6051 91.8403C59.1855 92.215 59.7773 92.5443 60.3692 92.885C60.9041 93.1915 61.4276 93.5208 61.8601 93.975C62.8048 94.9856 62.8845 96.6776 62.0309 97.7676C61.6894 98.2105 61.2342 98.5171 60.7106 98.7215C59.8001 99.0621 58.8668 99.0962 57.9222 98.8464C57.0572 98.6193 56.454 98.0742 56.0898 97.2567C55.828 96.6662 55.7483 96.053 55.6914 95.3944C56.306 95.3944 56.8865 95.3944 57.5011 95.3944C57.5238 95.5648 57.5466 95.7351 57.5807 95.9054C57.7287 96.5526 58.0132 97.0977 58.7075 97.2907C59.1855 97.427 59.6635 97.3816 60.096 97.1318C60.7106 96.7798 60.8586 95.9622 60.3806 95.4285C60.1871 95.2128 59.9594 95.0311 59.7204 94.8721C59.1286 94.4974 58.514 94.1567 57.9222 93.782C57.5011 93.5095 57.0572 93.237 56.693 92.8963C55.8166 92.0787 55.589 91.0568 55.8849 89.9213C56.1011 89.0924 56.6474 88.536 57.4555 88.2521C58.4002 87.9114 59.3676 87.8887 60.3236 88.1726C61.1317 88.4224 61.7008 88.9447 62.0423 89.7169C62.2813 90.2279 62.3951 90.7388 62.3951 91.3293Z" fill="#001F33"></path>
  <path d="M59.5826 76.3514C58.9566 76.3514 58.3875 76.3514 57.7843 76.3514C57.7388 76.1583 57.6933 75.9653 57.6364 75.7723C57.3518 74.8752 56.6575 74.4891 55.747 74.7162C54.9048 74.932 54.6316 75.8177 55.2462 76.4308C55.4739 76.658 55.7584 76.851 56.0316 77.0213C56.612 77.3847 57.2266 77.6913 57.8071 78.066C58.2282 78.3385 58.6493 78.6338 59.0135 78.9744C60.0834 79.9737 60.2199 82.3696 58.5013 83.4143C57.2721 84.1637 55.9633 84.2092 54.6316 83.6868C54.2447 83.5278 53.926 83.2667 53.6642 82.9374C53.0952 82.1993 52.9244 81.3363 52.8789 80.4052C53.4935 80.4052 54.074 80.4052 54.6658 80.4052C54.7341 80.689 54.7682 80.9729 54.8593 81.2455C55.2804 82.5286 56.4754 82.5513 57.2266 82.1879C57.8981 81.8586 58.0688 81.007 57.5681 80.4506C57.3746 80.2348 57.147 80.0532 56.9079 79.9055C56.3275 79.5422 55.7243 79.2015 55.1438 78.8382C54.7341 78.577 54.3243 78.3272 53.9715 78.0092C53.0382 77.1917 52.7765 76.1356 53.0838 74.9433C53.2773 74.1598 53.7894 73.6148 54.5406 73.3195C55.5308 72.9335 56.5437 72.8994 57.5681 73.2173C58.2851 73.4444 58.82 73.8986 59.1615 74.5686C59.4346 75.1023 59.5712 75.6928 59.5826 76.3514Z" fill="#001F33"></path>
  <path d="M25.154 73.2519C25.154 73.7856 25.154 74.2852 25.154 74.8416C24.4028 74.8416 23.6744 74.8416 22.8891 74.8416C22.8549 75.3072 22.8777 75.7273 22.8777 76.1475C22.8777 76.5903 22.8777 77.0218 22.8777 77.4647C22.8777 77.8848 22.8777 78.3163 22.8777 78.7364C22.8777 79.1566 22.8777 79.5881 22.8777 80.0082C22.8777 80.4284 22.8777 80.8599 22.8777 81.28C22.8777 81.7228 22.8777 82.1543 22.8777 82.5972C22.8777 83.0173 22.8777 83.4488 22.8777 83.903C22.2403 83.903 21.6257 83.903 20.9542 83.903C20.9429 82.9038 20.9542 81.9159 20.9542 80.9166C20.9542 79.9174 20.9542 78.9181 20.9542 77.9189C20.9542 76.9196 20.9542 75.9204 20.9542 74.8757C20.1803 74.8757 19.4519 74.8757 18.6666 74.8757C18.6438 74.3193 18.6552 73.797 18.6552 73.2973C18.9625 73.1951 24.528 73.1611 25.154 73.2519Z" fill="#001F33"></path>
  <path d="M39.0034 89.8312C38.2522 89.8312 37.5124 89.8312 36.7271 89.8312C36.7271 92.8744 36.7271 95.8608 36.7271 98.8812C36.067 98.8812 35.4638 98.8812 34.8036 98.8812C34.8036 95.8721 34.8036 92.8744 34.8036 89.8312C34.0183 89.8312 33.2899 89.8312 32.5273 89.8312C32.5273 89.2748 32.5273 88.7524 32.5273 88.2188C34.6898 88.2188 36.8409 88.2188 39.0034 88.2188C39.0034 88.7638 39.0034 89.2748 39.0034 89.8312Z" fill="#001F33"></path>
  <path d="M70.418 83.9039C70.418 80.3384 70.418 76.8069 70.418 73.2868C70.7253 73.196 71.852 73.1846 72.3187 73.2641C72.3187 76.7955 72.3187 80.3384 72.3187 83.9039C71.6927 83.9039 71.0781 83.9039 70.418 83.9039Z" fill="#001F33"></path>
  <path d="M15.8895 73.2285C16.5268 73.2285 17.1301 73.2285 17.7788 73.2285C17.7788 76.794 17.7788 80.3255 17.7788 83.925C17.4601 83.925 17.1414 83.925 16.8341 83.925C16.5382 83.925 16.2309 83.925 15.935 83.925C15.8439 83.6185 15.7984 74.0574 15.8895 73.2285Z" fill="#001F33"></path>
  <path d="M49.7383 83.9027C49.7383 80.3258 49.7383 76.7944 49.7383 73.2402C50.3756 73.2402 50.9788 73.2402 51.6162 73.2402C51.6162 76.7944 51.6162 80.3372 51.6162 83.9027C51.0016 83.9027 50.387 83.9027 49.7383 83.9027Z" fill="#001F33"></path>
</svg>
