<?xml version="1.0" encoding="UTF-8"?>
<svg xmlns="http://www.w3.org/2000/svg" width="171" height="50" viewBox="0 0 171 50" fill="none">
  <path d="M41.3679 14.0117L58.366 31.6458L56.5737 33.3803L53.8852 30.6051L51.2257 33.178C49.9826 34.3632 48.3637 35.0281 46.6292 34.9992C44.9236 34.9703 43.3048 34.2765 42.1195 33.0334C40.9343 31.7904 40.2983 30.1715 40.3272 28.4659C40.3561 26.7603 41.0499 25.1414 42.293 23.9562L44.0564 22.2506L45.7909 24.0429L44.0275 25.7485C43.2759 26.4712 42.8422 27.483 42.8133 28.5237C42.7844 29.5644 43.1891 30.5762 43.9118 31.3278C44.6346 32.0795 45.6174 32.5131 46.687 32.542C47.7567 32.5709 48.7395 32.1662 49.4912 31.4435L52.1507 28.8706L41.3679 17.6831V14.0117ZM10.1468 14.4453V31.2122H9.10614H8.49907V29.4199C7.80527 30.7208 6.47548 31.3857 4.76988 31.3857C2.0814 31.3857 0 29.2175 0 26.2689C0 23.3491 2.0814 21.181 4.74098 21.181C6.62002 21.181 7.80527 22.1061 8.49907 23.4069V14.4453H10.1468ZM8.58579 26.2689C8.58579 24.1586 7.19819 22.6553 5.11679 22.6553C3.06429 22.6553 1.7345 24.1586 1.7345 26.2689C1.7345 28.4081 3.06429 29.9402 5.11679 29.9402C7.16928 29.9402 8.58579 28.4081 8.58579 26.2689ZM20.8429 26.7892C20.8429 28.6972 19.6288 29.8824 17.7787 29.8824C16.1598 29.8824 15.3504 28.9284 15.3504 27.2229V21.4123H13.7026V27.4252C13.7026 29.9402 15.2058 31.4146 17.3739 31.4146C18.935 31.4146 20.1781 30.8364 20.8429 29.5355V31.1833H21.2477H22.4907V21.4123H20.8429V26.7892ZM31.5391 21.181C29.978 21.181 28.706 21.7592 28.07 23.089V21.4123H27.4341H26.4223V31.2122H28.07V25.8063C28.07 23.8695 29.3131 22.7131 31.1343 22.7131C32.7821 22.7131 33.5626 23.696 33.5626 25.4305V31.2122H35.2104V25.2282C35.2104 22.6842 33.7072 21.181 31.5391 21.181Z" fill="#001F33"></path>
  <path d="M56.8919 18.637C58.0771 19.8801 58.7131 21.499 58.6842 23.2046C58.6553 24.9102 57.9615 26.529 56.7184 27.7143L56.4872 27.9166L54.7527 26.1532L54.9839 25.9509C55.7356 25.2282 56.1692 24.2164 56.1981 23.1757C56.227 22.135 55.8223 21.1232 55.0996 20.3716C54.6949 19.9379 54.2323 19.6199 53.6831 19.4176V16.8447C54.8972 17.1049 55.9957 17.712 56.8919 18.637ZM42.987 11.5256L41.7439 12.7108L43.4784 14.5031L44.7215 13.3179C45.9067 12.1905 47.7858 12.2194 48.9132 13.3757C50.0406 14.561 50.0117 16.44 48.8265 17.5674L47.6123 18.7238L49.3468 20.5161L50.561 19.3598C52.7291 17.2784 52.7869 13.8093 50.7055 11.6412C48.6241 9.502 45.1551 9.44418 42.987 11.5256ZM110.401 29.1308C111.037 30.3739 112.425 31.4146 114.593 31.4146C117.05 31.4146 118.178 30.1715 118.178 28.4948C118.178 26.5869 116.588 25.9509 114.94 25.4883C113.205 24.9969 112.627 24.7367 112.627 23.8117C112.627 23.06 113.263 22.5686 114.333 22.5686C115.287 22.5686 115.981 23.0022 116.472 23.696L117.6 22.8288C116.906 21.8459 115.836 21.2388 114.333 21.2388C112.541 21.2388 111.124 22.2217 111.124 23.9273C111.124 25.7774 112.541 26.3845 114.073 26.847C115.778 27.3385 116.646 27.5697 116.646 28.6394C116.646 29.5355 115.894 30.1137 114.564 30.1137C113.148 30.1137 112.28 29.391 111.731 28.4659L110.401 29.1308ZM122.312 28.2346C122.312 30.5473 123.439 31.4146 124.942 31.4146C126.156 31.4146 126.908 30.8942 127.342 30.4317L126.445 29.391C126.127 29.6801 125.781 29.9691 125.116 29.9691C124.393 29.9691 123.959 29.5644 123.959 28.2635V22.7999H126.706V21.4123H123.959V14.4453H122.312V21.4123H120.808V22.7999H122.312V28.2346ZM130.782 31.2122H132.43V26.0376C132.43 23.7538 133.557 22.742 134.973 22.742C135.581 22.742 136.014 22.9155 136.332 23.1179L136.968 21.6724C136.506 21.3544 135.985 21.2099 135.263 21.2099C134.106 21.2099 133.008 21.5857 132.401 23.0889L132.458 21.4123H130.811V31.2122H130.782ZM146.624 25.604C146.479 23.9273 145.409 22.5975 143.357 22.5975C141.478 22.5975 140.235 23.8117 139.975 25.604H146.624ZM143.588 29.998C145.062 29.998 146.045 29.4199 146.681 28.6972L147.693 29.6801C146.797 30.6918 145.496 31.3856 143.559 31.3856C140.35 31.3856 138.24 29.1597 138.24 26.2978C138.24 23.4358 140.437 21.181 143.299 21.181C146.45 21.181 148.358 23.6093 148.214 26.847H139.888C140.148 28.7261 141.449 29.998 143.588 29.998ZM159.43 25.604C159.285 23.9273 158.216 22.5975 156.163 22.5975C154.284 22.5975 153.041 23.8117 152.781 25.604H159.43ZM156.395 29.998C157.869 29.998 158.852 29.4199 159.488 28.6972L160.5 29.6801C159.603 30.6918 158.303 31.3856 156.366 31.3856C153.157 31.3856 151.047 29.1597 151.047 26.2978C151.047 23.4358 153.244 21.181 156.105 21.181C159.257 21.181 161.164 23.6093 161.02 26.847H152.694C152.983 28.7261 154.255 29.998 156.395 29.998ZM165.269 28.2346C165.269 30.5473 166.397 31.4146 167.9 31.4146C169.114 31.4146 169.866 30.8942 170.3 30.4317L169.403 29.391C169.085 29.6801 168.738 29.9691 168.074 29.9691C167.351 29.9691 166.917 29.5644 166.917 28.2635V22.7999H169.664V21.4123H166.917V14.4453H165.269V21.4123H163.766V22.7999H165.269V28.2346ZM69.5249 21.181C67.7036 21.181 66.4606 21.8748 65.7668 23.1757V14.4453H64.119V31.2122H65.1597H65.7668V29.4199C66.4317 30.7208 67.7904 31.3856 69.496 31.3856C72.1844 31.3856 74.2658 29.2175 74.2658 26.2689C74.2658 23.378 72.1844 21.181 69.5249 21.181ZM69.1491 29.9402C67.0676 29.9402 65.68 28.4081 65.68 26.2689C65.68 24.1586 67.0676 22.6553 69.1491 22.6553C71.2015 22.6553 72.5313 24.1586 72.5313 26.2689C72.5602 28.4081 71.2305 29.9402 69.1491 29.9402ZM79.4115 22.9733V21.4123H78.7177H77.7638V31.2122H79.4115V26.0376C79.4115 23.7538 80.539 22.742 81.9555 22.742C82.5625 22.742 82.9962 22.9155 83.3142 23.1179L83.9501 21.6724C83.4876 21.3544 82.9673 21.2099 82.2446 21.2099C81.0882 21.2099 80.0186 21.5857 79.4115 22.9733ZM90.0209 21.181C88.1419 21.181 86.8699 21.9037 86.0316 23.0889L87.0433 24.014C87.6504 23.1757 88.5466 22.5975 89.9053 22.5975C91.3507 22.5975 92.189 23.3202 92.189 25.2282V25.4594H89.1247C87.0722 25.4594 85.3956 26.4134 85.3956 28.4081C85.3956 30.4317 86.8988 31.3856 89.0091 31.3856C90.5124 31.3856 91.5241 30.9809 92.189 30.0559V31.1833H92.4781H93.7212V25.1993C93.7501 22.4819 92.189 21.181 90.0209 21.181ZM92.189 27.9456C92.189 29.2175 90.9171 30.0559 89.3849 30.0559C87.8528 30.0559 87.0144 29.4777 87.0144 28.3503C87.0144 27.165 87.9973 26.7025 89.2404 26.7025H92.189V27.9456ZM105.545 14.4453V23.1757C104.822 21.8748 103.637 21.181 101.787 21.181C99.1271 21.181 97.0457 23.3491 97.0457 26.2689C97.0457 29.2175 99.1271 31.3856 101.816 31.3856C103.521 31.3856 104.88 30.7208 105.545 29.4199V31.2122H106.007H107.164V14.4453H105.545ZM102.134 29.9402C100.081 29.9402 98.7512 28.4081 98.7512 26.2689C98.7512 24.1586 100.081 22.6553 102.134 22.6553C104.215 22.6553 105.603 24.1586 105.603 26.2689C105.603 28.4081 104.215 29.9402 102.134 29.9402ZM131.851 23.9851H132.43V21.3833H131.851V23.9851Z" fill="#001F33"></path>
</svg>
