<?xml version="1.0" encoding="UTF-8"?>
<svg xmlns="http://www.w3.org/2000/svg" width="81" height="57" viewBox="0 0 81 57" fill="none">
  <path d="M0.183594 11.7434V44.7126C9.21171 51.6131 23.7762 56.0927 40.181 56.0927C56.5857 56.0927 71.1607 51.6131 80.1836 44.7126V11.7434C71.1607 4.84285 56.6014 0.363281 40.181 0.363281C23.7605 0.363281 9.21171 4.84285 0.183594 11.7434ZM77.0327 43.1056C68.1723 49.2814 54.5515 52.9365 40.181 52.9365C25.8104 52.9365 12.1949 49.2814 3.32928 43.1109V13.3504C12.1949 7.19029 25.8157 3.51421 40.181 3.51421C54.5463 3.51421 68.1723 7.19029 77.0327 13.3451V43.1056Z" fill="#001F33"></path>
  <path d="M20.8264 24.2213H18.3256L17.6388 21.9579H13.5861L12.8101 24.2213H10.3984L14.2939 13.2246H16.9624L20.8264 24.2213ZM16.9624 20.0779L15.6046 15.6981H15.5783L14.1838 20.0779H16.9624Z" fill="#001F33"></path>
  <path d="M29.0615 24.2213H21.2969V13.2246H23.6037V22.2153H29.0615V24.2213Z" fill="#001F33"></path>
  <path d="M38.2142 20.9284C38.2366 21.5959 38.0535 22.254 37.6899 22.8137C37.2901 23.3759 36.7469 23.8203 36.117 24.1004C35.4764 24.3839 34.7832 24.5288 34.0828 24.5258C30.9162 24.5222 29.2909 23.2951 29.207 20.8444H31.4352C31.4367 21.1199 31.507 21.3907 31.6398 21.6319C31.7726 21.8732 31.9636 22.0773 32.1954 22.2256C32.664 22.5265 33.2118 22.6802 33.7683 22.6667C34.3175 22.6839 34.8611 22.5514 35.3411 22.2833C35.5341 22.1943 35.6981 22.0523 35.814 21.8739C35.93 21.6955 35.9932 21.4879 35.9965 21.275C35.9965 20.6239 35.4407 20.1617 34.2925 19.8886C32.3947 19.4125 31.3356 19.1202 31.1154 19.0116C30.5841 18.7856 30.1359 18.4001 29.8326 17.9081C29.5293 17.4162 29.3858 16.8421 29.422 16.2651C29.4223 15.6368 29.6044 15.0221 29.9463 14.4953C30.3118 13.9517 30.8352 13.5337 31.4457 13.2979C32.1094 13.0184 32.8229 12.8773 33.5428 12.8831C34.5886 12.8515 35.6165 13.1591 36.4736 13.7601C36.9164 14.0629 37.2797 14.4683 37.5326 14.9419C37.7854 15.4155 37.9203 15.9433 37.9258 16.4804H35.7238C35.7087 16.2247 35.6333 15.9763 35.5039 15.7554C35.3745 15.5345 35.1948 15.3475 34.9794 15.2095C34.5508 14.9363 34.0506 14.7973 33.5428 14.8104C33.0937 14.8013 32.6492 14.9023 32.2479 15.1045C32.0417 15.1931 31.8654 15.3392 31.7399 15.5255C31.6144 15.7117 31.545 15.9302 31.5401 16.1548C31.5401 16.7745 32.122 17.2051 33.2807 17.4992C35.231 17.9666 36.3058 18.2502 36.5103 18.3394C37.0354 18.5354 37.4856 18.8919 37.797 19.3585C38.1085 19.8251 38.2655 20.378 38.2456 20.9389" fill="#001F33"></path>
  <path d="M47.5989 24.2213H45.292V19.2954H41.0139V24.2213H38.707V13.2246H41.0139V17.3838H45.292V13.2246H47.5989V24.2213Z" fill="#001F33"></path>
  <path d="M51.0191 13.2246H48.707V24.2213H51.0191V13.2246Z" fill="#001F33"></path>
  <path d="M59.9317 15.1624H54.4162V17.6464H59.2396V19.5895H54.4162V24.2213H52.1094V13.2246H59.9317V15.1624Z" fill="#001F33"></path>
  <path d="M68.5816 24.2213H66.0756L65.3888 21.9579H61.3413L60.5601 24.2213H58.1484L62.0491 13.2246H64.7072L68.5816 24.2213ZM64.7282 20.0779L63.3545 15.6981H63.3231L61.939 20.0779H64.7282Z" fill="#001F33"></path>
  <path d="M10.3906 43.131V40.9149H12.3252V40.5105C12.3252 39.4602 12.7027 36.4668 15.9952 36.4668C17.6519 36.4668 18.7844 37.1968 19.3558 38.6042L17.0175 39.0821C16.9263 38.9053 16.7889 38.7568 16.6199 38.6522C16.4509 38.5477 16.2567 38.4912 16.0581 38.4886C14.826 38.4886 14.7841 39.8173 14.7841 40.4527V40.9149H19.8539V43.131H10.3906Z" fill="#001F33"></path>
  <path d="M21.5234 39.1822V30.6484H23.9247V39.1192C23.9247 40.3008 24.4489 40.9152 26.1162 40.9152V43.1314C23.0963 43.1314 21.5234 41.6242 21.5234 39.1822Z" fill="#001F33"></path>
  <path d="M36.1423 43.1316C35.4056 43.1377 34.6722 43.0333 33.9665 42.8218C33.2619 43.0304 32.5307 43.1348 31.796 43.1316H25.9922V40.9155H31.1459C30.6685 40.4379 30.3018 39.8611 30.0717 39.2258C29.8416 38.5906 29.7537 37.9124 29.8142 37.2394C30.1025 35.4486 31.4866 33.8889 33.9665 33.8889C36.4463 33.8889 37.8304 35.4644 38.0768 37.2394C38.1429 37.9102 38.0606 38.5873 37.8359 39.2226C37.6112 39.858 37.2495 40.4359 36.7766 40.9155H40.735V43.1316H36.1423ZM33.9665 35.8687C33.5539 35.8557 33.1511 35.996 32.8355 36.2627C32.52 36.5293 32.3141 36.9033 32.2573 37.3129C32.0634 38.4683 32.834 39.7391 33.9665 40.3956C35.1042 39.7391 35.8749 38.4893 35.6547 37.3129C35.591 36.9103 35.386 36.5436 35.0765 36.2789C34.7671 36.0142 34.3735 35.8687 33.9665 35.8687ZM32.7764 30.6172H35.1776V33.0224H32.7764V30.6172Z" fill="#001F33"></path>
  <path d="M40.2539 43.1326V40.9165H43.2895V34.1367H45.633V40.9165H48.7525V34.1367H51.1957V40.9165H53.5392V34.1367H55.93L55.9404 40.9165H59.3011V43.1326H40.2539Z" fill="#001F33"></path>
  <path d="M59.2188 43.1323V40.9162C60.8702 40.9162 61.6409 40.3017 61.6409 39.1622V30.6914H64.0474V39.2934C64.0474 41.6671 62.2019 43.1323 59.2188 43.1323Z" fill="#001F33"></path>
  <path d="M68.5797 30.6484H66.168V43.1261H68.5797V30.6484Z" fill="#001F33"></path>
  <path d="M51.0191 27.9805H48.707V30.0811H51.0191V27.9805Z" fill="#001F33"></path>
  <path d="M52.6975 30.7539H50.3906V32.8545H52.6975V30.7539Z" fill="#001F33"></path>
  <path d="M49.4436 30.7539H47.1367V32.8545H49.4436V30.7539Z" fill="#001F33"></path>
  <path d="M0.183594 11.7434V44.7126C9.21171 51.6131 23.7762 56.0927 40.181 56.0927C56.5857 56.0927 71.1607 51.6131 80.1836 44.7126V11.7434C71.1607 4.84285 56.6014 0.363281 40.181 0.363281C23.7605 0.363281 9.21171 4.84285 0.183594 11.7434ZM77.0327 43.1056C68.1723 49.2814 54.5515 52.9365 40.181 52.9365C25.8104 52.9365 12.1949 49.2814 3.32928 43.1109V13.3504C12.1949 7.19029 25.8157 3.51421 40.181 3.51421C54.5463 3.51421 68.1723 7.19029 77.0327 13.3451V43.1056Z" fill="#001F33"></path>
  <path d="M20.8264 24.2213H18.3256L17.6388 21.9579H13.5861L12.8101 24.2213H10.3984L14.2939 13.2246H16.9624L20.8264 24.2213ZM16.9624 20.0779L15.6046 15.6981H15.5783L14.1838 20.0779H16.9624Z" fill="#001F33"></path>
  <path d="M29.0615 24.2213H21.2969V13.2246H23.6037V22.2153H29.0615V24.2213Z" fill="#001F33"></path>
  <path d="M38.2142 20.9284C38.2366 21.5959 38.0535 22.254 37.6899 22.8137C37.2901 23.3759 36.7469 23.8203 36.117 24.1004C35.4764 24.3839 34.7832 24.5288 34.0828 24.5258C30.9162 24.5222 29.2909 23.2951 29.207 20.8444H31.4352C31.4367 21.1199 31.507 21.3907 31.6398 21.6319C31.7726 21.8732 31.9636 22.0773 32.1954 22.2256C32.664 22.5265 33.2118 22.6802 33.7683 22.6667C34.3175 22.6839 34.8611 22.5514 35.3411 22.2833C35.5341 22.1943 35.6981 22.0523 35.814 21.8739C35.93 21.6955 35.9932 21.4879 35.9965 21.275C35.9965 20.6239 35.4407 20.1617 34.2925 19.8886C32.3947 19.4125 31.3356 19.1202 31.1154 19.0116C30.5841 18.7856 30.1359 18.4001 29.8326 17.9081C29.5293 17.4162 29.3858 16.8421 29.422 16.2651C29.4223 15.6368 29.6044 15.0221 29.9463 14.4953C30.3118 13.9517 30.8352 13.5337 31.4457 13.2979C32.1094 13.0184 32.8229 12.8773 33.5428 12.8831C34.5886 12.8515 35.6165 13.1591 36.4736 13.7601C36.9164 14.0629 37.2797 14.4683 37.5326 14.9419C37.7854 15.4155 37.9203 15.9433 37.9258 16.4804H35.7238C35.7087 16.2247 35.6333 15.9763 35.5039 15.7554C35.3745 15.5345 35.1948 15.3475 34.9794 15.2095C34.5508 14.9363 34.0506 14.7973 33.5428 14.8104C33.0937 14.8013 32.6492 14.9023 32.2479 15.1045C32.0417 15.1931 31.8654 15.3392 31.7399 15.5255C31.6144 15.7117 31.545 15.9302 31.5401 16.1548C31.5401 16.7745 32.122 17.2051 33.2807 17.4992C35.231 17.9666 36.3058 18.2502 36.5103 18.3394C37.0354 18.5354 37.4856 18.8919 37.797 19.3585C38.1085 19.8251 38.2655 20.378 38.2456 20.9389" fill="#001F33"></path>
  <path d="M47.5989 24.2213H45.292V19.2954H41.0139V24.2213H38.707V13.2246H41.0139V17.3838H45.292V13.2246H47.5989V24.2213Z" fill="#001F33"></path>
  <path d="M51.0191 13.2246H48.707V24.2213H51.0191V13.2246Z" fill="#001F33"></path>
  <path d="M59.9317 15.1624H54.4162V17.6464H59.2396V19.5895H54.4162V24.2213H52.1094V13.2246H59.9317V15.1624Z" fill="#001F33"></path>
  <path d="M68.5816 24.2213H66.0756L65.3888 21.9579H61.3413L60.5601 24.2213H58.1484L62.0491 13.2246H64.7072L68.5816 24.2213ZM64.7282 20.0779L63.3545 15.6981H63.3231L61.939 20.0779H64.7282Z" fill="#001F33"></path>
  <path d="M10.3906 43.131V40.9149H12.3252V40.5105C12.3252 39.4602 12.7027 36.4668 15.9952 36.4668C17.6519 36.4668 18.7844 37.1968 19.3558 38.6042L17.0175 39.0821C16.9263 38.9053 16.7889 38.7568 16.6199 38.6522C16.4509 38.5477 16.2567 38.4912 16.0581 38.4886C14.826 38.4886 14.7841 39.8173 14.7841 40.4527V40.9149H19.8539V43.131H10.3906Z" fill="#001F33"></path>
  <path d="M21.5234 39.1822V30.6484H23.9247V39.1192C23.9247 40.3008 24.4489 40.9152 26.1162 40.9152V43.1314C23.0963 43.1314 21.5234 41.6242 21.5234 39.1822Z" fill="#001F33"></path>
  <path d="M36.1423 43.1316C35.4056 43.1377 34.6722 43.0333 33.9665 42.8218C33.2619 43.0304 32.5307 43.1348 31.796 43.1316H25.9922V40.9155H31.1459C30.6685 40.4379 30.3018 39.8611 30.0717 39.2258C29.8416 38.5906 29.7537 37.9124 29.8142 37.2394C30.1025 35.4486 31.4866 33.8889 33.9665 33.8889C36.4463 33.8889 37.8304 35.4644 38.0768 37.2394C38.1429 37.9102 38.0606 38.5873 37.8359 39.2226C37.6112 39.858 37.2495 40.4359 36.7766 40.9155H40.735V43.1316H36.1423ZM33.9665 35.8687C33.5539 35.8557 33.1511 35.996 32.8355 36.2627C32.52 36.5293 32.3141 36.9033 32.2573 37.3129C32.0634 38.4683 32.834 39.7391 33.9665 40.3956C35.1042 39.7391 35.8749 38.4893 35.6547 37.3129C35.591 36.9103 35.386 36.5436 35.0765 36.2789C34.7671 36.0142 34.3735 35.8687 33.9665 35.8687ZM32.7764 30.6172H35.1776V33.0224H32.7764V30.6172Z" fill="#001F33"></path>
  <path d="M40.2539 43.1326V40.9165H43.2895V34.1367H45.633V40.9165H48.7525V34.1367H51.1957V40.9165H53.5392V34.1367H55.93L55.9404 40.9165H59.3011V43.1326H40.2539Z" fill="#001F33"></path>
  <path d="M59.2188 43.1323V40.9162C60.8702 40.9162 61.6409 40.3017 61.6409 39.1622V30.6914H64.0474V39.2934C64.0474 41.6671 62.2019 43.1323 59.2188 43.1323Z" fill="#001F33"></path>
  <path d="M68.5797 30.6484H66.168V43.1261H68.5797V30.6484Z" fill="#001F33"></path>
  <path d="M51.0191 27.9805H48.707V30.0811H51.0191V27.9805Z" fill="#001F33"></path>
  <path d="M52.6975 30.7539H50.3906V32.8545H52.6975V30.7539Z" fill="#001F33"></path>
  <path d="M49.4436 30.7539H47.1367V32.8545H49.4436V30.7539Z" fill="#001F33"></path>
</svg>
