<?xml version="1.0" encoding="UTF-8"?>
<svg xmlns="http://www.w3.org/2000/svg" width="150" height="81" viewBox="0 0 150 81" fill="none">
  <path d="M30 40.4721H43.5727L54.4017 21.4716L66.0188 21.6201L66.9237 13.723H58.0795L63.2751 5.05402L67.9161 4.99465L68.4415 0.363281H58.1087L30 40.4721Z" fill="#001F33"></path>
  <path d="M74.8633 0.363281H84.9042L113.305 40.4721H99.732L88.903 21.4716L77.1108 21.6201L76.2643 13.723H85.2253L80.0589 5.05402L75.3595 4.99465L74.8633 0.363281Z" fill="#001F33"></path>
  <path d="M69.5527 0.363281L65.3203 40.4721H77.6087L73.6683 0.363281H69.5527Z" fill="#001F33"></path>
  <path d="M5.63103 55.5087H10.4764V59.9026H5.66022V65.3059H0.40625V49.3633H11.1185V53.8462H5.63103V55.5087Z" fill="#001F33"></path>
  <path d="M25.0431 65.7809C23.8171 65.7809 22.7371 65.6027 21.8031 65.2465C20.8983 64.8902 20.1102 64.4152 19.4972 63.8215C18.8842 63.2277 18.4172 62.5152 18.1253 61.6839C17.8334 60.8526 17.6875 59.9917 17.6875 59.0416V49.3633H23.029V58.4776C23.029 59.2495 23.2042 59.8432 23.5836 60.2589C23.9631 60.6745 24.4593 60.912 25.1306 60.912C25.802 60.912 26.3274 60.7042 26.6776 60.2589C27.0571 59.8432 27.2322 59.2198 27.2322 58.4776V49.3633H32.5445V59.0713C32.5445 60.0214 32.3986 60.912 32.0775 61.7136C31.7565 62.5449 31.2894 63.2574 30.6473 63.8511C30.0343 64.4449 29.2462 64.9199 28.3122 65.2762C27.3781 65.6027 26.269 65.7809 25.0431 65.7809Z" fill="#001F33"></path>
  <path d="M43.8433 65.7809C43.1135 65.7809 42.4422 65.6621 41.8001 65.4543C41.1579 65.2465 40.5741 64.9496 40.0487 64.5933C39.5233 64.2371 39.0855 63.7918 38.7061 63.3168C38.3266 62.8121 38.0639 62.2777 37.918 61.7136L42.5006 59.962C42.559 60.1995 42.6757 60.4073 42.8217 60.6151C42.9676 60.7933 43.2011 60.912 43.4638 60.912C43.8141 60.912 44.0476 60.7933 44.1643 60.5557C44.2811 60.3182 44.3395 60.0214 44.3395 59.6651V49.3633H49.681V59.4276C49.681 60.1401 49.5934 60.8823 49.4475 61.6542C49.3015 62.3964 49.0097 63.0792 48.5718 63.7027C48.134 64.3262 47.5502 64.8309 46.7913 65.2168C46.0324 65.5731 45.04 65.7809 43.8433 65.7809Z" fill="#001F33"></path>
  <path d="M61.2386 49.3633H66.9012L73.0891 65.3356H67.2806L66.4633 62.9902H61.4137L60.6256 65.3356H54.9922L61.2386 49.3633ZM63.9823 54.915L62.698 58.8635H65.2666L63.9823 54.915Z" fill="#001F33"></path>
  <path d="M78.6914 49.3633H84.0621V65.3356H78.6914V49.3633Z" fill="#001F33"></path>
  <path d="M91.5078 49.3633H98.338C99.1261 49.3633 99.8849 49.4523 100.644 49.6008C101.403 49.7492 102.103 50.0461 102.716 50.4321C103.329 50.818 103.796 51.3524 104.176 52.0352C104.555 52.7181 104.73 53.5493 104.73 54.5587C104.73 55.5384 104.497 56.3994 104.03 57.1416C103.563 57.8838 102.862 58.4479 101.987 58.8635L106.015 65.3356H99.885L96.8493 59.6354H96.6742V65.3356H91.5078V49.3633ZM96.645 56.1025H97.6958C97.8709 56.1025 98.0753 56.0728 98.2796 56.0431C98.4839 56.0134 98.6882 55.9541 98.8925 55.865C99.0677 55.7759 99.2428 55.6275 99.3596 55.4494C99.4763 55.2712 99.5347 55.0337 99.5347 54.7665C99.5347 54.4697 99.4763 54.2618 99.3887 54.0837C99.272 53.9056 99.1552 53.7868 98.9801 53.6978C98.805 53.6087 98.6298 53.5493 98.4547 53.5493C98.2504 53.5196 98.0753 53.5196 97.9293 53.5196H96.6742V56.1025H96.645Z" fill="#001F33"></path>
  <path d="M116.407 49.3633H122.069L128.257 65.3356H122.449L121.631 62.9902H116.582L115.794 65.3356H110.16L116.407 49.3633ZM119.15 54.915L117.866 58.8635H120.435L119.15 54.915Z" fill="#001F33"></path>
  <path d="M143.55 59.2495H139.201V65.3059H133.859V49.3633H139.172V54.7665H143.521V49.3633H148.892V65.3356H143.55V59.2495Z" fill="#001F33"></path>
  <path d="M1.19674 80.2096H0V71.4219H1.19674V80.2096Z" fill="#001F33"></path>
  <path d="M9.36813 78.458L9.39732 71.4219H10.5941V80.2096H9.07624L4.5228 73.025H4.49362V80.2096H3.29688V71.4219H4.87306L9.36813 78.458Z" fill="#001F33"></path>
  <path d="M15.7314 80.2096H14.5346V72.4907H11.7617V71.4219H18.5043V72.4907H15.7314V80.2096Z" fill="#001F33"></path>
  <path d="M20.8686 79.1404H25.3929V80.2389H19.6719V71.4512H25.2177V72.5199H20.8978V75.1622H24.9842V76.231H20.8978V79.1404H20.8686Z" fill="#001F33"></path>
  <path d="M28.1967 80.2096H27V71.4219H29.7729C30.1816 71.4219 30.5902 71.4516 30.9697 71.5406C31.3491 71.6297 31.6702 71.7781 31.9621 71.9563C32.254 72.1344 32.4583 72.4016 32.6334 72.6985C32.8085 72.9954 32.8669 73.3813 32.8669 73.8266C32.8669 74.4798 32.6626 74.9845 32.2831 75.4001C31.9037 75.786 31.3783 76.0532 30.7653 76.1423L33.188 80.1799H31.7286L29.5394 76.2611H28.2551V80.2096H28.1967ZM28.1967 75.2813H29.5978C29.8897 75.2813 30.1524 75.2517 30.3859 75.1923C30.6194 75.1329 30.8529 75.0735 31.028 74.9548C31.2032 74.836 31.3491 74.6876 31.4659 74.5094C31.5826 74.3313 31.6118 74.1235 31.6118 73.8563C31.6118 73.5891 31.5534 73.3813 31.4659 73.2032C31.3491 73.025 31.2324 72.8766 31.0572 72.7875C30.8821 72.6688 30.6778 72.6094 30.4443 72.55C30.2108 72.4907 29.9481 72.4907 29.7145 72.4907H28.2259V75.2813H28.1967Z" fill="#001F33"></path>
  <path d="M40.5712 78.458L40.6004 71.4219H41.7972V80.2096H40.2794L35.7259 73.025H35.6967V80.2096H34.5V71.4219H36.0762L40.5712 78.458Z" fill="#001F33"></path>
  <path d="M44.2489 80.2096H42.9062L46.6424 71.4219H47.7516L51.4585 80.2096H50.0866L49.211 78.0424H45.1246L44.2489 80.2096ZM45.5624 76.9736H48.8024L47.197 72.8469L45.5624 76.9736Z" fill="#001F33"></path>
  <path d="M54.8759 80.2096H53.6792V72.4907H50.9062V71.4219H57.6488V72.4907H54.8759V80.2096Z" fill="#001F33"></path>
  <path d="M60.0131 80.2096H58.8164V71.4219H60.0131V80.2096Z" fill="#001F33"></path>
  <path d="M70.8096 75.8146C70.8096 76.4974 70.6928 77.1209 70.4593 77.6849C70.2258 78.249 69.9047 78.7537 69.4961 79.1397C69.0875 79.5553 68.5913 79.8819 68.0367 80.0897C67.4821 80.3272 66.8691 80.4459 66.1978 80.4459C65.5264 80.4459 64.9426 80.3272 64.3589 80.0897C63.8043 79.8522 63.3081 79.5553 62.8994 79.1397C62.4908 78.724 62.1697 78.249 61.9362 77.6849C61.7027 77.1209 61.5859 76.4974 61.5859 75.8146C61.5859 75.1317 61.7027 74.5083 61.9362 73.9442C62.1697 73.3801 62.4908 72.9051 62.8994 72.4895C63.3081 72.0739 63.7751 71.777 64.3589 71.5395C64.9135 71.302 65.5264 71.2129 66.1978 71.2129C66.8691 71.2129 67.4529 71.3316 68.0367 71.5395C68.5913 71.7473 69.0875 72.0739 69.4961 72.4895C69.9047 72.9051 70.2258 73.3801 70.4593 73.9442C70.6928 74.5083 70.8096 75.1317 70.8096 75.8146ZM69.4961 75.8146C69.4961 75.3396 69.4085 74.8942 69.2626 74.4489C69.1166 74.0333 68.8831 73.6473 68.5912 73.3208C68.2994 72.9942 67.9491 72.7567 67.5696 72.5489C67.161 72.3707 66.7232 72.2817 66.1978 72.2817C65.7015 72.2817 65.2637 72.3707 64.8551 72.5489C64.4464 72.727 64.1254 72.9942 63.8335 73.3208C63.5416 73.6473 63.3373 74.0036 63.1913 74.4489C63.0454 74.8645 62.9578 75.3396 62.9578 75.8146C62.9578 76.2896 63.0454 76.7646 63.1913 77.1802C63.3373 77.6256 63.5708 77.9818 63.8627 78.3084C64.1545 78.635 64.4756 78.8725 64.8843 79.0506C65.2929 79.2287 65.7307 79.3178 66.227 79.3178C66.7232 79.3178 67.161 79.2287 67.5696 79.0506C67.9783 78.8725 68.3286 78.6053 68.6204 78.3084C68.9123 77.9818 69.1166 77.6256 69.2918 77.1802C69.4377 76.7646 69.4961 76.2896 69.4961 75.8146Z" fill="#001F33"></path>
  <path d="M78.5457 78.458L78.5749 71.4219H79.7717V80.2096H78.2539L73.7004 73.025H73.6712V80.2096H72.4453V71.4219H74.0215L78.5457 78.458Z" fill="#001F33"></path>
  <path d="M82.2255 80.2096H80.8828L84.619 71.4219H85.7281L89.4351 80.2096H88.0632L87.1876 78.0424H83.1012L82.2255 80.2096ZM83.539 76.9736H86.7497L85.1444 72.8469L83.539 76.9736Z" fill="#001F33"></path>
  <path d="M91.7689 79.1404H95.6218V80.2389H90.543V71.4512H91.7397V79.1404H91.7689Z" fill="#001F33"></path>
  <path d="M99.6786 80.2096H98.3359L102.072 71.4219H103.181L106.888 80.2096H105.516L104.641 78.0424H100.554L99.6786 80.2096ZM100.963 76.9736H104.203L102.597 72.8469L100.963 76.9736Z" fill="#001F33"></path>
  <path d="M109.224 80.2096H108.027V71.4219H109.224V80.2096Z" fill="#001F33"></path>
  <path d="M112.521 80.2096H111.324V71.4219H114.097C114.506 71.4219 114.914 71.4516 115.294 71.5406C115.673 71.6297 115.994 71.7781 116.286 71.9563C116.578 72.1344 116.782 72.4016 116.958 72.6985C117.133 72.9954 117.191 73.3813 117.191 73.8266C117.191 74.4798 116.987 74.9845 116.607 75.4001C116.228 75.786 115.702 76.0532 115.09 76.1423L117.512 80.1799H116.053L113.864 76.2611H112.579V80.2096H112.521ZM112.521 75.2813H113.922C114.214 75.2813 114.477 75.2517 114.71 75.1923C114.944 75.1329 115.177 75.0735 115.352 74.9548C115.527 74.836 115.673 74.6876 115.79 74.5094C115.907 74.3313 115.936 74.1235 115.936 73.8563C115.936 73.5891 115.878 73.3813 115.79 73.2032C115.673 73.025 115.557 72.8766 115.381 72.7875C115.206 72.6688 115.002 72.6094 114.768 72.55C114.535 72.4907 114.272 72.4907 114.039 72.4907H112.55V75.2813H112.521Z" fill="#001F33"></path>
  <path d="M118.797 71.4219H121.424C121.891 71.4219 122.299 71.4813 122.679 71.5703C123.058 71.6594 123.379 71.8078 123.642 72.0156C123.905 72.2235 124.109 72.461 124.255 72.7578C124.401 73.0547 124.489 73.4407 124.489 73.8563C124.489 74.3016 124.401 74.6579 124.255 74.9845C124.109 75.311 123.876 75.5485 123.584 75.7564C123.292 75.9642 122.971 76.1126 122.591 76.2017C122.212 76.2907 121.774 76.3501 121.336 76.3501H120.023V80.2096H118.826V71.4219H118.797ZM120.023 75.311H121.307C121.599 75.311 121.862 75.2813 122.124 75.222C122.358 75.1626 122.591 75.0735 122.767 74.9845C122.942 74.8657 123.088 74.7173 123.175 74.5391C123.263 74.361 123.321 74.1235 123.321 73.8563C123.321 73.5891 123.263 73.3813 123.175 73.2032C123.088 73.025 122.942 72.8766 122.767 72.7578C122.591 72.6391 122.387 72.5797 122.124 72.5203C121.891 72.461 121.628 72.461 121.336 72.461H120.023V75.311Z" fill="#001F33"></path>
  <path d="M134.763 75.8146C134.763 76.4974 134.646 77.1209 134.412 77.6849C134.179 78.249 133.858 78.7537 133.449 79.1397C133.04 79.5553 132.544 79.8819 131.99 80.0897C131.435 80.3272 130.822 80.4459 130.151 80.4459C129.48 80.4459 128.896 80.3272 128.312 80.0897C127.757 79.8522 127.261 79.5553 126.853 79.1397C126.444 78.724 126.123 78.249 125.889 77.6849C125.656 77.1209 125.539 76.4974 125.539 75.8146C125.539 75.1317 125.656 74.5083 125.889 73.9442C126.123 73.3801 126.444 72.9051 126.853 72.4895C127.261 72.0739 127.728 71.777 128.312 71.5395C128.867 71.302 129.48 71.2129 130.151 71.2129C130.822 71.2129 131.406 71.3316 131.99 71.5395C132.544 71.7473 133.04 72.0739 133.449 72.4895C133.858 72.9051 134.179 73.3801 134.412 73.9442C134.646 74.5083 134.763 75.1317 134.763 75.8146ZM133.478 75.8146C133.478 75.3396 133.391 74.8942 133.245 74.4489C133.099 74.0333 132.865 73.6473 132.573 73.3208C132.282 72.9942 131.931 72.7567 131.552 72.5489C131.143 72.3707 130.705 72.2817 130.18 72.2817C129.684 72.2817 129.246 72.3707 128.837 72.5489C128.429 72.727 128.108 72.9942 127.816 73.3208C127.524 73.6473 127.32 74.0036 127.174 74.4489C127.028 74.8645 126.94 75.3396 126.94 75.8146C126.94 76.2896 127.028 76.7646 127.174 77.1802C127.32 77.6256 127.553 77.9818 127.845 78.3084C128.137 78.635 128.458 78.8725 128.867 79.0506C129.275 79.2287 129.713 79.3178 130.209 79.3178C130.705 79.3178 131.143 79.2287 131.552 79.0506C131.961 78.8725 132.311 78.6053 132.603 78.3084C132.895 77.9818 133.099 77.6256 133.274 77.1802C133.391 76.7646 133.478 76.2896 133.478 75.8146Z" fill="#001F33"></path>
  <path d="M137.623 80.2096H136.426V71.4219H139.199C139.607 71.4219 140.016 71.4516 140.395 71.5406C140.775 71.6297 141.096 71.7781 141.388 71.9563C141.68 72.1344 141.884 72.4016 142.059 72.6985C142.234 72.9954 142.293 73.3813 142.293 73.8266C142.293 74.4798 142.088 74.9845 141.709 75.4001C141.33 75.786 140.804 76.0532 140.191 76.1423L142.614 80.1799H141.154L138.965 76.2611H137.681V80.2096H137.623ZM137.623 75.2813H139.024C139.315 75.2813 139.578 75.2517 139.812 75.1923C140.045 75.1329 140.279 75.0735 140.454 74.9548C140.629 74.836 140.775 74.6876 140.892 74.5094C141.008 74.3313 141.038 74.1235 141.038 73.8563C141.038 73.5891 140.979 73.3813 140.892 73.2032C140.775 73.025 140.658 72.8766 140.483 72.7875C140.308 72.6688 140.104 72.6094 139.87 72.55C139.637 72.4907 139.374 72.4907 139.14 72.4907H137.652V75.2813H137.623Z" fill="#001F33"></path>
  <path d="M146.79 80.2096H145.593V72.4907H142.82V71.4219H149.563V72.4907H146.79V80.2096Z" fill="#001F33"></path>
</svg>
