<?xml version="1.0" encoding="UTF-8"?>
<svg xmlns="http://www.w3.org/2000/svg" width="98" height="99" viewBox="0 0 98 99" fill="none">
  <path fill-rule="evenodd" clip-rule="evenodd" d="M97.9209 0.421875H0.894531V3.46198L68.7981 26.5715C68.7981 26.5715 68.7981 26.5152 68.8537 26.5152C68.9093 26.4026 68.965 26.29 68.965 26.2337C68.9928 26.2056 69.0067 26.1634 69.0206 26.1212C69.0345 26.079 69.0484 26.0368 69.0762 26.0086L24.4696 0.511719H27.918L69.4099 25.3332V25.2769C69.4655 25.2206 69.5211 25.1643 69.5211 25.1081C69.549 25.0518 69.5907 24.9955 69.6324 24.9392L69.6325 24.9391C69.6741 24.8828 69.7158 24.8266 69.7436 24.7703L42.6015 0.511719H44.715L70.2442 24.2638C70.3276 24.1794 70.4111 24.109 70.4945 24.0387C70.5779 23.9683 70.6613 23.8979 70.7448 23.8135L53.6141 0.511719H55.1714L71.2453 23.4195C71.3288 23.3632 71.4261 23.307 71.5234 23.2507C71.6208 23.1944 71.7181 23.1381 71.8015 23.0818L61.6788 0.511719H62.9581L72.469 22.8004C72.5802 22.7722 72.6914 22.73 72.8027 22.6878C72.9139 22.6456 73.0252 22.6034 73.1364 22.5753L68.2419 0.511719H69.4099L73.8038 22.4627C74.0263 22.4064 74.2488 22.4064 74.4713 22.4064L74.2488 0.511719H75.3612L75.1387 22.4064C75.2499 22.4064 75.3612 22.4205 75.4724 22.4345C75.5836 22.4486 75.6949 22.4627 75.8061 22.4627L80.2 0.511719H81.368L76.4735 22.6315C76.696 22.6878 76.9185 22.7441 77.0854 22.8567L86.6518 0.511719H87.9311L77.6972 23.0818C77.9196 23.1944 78.0864 23.3069 78.2533 23.4195L78.2534 23.4195L94.3829 0.511719H95.9402L78.8095 23.8135C78.9764 23.9261 79.1433 24.0949 79.2545 24.2075C79.2545 24.2075 79.3101 24.2075 79.3101 24.2638L97.7201 7.15329V8.78554L79.7551 24.8266C79.8107 24.8829 79.8524 24.9392 79.8941 24.9955C79.9358 25.0518 79.9776 25.1081 80.0332 25.1643C80.061 25.1925 80.0749 25.2206 80.0888 25.2488C80.1027 25.2769 80.1166 25.3051 80.1444 25.3332C80.1444 25.3332 80.1444 25.3895 80.2 25.3895L97.7757 14.8643V16.1588L80.5337 25.9523C80.5615 26.0086 80.5754 26.0508 80.5893 26.0929L80.5894 26.093L80.5894 26.0931C80.6033 26.1353 80.6172 26.1775 80.645 26.2337C80.6599 26.2639 80.6748 26.29 80.6886 26.3143C80.7264 26.3805 80.7562 26.4328 80.7562 26.5152C80.7562 26.5392 80.7562 26.5529 80.7605 26.5652C80.7663 26.5817 80.7799 26.5954 80.8118 26.6277L97.7757 20.7741V21.8998L81.0343 27.1906C81.0343 27.2469 81.0343 27.3032 81.0899 27.3594C81.0899 27.4157 81.1038 27.472 81.1178 27.5283L81.1178 27.5284C81.1317 27.5846 81.1456 27.6409 81.1456 27.6971C81.1456 27.7534 81.1456 27.8097 81.2012 27.866L97.7757 25.9523V26.9654L81.2568 28.5414V28.8791V29.2168L97.7757 30.7928V31.8622L81.1456 29.8922C81.1456 29.9485 81.1456 30.0048 81.0899 30.0048C81.0899 30.0611 81.076 30.1174 81.0621 30.1737C81.0482 30.2299 81.0343 30.2862 81.0343 30.3425C81.0343 30.3988 81.0343 30.4551 80.9787 30.5677L97.7201 35.8584V36.9841L80.8118 31.2431C80.8118 31.2994 80.8118 31.2994 80.7562 31.3556C80.7284 31.4119 80.7145 31.4541 80.7006 31.4962L80.7006 31.4964C80.6867 31.5386 80.6728 31.5808 80.645 31.6371C80.6172 31.6933 80.6033 31.7355 80.5894 31.7777L80.5894 31.7778C80.5755 31.82 80.5616 31.8622 80.5337 31.9185L97.7757 41.712V43.0065L80.2 32.4813V32.5376C80.1722 32.5658 80.1583 32.5939 80.1444 32.622C80.1305 32.6502 80.1166 32.6783 80.0888 32.7065C80.0332 32.819 79.922 32.9316 79.8107 33.0441L79.8107 33.0442L97.7757 49.0853V50.6049L79.3657 33.4945C79.1989 33.6633 79.032 33.8322 78.8652 33.9447L97.7757 59.723V62.087L78.309 34.395C78.2255 34.4513 78.1282 34.5076 78.0309 34.5639C77.9335 34.6201 77.8362 34.6764 77.7528 34.7327L89.763 61.3025C90.5969 62.2593 91.1322 63.4147 91.324 64.7557L97.7757 79.0286V83.3063L91.1807 67.8719C90.3161 71.4605 87.1321 72.8315 85.1756 73.674C85.1208 73.6975 85.067 73.7207 85.0142 73.7435L85.0681 73.9882C88.9557 74.3503 93.3004 77.4149 93.3004 82.0861C93.3004 85.7285 91.8056 88.6709 88.7119 90.5234L90.4395 98.3628H97.9209V0.421875ZM81.8369 65.4918L82.2479 67.5496C82.1553 69.7193 80.7798 71.766 77.1198 71.766H75.5191L75.4337 63.5889H78.2357C79.3654 63.5889 81.06 64.0329 81.8369 65.4918ZM81.5555 58.0482C83.9857 58.1966 86.0539 58.733 87.6582 59.628L77.141 35.0141C77.0013 35.0495 76.8617 35.107 76.7358 35.1588C76.6611 35.1896 76.5913 35.2183 76.5292 35.2393L81.5555 58.0482ZM80.342 58.0067C80.2725 58.0062 80.2027 58.0059 80.1327 58.0059H75.3754L75.1387 35.3518C75.3612 35.3518 75.5836 35.3518 75.8061 35.2956L80.342 58.0067ZM74.235 58.0059L74.4713 35.4081C74.36 35.4081 74.2488 35.3941 74.1375 35.38C74.0263 35.3659 73.9151 35.3518 73.8038 35.3518L69.2911 58.0059H74.235ZM64.7333 73.4174L64.1255 76.1647H58.0379C58.0379 77.8002 57.7031 79.3228 57.1451 80.2815L54.5183 77.0782L72.5802 34.9579C72.7471 35.0704 72.9695 35.1267 73.192 35.183L68.1428 58.0059H64.8449H64.7333V73.4174ZM53.349 75.6523L56.5448 68.5867C55.5252 68.1454 54.7816 67.9971 53.5742 68.044C52.1794 68.044 51.1751 68.3824 50.5613 69.3975C49.836 70.6945 50.7287 72.4427 52.012 74.0218L53.349 75.6523ZM57.2009 67.1361L71.8572 34.7327C71.6347 34.6201 71.4678 34.5076 71.301 34.395L52.0504 61.7869C53.69 61.8383 55.2233 62.0496 57.2009 62.5174V67.1361ZM42.15 72.9415L41.017 74.4844C39.4969 75.5074 38.2007 76.7254 37.2263 78.1385C37.3937 76.9543 37.5052 75.7136 37.5052 74.3601C37.5052 71.3903 36.8431 68.4768 35.3784 65.9508L70.2442 33.5507C70.4111 33.7196 70.5779 33.8884 70.7448 34.001L50.3416 61.7862C42.6314 62.086 41.0761 66.4704 41.0761 68.8899C41.0761 70.4582 41.512 71.7863 42.15 72.9415ZM34.4427 64.5379L69.7992 32.9879C69.688 32.8753 69.6324 32.7628 69.5768 32.6502L69.5768 32.6502C69.5211 32.5939 69.4655 32.5376 69.4655 32.4813L25.4019 58.8207C29.5386 59.8909 32.4903 61.9426 34.4427 64.5379ZM22.717 58.2914C21.3881 58.1045 19.9583 58.0059 18.4233 58.0059H5.75781V67.9598L0.894531 70.7324V54.3526L68.7981 31.2431C68.8537 31.2431 68.8537 31.2994 68.8537 31.2994C68.8815 31.3556 68.8954 31.3978 68.9093 31.44L68.9093 31.4401L68.9094 31.4402C68.9233 31.4823 68.9372 31.5245 68.965 31.5808C68.9928 31.6371 69.0067 31.6793 69.0206 31.7215C69.0345 31.7637 69.0484 31.8059 69.0762 31.8622L22.717 58.2914ZM5.75781 70.563V90.1345L0.894531 94.4742V73.4701L5.75781 70.563ZM16.1915 80.8241V64.4912H18.4791C22.457 64.4912 25.6296 67.2041 26.5983 71.5377L16.1915 80.8241ZM16.1915 83.7809L26.8926 73.8365C26.9003 74.0276 26.9042 74.221 26.9042 74.4165C26.9042 81.4094 24.1144 86.2029 18.1443 86.2029H16.1915V83.7809ZM6.66218 92.6882H18.0327C22.4466 92.6882 26.6466 91.6465 30.0127 89.4702L23.4827 98.3628H0.894531V98.0492L6.66218 92.6882ZM35.7375 84.9989C36.4678 89.4532 40.2203 92.3995 45.477 93.0565L43.0769 98.3628H26.3456L35.7375 84.9989ZM48.2946 86.8271C48.2504 86.8264 48.2063 86.8251 48.1621 86.8232C46.2093 86.8232 44.2007 85.4697 44.3123 82.8756C44.368 81.4094 45.1492 80.1123 46.4325 79.1536L49.8804 83.3211L48.2946 86.8271ZM50.5121 86.4206L51.1719 84.8822L51.8446 85.6953C51.4462 85.9862 50.9951 86.2326 50.5121 86.4206ZM47.6072 93.195L45.3911 98.3628H59.2145L60.4699 92.6882H57.5915L55.9176 90.7144C53.5742 92.4062 50.7287 93.1957 47.7716 93.1957C47.7166 93.1957 47.6618 93.1955 47.6072 93.195ZM61.9388 86.0489L61.8319 85.9209C61.8926 85.8558 61.9523 85.7892 62.0112 85.7214L61.9388 86.0489ZM63.3647 87.757L64.8449 80.3262V89.5301L63.3647 87.757ZM62.3823 92.6882L61.2519 98.3628H73.8129L73.8723 92.6882H62.3823ZM75.7377 92.6882L75.797 98.3628H88.4019L87.0048 91.3678C84.8936 92.2226 82.2377 92.6882 79.0168 92.6882H75.7377ZM75.6794 87.1052H77.1756C80.8581 87.1052 83.1457 85.2442 83.1457 81.9169C83.1457 79.21 81.7508 77.4054 78.1799 77.4054H75.578L75.6794 87.1052ZM0.894531 19.9591V5.75302L68.5756 27.2469C68.52 27.3032 68.52 27.3594 68.52 27.4157C68.52 27.472 68.5061 27.5283 68.4922 27.5846C68.4783 27.6409 68.4644 27.6971 68.4644 27.7534V27.866L0.894531 19.9591ZM0.894531 35.6759V22.0823L68.3531 28.5414V28.8791V29.2168L0.894531 35.6759ZM0.894531 52.0615V37.7998L68.4644 29.9485V30.0611C68.4644 30.1174 68.4783 30.1737 68.4922 30.2299C68.5061 30.2862 68.52 30.3425 68.52 30.3988C68.5756 30.4551 68.5756 30.5114 68.5756 30.5677L0.894531 52.0615Z" fill="#001F33"></path>
</svg>
