<?xml version="1.0" encoding="UTF-8"?>
<svg xmlns="http://www.w3.org/2000/svg" width="124" height="43" viewBox="0 0 124 43" fill="none">
  <path d="M49.3837 13.8834L48.3811 16.7384H50.3473L49.3837 13.8834ZM47.7637 18.5519L47.1473 20.1341H44.6797L48.1109 11.1445H50.6555L54.0487 20.1341H51.5431L50.9647 18.5519H47.7637Z" fill="#001F33"></path>
  <path d="M60.7188 13.4587C60.2175 13.0341 59.7162 12.8418 59.1769 12.8418C58.5985 12.8418 58.1742 13.1892 58.1742 13.6138C58.1742 14.0765 58.3664 14.1926 59.7933 14.6553C60.6418 14.8866 61.0651 15.1569 61.4513 15.5425C61.8366 15.9671 62.0297 16.4688 62.0297 17.1247C62.0297 17.6644 61.8756 18.4365 61.6825 18.784C61.1812 19.7483 59.9864 20.3661 58.5214 20.3661C57.789 20.3661 57.2106 20.2509 56.4781 19.9415C55.9768 19.7483 55.8227 19.6331 55.3984 19.3628L56.4011 17.4721C57.1335 18.089 57.7509 18.3984 58.4444 18.3984C59.1388 18.3984 59.5621 18.0509 59.5621 17.5112C59.5621 17.0095 59.2539 16.7782 58.1742 16.4697C57.0175 16.1223 56.5932 15.93 56.247 15.5435C55.8997 15.1579 55.7456 14.6172 55.7456 13.9232C55.7456 12.1097 56.9794 10.9141 58.7916 10.9141C59.7172 10.9141 60.7578 11.1844 61.6444 11.647L60.7188 13.4587Z" fill="#001F33"></path>
  <path d="M67.2329 20.095H64.9194V13.0732H62.9922V11.1055H69.1981V13.0732H67.2329V20.095Z" fill="#001F33"></path>
  <path d="M73.6713 15.1561C74.5578 15.1561 75.0972 14.7315 75.0972 14.0375C75.0972 13.3426 74.5578 12.919 73.6713 12.919H73.247V15.1571H73.6713V15.1561ZM78.3743 20.095H75.4825L73.2461 16.6222V20.095H70.8945V11.1055H74.5189C75.5595 11.1055 76.2149 11.3368 76.7163 11.9156C77.2176 12.4173 77.4877 13.1503 77.4877 13.8833C77.4877 14.8096 77.1025 15.6197 76.4081 16.0443C76.1379 16.2375 75.9458 16.2756 75.5215 16.3918L78.3743 20.095Z" fill="#001F33"></path>
  <path d="M83.8876 13.8834L82.885 16.7384H84.8512L83.8876 13.8834ZM82.2676 18.5519L81.6512 20.1341H79.1836L82.6148 11.1445H85.1594L88.5526 20.1341H86.047L85.4686 18.5519H82.2676Z" fill="#001F33"></path>
  <path d="M47.7627 27.0018C48.6493 27.0018 49.0735 26.6543 49.0735 25.8832C49.0735 25.1121 48.6493 24.7646 47.8017 24.7646H47.0312V27.0028H47.7627V27.0018ZM46.9922 31.8626H44.6406V22.873H48.342C49.4217 22.873 50.0001 23.0663 50.5775 23.6061C51.1558 24.1849 51.4641 24.9179 51.4641 25.8442C51.4641 27.8119 50.3844 28.8534 48.4181 28.8534H46.9532V31.8626H46.9922Z" fill="#001F33"></path>
  <path d="M57.9816 29.9337C59.3695 29.9337 60.5262 28.8152 60.5262 27.3872C60.5262 25.9983 59.4085 24.8797 57.9816 24.8797C56.5937 24.8797 55.476 25.9983 55.476 27.3872C55.476 28.7761 56.5937 29.9337 57.9816 29.9337ZM58.0206 22.6035C60.8734 22.6035 62.9938 24.6484 62.9938 27.3882C62.9938 30.127 60.8354 32.1728 58.0206 32.1728C55.1678 32.1728 53.0474 30.128 53.0474 27.3882C53.0084 24.6484 55.1678 22.6035 58.0206 22.6035Z" fill="#001F33"></path>
  <path d="M67.4658 29.8949H70.2796V31.8626H65.1523V22.873H67.4658V29.8949Z" fill="#001F33"></path>
  <path d="M70.625 22.873H73.4008L75.0969 25.3044L76.716 22.873H79.5688L76.1766 27.5415V31.8626H73.8631V27.5415L70.625 22.873Z" fill="#001F33"></path>
  <path d="M82.1514 22.873H84.4639L86.276 27.6577L88.2042 22.873H90.5168L91.9047 31.8626H89.5531L88.8597 26.6543L86.7003 31.8626H85.7747L83.6934 26.6543L82.9219 31.8626H80.6094L82.1514 22.873Z" fill="#001F33"></path>
  <path d="M96.3789 24.8408V26.3459H99.0006V28.3136H96.3789V29.8568H99.1937V31.8626H94.0664V22.873H99.1547V24.8408H96.3789Z" fill="#001F33"></path>
  <path d="M104.088 26.8856C104.975 26.8856 105.514 26.5001 105.514 25.767C105.514 25.0721 104.975 24.6485 104.088 24.6485H103.664V26.8866H104.088V26.8856ZM108.791 31.8626H105.9L103.663 28.3898V31.8626H101.312V22.873H104.937C105.978 22.873 106.633 23.1044 107.134 23.6832C107.636 24.1849 107.906 24.9179 107.906 25.6509C107.906 26.5772 107.52 27.3874 106.826 27.8119C106.556 28.0052 106.364 28.0433 105.939 28.1594L108.791 31.8626Z" fill="#001F33"></path>
  <path d="M115.383 25.1872C114.882 24.7626 114.38 24.5703 113.841 24.5703C113.263 24.5703 112.838 24.9178 112.838 25.3424C112.838 25.805 113.03 25.9212 114.457 26.3838C115.306 26.6152 115.729 26.8855 116.115 27.2711C116.501 27.6956 116.694 28.1973 116.694 28.8532C116.694 29.393 116.54 30.1651 116.347 30.5126C115.845 31.4769 114.65 32.0948 113.186 32.0948C112.453 32.0948 111.875 31.9786 111.142 31.6701C110.641 31.4769 110.487 31.3617 110.062 31.0914L111.065 29.2007C111.798 29.8176 112.415 30.127 113.108 30.127C113.803 30.127 114.226 29.7795 114.226 29.2398C114.226 28.7381 113.918 28.5067 112.838 28.1983C111.682 27.8508 111.257 27.6585 110.911 27.272C110.564 26.8865 110.41 26.3458 110.41 25.6518C110.41 23.8382 111.644 22.6426 113.456 22.6426C114.381 22.6426 115.422 22.9129 116.309 23.3756L115.383 25.1872Z" fill="#001F33"></path>
  <path d="M120.976 23.0273H121.323L122.249 24.223L123.213 23.0273H123.56V25.3035H123.175V23.6442L122.288 24.7247H122.211L121.362 23.6061V25.3035H120.977V23.0273H120.976ZM119.241 23.3367H118.316V23.0283H120.552V23.3367H119.626V25.3044H119.241V23.3367Z" fill="#001F33"></path>
  <path d="M24.9814 13.0745V16.8557C24.9814 16.8557 16.4999 15.5829 13.493 19.7497C13.454 19.7107 14.8419 12.6109 24.9814 13.0745Z" fill="#001F33"></path>
  <path d="M24.9814 17.8576V21.6389C24.9814 21.6389 16.4999 20.3661 13.493 24.5329C13.454 24.4939 14.8419 17.3949 24.9814 17.8576Z" fill="#001F33"></path>
  <path d="M24.9814 22.6017V26.383C24.9814 26.383 16.4999 25.1102 13.493 29.277C13.454 29.238 14.8419 22.1391 24.9814 22.6017Z" fill="#001F33"></path>
  <path d="M0.730469 30.0883C1.15473 23.1436 1.53999 16.5074 1.92525 10.1797C4.50794 16.7388 7.05257 23.2207 9.59721 29.6637C6.78336 29.8179 3.85347 29.934 0.730469 30.0883Z" fill="#001F33"></path>
  <path d="M17.9634 42.088C12.1806 38.2687 6.62903 34.6027 1.30859 31.0918C8.24809 32.1333 15.1876 33.1757 22.011 34.1781C20.7392 36.6865 19.3893 39.3102 17.9634 42.088Z" fill="#001F33"></path>
  <path d="M36.9707 33.5225C30.7637 36.6478 24.8268 39.6189 19.1211 42.4738C23.6701 36.7249 28.0269 31.2463 32.1515 26.0762C33.6546 28.4294 35.2736 30.8989 36.9707 33.5225Z" fill="#001F33"></path>
  <path d="M38.7027 12.1855C38.2784 19.1302 37.8932 25.7664 37.5079 32.0942C34.9252 25.5351 32.3806 19.0531 29.8359 12.6101C32.6507 12.494 35.5797 12.3398 38.7027 12.1855Z" fill="#001F33"></path>
  <path d="M21.4695 0.224609C27.2523 4.04392 32.8039 7.70998 38.1243 11.2209C31.1848 10.1794 24.2453 9.13695 17.4219 8.13452C18.6937 5.62608 20.0436 3.00246 21.4695 0.224609Z" fill="#001F33"></path>
  <path d="M2.46484 9.17593C8.67185 6.05062 14.6087 3.07956 20.3144 0.224609C15.9195 5.7422 11.6018 11.2208 7.28396 16.6222C5.78001 14.269 4.16095 11.7995 2.46484 9.17593Z" fill="#001F33"></path>
</svg>
