<?xml version="1.0" encoding="UTF-8"?>
<svg xmlns="http://www.w3.org/2000/svg" width="194" height="66" viewBox="0 0 194 66" fill="none">
  <path d="M0.801069 62.3593C0.812997 62.1798 0.820949 61.9525 0.820949 61.8169V56.8795C0.820949 56.4527 0.809021 55.9382 0.5625 55.6351L0.645999 55.4158L3.17085 55.3639C4.90047 55.332 6.5625 56.4527 6.5625 58.6821C6.5625 60.764 5.2464 62.3633 3.21459 62.3633H0.801069V62.3593ZM5.01578 59.2206C5.01578 57.4298 3.99391 56.0499 2.68974 56.0938L2.32393 56.1058C2.32393 56.5883 2.27224 58.4907 2.27224 59.735C2.27224 60.4768 2.28417 61.115 2.30405 61.6813H3.33785C4.14898 61.6773 5.01578 60.8119 5.01578 59.2206Z" fill="#001F33"></path>
  <path d="M12.3203 59.6357C12.0929 59.7115 11.8392 59.7296 11.5506 59.7296L9.00557 59.7007C9.01869 59.8055 9.01869 59.9464 9.01869 60.0511C9.05367 61.0374 9.88016 61.5287 10.5886 61.5287C11.1265 61.5287 11.9442 61.3662 12.517 60.6581C12.8363 61.6985 11.4151 62.3633 10.0988 62.3633C8.78255 62.3633 7.58436 61.6985 7.5625 60.0909C7.5625 58.5663 8.5814 57.3633 10.1557 57.3633C12.3334 57.3633 12.4252 58.9167 12.4252 59.3828V59.5996L12.3203 59.6357ZM9.01869 59.2563C9.6965 59.2455 10.3393 59.2094 11.0477 59.1985C11.0346 58.6205 10.7591 57.9377 10.0857 57.9377C9.44287 57.9413 9.18049 58.5555 9.01869 59.2563Z" fill="#001F33"></path>
  <path d="M14.118 65.3633C14.118 65.2148 14.1409 64.6371 14.1409 64.0674V62.9641C14.1409 60.8698 14.1776 59.1005 14.1776 59.1005C14.1639 58.4987 13.9114 58.0814 13.5625 57.9731V57.7845C13.5625 57.7845 14.1547 57.4154 14.8387 57.4154C15.4401 57.4154 15.6834 57.7003 15.6696 57.9531C15.9818 57.6802 16.551 57.3633 17.0927 57.3633C18.3322 57.3633 19.5625 58.2379 19.5625 60.0554C19.5625 61.4756 18.525 62.9721 16.5051 62.9721C16.2021 62.9721 15.9405 62.928 15.6742 62.8758C15.688 63.8347 15.6742 64.6451 15.8073 65.3593H14.118V65.3633ZM15.7063 58.3663C15.6834 59.2289 15.6696 60.3041 15.6696 61.6481L15.6834 62.2379C15.9726 62.3021 16.2985 62.3422 16.6337 62.3422C17.7171 62.3422 17.9695 61.1226 17.9695 60.3442C17.9695 59.0283 17.3452 58.2178 16.4638 58.2178C16.2021 58.2178 15.9129 58.282 15.7063 58.3663Z" fill="#001F33"></path>
  <path d="M25.5625 61.8733V62.0807C25.2623 62.2202 24.6237 62.3633 24.1614 62.3633C23.5752 62.3633 23.1606 61.9412 23.1129 61.6766C22.7984 62.138 22.0407 62.3633 21.464 62.3633C20.1391 62.3633 19.5625 61.7338 19.5625 61.1258C19.5625 60.2066 20.7873 59.6737 22.2027 59.6737C22.4648 59.6737 22.7269 59.7023 22.9652 59.7488C22.9795 59.5521 22.989 59.3554 22.989 59.1659C22.989 58.4899 22.8508 57.9176 22.0883 57.9176C21.5498 57.9176 21.2114 58.2467 21.3258 58.658C21.1113 58.7903 20.8635 58.8547 20.6252 58.8547C20.2392 58.8547 19.9009 58.6651 19.9009 58.3576C19.9009 57.7495 21.0113 57.3633 22.0883 57.3633C23.5895 57.3633 24.5617 57.8497 24.5617 58.8261C24.5617 59.1909 24.5379 59.4913 24.5379 60.2138C24.5379 60.5786 24.5379 61.3297 24.6904 61.5657C24.9096 61.8948 25.5244 61.8733 25.5625 61.8733ZM21.0494 60.9362C21.0494 61.369 21.4735 61.6301 21.8977 61.6301C22.3981 61.6301 22.8222 61.4405 22.9843 61.3583C22.9604 60.9362 22.9604 60.4498 22.9604 60.0814C22.4124 60.1029 21.0494 60.2066 21.0494 60.9362Z" fill="#001F33"></path>
  <path d="M27.0417 62.3633C27.0417 61.7955 27.0932 60.4036 27.0932 59.0849C27.0932 58.1252 26.6972 57.9604 26.5625 57.9237V57.7516C26.7922 57.616 27.1764 57.4146 27.6754 57.4146C28.0991 57.4146 28.3288 57.6087 28.3288 57.9897C28.3288 58.019 28.2853 58.2607 28.2655 58.4402C28.4199 58.0849 29.0457 57.3633 29.6991 57.3633C30.3328 57.3633 30.5625 57.7186 30.5625 58.0263C30.5625 58.3523 30.3051 58.6527 29.8892 58.6527C29.8575 58.6527 29.8179 58.6417 29.7744 58.6417C29.711 58.3633 29.513 58.2571 29.2952 58.2571C28.4318 58.2571 28.317 59.1508 28.317 60.1105C28.317 61.0153 28.3288 61.6197 28.4516 62.3596H27.0417V62.3633Z" fill="#001F33"></path>
  <path d="M32.6156 57.1965H33.6861C33.8352 57.1965 34.2169 57.1661 34.2959 57.0367C34.3178 57.1052 34.331 57.1965 34.331 57.2764C34.331 57.577 34.1599 57.8737 33.3395 57.8737C33.1552 57.8737 32.7736 57.8433 32.5805 57.8433V60.0881C32.5805 60.655 32.5235 61.4654 33.3044 61.4654C33.708 61.4654 34.3617 61.336 34.502 61.0963C34.8135 61.7469 33.8703 62.3633 32.8438 62.3633C31.4048 62.3633 31.1284 61.7545 31.1284 60.7273C31.1284 60.0006 31.2425 59.2396 31.2425 58.5624C31.2425 58.3417 31.2206 57.9651 31.1372 57.8737C30.9749 57.6949 30.8257 57.5922 30.5625 57.5123L30.6195 57.2117C30.6634 57.2117 31.2513 57.1927 31.8172 56.3633H32.7385L32.6156 57.1965Z" fill="#001F33"></path>
  <path d="M39.6064 62.3633C39.6064 62.3633 39.5717 62.2203 39.5717 62.0554C39.5717 61.2966 39.5934 60.3252 39.5934 59.5664C39.6064 58.6829 39.4544 58.2577 38.9114 58.2577C38.2642 58.2577 37.8646 58.4886 37.5562 58.7269C37.5562 59.1485 37.5345 60.6221 37.591 61.6008C37.604 61.8024 37.6344 62.147 37.6822 62.3596H36.0881L36.1011 62.0627L36.1445 59.0825C36.1576 58.0048 35.5625 57.9205 35.5625 57.9205V57.7482C35.8231 57.6125 36.2444 57.4109 36.7917 57.4109C37.2565 57.4109 37.4998 57.6602 37.5649 57.9498L37.5562 58.2211C37.9776 57.8545 38.6248 57.3633 39.4587 57.3633C40.2319 57.3633 40.7792 57.7482 40.9616 58.2577C41.2917 57.8911 42.0779 57.3633 42.8641 57.3633C43.8197 57.3633 44.4235 57.9388 44.4496 58.6316C44.4496 60.1712 44.3714 61.1609 44.5625 62.3633H43.0118C43.0118 62.3633 42.9771 62.2203 42.9771 62.0554C42.9771 61.2966 42.9988 60.3252 42.9988 59.5664C43.0118 58.6829 42.8641 58.2577 42.3168 58.2577C41.7261 58.2577 41.3352 58.4483 41.0398 58.6719C41.0398 60.1895 40.9616 61.1719 41.1528 62.3633H39.6064Z" fill="#001F33"></path>
  <path d="M49.3687 59.6357C49.1868 59.7115 48.9839 59.7296 48.753 59.7296L46.717 59.7007C46.7275 59.8055 46.7275 59.9464 46.7275 60.0511C46.7554 61.0374 47.4166 61.5287 47.9834 61.5287C48.4137 61.5287 49.0679 61.3662 49.5261 60.6581C49.7815 61.6985 48.6446 62.3633 47.5915 62.3633C46.5385 62.3633 45.58 61.6985 45.5625 60.0909C45.5625 58.5663 46.3776 57.3633 47.637 57.3633C49.3792 57.3633 49.4527 58.9167 49.4527 59.3828V59.5996L49.3687 59.6357ZM46.7275 59.2563C47.2697 59.2455 47.784 59.2094 48.3507 59.1985C48.3402 58.6205 48.1198 57.9377 47.5811 57.9377C47.0668 57.9413 46.8534 58.5555 46.7275 59.2563Z" fill="#001F33"></path>
  <path d="M55.9028 62.3633C55.9028 62.3633 55.8655 62.2203 55.8655 62.0554C55.8655 61.2966 55.8888 60.3252 55.8888 59.5664C55.9028 58.6829 55.7443 58.2577 55.1569 58.2577C54.4576 58.2577 54.0334 58.4886 53.7024 58.7269C53.7024 59.1485 53.6791 60.6221 53.7397 61.6008C53.7536 61.8024 53.7863 62.147 53.8376 62.3596H52.1266L52.1406 62.0627L52.1872 59.0825C52.2012 58.0048 51.5625 57.9205 51.5625 57.9205V57.7482C51.8422 57.6125 52.2944 57.4109 52.8818 57.4109C53.3947 57.4109 53.6651 57.6895 53.7117 57.9571L53.6977 58.2284C54.1499 57.8618 54.8445 57.3633 55.7397 57.3633C56.7653 57.3633 57.4133 57.9388 57.4413 58.6316C57.4413 60.1712 57.3574 61.1609 57.5625 62.3633H55.9028Z" fill="#001F33"></path>
  <path d="M60.1023 57.1965H60.9052C61.017 57.1965 61.3033 57.1661 61.3625 57.0367C61.379 57.1052 61.3888 57.1965 61.3888 57.2764C61.3888 57.577 61.2605 57.8737 60.6452 57.8737C60.507 57.8737 60.2208 57.8433 60.076 57.8433V60.0881C60.076 60.655 60.0332 61.4654 60.6189 61.4654C60.9216 61.4654 61.4119 61.336 61.5172 61.0963C61.7508 61.7469 61.0434 62.3633 60.2734 62.3633C59.1942 62.3633 58.9869 61.7545 58.9869 60.7273C58.9869 60.0006 59.0725 59.2396 59.0725 58.5624C59.0725 58.3417 59.056 57.9651 58.9935 57.8737C58.8718 57.6949 58.7599 57.5922 58.5625 57.5123L58.6053 57.2117C58.6382 57.2117 59.0791 57.1927 59.5035 56.3633H60.1945L60.1023 57.1965Z" fill="#001F33"></path>
  <path d="M77.0671 57.091C77.2418 57.091 77.6889 57.0591 77.7814 56.9238C77.8071 56.9954 77.8225 57.091 77.8225 57.1746C77.8225 57.4892 77.6221 57.7998 76.6612 57.7998C76.4453 57.7998 76.1473 57.768 75.9212 57.768V58.3852C75.9212 59.4603 75.9469 61.6664 76.1524 62.3633H74.2665C74.2819 62.1443 74.3333 59.8984 74.3333 58.9785C74.3333 58.3732 74.3179 57.9432 74.21 57.8277C73.9119 57.4932 73.5625 57.4215 73.5625 57.4215L73.6293 57.1069C73.9119 57.087 74.3282 56.9397 74.3847 56.5136C74.6005 54.8093 75.9058 54.3633 76.9438 54.3633C77.9253 54.3633 78.5625 54.7615 78.5625 55.1995C78.5625 55.534 78.1976 55.753 77.7968 55.753C77.6221 55.753 77.4474 55.7132 77.2829 55.6176C77.3086 55.4185 77.1905 55.1278 76.6098 55.1278C76.0291 55.1278 75.8287 55.4942 75.8287 55.984C75.8287 56.0557 75.8441 56.1194 75.8441 56.1911L75.9109 56.8999C75.9109 56.9516 75.9109 57.0273 75.8955 57.087H77.0671V57.091Z" fill="#001F33"></path>
  <path d="M83.8934 56.8192C83.8934 56.0361 83.721 55.9102 83.5625 55.7253L83.6604 55.5089C83.6604 55.5089 84.1871 55.3633 84.7464 55.3633C85.026 55.3633 85.3569 55.3633 85.6879 55.4971C85.6273 56.3942 85.5667 58.0862 85.5667 59.5853C85.5667 60.2778 85.5667 61.112 85.604 61.6904H86.8251C87.3984 61.6904 88.0976 61.4543 88.1721 61.1435H88.4658C88.6476 61.5134 88.5637 62.0721 88.2933 62.3633H83.8701C83.8841 62.021 83.8934 61.6078 83.8934 56.8192Z" fill="#001F33"></path>
  <path d="M93.5625 61.8733V62.0807C93.3123 62.2202 92.7801 62.3633 92.3949 62.3633C91.9064 62.3633 91.5609 61.9412 91.5212 61.6766C91.2591 62.138 90.6237 62.3633 90.1471 62.3633C89.043 62.3633 88.5625 61.7338 88.5625 61.1258C88.5625 60.2066 89.5831 59.6737 90.7587 59.6737C90.9771 59.6737 91.1955 59.7023 91.3941 59.7488C91.406 59.5521 91.414 59.3554 91.414 59.1659C91.414 58.4899 91.2988 57.9176 90.6634 57.9176C90.2146 57.9176 89.9326 58.2467 90.0279 58.658C89.8492 58.7903 89.6427 58.8547 89.4442 58.8547C89.1225 58.8547 88.8405 58.6651 88.8405 58.3576C88.8405 57.7495 89.7658 57.3633 90.6634 57.3633C91.9144 57.3633 92.7245 57.8497 92.7245 58.8261C92.7245 59.1909 92.7047 59.4913 92.7047 60.2138C92.7047 60.5786 92.7047 61.3297 92.8318 61.5657C93.0224 61.8948 93.5307 61.8733 93.5625 61.8733ZM89.8016 60.9362C89.8016 61.369 90.155 61.6301 90.5085 61.6301C90.9255 61.6301 91.2789 61.4405 91.414 61.3583C91.3941 60.9362 91.3941 60.4498 91.3941 60.0814C90.9374 60.1029 89.8016 60.2066 89.8016 60.9362Z" fill="#001F33"></path>
  <path d="M98.8948 62.3633C98.8948 62.3633 98.8575 62.2203 98.8575 62.0554C98.8575 61.2966 98.8808 60.3252 98.8808 59.5664C98.8948 58.6829 98.7318 58.2577 98.1495 58.2577C97.4554 58.2577 97.0268 58.4886 96.696 58.7269C96.696 59.1485 96.6727 60.6221 96.7333 61.6008C96.7426 61.8024 96.7799 62.147 96.8311 62.3596H95.1215L95.1355 62.0627L95.1867 59.0825C95.2007 58.0048 94.5625 57.9205 94.5625 57.9205V57.7482C94.842 57.6125 95.2939 57.4109 95.8808 57.4109C96.3932 57.4109 96.6634 57.6895 96.71 57.9571L96.7007 58.2284C97.1526 57.8618 97.8467 57.3633 98.7411 57.3633C99.7659 57.3633 100.413 57.9388 100.441 58.6316C100.441 60.1712 100.358 61.1609 100.562 62.3633H98.8948Z" fill="#001F33"></path>
  <path d="M107.558 62.0515C107.31 62.1659 106.886 62.3633 106.325 62.3633C106.012 62.3633 105.562 62.1896 105.37 61.795C104.933 62.1383 104.415 62.3633 103.854 62.3633C102.697 62.3633 101.562 61.6687 101.562 59.8808C101.562 58.4837 102.53 56.8576 104.372 56.8576C104.71 56.8576 105.216 56.9721 105.216 56.9918C105.203 55.7091 105.237 55.0461 104.633 54.8606V54.6751C104.633 54.6751 105.186 54.3633 105.755 54.3633C106.363 54.3633 106.697 54.529 106.697 55.4723V55.6065C106.697 55.9183 106.586 57.6667 106.586 59.3638C106.586 61.4437 106.655 61.8068 107.562 61.8265V62.0515H107.558ZM105.164 61.4319L105.177 60.2399V57.6627C104.907 57.5996 104.582 57.5286 104.278 57.5286C103.301 57.5286 103.031 58.7402 103.031 59.5256C103.031 60.8596 103.614 61.6174 104.436 61.6174C104.693 61.6174 104.942 61.5739 105.164 61.4319Z" fill="#001F33"></path>
  <path d="M111.541 58.751C111.236 58.1144 110.426 57.9355 109.899 57.9355C109.457 57.9355 108.81 58.05 108.81 58.4792C108.81 59.2374 112.562 59.3697 112.562 60.8075C112.562 61.8125 111.389 62.3633 109.831 62.3633C108.562 62.3633 107.594 61.8196 107.594 61.2546C107.594 61.1222 107.636 61.0006 107.747 60.8897C107.805 61.3404 108.92 61.7445 109.789 61.7445C110.41 61.7445 111.099 61.6051 111.099 61.183C111.099 60.4606 107.562 60.339 107.562 58.8654C107.562 57.9463 108.61 57.3633 110.184 57.3633C111.178 57.3633 111.799 57.5779 112.147 57.7209C112.241 57.9355 112.284 58.4434 111.789 58.7903L111.541 58.751Z" fill="#001F33"></path>
  <path d="M122.562 61.8733V62.0807C122.312 62.2202 121.78 62.3633 121.395 62.3633C120.906 62.3633 120.561 61.9412 120.521 61.6766C120.259 62.138 119.624 62.3633 119.147 62.3633C118.043 62.3633 117.562 61.7338 117.562 61.1258C117.562 60.2066 118.583 59.6737 119.759 59.6737C119.977 59.6737 120.196 59.7023 120.394 59.7488C120.406 59.5521 120.414 59.3554 120.414 59.1659C120.414 58.4899 120.299 57.9176 119.663 57.9176C119.215 57.9176 118.933 58.2467 119.028 58.658C118.849 58.7903 118.643 58.8547 118.444 58.8547C118.122 58.8547 117.841 58.6651 117.841 58.3576C117.841 57.7495 118.766 57.3633 119.663 57.3633C120.914 57.3633 121.725 57.8497 121.725 58.8261C121.725 59.1909 121.705 59.4913 121.705 60.2138C121.705 60.5786 121.705 61.3297 121.832 61.5657C122.018 61.8948 122.531 61.8733 122.562 61.8733ZM118.802 60.9362C118.802 61.369 119.155 61.6301 119.508 61.6301C119.925 61.6301 120.279 61.4405 120.414 61.3583C120.394 60.9362 120.394 60.4498 120.394 60.0814C119.937 60.1029 118.802 60.2066 118.802 60.9362Z" fill="#001F33"></path>
  <path d="M127.179 62.3633C127.179 62.3633 127.148 62.2203 127.148 62.0554C127.148 61.2966 127.168 60.3252 127.168 59.5664C127.179 58.6829 127.043 58.2577 126.558 58.2577C125.975 58.2577 125.622 58.4886 125.346 58.7269C125.346 59.1485 125.326 60.6221 125.377 61.6008C125.388 61.8024 125.416 62.147 125.458 62.3596H124.033L124.044 62.0627L124.083 59.0825C124.095 58.0048 123.562 57.9205 123.562 57.9205V57.7482C123.796 57.6125 124.172 57.4109 124.662 57.4109C125.089 57.4109 125.315 57.6895 125.353 57.9571L125.342 58.2284C125.719 57.8618 126.301 57.3633 127.043 57.3633C127.898 57.3633 128.438 57.9388 128.461 58.6316C128.461 60.1712 128.392 61.1609 128.562 62.3633H127.179Z" fill="#001F33"></path>
  <path d="M135.562 62.0515C135.314 62.1659 134.89 62.3633 134.325 62.3633C134.012 62.3633 133.562 62.1896 133.37 61.795C132.933 62.1383 132.415 62.3633 131.854 62.3633C130.697 62.3633 129.562 61.6687 129.562 59.8808C129.562 58.4837 130.53 56.8576 132.372 56.8576C132.71 56.8576 133.216 56.9721 133.216 56.9918C133.203 55.7091 133.237 55.0461 132.633 54.8606V54.6751C132.633 54.6751 133.186 54.3633 133.755 54.3633C134.363 54.3633 134.697 54.529 134.697 55.4723V55.6065C134.697 55.9183 134.586 57.6667 134.586 59.3638C134.586 61.4437 134.655 61.8068 135.562 61.8265V62.0515ZM133.168 61.4319L133.181 60.2399V57.6627C132.912 57.5996 132.586 57.5286 132.282 57.5286C131.306 57.5286 131.036 58.7402 131.036 59.5256C131.036 60.8596 131.618 61.6174 132.44 61.6174C132.697 61.6174 132.946 61.5739 133.168 61.4319Z" fill="#001F33"></path>
  <path d="M141.823 62.3593L141.835 61.9525V56.7757C141.835 56.317 141.793 55.9062 141.562 55.635L141.651 55.4157L144.006 55.3638C145.185 55.3439 146.562 55.8783 146.562 57.5295C146.562 58.8376 145.253 59.7589 143.767 59.7589C143.624 59.7589 143.489 59.747 143.347 59.739C143.347 60.7839 143.359 61.8927 143.456 62.3633H141.823V62.3593ZM143.343 59.1048C143.477 59.1367 143.62 59.1367 143.75 59.1367C144.707 59.1367 145.16 58.4787 145.16 57.7648C145.16 56.8754 144.678 55.998 143.607 56.0498L143.384 56.0618C143.364 56.3649 143.363 57.0987 143.351 57.8286L143.343 59.1048Z" fill="#001F33"></path>
  <path d="M147.162 62.3633C147.162 61.7955 147.226 60.4036 147.226 59.0849C147.226 58.1252 146.731 57.9604 146.562 57.9237V57.7516C146.85 57.616 147.33 57.4146 147.954 57.4146C148.488 57.4146 148.77 57.6087 148.77 57.9897C148.77 58.019 148.716 58.2607 148.691 58.4402C148.884 58.0849 149.666 57.3633 150.483 57.3633C151.275 57.3633 151.562 57.7186 151.562 58.0263C151.562 58.3523 151.236 58.6527 150.721 58.6527C150.681 58.6527 150.632 58.6417 150.577 58.6417C150.498 58.3633 150.251 58.2571 149.978 58.2571C148.899 58.2571 148.756 59.1508 148.756 60.1105C148.756 61.0153 148.77 61.6197 148.924 62.3596H147.162V62.3633Z" fill="#001F33"></path>
  <path d="M152.562 59.942C152.562 58.4863 153.682 57.3633 155.235 57.3633C156.443 57.3633 157.562 58.1716 157.562 59.7739C157.562 61.133 156.466 62.3633 154.89 62.3633C152.613 62.3633 152.562 60.0922 152.562 59.942ZM153.945 59.5593C153.945 60.7896 154.464 61.8196 155.165 61.8196C155.715 61.8196 156.172 61.0865 156.172 60.0636C156.172 58.8619 155.583 57.9248 154.871 57.9248C154.209 57.9248 153.945 58.8833 153.945 59.5593Z" fill="#001F33"></path>
  <path d="M68.5625 59.942C68.5625 58.4863 69.6779 57.3633 71.2348 57.3633C72.4432 57.3633 73.5625 58.1716 73.5625 59.7739C73.5625 61.133 72.4665 62.3633 70.8902 62.3633C68.6129 62.3633 68.5625 60.0922 68.5625 59.942ZM69.9413 59.5557C69.9413 60.786 70.4603 61.8161 71.1613 61.8161C71.7112 61.8161 72.1682 61.0829 72.1682 60.06C72.1682 58.8583 71.5795 57.9212 70.8669 57.9212C70.2085 57.9248 69.9413 58.8833 69.9413 59.5557Z" fill="#001F33"></path>
  <path d="M159.118 65.3633C159.118 65.2148 159.141 64.6371 159.141 64.0674V62.9641C159.141 60.8698 159.178 59.1005 159.178 59.1005C159.164 58.4987 158.912 58.0814 158.562 57.9731V57.7845C158.562 57.7845 159.155 57.4154 159.84 57.4154C160.442 57.4154 160.685 57.7003 160.671 57.9531C160.984 57.6802 161.549 57.3633 162.091 57.3633C163.331 57.3633 164.562 58.2379 164.562 60.0554C164.562 61.4756 163.524 62.9721 161.503 62.9721C161.2 62.9721 160.938 62.928 160.671 62.8758C160.685 63.8347 160.671 64.6451 160.804 65.3593H159.118V65.3633ZM160.708 58.3663C160.685 59.2289 160.671 60.3041 160.671 61.6481L160.685 62.2379C160.974 62.3021 161.301 62.3422 161.636 62.3422C162.72 62.3422 162.973 61.1226 162.973 60.3442C162.973 59.0283 162.348 58.2178 161.466 58.2178C161.2 58.2178 160.91 58.282 160.708 58.3663Z" fill="#001F33"></path>
  <path d="M169.369 59.6357C169.187 59.7115 168.984 59.7296 168.754 59.7296L166.719 59.7007C166.73 59.8055 166.73 59.9464 166.73 60.0511C166.758 61.0374 167.419 61.5287 167.985 61.5287C168.415 61.5287 169.068 61.3662 169.526 60.6581C169.781 61.6985 168.645 62.3633 167.59 62.3633C166.534 62.3633 165.583 61.6985 165.562 60.0909C165.562 58.5663 166.377 57.3633 167.635 57.3633C169.376 57.3633 169.449 58.9167 169.449 59.3828V59.5996L169.369 59.6357ZM166.73 59.2563C167.272 59.2455 167.786 59.2094 168.352 59.1985C168.341 58.6205 168.121 57.9377 167.583 57.9377C167.069 57.9413 166.856 58.5555 166.73 59.2563Z" fill="#001F33"></path>
  <path d="M171.162 62.3633C171.162 61.7955 171.226 60.4036 171.226 59.0849C171.226 58.1252 170.731 57.9604 170.562 57.9237V57.7516C170.85 57.616 171.33 57.4146 171.954 57.4146C172.488 57.4146 172.77 57.6087 172.77 57.9897C172.77 58.019 172.721 58.2607 172.691 58.4402C172.884 58.0849 173.666 57.3633 174.483 57.3633C175.275 57.3633 175.562 57.7186 175.562 58.0263C175.562 58.3523 175.236 58.6527 174.721 58.6527C174.681 58.6527 174.632 58.6417 174.577 58.6417C174.498 58.3633 174.251 58.2571 173.978 58.2571C172.899 58.2571 172.756 59.1508 172.756 60.1105C172.756 61.0153 172.77 61.6197 172.924 62.3596H171.162V62.3633Z" fill="#001F33"></path>
  <path d="M177.616 57.1965H178.686C178.835 57.1965 179.217 57.1661 179.296 57.0367C179.318 57.1052 179.331 57.1965 179.331 57.2764C179.331 57.577 179.16 57.8737 178.339 57.8737C178.155 57.8737 177.774 57.8433 177.581 57.8433V60.0881C177.581 60.655 177.523 61.4654 178.304 61.4654C178.708 61.4654 179.362 61.336 179.502 61.0963C179.814 61.7469 178.87 62.3633 177.844 62.3633C176.405 62.3633 176.128 61.7545 176.128 60.7273C176.128 60.0006 176.242 59.2396 176.242 58.5624C176.242 58.3417 176.221 57.9651 176.137 57.8737C175.975 57.6949 175.826 57.5922 175.562 57.5123L175.62 57.2117C175.663 57.2117 176.251 57.1927 176.817 56.3633H177.738L177.616 57.1965Z" fill="#001F33"></path>
  <path d="M182.562 62.3633H180.306L180.386 59.0185C180.386 57.9186 179.581 57.8325 179.562 57.8325V57.6567C179.931 57.5183 180.528 57.3125 181.302 57.3125C182.224 57.3125 182.464 57.7353 182.464 58.2441C182.464 58.5471 182.384 58.9026 182.384 59.2655V60.227C182.384 60.9678 182.403 61.6637 182.562 62.3633ZM181.241 55.3633C181.819 55.3633 182.323 55.6663 182.323 56.0517C182.323 56.4146 181.825 56.7102 181.241 56.7102C180.626 56.7102 180.11 56.4146 180.11 56.0517C180.11 55.6701 180.626 55.3633 181.241 55.3633Z" fill="#001F33"></path>
  <path d="M188.32 59.6357C188.093 59.7115 187.839 59.7296 187.551 59.7296L185.006 59.7007C185.019 59.8055 185.019 59.9464 185.019 60.0511C185.054 61.0374 185.88 61.5287 186.589 61.5287C187.126 61.5287 187.944 61.3662 188.517 60.6581C188.836 61.6985 187.415 62.3633 186.099 62.3633C184.778 62.3633 183.584 61.6985 183.562 60.0909C183.562 58.5663 184.581 57.3633 186.156 57.3633C188.333 57.3633 188.425 58.9167 188.425 59.3828V59.5996L188.32 59.6357ZM185.014 59.2563C185.692 59.2455 186.335 59.2094 187.043 59.1985C187.03 58.6205 186.755 57.9377 186.081 57.9377C185.439 57.9413 185.176 58.5555 185.014 59.2563Z" fill="#001F33"></path>
  <path d="M192.746 58.751C192.501 58.1144 191.853 57.9355 191.432 57.9355C191.078 57.9355 190.56 58.05 190.56 58.4792C190.56 59.2374 193.562 59.3697 193.562 60.8075C193.562 61.8125 192.624 62.3633 191.377 62.3633C190.362 62.3633 189.588 61.8196 189.588 61.2546C189.588 61.1222 189.621 61.0006 189.71 60.8897C189.752 61.3404 190.649 61.7445 191.344 61.7445C191.84 61.7445 192.392 61.6051 192.392 61.183C192.392 60.4606 189.562 60.339 189.562 58.8654C189.562 57.9463 190.4 57.3633 191.659 57.3633C192.455 57.3633 192.952 57.5779 193.226 57.7209C193.301 57.9355 193.335 58.4434 192.939 58.7903L192.746 58.751Z" fill="#001F33"></path>
  <path d="M138.332 23.4692C138.167 21.8362 137.96 20.2075 137.74 18.5829C137.467 16.5679 137.182 14.5572 136.876 12.5464C136.655 11.0855 136.426 9.62467 136.145 8.17221C136.02 7.52994 135.99 6.92545 136.357 6.37553C136.603 6.00192 136.988 5.79202 136.526 4.81392C136.163 4.04152 135.156 1.7243 134.975 1.36328C134.689 1.40106 134.616 1.60256 134.542 1.79146C134.266 2.47571 133.989 3.16416 133.713 3.85261C133.627 4.0751 133.605 4.31438 133.739 4.52007C133.981 4.88948 133.985 5.30507 134.028 5.71646C134.128 6.67777 134.227 7.64328 134.37 8.60039C134.478 9.35601 134.655 10.099 134.78 10.8504C134.979 12.0342 135.169 13.2222 135.35 14.4102C135.558 15.7326 135.765 17.0591 135.947 18.3856C136.137 19.7583 136.301 21.1352 136.474 22.5121C136.595 23.4734 136.737 24.4347 136.837 25.4002C136.927 26.2986 136.997 27.1969 137.04 28.0953C137.092 29.1111 137.13 30.127 137.135 31.1429C137.135 31.8607 137.048 32.5702 136.759 33.246C136.409 34.0562 135.355 35.6262 135.191 35.7731C135.217 35.4499 135.225 35.2442 135.251 35.0385C135.329 34.3459 135.35 33.6574 135.268 32.9648C135.13 31.8146 134.841 30.7147 134.426 29.6233C133.596 27.4446 132.464 25.4254 131.237 23.4524C130.282 21.9118 129.202 20.4552 128.101 19.0111C127.746 18.5493 127.392 18.0876 127.029 17.6342C126.243 16.6561 125.456 15.6738 124.653 14.7083C123.819 13.705 122.951 12.7311 122.13 11.7152C121.192 10.5566 120.276 9.3812 119.373 8.1974C118.924 7.6055 118.526 6.97582 118.103 6.36293C117.952 6.14045 117.895 5.90956 117.969 5.6409C118.064 5.26309 118.189 4.87269 118.228 4.48649C118.245 4.32697 118.15 4.2724 118.034 4.18424C117.714 3.94497 117.442 3.61753 117.157 3.34047C116.85 3.04662 116.543 2.75697 116.254 2.44633C116.094 2.27841 115.943 2.1021 115.796 1.9216C115.675 1.77047 115.541 1.57317 115.338 1.527C115.148 1.48502 115.079 1.74529 115.048 1.87542C114.996 2.1063 114.958 2.34138 114.893 2.57227C114.789 2.95007 114.754 3.32368 114.694 3.70989C114.668 3.86521 114.582 4.14227 114.564 4.29759C114.551 4.41932 114.608 4.57884 114.69 4.6712C114.742 4.72997 115.511 5.71646 115.765 6.19922C116.206 7.06817 116.668 7.92454 117.243 8.71793C117.805 9.48614 118.349 10.2669 118.924 11.0226C119.827 12.2064 120.704 13.4111 121.676 14.5446C123.586 16.7736 125.448 19.0405 127.254 21.3535C127.954 22.2518 128.589 23.2006 129.25 24.1241C130.995 26.5504 132.482 29.1111 133.609 31.8691C134.093 33.0529 134.521 34.2409 134.62 35.5255C134.629 35.6388 134.655 35.7606 134.72 35.8529C134.789 35.9537 134.905 36.025 135.026 36.13C134.823 36.365 134.642 36.6085 134.43 36.8184C133.696 37.5362 132.991 38.2835 132.205 38.9425C131.112 39.8535 129.976 40.7182 128.753 41.4571C127.491 42.2211 124.26 43.8204 124.095 43.98C124.009 44.0681 124.039 44.215 124.147 44.2822C124.238 44.3368 124.372 44.3788 124.467 44.3578C124.964 44.2318 125.452 44.0807 125.949 43.9422C126.446 43.8037 126.96 43.7071 127.444 43.5308C128.273 43.2201 129.129 42.9599 129.945 42.5989C130.771 42.2379 131.376 41.9188 132.093 41.3941C132.888 40.8106 133.843 40.0969 134.443 39.3119C135.415 38.04 136.119 36.7261 136.72 35.2652C137.027 34.5222 137.269 33.9975 137.519 33.3426C137.96 32.1924 138.491 30.8071 138.535 29.5645C138.608 27.5285 138.535 25.4926 138.332 23.4692Z" fill="#001F33"></path>
  <path d="M142.871 16.0053C143.013 16.9106 143.135 17.8159 143.272 18.7211C143.413 19.6474 143.55 20.5737 143.691 21.5001C143.877 22.6537 144.067 23.8032 144.253 24.9569C144.404 25.8832 144.585 26.8053 144.687 27.7358C144.892 29.5758 144.99 31.4158 144.931 33.2642C144.887 34.4348 144.746 35.58 144.477 36.7211C144.394 37.0747 144.272 37.4284 144.175 37.7821C144.116 38.0053 144.189 38.599 144.58 38.2621C144.848 38.0263 145.224 37.0874 145.273 36.94C145.483 36.3295 145.668 35.7105 145.839 35.0916C146.122 34.0811 146.376 33.0579 146.508 32.0221C146.537 31.799 146.557 31.5716 146.562 31.3442C146.571 29.9758 146.498 28.6074 146.44 27.239C146.357 25.319 145.947 23.4327 145.663 21.5337C145.414 19.8369 145.146 18.1443 144.892 16.4474C144.76 15.5674 144.653 14.679 144.511 13.799C144.326 12.6496 144.111 11.5001 143.911 10.3506C143.701 9.13378 143.481 7.91694 143.291 6.69589C143.247 6.40537 143.223 6.08958 143.306 5.8159C143.442 5.378 143.638 4.94853 143.882 4.54853C144.043 4.29169 144.043 4.09801 143.896 3.8538C143.501 3.18433 143.13 2.50643 142.749 1.83275C142.486 1.36538 142.212 0.898017 141.905 0.363281C141.749 0.476965 141.666 0.510649 141.646 0.565386C141.304 1.28117 140.967 1.99696 140.65 2.71696C140.557 2.92748 140.504 3.16327 140.67 3.37801C140.948 3.7359 140.958 4.15695 141.021 4.55695C141.27 6.16116 141.485 7.76958 141.739 9.37378C141.919 10.5275 142.144 11.6727 142.344 12.8222C142.52 13.8875 142.705 14.9443 142.871 16.0053Z" fill="#001F33"></path>
  <path d="M109.792 4.66795C109.816 4.87685 109.828 5.09 109.848 5.2989C109.901 5.76358 109.942 6.22826 109.986 6.68868C109.986 6.70573 109.99 6.72704 109.99 6.7441C110.002 6.90183 110.023 7.05957 110.039 7.21304C110.071 7.56262 110.108 7.91219 110.148 8.25751C110.16 8.34703 110.168 8.44082 110.181 8.53035C110.185 8.56019 110.189 8.58577 110.193 8.61561C110.391 10.2995 110.638 11.975 110.906 13.6461C110.93 13.8124 110.954 13.9786 110.978 14.1449C111.08 14.8014 111.197 15.4622 111.311 16.1187C111.521 17.3678 111.736 18.6126 111.943 19.8617C112.21 21.4775 112.437 23.1017 112.627 24.7302C112.765 25.8983 112.894 27.0707 113 28.2388C113.085 29.2278 113.162 30.2211 113.186 31.2102C113.21 32.1992 113.15 33.5293 113.052 34.301C112.975 34.9532 112.769 36.0318 112.591 36.8887C112.57 36.9995 112.55 37.1104 112.542 37.2255C112.538 37.2638 112.57 37.3278 112.603 37.3406C112.663 37.3619 112.74 37.3747 112.789 37.3491C112.862 37.3065 112.931 37.234 112.971 37.1573C113.555 36.0957 113.992 34.9788 114.215 33.7638C114.373 32.8984 114.434 32.0244 114.498 31.1505C114.62 29.5518 114.559 27.9659 114.397 26.3758C114.235 24.7942 114.057 23.2126 113.875 21.6309C113.769 20.7357 113.664 19.8447 113.518 18.958C113.178 16.8903 112.805 14.827 112.465 12.7551C112.234 11.344 112.036 9.92865 111.821 8.5133C111.744 8.01025 111.708 7.49441 111.898 6.97857C112.113 6.40731 112.258 5.98526 112.546 5.50779C112.623 5.37563 112.595 5.24348 112.534 5.11132C111.983 3.90912 111.428 2.70691 110.873 1.50471C110.845 1.44929 110.8 1.4024 110.768 1.36403C110.549 1.35124 110.484 1.50471 110.42 1.64966C110.282 1.96513 110.144 2.27634 110.006 2.59181C109.869 2.90728 109.735 3.22275 109.601 3.53822C109.601 3.54249 109.597 3.54675 109.597 3.55101C109.569 3.62775 109.553 3.73007 109.569 3.81106C109.593 4.07964 109.707 4.39511 109.792 4.66795Z" fill="#001F33"></path>
  <path d="M117.51 21.0401C118.497 20.496 119.503 19.9725 120.504 19.4449C121.026 19.1687 121.557 18.909 122.089 18.6411C122.272 18.5504 122.441 18.4432 122.488 18.2578C122.559 17.9816 122.601 17.6972 122.512 17.3633C122.366 17.4251 122.253 17.4663 122.145 17.5199C121.426 17.8991 120.702 18.2701 119.987 18.6576C118.821 19.2924 117.674 19.9478 116.494 20.5661C115.906 20.8752 115.695 21.3493 115.568 21.881C115.54 21.9882 115.629 22.1201 115.699 22.3633C116.292 21.7656 116.884 21.3822 117.51 21.0401Z" fill="#001F33"></path>
  <path d="M110.016 19.8539C109.16 18.6856 108.017 17.9342 106.653 17.5259C106.068 17.3522 105.471 17.3087 104.882 17.439C103.747 17.6866 102.705 18.1731 101.781 18.8984C101.235 19.324 100.718 19.7931 100.218 20.2796C98.9136 21.5435 97.7742 22.9594 96.7279 24.4535C96.3594 24.979 95.9909 25.5046 95.6224 26.0345C94.6566 25.5306 93.9407 24.8183 93.4578 23.8715C93.2545 23.4763 93.0597 23.0767 92.8987 22.6641C92.7335 22.2297 92.4158 22.056 92.0049 22.0169C91.6322 21.9822 91.2806 22.0734 90.9375 22.2428C90.0649 22.6727 89.2685 23.2113 88.5442 23.8758C87.3031 25.0094 86.367 26.3559 85.8332 27.9716C85.5833 28.7273 85.4096 29.5091 85.219 30.2866C85.1385 30.6036 85.0962 30.9337 85.0623 31.2595C84.9776 32.0109 85.236 32.6363 85.7231 33.1923C86.2907 33.8394 87.0362 34.1348 87.8283 34.2998C88.8873 34.517 89.959 34.6342 91.0434 34.5821C91.2975 34.5691 91.5474 34.5517 91.8016 34.5517C92.2379 34.5517 92.6784 34.5257 93.1062 34.5821C93.5764 34.6429 94.0424 34.7732 94.4067 35.1598C94.2076 35.5073 93.8899 35.6549 93.6061 35.8417C92.204 36.7798 90.7384 37.6094 89.2643 38.4216C88.739 38.7126 88.218 39.008 87.6843 39.2773C84.7107 40.78 80.9196 41.9875 77.5775 41.4315C75.54 41.0971 73.7101 39.8679 72.4436 38.2131C72.3038 38.0307 72.2021 37.8179 72.0624 37.5877C72.3165 37.414 72.5452 37.2663 72.7655 37.1056C73.2653 36.7321 73.4602 36.6278 73.977 36.276C75.108 35.5073 76.438 34.6299 77.4335 33.6917C77.7384 33.4051 77.9799 33.0707 78.1959 32.7015C78.5856 32.0239 78.9626 31.1466 79.1532 30.3952C79.2507 30.0086 79.3904 29.6264 79.4328 29.2312C79.509 28.5319 79.7039 27.9716 79.7081 27.268C79.7166 25.6566 79.382 24.1321 78.4882 22.7813C78.1917 22.334 77.8274 21.9387 77.5012 21.5131C77.1962 21.1135 76.7811 20.8572 76.3745 20.5966C75.7899 20.2188 75.1715 20.184 74.5361 20.4533C73.2781 20.9919 72.4394 21.9387 71.9734 23.233C71.8379 23.6066 71.7574 24.0018 71.6684 24.3927C71.6176 24.6186 71.5837 24.8531 71.5837 25.0876C71.5795 25.7999 71.732 26.4731 72.1047 27.0161C71.931 27.2767 71.7531 27.4678 71.6557 27.698C71.0839 29.0357 70.5967 30.4039 70.3214 31.8415C70.1859 32.5581 70.1266 33.2835 70.0715 34.0132C70.0249 34.6516 69.9741 35.2727 70.0503 35.9068C70.0715 36.0893 70.1138 36.2847 70.1138 36.4888C69.9868 36.5844 69.8682 36.693 69.7284 36.7712C69.0464 37.1577 68.3729 37.566 67.6697 37.9048C65.8864 38.7691 64.0989 39.6204 62.2986 40.4413C60.096 41.4489 52.8865 43.4729 52.573 44.081C52.5307 44.1635 52.6239 44.3633 52.7128 44.3633C52.8272 44.3633 52.9416 44.3459 53.0517 44.3329C56.9995 43.7596 60.8966 43.4425 64.6114 41.8268C66.4879 41.0102 70.4231 38.6996 70.5883 38.6344C70.6857 38.8169 70.7577 38.9602 70.8382 39.1035C71.3041 39.9678 71.9776 41.0884 72.6554 41.8007C75.8958 45.2102 81.0382 44.2981 84.9225 42.7997C87.1125 41.9571 89.0906 40.8148 91.1323 39.6638C91.7974 39.2903 92.4412 38.895 93.0385 38.4129C93.5807 37.9786 94.2669 37.5356 94.6862 36.971C95.2284 36.25 95.6435 35.3987 95.8299 34.5213C95.8935 34.2303 95.8807 33.9089 95.8553 33.6092C95.8214 33.2314 95.5969 32.8101 95.4402 32.5885C95.275 32.3583 94.9616 32.0326 94.5549 31.898C93.8899 31.6764 93.2121 31.5939 92.5175 31.646C91.5559 31.7199 90.5944 31.7068 89.6328 31.62C88.7348 31.5418 87.8665 31.3507 87.0955 30.8208C86.5237 30.4256 86.4051 29.9131 86.5406 29.4309C86.6846 28.9097 86.8753 28.4798 87.1972 27.9672C87.3836 27.6719 87.6208 27.407 87.8495 27.1464C88.612 26.2777 89.5354 25.6305 90.552 25.1137C90.84 24.966 91.3822 24.7966 91.6787 25.0225C91.6787 25.0225 92.1108 25.9867 92.4624 26.5166C92.7504 26.9162 93.4536 27.8413 94.0212 28.2669L93.7374 29.0748C93.7374 29.0748 92.8902 31.1248 93.5553 31.1943L95.1013 28.9054C95.5165 28.9879 95.9316 29.0574 96.3467 29.1269C97.1769 29.2659 98.0072 29.4223 98.8543 29.4744C99.4177 29.5091 99.9853 29.5222 100.549 29.5048C100.981 29.4918 101.43 29.5004 101.858 29.4353C102.696 29.3137 103.522 29.1009 104.331 28.8316C104.924 28.6318 105.496 28.3929 106.064 28.1366C106.814 27.7979 107.538 27.3896 108.224 26.9335C108.538 26.7251 108.847 26.5079 109.139 26.269C109.279 26.1561 109.419 25.8738 109.508 25.7131C109.872 25.0616 110.101 24.7098 110.287 23.9714C110.486 23.1896 110.567 22.4035 110.562 21.5956C110.545 20.8746 110.418 20.4012 110.016 19.8539ZM75.3833 23.5067C75.3833 23.5067 76.5609 24.3449 77.0438 25.092C77.0438 25.092 74.3794 25.0572 73.6805 24.8401C73.6805 24.8401 72.8884 24.5013 72.8418 24.3319C72.8418 24.3362 73.7143 22.625 75.3833 23.5067ZM71.1093 31.3333C71.2702 30.595 72.0031 28.4494 72.0031 28.4494C72.3843 27.3635 72.2233 27.0682 72.2233 27.0682C73.3501 27.9499 74.9597 27.7675 74.9597 27.7675C77.5097 27.4113 78.3188 28.9011 78.3188 28.9011C79.2591 30.1085 77.3022 31.4549 77.3022 31.4549C77.3022 31.4549 75.1884 33.088 74.4006 33.6353C73.0578 34.5734 71.2745 35.4942 71.2745 35.4942C70.6645 34.6429 70.8848 32.3497 71.1093 31.3333ZM108.288 24.3884C106.559 25.2657 102.832 26.4297 100.934 26.7902C99.8837 26.99 97.6598 26.9813 96.6983 26.2994C96.6983 26.2994 101.586 18.16 106.085 20.1319C107.11 20.5793 108.724 21.6347 109.499 23.068C109.503 23.068 109.656 23.6934 108.288 24.3884Z" fill="#001F33"></path>
  <path d="M124.149 26.6618L124.183 26.6281C124.183 26.6281 124.346 26.0596 124.4 25.8996C124.4 25.8996 124.463 25.4406 124.409 25.3732L123.61 24.3963L122.924 23.4109C122.632 23.2509 122.552 23.5456 122.552 23.5456C122.569 23.6509 122.494 23.8657 122.494 23.8657L122.381 24.2489L122.063 25.9459C122.03 26.047 122.009 26.1523 122.009 26.2323C122.009 26.2449 122.009 26.2617 122.009 26.2702C121.988 26.2786 122.632 27.0113 122.694 27.2977L123.706 29.7443L125.102 32.1951C125.102 32.1951 125.295 32.4941 125.295 32.5025C125.508 33.1426 125.629 33.5637 125.629 33.5637C125.659 34.2753 124.107 35.8545 124.107 35.8545C121.787 38.3305 117.949 40.2802 117.949 40.2802C113.551 42.6468 111.135 41.2614 111.135 41.2614C108.246 39.7918 108.606 36.305 108.606 36.305C108.53 35.7829 109.852 31.4708 109.852 31.4708C109.513 30.119 108.309 34.1448 108.309 34.1448C106.703 38.3853 108.188 41.3751 108.188 41.3751C110.261 45.0976 114.082 44.2891 114.082 44.2891C119.036 43.7585 124.618 37.6147 124.618 37.6147C126.658 35.606 126.557 31.635 126.557 31.635C126.683 31.0876 124.48 27.2303 124.149 26.6618Z" fill="#001F33"></path>
  <path d="M193.535 32.5678C193.43 31.4249 193.099 30.4973 192.192 29.7229C191.546 29.1763 190.908 28.7208 190.132 28.3563C189.347 27.9878 188.47 27.5737 187.728 27.1306C186.506 26.4101 185.269 25.6025 184.278 24.5673C184.094 24.3768 183.926 24.1656 183.77 23.9503C183.678 23.8302 183.682 23.6894 183.67 23.5444C183.657 23.3829 183.649 23.2214 183.661 23.0641C183.682 22.7659 183.498 22.6086 183.208 22.4636C182.621 22.1696 182.037 21.9046 181.542 21.4408C181.509 21.4118 181.479 21.3911 181.442 21.3787C181.349 21.3455 181.144 21.3621 181.097 21.4656C181.085 21.4946 181.085 21.5402 181.081 21.5692C181.051 21.7555 181.035 21.9419 181.043 22.1323C181.068 22.6541 181.106 23.1966 181.156 23.7018C181.165 23.7888 181.169 23.8799 181.186 23.9668C181.198 24.0372 181.215 24.0621 181.282 24.0911C181.572 24.2277 181.802 24.4596 182.008 24.7039C182.067 24.7743 182.126 24.8489 182.184 24.9193C183.086 26.0663 184.064 27.2134 185.222 28.1369C186.339 29.0272 187.593 29.7312 188.844 30.4145C189.729 30.899 190.669 31.3048 191.483 31.9094C191.701 32.075 191.907 32.2531 192.096 32.4518C192.289 32.6589 192.478 32.8701 192.625 33.1144C192.683 33.2179 192.86 33.4913 192.793 33.6113C192.289 34.5596 183.179 40.4979 179.998 41.4669C178.936 41.7899 177.74 41.351 177.329 41.086C176.855 40.7837 176.565 40.3488 176.414 39.8395C176.263 39.3426 176.205 38.7628 176.322 38.2328C176.511 37.3921 176.721 36.5474 176.893 35.7067C176.939 35.4872 176.96 35.3299 176.973 35.1063C176.977 35.0607 176.897 34.9779 176.851 34.9696C176.771 34.9613 176.645 34.9696 176.603 35.0234C176.524 35.127 176.477 35.2595 176.44 35.3879C176.133 36.4107 175.923 37.4087 175.714 38.4522C175.512 39.4709 175.504 40.5228 175.739 41.5208C176.024 42.7424 176.771 43.6658 177.938 44.1917C178.336 44.3698 178.861 44.3947 179.268 44.3325C179.717 44.2621 180.183 44.1172 180.594 43.935C181.366 43.5954 182.092 43.1896 182.831 42.7796C183.691 42.3034 184.501 41.7816 185.34 41.2723C185.944 40.9079 186.54 40.5352 187.132 40.1542C187.765 39.7442 188.378 39.3094 189.007 38.9036C190.14 38.1748 191.282 37.4501 192.281 36.5474C192.721 36.1498 193.061 35.7357 193.242 35.1477C193.506 34.3029 193.619 33.4623 193.535 32.5678Z" fill="#001F33"></path>
  <path d="M166.299 36.3054C166.757 35.687 167.112 34.9626 167.32 34.216C167.54 33.4253 167.64 32.5949 167.661 31.7733C167.67 31.358 167.545 29.7546 167.614 29.7457C170.158 29.4498 170.988 28.6237 171.546 25.271C171.598 24.9662 171.512 24.5421 171.486 24.2285C171.473 24.0606 171.425 23.8972 171.403 23.7293C171.274 22.7752 170.863 21.9315 170.326 21.1496C170.153 20.8934 169.902 20.6549 169.664 20.4561C169.513 20.3236 169.245 20.3015 169.193 20.6019C169.072 21.3131 168.968 22.0199 168.877 22.7355C168.855 22.9298 168.855 23.1065 169.007 23.2567C169.483 23.7249 169.872 24.3522 170.188 24.9485C170.279 25.112 170.395 25.3593 170.452 25.5095C169.496 26.7375 167.562 27.2499 165.94 26.3356C165.641 25.8276 165.356 25.2754 165.074 24.7983C164.984 24.6437 164.958 24.5421 164.767 24.5731C164.577 24.604 164.521 24.7012 164.469 24.8646C164.452 24.9088 164.447 24.9574 164.434 25.0059C164.309 25.5979 164.114 26.2781 163.984 26.8656C163.932 27.0953 164.006 27.2809 164.118 27.4796C164.646 28.394 165.139 29.2686 165.663 30.183C166.082 30.9207 166.316 31.7114 166.58 32.511C166.688 32.8334 166.736 33.1205 166.524 33.3767C166.26 33.7036 166.013 34.0393 165.728 34.3441C165.252 34.8477 164.689 35.2894 164.162 35.74C161.904 37.6527 159.282 39.1413 156.669 40.4135C153.948 41.7387 151.153 42.9976 148.316 44.0401C147.918 44.1859 147.511 44.3184 147.109 44.4598C146.845 44.5525 146.667 44.7248 146.581 44.9987C146.512 45.224 146.646 45.4006 146.866 45.3565C147.442 45.2284 151.352 44.5437 152.741 44.4068C155.981 44.0887 159.04 42.0214 161.696 40.2191C163.262 39.159 165.087 37.931 166.299 36.3054Z" fill="#001F33"></path>
  <path d="M156.354 23.7761C156.256 23.9061 156.163 24.0362 156.061 24.1622C156.043 24.1866 154.504 22.9305 154.375 22.8086C153.976 22.4509 153.506 22.1338 153.581 21.5728C153.626 21.2476 153.391 21.0932 153.111 20.9102C152.499 20.5159 151.936 20.0444 151.341 19.6216C151.248 19.5566 151.16 19.4753 151.058 19.4184C150.916 19.3412 150.685 19.4143 150.627 19.5525C150.592 19.6338 150.565 19.7233 150.565 19.8086C150.561 20.3655 150.561 20.9184 150.574 21.4753C150.583 21.7273 150.698 21.9265 150.929 22.0972C151.226 22.3208 151.528 22.5688 151.741 22.8574C152.481 23.8574 153.386 24.7232 154.327 25.5606C154.5 25.715 154.659 25.8736 154.846 26.0484C154.979 26.1785 154.331 27.1297 154.256 27.2638C153.932 27.8329 153.635 28.4101 153.386 29.0077C152.752 30.5727 152.082 34.0564 153.24 34.906C154.588 35.8938 156.474 35.1051 157.6 34.2027C158.789 33.2556 160.004 31.9467 160.208 30.4711C160.43 28.8898 160.035 27.215 158.705 26.1215C158.399 25.8695 158.022 25.6338 157.711 25.3817C157.374 25.1094 157.361 25.0606 157.578 24.711C158.607 23.0606 159.769 21.4753 160.705 19.7802C160.932 19.3696 161.1 18.9184 161.229 18.4713C161.375 17.9794 161.45 17.4713 161.544 16.9672C161.57 16.8168 161.566 16.6583 161.548 16.5038C161.544 16.451 161.473 16.3737 161.419 16.3656C161.335 16.3575 161.211 16.3697 161.167 16.4184C161.073 16.516 161.011 16.642 160.954 16.7599C160.293 18.1217 159.485 19.4184 158.62 20.6785C158.456 20.9062 156.993 22.9143 156.354 23.7761ZM159.401 29.9792C159.406 30.0686 159.321 30.2109 159.25 30.2841C158.643 30.902 157.729 31.5767 156.93 32.028C156.238 32.4141 155.094 32.9588 154.265 32.6499C153.377 32.3206 153.644 31.4914 153.861 30.902C154.287 29.7312 155.156 28.341 155.906 27.1459C155.937 27.0931 156.017 26.9996 156.065 26.9589C156.851 27.4061 157.538 27.9955 158.208 28.5443C158.665 28.9183 159.383 29.5361 159.401 29.9792Z" fill="#001F33"></path>
  <path d="M177.754 25.2229C178.043 27.3784 178.324 29.5717 178.223 31.7483C178.201 32.181 178.201 32.6096 178.201 33.0424C178.201 33.4122 178.42 33.4878 178.6 33.1348C179.038 32.2693 179.327 31.3365 179.455 30.3785C179.722 28.2902 179.437 26.1515 179.2 24.0758C179.086 23.0716 178.933 22.0716 178.762 21.0757C178.679 20.5925 178.596 20.1051 178.517 19.6219C178.433 19.1513 178.258 18.6219 178.258 18.1429C177.601 14.5294 176.926 10.899 176.093 7.31913C176.014 6.97878 175.949 6.63003 176.028 6.28549C176.111 5.91153 176.4 5.62581 176.413 5.23504C176.444 4.49973 175.725 3.65938 175.418 3.0081C175.234 2.61734 175.033 2.22237 174.892 1.8148C174.853 1.70555 174.581 1.13831 174.428 1.46185C174.152 2.04169 173.928 2.66776 173.683 3.26021C173.354 4.06695 173.779 4.79806 173.998 5.6006C174.244 6.49558 174.388 7.40736 174.551 8.31915C174.884 10.1973 175.366 12.0503 175.729 13.9243C176.461 17.6765 177.246 21.4371 177.754 25.2229C177.912 26.3826 177.592 23.9918 177.754 25.2229Z" fill="#001F33"></path>
  <path d="M172.794 36.7015C171.801 37.3102 170.804 37.9234 169.818 38.5456C168.539 39.3528 167.255 40.1599 165.992 40.9895C165.244 41.481 164.525 42.0221 163.789 42.5361C162.91 43.1539 162.64 44.1188 162.563 45.1829C162.559 45.2235 162.596 45.2731 162.628 45.3633C162.722 45.3182 162.865 45.2956 162.89 45.2235C163.115 44.5426 163.638 44.209 164.149 43.8528C164.697 43.4695 165.232 43.0682 165.788 42.6985C167.01 41.8868 168.241 41.0932 169.463 40.2906C169.712 40.1283 169.945 39.9344 170.199 39.7811C171.192 39.1724 172.193 38.5727 173.244 37.9414C173.416 37.486 173.604 36.9675 173.555 36.3633C173.252 36.4039 173.023 36.5572 172.794 36.7015Z" fill="#001F33"></path>
  <path d="M102.273 40.8137C102.524 40.9997 102.632 41.2926 102.515 41.4647L101.307 43.2364C101.19 43.4131 100.885 43.4038 100.633 43.2178L98.8548 41.9111C98.5988 41.7251 98.491 41.4321 98.6123 41.2601L99.8205 39.4884C99.9418 39.3163 100.243 39.321 100.494 39.507L102.273 40.8137Z" fill="#001F33"></path>
  <path d="M98.2709 41.8119C98.5225 41.998 98.6348 42.2912 98.5135 42.4633L97.305 44.2363C97.1882 44.4131 96.8827 44.4038 96.6312 44.2177L94.8522 42.9147C94.6006 42.7286 94.4928 42.4354 94.6096 42.2632L95.818 40.4903C95.9393 40.3135 96.2403 40.3228 96.4919 40.5089L98.2709 41.8119Z" fill="#001F33"></path>
  <path d="M25.1736 27.496C25.0193 26.1446 24.8607 24.7974 24.6978 23.4503C24.582 22.5153 24.4406 21.5804 24.3249 20.6455C24.1234 19.0008 23.9305 17.3562 23.7333 15.7116C23.6819 15.2993 23.6304 14.8914 23.5704 14.4792C23.4118 13.387 23.2918 12.2863 23.0689 11.2069C22.8631 10.1912 22.756 9.16279 22.6017 8.13861C22.5888 8.04937 22.6017 7.95588 22.6231 7.86663C22.7131 7.41617 22.7903 6.96145 22.906 6.51948C22.9746 6.256 22.9532 6.03502 22.8374 5.78853C22.3402 4.72611 21.8601 3.65519 21.3714 2.58852C21.3371 2.51202 21.26 2.45677 21.1785 2.36328C21.0714 2.49502 20.9556 2.58427 20.9128 2.70326C20.6813 3.28122 20.4713 3.86342 20.2569 4.44563C20.1755 4.66662 20.1498 4.8961 20.2398 5.12133C20.3427 5.37631 20.3512 5.66529 20.437 5.91178C20.7456 6.81696 20.797 7.76039 20.9256 8.69108C21.0242 9.39652 21.0971 10.1062 21.2043 10.8117C21.2814 11.3344 21.4057 11.8486 21.4829 12.3713C21.7315 14.0542 21.9844 15.7413 22.2073 17.4284C22.4173 19.0476 22.5845 20.671 22.786 22.2943C22.9532 23.6415 23.1461 24.9844 23.3218 26.3316C23.4461 27.292 23.5704 28.2482 23.6776 29.2086C23.8019 30.305 23.8962 31.4057 24.0291 32.5021C24.1148 33.2373 24.132 33.9683 24.1234 34.7374C23.5318 35.3324 22.9274 35.8381 22.2888 36.3013C21.2043 37.0875 20.0983 37.844 18.9367 38.5239C14.9288 40.874 7.95029 43.7256 4.02811 40.1261C2.33064 38.5707 1.65337 37.1768 1.57621 35.7531C1.50334 34.3805 1.6748 33.1608 2.20205 31.8179C2.28778 31.6012 2.61356 30.7172 2.55783 30.6662C2.21062 30.3305 1.94486 31.2527 1.87199 31.4142C1.77768 31.6352 1.68338 31.8562 1.59336 32.0771C1.40904 32.5234 1.24186 32.9738 1.10041 33.4328C0.817498 34.3465 0.633177 35.2942 0.577452 36.2503C0.483148 37.9545 0.826071 39.6586 1.85913 41.0525C2.5664 42.0129 3.38942 42.8969 4.46534 43.4493C7.38018 44.9537 10.9937 44.3927 13.9557 43.2623C15.7604 42.5739 17.4493 41.5965 19.0824 40.5808C21.8858 38.8342 25.0321 36.5138 25.4608 33.6878C25.6451 32.4681 25.5422 31.2527 25.4394 30.0373C25.3622 29.1873 25.2679 28.3417 25.1736 27.496Z" fill="#001F33"></path>
  <path d="M46.458 34.4343C46.2186 33.3486 45.9535 32.3577 45.1496 31.5736C44.8161 31.2547 44.474 31.1729 44.0806 31.3883C43.6701 31.6123 43.3066 31.8924 42.9988 32.2672C42.4557 32.9307 42.1136 33.7062 41.7801 34.4817C41.1943 35.8432 40.9249 37.2735 40.8009 38.747C40.7795 38.971 40.7582 39.3846 40.7325 39.4449C39.3813 39.6517 38.4705 39.4579 37.3716 38.6953C36.8414 38.3248 36.4651 37.8379 36.1016 37.308C35.4602 36.3774 35.0497 35.3692 34.9086 34.2404C34.8659 33.913 34.7974 33.5856 34.7504 33.2538C34.6221 32.3146 34.4639 31.3797 34.3784 30.4318C34.0492 26.6534 34.1389 22.8491 33.7798 19.0707C33.4505 15.6412 32.125 4.21111 31.7145 2.11294C31.6674 1.88459 31.5947 1.45807 31.4494 1.4753C31.3254 1.48822 31.227 1.64763 31.1928 1.75534C31.0047 2.38867 30.8336 3.03062 30.6797 3.67257C30.5899 4.03878 30.483 4.41791 30.4915 4.78843C30.5044 5.45192 30.5899 6.1111 30.6626 6.77028C30.8422 8.42039 32.3345 22.6897 32.4585 24.9559C32.5312 26.2269 32.5868 27.4978 32.6338 28.7688C32.6808 30.1216 32.9288 31.6253 32.6937 32.9652C32.5739 33.633 31.8684 34.9341 31.3596 35.8044C31.3596 35.7828 31.3596 35.757 31.3638 35.7354C31.4878 35.0461 31.0688 31.2849 30.9063 30.6386C30.6412 29.6003 30.2264 28.6223 29.7732 27.6573C28.5118 24.9688 27.0708 22.4872 25.3732 20.0788C24.518 18.8682 23.6286 17.6791 22.7734 16.4684C21.7172 14.9691 20.6696 13.4526 19.6306 11.9403C18.925 10.9106 18.2238 9.87662 17.5353 8.83399C17.0821 8.14465 16.6588 7.43377 16.2055 6.74874C15.9874 6.42131 15.8763 6.07664 15.8763 5.68457C15.8805 5.2365 15.872 4.78413 15.872 4.34898C15.5598 4.00862 15.2691 3.67687 14.9698 3.34944C14.6533 3.00477 14.3412 2.64717 14.0034 2.32836C13.687 2.03539 13.5544 1.55285 13.0798 1.36328C13.0156 1.51407 12.9387 1.63471 12.9173 1.76396C12.7933 2.51362 12.6864 3.26327 12.5709 4.01724C12.5367 4.24127 12.6094 4.42653 12.7377 4.61179C12.9472 4.92199 13.1439 5.24512 13.3235 5.57687C13.7254 6.32221 14.0846 7.10203 14.5208 7.82583C15.4316 9.34238 16.3466 10.8589 17.3258 12.3281C18.6856 14.3659 20.1052 16.3607 21.5034 18.3727C21.8926 18.9328 22.2859 19.4929 22.6922 20.0401C24.0476 21.8797 25.3732 23.7366 26.5961 25.6754C27.678 27.3944 28.67 29.1609 29.5166 31.0135C30.2649 32.6463 30.7096 34.3525 30.7438 36.162C30.7481 36.3472 30.7695 36.5239 30.8379 36.6919C30.282 38.0189 27.3658 40.2937 27.3658 40.2937C25.7922 41.6077 21.2554 44.3608 20.7338 44.6796C20.5071 44.8218 20.3318 44.9941 20.2549 45.2612C20.148 45.6447 22.7734 44.8304 23.0727 44.7399C23.6842 44.559 25.2663 44.2574 26.6731 43.4086C28.3322 42.4091 29.8245 40.815 30.235 40.1731C31.0517 38.8935 31.5947 37.9844 32.1806 36.7781C32.5483 36.0198 32.8562 35.3477 33.1042 34.5377C33.1769 34.2964 33.2367 34.0509 33.3522 33.6416C33.4548 34.0638 33.5232 34.3094 33.5745 34.5636C33.8525 35.9595 34.1176 37.3554 34.7162 38.6608C35.3747 40.0955 36.1016 41.0046 37.5811 41.6508C38.3166 41.974 39.0734 42.1377 39.873 42.1377C40.121 42.1377 40.3776 42.0731 40.6341 42.2195C40.6513 42.31 40.6812 42.3962 40.6897 42.4867C40.7325 43.1028 40.7582 43.7188 40.8137 44.3349C40.8351 44.5374 40.9035 44.7529 40.9976 44.9295C41.1088 45.1277 41.4124 45.1061 41.5193 44.908C41.6305 44.6968 41.6903 44.4814 41.6775 44.2272C41.6476 43.6585 41.6561 43.0898 41.6604 42.5168C41.6647 42.31 41.6262 42.086 41.8186 41.9007C42.5712 41.7801 43.3964 41.4182 44.0378 40.9916C44.7263 40.5393 45.4917 39.5484 45.791 38.9409C45.885 38.7513 46.0817 38.3205 46.1459 38.118C46.411 37.2304 46.7317 35.6967 46.458 34.4343ZM45.2779 37.7216C44.9358 37.9758 44.4911 38.2343 44.2003 38.3592C43.7599 38.5488 42.755 38.8547 42.3702 38.9409C42.1478 38.9926 41.6262 39.1606 41.4209 38.9796C41.2798 38.8547 41.686 37.2994 41.7331 37.1227C41.9041 36.442 42.135 35.7613 42.4942 35.1581C42.7593 34.71 43.1784 34.1543 43.7471 34.15C44.2987 34.1457 44.6707 34.6842 44.8759 35.1452C45.1539 35.7699 45.265 36.4722 45.2864 37.1529C45.2821 37.2304 45.3292 37.6828 45.2779 37.7216Z" fill="#001F33"></path>
  <path d="M43.5625 45.1664C43.7257 45.008 43.8632 44.7983 44.0565 44.6956C45.3666 43.9936 46.7368 43.3944 47.9997 42.6154C50.1302 41.2929 52.2522 39.9403 54.2667 38.4466C55.4952 37.5349 56.4059 36.2252 56.8655 34.7613C57.1748 33.7769 57.1791 32.6726 57.1748 31.624C57.1576 27.6306 56.3543 23.7185 55.7959 19.7851C55.3277 16.4808 54.8724 13.1722 54.4514 9.85939C54.2539 8.31853 54.1551 6.76484 54.0133 5.2197C54.0047 5.1127 54.009 4.99713 53.9618 4.90725C53.6138 4.26095 53.7814 3.68741 54.1465 3.09674C54.4772 2.56173 54.7349 1.97962 55.0571 1.36328C55.1559 1.48741 55.259 1.56017 55.2933 1.66289C55.6928 2.73721 56.0236 3.84149 56.4918 4.88585C56.8225 5.62632 56.5734 6.17846 56.2641 6.81192C56.0751 7.20141 55.9205 7.69363 55.972 8.10881C56.4016 11.473 56.8784 14.8287 57.3552 18.1886C57.9007 22.0193 58.5794 25.8372 58.5622 29.7279C58.5536 32.3045 57.9823 34.7485 56.9943 37.1283C55.9591 39.6236 54.2152 41.4983 52.0245 42.9835C50.65 43.9166 49.0392 44.229 47.4241 44.5073C46.6595 44.6399 45.9035 44.8283 45.1432 45.0037C44.6664 45.115 44.1939 45.2434 43.7171 45.3633C43.6656 45.2905 43.614 45.2306 43.5625 45.1664Z" fill="#001F33"></path>
  <path d="M53.0175 37.3633C52.9525 37.1546 52.8961 37.0415 52.8874 36.9241C52.6705 34.015 51.5729 31.4147 50.2412 28.8579C47.8682 24.3052 44.5192 20.4873 41.3221 16.5477C38.9361 13.6082 36.6456 10.5948 34.6328 7.3814C33.9691 6.3204 33.2923 5.2681 32.6286 4.2071C32.5765 4.12448 32.5505 4.00273 32.5679 3.90707C32.698 3.14611 32.8412 2.38949 32.9886 1.63288C33.006 1.55461 33.0797 1.48504 33.1622 1.36328C33.314 1.48504 33.4528 1.5807 33.5786 1.6981C34.3551 2.43298 35.1403 3.1635 35.8952 3.92011C36.06 4.08535 36.1337 4.34625 36.2465 4.56367C36.2552 4.57671 36.2509 4.59845 36.2465 4.61585C35.9125 5.81164 36.4895 6.72915 37.1705 7.60751C39.5955 10.7209 41.9901 13.8604 44.4628 16.9347C47.1568 20.283 49.6772 23.7355 51.586 27.6143C52.7616 30.0015 53.4643 32.4888 53.5554 35.1587C53.5771 35.8544 53.5685 36.511 53.2344 37.1328C53.2041 37.185 53.1477 37.2285 53.0175 37.3633Z" fill="#001F33"></path>
  <path d="M61.7806 1.36328C62.3366 2.65957 62.8673 3.81422 63.3221 4.99462C63.4358 5.29079 63.4106 5.74578 63.2674 6.02907C62.9052 6.7459 62.8336 7.45843 62.9431 8.23535C63.3811 11.3387 63.8318 14.4421 64.215 17.5541C64.6783 21.3142 65.1374 25.0786 65.4743 28.8515C65.6891 31.2424 65.5375 33.6375 64.7289 35.9382C64.5772 36.3675 64.3666 36.7795 64.1518 37.183C64.1013 37.2774 63.9328 37.3075 63.8191 37.3633C63.7812 37.2388 63.6886 37.1015 63.7138 36.9898C64.6615 32.9722 64.0381 28.9803 63.5117 24.9927C62.8925 20.3055 62.1723 15.6268 61.5279 10.9438C61.2584 8.98222 61.0731 7.01202 60.8456 5.04612C60.8414 4.99462 60.8498 4.92594 60.8204 4.8916C60.2518 4.14902 60.7698 3.49658 60.9846 2.82268C61.0899 2.48788 61.2078 2.15307 61.3552 1.83544C61.4395 1.6895 61.5953 1.57361 61.7806 1.36328Z" fill="#001F33"></path>
  <path d="M5.5625 33.1336C6.10812 32.7934 6.64903 32.449 7.19465 32.113C8.49284 31.3178 9.79573 30.5311 11.0845 29.7274C11.3526 29.5615 11.5596 29.3106 11.7948 29.1023C11.7665 29.064 11.7336 29.0257 11.7054 28.9875C11.1551 29.132 10.6142 29.2979 10.0591 29.4127C8.99142 29.6296 8.0507 29.2171 7.7967 28.4134C7.72145 28.171 7.69793 27.8861 7.75908 27.6394C8.27177 25.4451 9.12782 23.3997 11.0328 21.8475C11.1739 21.7284 11.3103 21.5924 11.4796 21.5201C11.6725 21.435 12.0346 21.3202 12.0817 21.3797C12.2275 21.5583 12.3357 21.822 12.3074 22.0346C12.2369 22.5704 12.0864 23.0977 11.9594 23.6251C11.87 23.9993 11.8136 24.4033 11.1739 24.2672C11.0516 24.2417 10.8493 24.3735 10.7317 24.4756C10.2426 24.8923 9.72988 25.2963 9.30656 25.7641C8.90675 26.2021 9.09019 26.6528 9.71577 26.7039C10.2849 26.7464 10.8776 26.5848 11.4561 26.4955C11.6019 26.4742 11.7336 26.3679 11.8794 26.3254C12.9848 25.9724 13.775 26.5168 13.5116 27.5416C13.2858 28.4176 12.9001 29.2724 12.4956 30.0974C11.7948 31.5305 10.3696 32.1726 8.83149 32.6276C7.93311 32.8955 7.01121 33.1039 6.09871 33.3335C5.96701 33.3675 5.8212 33.3548 5.68009 33.3633C5.64246 33.2825 5.60483 33.2059 5.5625 33.1336Z" fill="#001F33"></path>
  <path d="M38.9412 21.4195C38.9262 21.7144 38.9112 22.0093 38.8962 22.248C39.3048 22.6132 39.7134 22.9502 40.0996 23.3247C40.5232 23.732 40.6357 24.2797 40.5195 24.9304C40.3658 25.7871 40.2233 26.6578 39.496 27.0697C39.0611 27.3131 38.6 27.5612 38.1426 27.1212C37.6703 26.6671 37.4603 26.0352 37.6103 25.333C37.8277 24.3125 38.1126 23.3107 38.3938 22.3136C38.4875 21.9812 38.6562 21.6816 38.7912 21.3633C38.8399 21.382 38.8887 21.4007 38.9412 21.4195ZM38.3413 23.7882C37.8465 24.8602 38.0377 25.3798 38.465 25.7449C38.8624 26.082 39.6572 25.773 40.0284 25.1457C39.5785 24.4763 39.0574 23.9473 38.3413 23.7882Z" fill="#001F33"></path>
  <path d="M2.16546 30.1902C2.80733 30.4998 3.40752 30.3801 3.84516 29.9426C4.03272 29.7569 4.19527 29.5299 4.32448 29.2988C4.908 28.2547 5.23727 27.1157 5.53737 25.9725C5.55404 25.9106 5.55821 25.8404 5.56238 25.7744C5.56654 25.6052 5.46651 25.469 5.30813 25.4236C5.15391 25.3782 5.01637 25.436 4.93301 25.6217C4.7913 25.9271 4.66626 26.2366 4.54122 26.5461C4.42451 26.8391 4.29114 27.1198 4.0619 27.3468C3.73679 27.6687 3.35334 27.7264 2.95321 27.5036C2.47806 27.2395 2.16546 26.8474 2.03625 26.315C1.91538 25.8322 1.86536 25.3369 1.95289 24.8541C2.08627 24.1071 2.23632 23.3601 2.44472 22.6338C2.91153 21.0036 3.41169 19.3858 3.82432 17.7392C3.93686 17.2935 3.92019 16.8601 3.87434 16.4351C3.6576 16.3154 3.49505 16.3443 3.39085 16.53C3.32416 16.6455 3.28665 16.7776 3.2408 16.9014C2.65728 18.4243 2.1988 19.9884 1.71115 21.5401C1.29018 22.8814 0.906727 24.2309 0.669151 25.6217C0.506599 26.5626 0.527439 27.4912 0.748343 28.4156C0.935902 29.2204 1.40689 29.8229 2.16546 30.1902Z" fill="#001F33"></path>
</svg>
