<?xml version="1.0" encoding="UTF-8"?>
<svg xmlns="http://www.w3.org/2000/svg" width="80" height="96" viewBox="0 0 80 96" fill="none">
  <g clip-path="url(#clip0_634_582)">
    <path d="M77.7559 36.5704C77.7559 36.7226 77.7175 36.9536 77.7621 37.1685C78.1584 39.1028 78.619 41.0244 78.9555 42.9685C79.1536 44.1111 79.1742 45.2868 79.2474 46.4492C79.2822 47.0061 79.2536 47.5676 79.2536 48.1702C78.8894 48.0306 78.503 47.8658 78.1049 47.7324C76.5196 47.2014 74.9496 46.6077 73.3376 46.1751C71.3186 45.6334 69.2719 45.1794 67.2199 44.7773C65.8819 44.5149 64.5163 44.3636 63.1551 44.2517C61.1807 44.0905 59.201 43.9696 57.2213 43.9114C55.9985 43.8756 54.7712 43.9732 53.5466 44.035C52.4996 44.0887 51.4526 44.1514 50.4109 44.2589C49.6299 44.3394 48.8596 44.515 48.0813 44.6197C47.4378 44.7057 46.7826 44.7093 46.1444 44.8203C44.5423 45.0988 42.9437 45.3952 41.3513 45.7265C39.5117 46.1089 37.6891 46.5692 35.8459 46.9327C34.2562 47.247 32.6558 47.53 31.0483 47.7243C29.3935 47.924 27.7253 48.0135 26.0606 48.1228C24.894 48.1989 23.7239 48.2696 22.5555 48.2634C21.1041 48.2553 19.6484 48.2204 18.2042 48.0941C16.56 47.9509 14.9213 47.7252 13.2879 47.4825C8.96602 46.8396 4.80305 45.6352 0.807888 43.8505C0.556182 43.7386 0.491916 43.6061 0.536545 43.3822C0.902501 41.5438 1.22383 39.6938 1.65583 37.8706C2.19227 35.6086 2.9947 33.4309 3.99795 31.3328C5.44749 28.3016 7.22371 25.4809 9.3766 22.8957C12.1043 19.6192 15.256 16.8441 18.8718 14.5956C21.0934 13.2139 23.4132 12.0256 25.8607 11.1078C28.2831 10.1998 30.7716 9.53714 33.328 9.10105C35.9985 8.64526 38.6825 8.51452 41.379 8.59063C43.8532 8.66048 46.2908 9.02315 48.6999 9.60699C51.025 10.1702 53.2716 10.9484 55.4754 11.8779C59.3617 13.5166 62.8374 15.7821 65.9989 18.5706C67.9848 20.3221 69.7566 22.2626 71.3561 24.367C72.9199 26.4238 74.2677 28.6168 75.3477 30.9683C75.8806 32.128 76.3983 33.2948 76.9008 34.4678C77.0909 34.9129 77.2069 35.3893 77.3792 35.8433C77.4658 36.0725 77.6041 36.282 77.7559 36.5704ZM37.5034 35.2684C37.5936 35.3785 37.6516 35.4412 37.7007 35.511C38.5227 36.6877 39.6215 37.2366 41.0782 37.1927C42.9633 37.1354 44.852 37.1838 46.7389 37.1775C47.6431 37.1739 48.4633 36.9071 49.1667 36.3205C49.5273 36.0197 49.8808 35.7116 50.2378 35.4072C50.2101 35.3705 50.2547 35.4287 50.2976 35.4878C51.1152 36.6286 52.172 37.2178 53.6233 37.1927C56.5644 37.1417 59.5072 37.1784 62.4491 37.1775C62.5937 37.1775 62.7374 37.1623 62.8891 37.1542C62.8891 33.2518 62.8891 29.3896 62.8891 25.5364C61.7868 25.5364 60.7246 25.5364 59.6321 25.5364C59.6321 25.7478 59.6321 25.9251 59.6321 26.1024C59.6321 28.5022 59.6321 30.903 59.6303 33.3028C59.6303 33.5195 59.6893 33.7559 59.3224 33.7541C57.2124 33.7425 55.1023 33.7703 52.9932 33.7309C51.8971 33.7103 51.2464 33.1085 51.0081 32.025C50.9385 31.708 50.9063 31.3776 50.9036 31.0525C50.8912 29.3386 50.8947 27.6238 50.8903 25.9098C50.8903 25.7827 50.8671 25.6555 50.8537 25.5266C49.746 25.5266 48.6829 25.5266 47.585 25.5266C47.5734 25.6949 47.5556 25.8391 47.5556 25.9833C47.5494 27.6676 47.5467 29.352 47.5395 31.0373C47.5369 31.6184 47.5494 32.2014 47.5101 32.7799C47.4672 33.4183 47.1664 33.7497 46.6229 33.7506C44.5137 33.7541 42.4028 33.7622 40.2945 33.7067C39.8839 33.6959 39.4314 33.4783 39.0851 33.233C38.4326 32.7718 38.3076 32.0196 38.2969 31.28C38.2719 29.5813 38.2853 27.8817 38.2835 26.1821C38.2835 25.9672 38.2835 25.7514 38.2835 25.5284C37.1526 25.5284 36.0744 25.5284 34.9435 25.5284C34.9435 25.7299 34.9435 25.9036 34.9435 26.0782C34.9426 28.1208 34.9435 30.1633 34.9399 32.205C34.9399 32.3832 34.9328 32.5641 34.9016 32.7378C34.7543 33.5589 34.5427 33.7425 33.7153 33.7461C32.0962 33.7541 30.4762 33.7497 28.8562 33.7577C27.1451 33.7667 26.2784 32.9088 26.2784 31.1886C26.2784 26.3433 26.2793 21.4988 26.2784 16.6534C26.2784 16.511 26.265 16.3678 26.2579 16.2182C25.1529 16.2182 24.0916 16.2182 22.9928 16.2182C22.9928 16.4224 22.9928 16.5988 22.9928 16.7752C22.9937 22.6342 22.9946 28.4933 22.9937 34.3514C22.9937 34.7687 22.9964 35.1869 22.9741 35.6033C22.8697 37.5787 21.7798 39.075 19.9697 39.6562C18.7451 40.0493 17.4928 40.0725 16.2423 39.7466C14.2179 39.2192 13.0612 37.7094 13.0844 35.6113C13.0995 34.2314 13.561 32.9894 14.3313 31.802C13.3923 31.2656 12.4729 30.74 11.5215 30.1964C11.4626 30.2744 11.4152 30.3317 11.3733 30.3926C9.86752 32.5927 9.28556 34.9961 9.822 37.6333C10.3388 40.1728 11.8232 41.9109 14.2385 42.8028C15.7951 43.3777 17.4223 43.4386 19.0709 43.3052C22.7697 43.0052 25.6688 40.3009 26.1945 36.6169C26.2115 36.496 26.2534 36.3787 26.298 36.2014C27.1986 37.0199 28.2251 37.1999 29.3265 37.182C30.7672 37.1587 32.2105 37.1444 33.6502 37.1874C35.2648 37.2366 36.551 36.676 37.5034 35.2684ZM34.341 39.1762C33.3351 39.1045 32.5746 39.9194 32.5594 40.8677C32.5434 41.8294 33.3297 42.5727 34.3366 42.5727C35.3309 42.5727 36.1003 41.85 36.0851 40.891C36.0691 39.8326 35.3273 39.1448 34.341 39.1762ZM38.8994 39.1833C37.8524 39.1833 37.0884 39.8881 37.0902 40.8516C37.0928 41.8339 37.8533 42.5718 38.8637 42.5709C39.8705 42.57 40.614 41.8608 40.6114 40.8829C40.6087 39.7269 39.6965 39.1278 38.8994 39.1833ZM48.9418 42.5709C49.9388 42.5754 50.6903 41.8518 50.6894 40.8901C50.6885 39.9131 49.9843 39.1914 49.0248 39.1833C47.9581 39.1735 47.1825 39.8702 47.1655 40.8516C47.1486 41.7838 47.9573 42.5664 48.9418 42.5709ZM61.3182 22.6289C62.3009 22.6324 63.0998 21.8856 63.0989 20.9633C63.0971 19.9935 62.3223 19.2359 61.3316 19.2359C60.3899 19.2359 59.5884 19.9854 59.5679 20.8845C59.5456 21.8408 60.3319 22.6244 61.3182 22.6289Z" fill="#001F33"></path>
    <path d="M79.1457 52.7326C78.7441 54.7206 78.4201 56.6655 77.9426 58.5711C77.5811 60.0146 77.0839 61.4321 76.5359 62.8174C76.0699 63.9967 75.4505 65.1151 74.8899 66.256C74.5026 67.0449 74.1134 67.8347 73.6957 68.6083C73.4806 69.0068 73.2021 69.3704 72.9504 69.7483C72.6085 70.2623 72.2854 70.7915 71.9168 71.2858C71.4178 71.9529 70.885 72.595 70.3619 73.2442C70.0745 73.6024 69.7933 73.9677 69.4827 74.3053C68.8517 74.9921 68.2019 75.661 67.5619 76.3389C67.2441 76.6756 66.9532 77.0427 66.6086 77.349C65.9713 77.914 65.3046 78.4459 64.6485 78.9895C64.5352 79.0835 64.3959 79.1489 64.2951 79.2536C63.3213 80.2601 62.1708 81.0598 60.9801 81.7439C59.0423 82.857 57.0393 83.8707 55.0025 84.7912C53.6128 85.4198 52.1364 85.8747 50.6681 86.3019C49.3534 86.6851 47.9904 86.9018 46.6596 87.2331C45.5394 87.5116 44.4032 87.6325 43.2571 87.6818C41.6317 87.7525 40.0046 87.8743 38.3801 87.8492C36.4503 87.8197 34.5322 87.5931 32.6417 87.1669C31.7438 86.9645 30.8253 86.8427 29.9354 86.6099C28.6528 86.275 27.355 85.958 26.1232 85.4789C24.6148 84.8924 23.1367 84.2047 21.7014 83.4534C20.2269 82.6815 18.7773 81.8433 17.3939 80.9174C16.171 80.099 15.0366 79.1426 13.8994 78.2033C13.1479 77.5827 12.4035 76.9353 11.7555 76.2099C10.4693 74.7691 9.21341 73.2979 8.01558 71.7828C6.3777 69.7107 5.08347 67.4174 3.96775 65.0265C2.64674 62.1959 1.62831 59.2588 1.06956 56.1775C0.791078 54.6426 0.546513 53.0989 0.364428 51.5497C0.254641 50.6095 0.294807 49.6513 0.266244 48.7012C0.255533 48.3529 0.383172 48.3045 0.69468 48.4433C3.82672 49.8429 7.08998 50.8521 10.4478 51.5067C12.5347 51.9133 14.6528 52.1801 16.7673 52.4147C18.3382 52.5885 19.9243 52.6431 21.5059 52.6887C22.9546 52.7308 24.4086 52.7541 25.8537 52.6708C27.6933 52.5643 29.5338 52.4004 31.36 52.155C33.5887 51.8551 35.8095 51.4825 38.0195 51.0679C39.5761 50.776 41.1033 50.3319 42.6555 50.0095C44.2371 49.6809 45.8215 49.3334 47.4227 49.1445C49.8863 48.8544 52.3623 48.6591 54.8365 48.4908C56.2253 48.3968 57.624 48.4111 59.0182 48.4263C59.8742 48.4353 60.7301 48.5284 61.5852 48.6027C62.7956 48.7093 64.005 48.8212 65.2118 48.9555C65.7785 49.0191 66.3382 49.1409 66.9005 49.2385C67.3611 49.3182 67.8243 49.3863 68.2804 49.4875C69.7505 49.8134 71.2322 50.0999 72.6817 50.502C74.1429 50.9077 75.5781 51.4109 77.0098 51.9151C77.6453 52.1389 78.2433 52.4694 78.8619 52.7452C78.9155 52.7693 78.9913 52.7416 79.1457 52.7326ZM13.5495 61.7741C13.6495 61.8494 13.679 61.8619 13.695 61.8843C15.8917 64.9701 18.0856 68.0576 20.2894 71.1389C20.4491 71.3628 20.65 71.592 20.8847 71.7201C21.9728 72.3111 23.3804 71.6664 23.3759 70.2112C23.3616 65.2468 23.3714 60.2832 23.3696 55.3187C23.3696 55.1316 23.3473 54.9444 23.3366 54.7743C22.228 54.7743 21.1534 54.7743 20.0243 54.7743C20.0243 58.0544 20.0243 61.2888 20.0243 64.645C19.4566 63.8516 18.9639 63.1675 18.4748 62.4789C16.7619 60.0674 15.0526 57.6541 13.338 55.2444C12.8489 54.5567 12.1295 54.2997 11.4002 54.5343C10.6362 54.7797 10.247 55.3501 10.247 56.2312C10.2461 61.27 10.2461 66.3088 10.247 71.3476C10.247 71.4926 10.2604 71.6368 10.2675 71.7881C11.3708 71.7881 12.4445 71.7881 13.5504 71.7881C13.5495 68.4463 13.5495 65.1438 13.5495 61.7741ZM39.976 54.7385C39.976 60.4569 39.976 66.1109 39.976 71.8016C40.3312 71.8016 40.6552 71.8016 40.9784 71.8016C43.7418 71.8043 46.5052 71.8114 49.2686 71.806C50.1272 71.8043 50.9448 71.6207 51.4938 70.8936C52.1757 69.9891 52.6327 68.7086 51.6982 67.4308C50.7413 66.1225 49.83 64.7802 48.8776 63.4684C48.6786 63.1935 48.6527 63.0135 48.875 62.7403C49.6908 61.7356 50.4682 60.6996 51.2885 59.6984C52.0579 58.76 52.2248 57.7051 52.0043 56.5491C51.9026 56.0172 51.6054 55.6259 51.1591 55.3438C50.5584 54.965 49.9086 54.7492 49.19 54.7501C47.7789 54.7519 46.3677 54.7411 44.9557 54.7394C43.308 54.7367 41.6603 54.7385 39.976 54.7385ZM34.2394 66.6598C34.2394 66.8452 34.2394 67.0055 34.2394 67.1657C34.2394 68.5967 34.243 70.0285 34.235 71.4595C34.2341 71.6977 34.2564 71.8714 34.5527 71.8669C35.4274 71.8535 36.3031 71.8338 37.1778 71.8446C37.5446 71.849 37.6464 71.7228 37.6446 71.3547C37.6303 68.3433 37.6615 65.3309 37.6241 62.3195C37.6107 61.2682 37.5259 60.2026 37.3259 59.1728C36.9636 57.3067 36.0228 55.8354 34.1582 55.1146C33.1496 54.725 32.0999 54.6704 31.0485 54.7635C29.3249 54.9149 27.9298 55.6492 27.0479 57.2082C26.3187 58.4976 26.0661 59.9178 26.0483 61.3649C26.0081 64.7489 26.0304 68.1337 26.0286 71.5177C26.0286 71.6198 26.042 71.721 26.0474 71.8069C27.1693 71.8069 28.2681 71.8069 29.4115 71.8069C29.4115 70.0527 29.4115 68.3603 29.4115 66.6589C31.0413 66.6598 32.6247 66.6598 34.2394 66.6598ZM59.327 54.7644C59.3092 54.8513 59.2931 54.8934 59.2922 54.9355C59.2913 59.6456 59.2788 64.3549 59.2985 69.065C59.3038 70.3402 60.0125 71.2231 61.2407 71.567C61.72 71.7013 62.2279 71.7899 62.7242 71.7953C64.8628 71.8204 67.0023 71.8034 69.1418 71.8105C69.4774 71.8114 69.5318 71.6753 69.4836 71.3664C69.2623 69.956 68.2804 68.9038 66.8693 68.7122C66.124 68.611 65.3599 68.6594 64.6048 68.6262C64.3576 68.6155 64.0934 68.6065 63.8684 68.5179C63.0026 68.1767 62.7857 67.4371 62.7848 66.5989C62.7813 62.8577 62.7857 59.1173 62.7831 55.376C62.7831 55.1755 62.7545 54.974 62.7384 54.7644C61.5772 54.7644 60.4659 54.7644 59.327 54.7644ZM57.1652 71.8589C57.1652 70.3321 57.1661 68.9173 57.1652 67.5015C57.1634 65.2065 57.1795 62.9114 57.1491 60.6172C57.1357 59.5919 56.3967 58.9382 55.3934 58.9579C54.4955 58.9758 53.8073 59.7271 53.8091 60.7058C53.8127 64.1776 53.8207 67.6493 53.8288 71.1219C53.8305 71.8249 53.8323 71.8401 54.5482 71.8544C55.4033 71.8723 56.2601 71.8589 57.1652 71.8589ZM55.6835 54.7438C54.7079 54.7519 53.9725 55.479 53.9814 56.4255C53.9903 57.364 54.7401 58.1188 55.646 58.1018C56.6377 58.083 57.3419 57.3828 57.341 56.4166C57.3401 55.4736 56.6109 54.7367 55.6835 54.7438Z" fill="#001F33"></path>
    <path d="M44.0892 6.73506C43.9839 6.66431 43.883 6.53805 43.7732 6.52999C42.6798 6.45298 41.5846 6.39747 40.4903 6.3312C39.7799 6.28822 39.7799 6.28464 39.878 5.5217C41.0312 5.59513 42.1889 5.66945 43.3742 5.74557C43.4617 4.95308 43.4046 4.2367 43.0083 3.5669C42.5852 2.85231 41.9086 2.63113 41.1187 2.60606C41.1187 2.35085 41.1187 2.13594 41.1187 1.9264C41.8837 1.78492 43.0654 2.40906 43.5331 3.15229C44.049 3.97344 44.1231 4.89398 44.1535 5.76974C45.5084 5.99451 46.8303 6.19778 48.1451 6.43776C48.8814 6.57208 49.6142 6.73864 50.3336 6.9428C51.2744 7.21055 51.6073 7.04131 51.8823 6.07868C52.1036 5.30321 52.3366 4.53042 52.5794 3.70838C52.8025 3.76211 53.0087 3.81225 53.2881 3.87941C52.9239 5.07576 52.5687 6.24434 52.1982 7.46128C54.6689 8.28242 57.1618 9.19401 59.512 10.4315C59.7039 10.1199 59.8717 9.79039 60.0904 9.50026C60.7411 8.63434 61.7738 8.43734 62.7333 8.97283C63.6241 9.46981 63.9829 10.4333 63.641 11.4139C63.2733 12.4696 62.4209 13.1475 61.4703 13.1412C60.7241 13.1367 59.7815 12.5842 59.6164 11.8625C59.4584 11.1757 58.9755 10.9482 58.4703 10.7226C57.0708 10.0984 55.6712 9.46981 54.2413 8.92358C51.5208 7.88483 48.702 7.20965 45.8217 6.79058C45.4495 6.73685 45.0916 6.62939 44.714 6.87744C44.5551 6.9822 44.2552 6.87027 44.0187 6.85684C44.0428 6.81744 44.066 6.77625 44.0892 6.73506ZM62.9975 10.368C63.018 10.0447 62.7734 9.73039 62.3771 9.52443C61.9603 9.30773 61.5444 9.33818 61.1623 9.6104C60.6411 9.98202 60.3519 10.5121 60.2555 11.1327C60.1475 11.8276 60.7196 12.4517 61.4221 12.4481C62.1433 12.4454 63.0019 11.3933 62.9975 10.368Z" fill="#001F33"></path>
    <path d="M24.8027 88.5413C24.3654 89.8451 23.928 91.1498 23.4755 92.5002C23.2496 92.4249 23.047 92.3569 22.8203 92.2817C23.3987 90.5462 23.9673 88.8377 24.5314 87.1426C25.0964 87.2008 25.4132 87.3835 25.515 87.9745C25.7256 89.2004 26.0282 90.4101 26.3094 91.6235C26.3442 91.773 26.479 91.8993 26.5673 92.0363C26.6611 91.9208 26.8003 91.8196 26.8422 91.6871C27.1341 90.771 27.4162 89.8514 27.6786 88.9264C27.8178 88.4347 28.0267 88.3156 28.5364 88.5314C27.9874 90.1854 27.4367 91.8411 26.8726 93.5389C26.4335 93.6204 26.1469 93.47 26.0255 92.9873C25.6882 91.6405 25.3641 90.291 25.0339 88.9425C25.0027 88.8153 24.9625 88.6899 24.9259 88.5637C24.8857 88.5565 24.8447 88.5494 24.8027 88.5413Z" fill="#001F33"></path>
    <path d="M15.1884 86.4345C15.5401 86.5805 15.715 86.705 15.599 87.1617C15.358 88.1135 16.6602 89.1657 17.5957 88.8344C18.0714 88.666 18.3178 88.0401 18.0054 87.6336C17.6555 87.1769 17.2306 86.7775 16.828 86.3638C16.1185 85.6358 16.0283 85.1612 16.488 84.4887C16.9485 83.8153 17.7465 83.578 18.5159 83.9595C18.9015 84.1511 19.2692 84.4269 19.5656 84.7403C20.1092 85.3143 20.1261 85.8516 19.72 86.568C19.3621 86.4578 19.1389 86.3414 19.2344 85.84C19.3835 85.0582 18.3767 84.2478 17.5921 84.4394C16.9869 84.5881 16.7629 85.231 17.1815 85.7191C17.5287 86.1229 17.9411 86.4704 18.3097 86.8563C18.9934 87.5727 19.072 88.0894 18.6275 88.7986C18.2035 89.4738 17.5858 89.6735 16.7272 89.4075C16.1327 89.2239 15.6293 88.9069 15.2303 88.418C14.7742 87.8566 14.7439 87.0632 15.1884 86.4345Z" fill="#001F33"></path>
    <path d="M25.3045 8.90503C24.9849 8.10896 24.6645 7.3111 24.3521 6.53384C24.0236 6.75323 23.7541 6.99769 23.4381 7.13559C22.1822 7.68362 21.1701 6.96814 20.8059 5.64912C20.6149 4.95692 20.7318 4.24055 21.3753 3.76327C22.0341 3.27524 22.7713 3.0666 23.5086 3.53134C23.838 3.73909 24.1414 4.0919 24.3003 4.4483C24.826 5.63121 25.2902 6.84188 25.757 8.04986C26.0283 8.75101 26.0765 8.6346 25.3045 8.90503ZM23.8719 5.6527C23.8638 4.67754 23.2863 3.86356 22.6044 3.86893C21.9252 3.87431 21.4441 4.35249 21.4512 5.01782C21.4601 5.89895 22.0974 6.72099 22.7704 6.71831C23.4515 6.71562 23.8772 6.3046 23.8719 5.6527Z" fill="#001F33"></path>
    <path d="M36.7356 3.98184C36.6562 5.06356 36.1947 5.76382 35.2914 6.09962C34.423 6.42198 33.5411 6.25005 32.9886 5.57219C32.3682 4.81014 32.1915 3.93259 32.5673 2.99862C32.8743 2.23478 33.3313 1.56408 33.9713 1.03755C34.0632 0.962328 34.2578 0.905914 34.348 0.952478C35.2638 1.41812 36.0117 2.07539 36.4652 3.01384C36.6089 3.31113 36.649 3.65768 36.7356 3.98184ZM35.8975 3.92901C35.827 3.06399 35.3137 2.29926 34.5024 1.72795C34.4096 1.66258 34.1463 1.69751 34.0641 1.78347C33.5 2.37358 33.2055 3.09712 33.1787 3.91199C33.1546 4.65165 33.5911 5.37608 34.1168 5.5489C35.0924 5.86859 35.9037 5.20057 35.8975 3.92901Z" fill="#001F33"></path>
    <path d="M49.9303 92.9948C50.2926 92.8471 50.5577 92.7898 50.8362 93.2115C51.1692 93.7157 52.0296 93.5017 52.3411 92.891C52.5312 92.5185 52.5428 91.8003 52.3554 91.3176C51.9502 91.9874 51.3361 92.197 50.6086 92.1468C49.9811 92.103 49.6875 91.7743 49.442 91.1896C49.1957 90.6022 49.2823 90.0747 49.4536 89.5168C49.5929 89.0655 49.8981 88.8703 50.3408 88.7172C51.4619 88.3295 52.2733 88.9232 52.6883 89.9467C53.0677 90.8815 53.2489 91.8316 52.9739 92.8552C52.7285 93.7703 51.3289 94.5261 50.2293 93.6038C50.0749 93.4739 50.0311 93.2106 49.9303 92.9948ZM50.9398 91.5406C51.6744 91.5155 52.0974 91.1108 52.0689 90.4598C52.0341 89.6682 51.5851 89.1667 50.9362 89.1954C50.3078 89.2231 49.883 89.6745 49.9071 90.2914C49.9356 91.0418 50.3641 91.5603 50.9398 91.5406Z" fill="#001F33"></path>
    <path d="M39.7374 92.3399C39.7374 92.5172 39.7374 92.6623 39.7374 92.8145C38.7404 92.8145 37.7577 92.8145 36.716 92.8145C36.716 93.4208 36.716 94.0368 36.716 94.6905C37.7443 94.7353 38.8172 94.7819 39.9132 94.8302C39.9132 95.012 39.9132 95.1678 39.9132 95.3594C39.3572 95.3594 38.8136 95.3711 38.27 95.3568C37.6345 95.3397 36.9999 95.2923 36.3644 95.2744C36.1368 95.2681 35.9922 95.2296 36.0047 94.9565C36.0832 93.2837 36.1555 91.611 36.2305 89.9043C36.8437 89.9043 37.4622 89.8935 38.0799 89.9078C38.5967 89.9204 39.1126 89.9705 39.6294 89.9884C40.1596 90.0072 40.2131 90.0887 40.0114 90.5356C38.9448 90.5356 37.9041 90.5356 36.8008 90.5356C36.8008 91.0684 36.8008 91.6298 36.8008 92.2038C37.8059 92.2504 38.7493 92.2943 39.7374 92.3399Z" fill="#001F33"></path>
    <path d="M29.5351 1.08203C29.7163 1.69453 29.7172 1.69632 29.1664 1.84139C28.8683 1.92019 28.564 1.97481 28.2712 2.06973C27.7937 2.22554 27.4759 2.69835 27.542 3.11474C27.6276 3.6547 28.0677 4.02991 28.6264 4.012C28.8888 4.00394 29.1504 3.95021 29.436 3.91349C29.494 4.10781 29.5467 4.28511 29.6074 4.48928C29.4173 4.5448 29.2548 4.59763 29.0897 4.63793C28.3631 4.81523 27.9998 5.38385 28.1632 6.09395C28.3105 6.73332 28.896 7.05748 29.6065 6.89181C29.8635 6.83182 30.1197 6.77003 30.3759 6.70914C30.616 6.65183 30.857 6.59541 31.1364 6.52825C31.1917 6.75212 31.2417 6.95629 31.3193 7.27328C30.4669 7.3888 29.6743 7.56431 28.8781 7.58311C28.1766 7.60013 27.7107 7.12464 27.4813 6.47363C27.2412 5.79397 27.317 5.16267 27.9026 4.663C27.9329 4.63703 27.949 4.59494 27.9918 4.52868C27.2688 4.26094 26.8359 3.7738 26.8208 2.98758C26.8065 2.23808 27.1376 1.76617 27.8428 1.50917C27.8981 1.48857 27.9516 1.4626 28.0088 1.44828C28.5104 1.32918 29.0102 1.20919 29.5351 1.08203Z" fill="#001F33"></path>
    <path d="M59.4101 88.5662C59.2092 88.0075 59.0566 87.5749 58.8986 87.1442C58.7397 86.7126 58.5746 86.2819 58.4023 85.8243C59.1878 85.3945 59.9786 84.9629 60.7668 84.5312C61.1256 85.107 61.122 85.1455 60.5642 85.4213C60.092 85.6551 59.6082 85.8655 59.1012 86.0992C59.2673 86.5729 59.4127 86.9857 59.5788 87.4585C60.1536 86.8765 60.7123 86.3061 61.546 86.5049C61.9486 86.6007 62.3333 86.829 62.5805 87.2481C63.2232 88.3343 62.9714 89.2987 62.252 89.7894C61.1675 90.5291 60.109 90.2972 59.7662 89.5092C59.9331 89.4107 60.1054 89.3095 60.2768 89.2083C60.7338 89.7885 61.2506 89.7688 61.937 89.3023C62.3663 89.0104 62.4172 88.1489 62.0557 87.6385C61.7352 87.1863 60.956 87.0072 60.5124 87.3412C60.2669 87.5257 60.1134 87.8293 59.9063 88.0684C59.7716 88.226 59.6154 88.363 59.4101 88.5662Z" fill="#001F33"></path>
    <path d="M34.309 91.148C34.0974 91.148 33.9118 91.148 33.702 91.148C33.627 90.3931 33.262 89.872 32.5131 89.7511C31.7714 89.6311 31.0537 89.6821 30.6235 90.4522C30.2138 91.1847 30.0282 91.9754 30.1549 92.8028C30.2469 93.3974 30.5673 93.8729 31.1644 94.1075C31.7946 94.3556 32.7987 94.2741 33.1611 93.4099C33.3405 92.9828 33.4414 92.9721 33.9519 93.1655C33.4958 94.5302 32.2319 95.0979 30.894 94.6143C30.3495 94.4173 30.0273 94.0475 29.7693 93.5971C29.4319 93.0079 29.4471 92.3533 29.5176 91.6951C29.6042 90.8919 29.9157 90.1603 30.5057 89.6571C30.877 89.3401 31.459 89.1422 31.9508 89.135C32.4658 89.1269 33.0299 89.3293 33.4905 89.5881C34.0394 89.8979 34.2367 90.4979 34.309 91.148Z" fill="#001F33"></path>
    <path d="M57.3704 89.9299C57.6265 89.8555 57.8488 89.7911 58.0996 89.7185C58.1621 89.8537 58.221 89.9809 58.2727 90.0911C58.2344 90.1475 58.2228 90.1824 58.2004 90.1931C57.5997 90.4967 57.5997 90.4958 57.8577 91.154C57.9166 91.3044 57.9755 91.4548 58.0505 91.6483C57.8925 91.7208 57.7372 91.7924 57.5167 91.8936C57.3463 91.5014 57.1811 91.1199 56.9982 90.6991C56.2894 90.974 55.5906 91.2453 54.8801 91.5211C54.6525 91.2014 54.6212 90.8844 54.7239 90.511C55.0122 89.466 55.2808 88.4156 55.5254 87.3599C55.604 87.0232 55.7343 86.8217 56.135 86.8324C56.5367 87.8407 56.9473 88.8687 57.3704 89.9299ZM55.1835 90.8101C55.662 90.6274 56.0538 90.4654 56.4546 90.3292C56.717 90.2406 56.7536 90.1116 56.6474 89.8636C56.4376 89.3729 56.2582 88.8687 56.061 88.3726C56.0226 88.2768 55.9565 88.1927 55.8512 88.0162C55.6164 88.9977 55.4085 89.8681 55.1835 90.8101Z" fill="#001F33"></path>
    <path d="M20.0864 11.2786C19.6009 10.384 19.1269 9.51809 18.661 8.64681C18.3191 8.00744 18.0273 7.33763 17.6417 6.72693C17.3123 6.20577 17.4444 5.79922 17.8068 5.31836C18.7815 7.20511 19.7401 9.05962 20.7112 10.9392C20.4952 11.0565 20.3194 11.1514 20.0864 11.2786Z" fill="#001F33"></path>
    <path d="M20.6802 91.341C20.4329 91.2148 20.2392 91.1163 20.0312 91.0106C20.7855 89.3522 21.5245 87.7269 22.2779 86.0703C22.5001 86.1733 22.6938 86.2637 22.9375 86.3775C22.1832 88.0359 21.4397 89.671 20.6802 91.341Z" fill="#001F33"></path>
    <path d="M44.7734 91.1396C44.8654 91.0276 44.9377 90.8503 45.0537 90.8136C45.5714 90.6524 46.0346 90.4733 46.0123 89.7981C46.0105 89.7453 46.1944 89.6307 46.2739 89.6459C46.3694 89.6638 46.5059 89.7793 46.5202 89.8698C46.6612 90.7276 46.7808 91.5891 46.9058 92.4496C47.0138 93.1929 47.1218 93.9352 47.236 94.7232C47.0495 94.7608 46.8585 94.7993 46.6336 94.845C46.472 93.7248 46.3024 92.6493 46.1703 91.5694C46.1319 91.2524 46.0507 91.1046 45.7115 91.1682C45.4411 91.2192 45.1635 91.2372 44.8895 91.2694C44.8511 91.2264 44.8127 91.1834 44.7734 91.1396Z" fill="#001F33"></path>
    <path d="M41.4766 1.23276C41.4766 0.91935 41.4766 0.658769 41.4766 0.404456C42.2611 0.279987 42.3584 0.405352 42.1317 1.23276C41.9237 1.23276 41.7095 1.23276 41.4766 1.23276Z" fill="#001F33"></path>
    <path d="M53.5136 3.26635C53.2271 3.18576 53.012 3.12487 52.7344 3.04607C52.987 2.7837 52.6496 2.13359 53.3217 2.28134C54.0759 2.447 53.3949 2.89474 53.5136 3.26635Z" fill="#001F33"></path>
    <path d="M43.765 7.49552C43.2607 7.49552 42.7573 7.49552 42.2852 7.49552C42.4842 7.4606 42.7225 7.39971 42.9653 7.38001C43.2259 7.35852 43.4892 7.37553 43.7516 7.37553C43.7561 7.41493 43.7606 7.45523 43.765 7.49552Z" fill="#001F33"></path>
    <path d="M42.3803 4.36369C42.3803 4.53831 42.3803 4.71292 42.3803 4.88754C42.3268 4.88575 42.2723 4.88306 42.2188 4.88127C42.2312 4.70665 42.2429 4.53204 42.2553 4.35742C42.2973 4.35921 42.3384 4.3619 42.3803 4.36369Z" fill="#001F33"></path>
    <path d="M48.8585 68.6041C46.952 68.6041 45.1231 68.6041 43.2656 68.6041C43.2656 65.0384 43.2656 61.4995 43.2656 57.9141C45.0606 57.9141 46.8484 57.9141 48.7139 57.9141C48.6023 58.077 48.5166 58.2203 48.4131 58.3493C47.4884 59.4928 46.5583 60.6318 45.6336 61.7744C44.8062 62.797 44.8232 63.5448 45.6542 64.5566C46.6619 65.7834 47.6535 67.0236 48.6487 68.2603C48.7166 68.3462 48.7639 68.4483 48.8585 68.6041Z" fill="#001F33"></path>
    <path d="M34.2324 63.9706C33.0069 63.9706 31.8225 63.9688 30.638 63.9706C29.3813 63.9724 29.3572 63.9732 29.3902 62.7151C29.4108 61.9298 29.4241 61.1266 29.5991 60.3681C29.9936 58.6542 31.2325 58.2181 32.6749 58.6273C33.6148 58.8942 33.954 59.752 34.1432 60.6448C34.186 60.8481 34.2262 61.0558 34.228 61.2618C34.2378 62.1393 34.2324 63.0169 34.2324 63.9706Z" fill="#001F33"></path>
  </g>
  <defs>
    <clipPath id="clip0_634_582">
      <rect width="79" height="95" fill="white" transform="translate(0.265625 0.363281)"></rect>
    </clipPath>
  </defs>
</svg>
