<?xml version="1.0" encoding="UTF-8"?>
<svg xmlns="http://www.w3.org/2000/svg" width="209" height="64" viewBox="0 0 209 64" fill="none">
  <path fill-rule="evenodd" clip-rule="evenodd" d="M202.103 25.1222C205.91 27.9726 208.368 29.8126 208.368 33.4256C208.368 37.0447 205.847 38.8849 202.078 41.636L201.697 41.9142C197.777 44.8823 191.165 49.275 187.186 51.6494C183.207 54.0832 176.77 57.7636 172.323 59.9006C167.818 62.0969 164.248 63.5216 162.083 63.5216C159.918 63.5216 158.397 62.8092 157.344 61.3846C156.29 59.9599 155.647 57.8823 155.237 55.2111C154.827 52.5398 154.593 49.3343 154.476 45.654C154.359 41.9736 154.359 33.3663 154.359 33.3663C154.359 33.3663 154.359 24.7589 154.476 21.0786C154.593 17.3982 154.827 14.1927 155.237 11.5215C155.647 8.90958 156.29 6.77259 157.344 5.34793C158.397 3.92327 159.918 3.21094 162.083 3.21094C164.248 3.21094 167.818 4.6356 172.323 6.83195C176.77 9.0283 183.207 12.7087 187.186 15.0831C191.165 17.5169 197.777 21.8502 201.697 24.8183L202.103 25.1222ZM201.581 28.8555H202.4C202.81 28.8555 203.102 29.2116 203.102 29.5678V37.2253C203.102 37.6409 202.81 37.9377 202.4 37.9377H201.581C201.23 37.9377 200.879 37.6409 200.879 37.2253V29.5678C200.879 29.1523 201.23 28.8555 201.581 28.8555ZM176.89 26.5991H177.709C178.118 26.5991 178.411 26.3023 178.411 25.8868V13.599C178.411 13.1835 178.118 12.8867 177.709 12.8867H176.89C176.48 12.8867 176.188 13.1835 176.188 13.599V25.8274C176.188 26.2429 176.48 26.5991 176.89 26.5991ZM183.616 47.0781H184.435C184.845 47.0781 185.138 47.4343 185.138 47.7905V48.6215C185.138 49.037 184.845 49.3338 184.435 49.3338H183.616C183.207 49.3338 182.914 49.037 182.914 48.6215V47.7905C182.914 47.3749 183.207 47.0781 183.616 47.0781ZM158.924 22.028H168.754C169.164 22.028 169.456 21.7312 169.456 21.3157V17.4572H173.26C173.669 17.4572 173.962 17.1604 173.962 16.7449V11.343C173.962 10.9275 173.669 10.6307 173.26 10.6307H172.44C172.089 10.6307 171.738 10.9275 171.738 11.343V15.2015H169.515V9.08733C169.515 8.6718 169.222 8.375 168.813 8.375H163.488C163.078 8.375 162.786 8.6718 162.786 9.08733V16.7449C162.786 17.1604 163.137 17.4572 163.488 17.4572H167.291V19.7129H160.562V11.343C160.562 10.9275 160.269 10.6307 159.86 10.6307H159.041C158.631 10.6307 158.339 10.9275 158.339 11.343V21.3157C158.221 21.6718 158.514 22.028 158.924 22.028ZM167.116 15.2015H164.892V10.6307H167.116V15.2015ZM197.136 26.5996H197.955C198.306 26.5996 198.657 26.8964 198.657 27.3119V39.5403C198.657 39.9558 198.364 40.2526 197.955 40.2526H194.151V44.1111C194.151 44.4672 193.859 44.8234 193.449 44.8234H189.646V46.3668C189.646 46.7823 189.353 47.0791 188.944 47.0791H188.124C187.715 47.0791 187.422 46.7823 187.422 46.3668V44.8234H176.89C176.48 44.8234 176.188 44.5266 176.188 44.1111V34.1384C176.188 33.7229 176.48 33.4261 176.89 33.4261H184.438C184.789 33.4261 185.14 33.7229 185.14 34.1384V34.9695C185.14 35.385 184.848 35.6818 184.438 35.6818H178.411V42.5083H187.422V40.2526H181.395C180.986 40.2526 180.693 39.9558 180.693 39.5403V38.7092C180.693 38.2937 180.986 37.9969 181.395 37.9969H189.002C189.353 37.9969 189.704 38.2937 189.704 38.7092V42.5677H191.928V38.7092C191.928 38.2937 192.279 37.9969 192.63 37.9969H196.433V27.3119C196.433 26.8964 196.726 26.5996 197.136 26.5996ZM179.99 47.0781H174.665C174.256 47.0781 173.963 47.3749 173.963 47.7905V51.6489H160.505V49.3932H171.037C171.447 49.3932 171.74 49.0964 171.74 48.6809V47.8498C171.74 47.4343 171.447 47.1375 171.037 47.1375H158.983C158.574 47.1375 158.281 47.4343 158.281 47.8498V53.2517C158.281 53.6672 158.632 53.964 158.983 53.964H175.543C175.953 53.964 176.245 53.6672 176.245 53.2517V49.3932H178.469V50.9366C178.469 51.3521 178.761 51.6489 179.171 51.6489H179.99C180.4 51.6489 180.692 51.3521 180.692 50.9366V47.7905C180.692 47.4343 180.341 47.0781 179.99 47.0781ZM161.147 56.2207H161.967C162.376 56.2207 162.669 56.5175 162.669 56.933V57.7641C162.669 58.1203 162.376 58.4764 161.967 58.4764H161.147C160.796 58.4764 160.445 58.1796 160.445 57.7641V56.933C160.445 56.5769 160.738 56.2207 161.147 56.2207ZM166.474 56.2207H165.655C165.246 56.2207 164.953 56.5769 164.953 56.933V57.7641C164.953 58.1796 165.304 58.4764 165.655 58.4764H166.474C166.884 58.4764 167.177 58.1203 167.177 57.7641V56.933C167.177 56.5175 166.884 56.2207 166.474 56.2207ZM158.223 43.2199C158.223 42.8638 158.515 42.5076 158.925 42.5076H159.744C160.095 42.5076 160.446 42.8044 160.446 43.2199V44.051C160.446 44.4072 160.154 44.7633 159.744 44.7633H158.925C158.574 44.7633 158.223 44.4665 158.223 44.051V43.2199ZM163.429 42.5078C163.019 42.5078 162.727 42.864 162.727 43.2201V44.0512C162.727 44.4667 163.078 44.7635 163.429 44.7635H164.248C164.658 44.7635 164.95 44.4074 164.95 44.0512V43.2201C164.95 42.8046 164.599 42.5078 164.248 42.5078H163.429ZM167.176 44.1107V43.2797C167.176 42.8642 167.527 42.508 167.936 42.508H171.681V34.1381C171.681 33.7226 172.032 33.4258 172.384 33.4258H173.203C173.612 33.4258 173.905 33.7226 173.905 34.1381V44.1107C173.905 44.5263 173.612 44.8231 173.203 44.8231H167.878C167.527 44.8231 167.176 44.5263 167.176 44.1107ZM188.124 33.4258C187.714 33.4258 187.422 33.7819 187.422 34.1381V34.9692C187.422 35.3847 187.773 35.6815 188.124 35.6815H188.943C189.353 35.6815 189.645 35.3253 189.645 34.9692V34.1381C189.645 33.7226 189.294 33.4258 188.943 33.4258H188.124ZM186.719 19.7713H185.9C185.49 19.7713 185.139 19.4152 185.198 19.059V18.228C185.198 17.8718 185.49 17.5156 185.9 17.5156H186.719C187.07 17.5156 187.421 17.8124 187.421 18.228V19.059C187.421 19.4152 187.129 19.7713 186.719 19.7713ZM173.201 19.7734H172.382C171.972 19.7734 171.68 20.1296 171.68 20.4858V21.3168C171.68 21.7323 172.031 22.0292 172.382 22.0292H173.201C173.611 22.0292 173.903 21.673 173.903 21.3168V20.4858C173.903 20.0702 173.611 19.7734 173.201 19.7734ZM167.937 28.8555H168.697C169.107 28.8555 169.458 29.2116 169.458 29.5678V30.3989C169.458 30.755 169.165 31.1112 168.756 31.1112H167.937C167.585 31.1112 167.234 30.8144 167.234 30.3989V29.5678C167.234 29.2116 167.527 28.8555 167.937 28.8555ZM193.389 33.4258H192.569C192.16 33.4258 191.867 33.7819 191.867 34.1381V34.9692C191.867 35.3847 192.218 35.6815 192.569 35.6815H193.389C193.798 35.6815 194.091 35.3253 194.091 34.9692V34.1381C194.149 33.7226 193.798 33.4258 193.389 33.4258ZM168.755 40.2515H158.925C158.515 40.2515 158.222 39.9547 158.281 39.5391V24.9957C158.281 24.5802 158.573 24.2834 158.983 24.2834H159.802C160.212 24.2834 160.504 24.5802 160.504 24.9957V37.9364H167.234V35.6807H163.43C163.079 35.6807 162.728 35.3839 162.728 34.9683V24.9957C162.728 24.5802 163.021 24.2834 163.43 24.2834H173.261C173.67 24.2834 173.963 24.5802 173.963 24.9957V28.8542H180.692V15.9135C180.692 15.498 180.984 15.2012 181.394 15.2012H182.155C182.564 15.2012 182.857 15.498 182.857 15.9135V24.2834H187.363V22.74C187.363 22.3245 187.655 22.0277 188.065 22.0277H193.39C193.799 22.0277 194.092 22.3245 194.092 22.74V30.3976C194.092 30.8131 193.799 31.1099 193.39 31.1099H172.383C172.032 31.1099 171.681 30.8131 171.681 30.3976V26.5985H164.952V33.425H168.755C169.165 33.425 169.457 33.7218 169.457 34.1373V39.5391C169.457 39.9547 169.165 40.2515 168.755 40.2515ZM189.645 26.5985H182.915H182.857V28.9135H191.868V24.3427H189.645V26.5985Z" fill="#001F33"></path>
  <path d="M137.041 16.0338C136.806 16.0338 136.455 15.9744 136.455 15.7963V13.9562C136.455 13.8374 136.748 13.7187 137.041 13.7187H138.679C139.206 13.7187 139.381 13.7187 139.381 13.1251V10.2758C139.381 9.56345 139.381 8.7324 139.323 7.90134C139.323 7.72326 139.44 7.54518 139.674 7.54518H141.137C141.371 7.54518 141.488 7.6639 141.488 7.90134C141.488 8.67304 141.546 9.20728 141.546 9.74153V12.116C141.546 13.6 141.546 14.6685 141.488 15.2621C141.429 15.4995 141.371 15.6776 141.078 15.7963C140.61 15.9151 139.206 15.9744 138.269 15.9744L137.041 16.0338ZM138.035 17.9927C138.035 17.7552 138.211 17.5772 138.445 17.5772H139.791C140.025 17.5772 140.2 17.7552 140.2 17.9927V19.4174C140.2 19.5954 139.966 19.7735 139.791 19.7735H138.445C138.211 19.7735 138.035 19.5954 138.035 19.4174V17.9927ZM130.604 16.0338C130.37 16.0338 130.019 15.9744 130.019 15.7963V13.9562C130.019 13.8374 130.311 13.7187 130.604 13.7187H132.242C132.652 13.7187 133.237 13.6593 133.237 13.1251V7.96071C133.237 7.78262 133.354 7.60454 133.588 7.60454H135.11C135.285 7.60454 135.461 7.72326 135.461 7.96071V13.4219C135.578 13.6593 136.28 13.7187 136.572 13.7187H136.982V15.9744H136.748C135.87 15.9744 134.875 15.8557 134.232 15.3808C133.588 15.8557 132.535 15.9744 131.833 15.9744H130.604V16.0338ZM133.237 4.6365C133.237 4.39905 133.413 4.22097 133.647 4.22097H135.051C135.285 4.22097 135.461 4.39905 135.461 4.6365V6.0018C135.461 6.23924 135.285 6.41732 135.051 6.41732H133.647C133.413 6.41732 133.237 6.23924 133.237 6.0018V4.6365ZM118.023 10.3945C118.199 10.3945 118.316 10.5132 118.316 10.7507C118.316 11.0475 118.316 11.4036 118.316 11.5224C118.316 13.2438 119.135 13.7187 121.476 13.7187H125.747C126.157 13.7187 126.742 13.6593 126.742 13.1251V2.85567C126.742 2.61823 126.918 2.49951 127.093 2.49951H128.673C128.849 2.49951 129.024 2.67759 129.024 2.85567V13.4219C129.141 13.6593 129.785 13.7187 130.136 13.7187H130.604V15.9744H130.37C129.668 15.9744 128.673 15.8557 127.971 15.4995C127.327 15.9151 126.332 15.9744 125.572 15.9744H121.125C117.38 15.9744 116.268 14.5498 116.268 12.116C116.268 11.8785 116.268 11.1068 116.385 10.7507C116.443 10.4539 116.502 10.3945 116.736 10.3945H118.023ZM120.539 8.96984C120.539 8.85112 120.657 8.7324 120.832 8.7324H121.066C120.949 8.49495 120.832 8.07943 120.832 7.72326C120.832 6.59541 121.534 5.94244 122.822 5.94244C123.056 5.94244 123.348 5.94244 123.699 6.06116C123.875 6.12052 123.933 6.17988 123.933 6.35796V7.01093C123.933 7.18901 123.875 7.24837 123.699 7.24837C123.582 7.24837 123.114 7.18901 122.997 7.18901C122.47 7.18901 122.178 7.48582 122.178 7.96071C122.178 8.31687 122.353 8.61367 122.47 8.67304H123.816C124.05 8.67304 124.109 8.7324 124.109 8.91048V9.62281C124.109 9.80089 123.992 9.86025 123.816 9.86025H120.832C120.598 9.86025 120.539 9.74153 120.539 9.62281V8.96984ZM108.193 3.86481C108.017 3.86481 107.9 3.80544 107.9 3.62736V3.09311C107.9 2.97439 107.959 2.91503 108.193 2.91503H108.544C108.368 2.61823 108.251 2.26206 108.251 1.9059C108.251 0.896762 108.837 0.421875 110.007 0.421875C110.182 0.421875 110.534 0.421875 110.826 0.540597C110.943 0.540597 111.002 0.599958 111.002 0.718679V1.19357C111.002 1.31229 110.943 1.37165 110.768 1.37165H110.124C109.48 1.37165 109.246 1.54973 109.246 2.08398C109.246 2.49951 109.422 2.79631 109.597 2.91503H110.826C111.002 2.91503 111.119 2.97439 111.119 3.09311V3.62736C111.119 3.74608 111.06 3.86481 110.826 3.86481H108.193ZM108.486 5.28947C108.486 5.11138 108.603 4.9333 108.837 4.9333H110.416C110.651 4.9333 110.768 5.11138 110.768 5.28947V15.6183C110.768 15.7963 110.651 15.9744 110.416 15.9744H108.837C108.603 15.9744 108.486 15.7963 108.486 15.6183V5.28947ZM100.703 16.0338C100.411 16.0338 100.118 15.9744 100.118 15.7963V13.9562C100.118 13.8374 100.411 13.7187 100.703 13.7187H102.517C103.044 13.7187 103.219 13.7187 103.219 13.1251V10.3351C103.219 9.62281 103.219 8.79176 103.161 7.96071C103.161 7.78262 103.278 7.60454 103.512 7.60454H104.975C105.267 7.60454 105.326 7.72326 105.384 7.96071C105.384 8.7324 105.443 9.26664 105.443 9.80089V12.116C105.443 13.6 105.443 14.6685 105.384 15.2621C105.326 15.4995 105.267 15.6776 104.975 15.7963C104.448 15.9151 103.102 15.9744 102.166 15.9744H100.703V16.0338ZM101.873 17.9927C101.873 17.7552 102.049 17.5772 102.283 17.5772H103.629C103.863 17.5772 104.038 17.7552 104.038 17.9927V19.4174C104.038 19.5954 103.804 19.7735 103.629 19.7735H102.283C102.049 19.7735 101.873 19.5954 101.873 19.4174V17.9927ZM92.2771 18.5269C92.2771 18.3489 92.3941 18.2301 92.5696 18.2301H94.1495C95.9635 18.2301 96.9582 17.9333 96.9582 16.568V16.0338H95.6709C93.1548 16.0338 91.6334 14.7278 91.6334 12.116V11.7598C91.6334 8.96984 93.3303 7.3671 96.3146 7.3671C97.1923 7.3671 98.4211 7.48582 98.8892 7.6639C99.1232 7.78262 99.1818 7.78262 99.1818 8.02007V13.7781H100.703V16.0338H99.1232V16.6274C98.8892 19.5361 97.0167 20.2484 94.6176 20.2484C94.208 20.2484 92.8037 20.2484 92.5111 20.1297C92.2771 20.0703 92.2186 20.011 92.2186 19.7735V18.5269H92.2771ZM93.7984 11.8192C93.7984 13.1845 94.3251 13.8374 95.6709 13.8374H97.0167V9.50409C96.6656 9.44473 96.3146 9.44473 95.9635 9.44473C94.6176 9.44473 93.8569 10.2164 93.8569 11.6411V11.8192H93.7984ZM82.3296 3.74608C82.3296 3.50864 82.5052 3.33056 82.7392 3.33056H84.1436C84.3776 3.33056 84.5532 3.50864 84.5532 3.74608V5.11138C84.5532 5.34883 84.3776 5.52691 84.1436 5.52691H82.7977C82.5052 5.52691 82.3881 5.34883 82.3881 5.11138V3.74608H82.3296ZM74.8398 14.0749C74.8398 13.8968 75.0153 13.7781 75.1909 13.7781H77.4729V2.85567C77.4729 2.61823 77.59 2.49951 77.824 2.49951H79.4039C79.5795 2.49951 79.755 2.67759 79.755 2.85567V8.25751C80.9838 7.42646 82.7977 7.30774 83.6169 7.30774C86.6012 7.30774 88.5322 8.55431 88.5322 12.0566V12.7689C88.5322 13.5406 88.4736 14.6685 88.2981 15.3808C88.2396 15.6183 88.1225 15.8557 87.7129 15.9151C87.0693 16.0338 84.4361 16.0338 83.4414 16.0338H75.1324C74.9568 16.0338 74.7813 15.9151 74.7813 15.737V14.0749H74.8398ZM85.9575 13.7781C86.2501 13.7781 86.3086 13.6 86.3086 12.5909V12.294C86.3086 10.0977 85.3139 9.44473 83.0318 9.44473C82.2126 9.44473 80.6327 9.56345 79.755 10.2164V13.7187C80.2816 13.7187 80.9838 13.7781 81.8615 13.7781H85.9575ZM58.9239 12.294C58.9239 11.7598 58.9824 10.6913 59.158 9.91961C59.2165 9.68217 59.3335 9.56345 59.5091 9.56345H60.8549C61.0889 9.56345 61.1475 9.68217 61.1475 9.91961C61.0889 10.4539 61.0304 11.0475 61.0304 11.3443C61.0304 13.8374 61.44 15.6776 64.5998 15.6776C65.2435 15.6776 65.7701 15.6183 66.2382 15.5589C66.2967 14.3717 66.2967 13.8374 66.2967 12.8283V11.2849C66.2967 8.55431 67.9351 7.30774 70.8023 7.30774C71.7385 7.30774 72.7333 7.42646 73.3184 7.54518C73.494 7.60454 73.611 7.6639 73.611 7.90134V13.0657C73.611 13.6 73.7865 13.6593 74.4302 13.6593H75.2494V15.9151H73.8451C72.2067 15.9151 71.3875 15.4995 71.3875 13.6593V9.38537C71.0364 9.326 70.8608 9.326 70.5097 9.326C69.1639 9.326 68.5203 9.86025 68.5203 11.4036V14.3123C68.5203 15.1434 68.5203 16.2712 68.4617 17.1023C68.4617 17.3397 68.3447 17.4584 68.0521 17.5178C67.0574 17.6959 65.8286 17.7552 64.5413 17.7552C60.5038 17.9333 58.9239 15.9744 58.9239 12.294ZM61.7326 19.5361C61.7326 19.2986 61.9081 19.1799 62.1422 19.1799H63.3125C63.5465 19.1799 63.7221 19.2986 63.7221 19.5361V20.7827C63.7221 20.9607 63.488 21.1388 63.3125 21.1388H62.1422C61.9081 21.1388 61.7326 20.9607 61.7326 20.7827V19.5361ZM65.0094 19.5361C65.0094 19.2986 65.1849 19.1799 65.3605 19.1799H66.5308C66.7063 19.1799 66.9404 19.2986 66.9404 19.5361V20.7827C66.9404 20.9607 66.7648 21.1388 66.5308 21.1388H65.3605C65.1849 21.1388 65.0094 20.9607 65.0094 20.7827V19.5361ZM51.1415 2.85567C51.1415 2.67759 51.2585 2.49951 51.4926 2.49951H53.0725C53.3065 2.49951 53.4236 2.67759 53.4236 2.85567V15.6776C53.4236 15.8557 53.3065 16.0338 53.0725 16.0338H51.4926C51.2585 16.0338 51.1415 15.8557 51.1415 15.6776V2.85567ZM43.8272 13.9562C43.8272 13.8374 44.1198 13.7187 44.4124 13.7187H45.9337C46.4604 13.7187 46.6359 13.7187 46.6359 13.1251V2.85567C46.6359 2.61823 46.8114 2.49951 46.987 2.49951H48.5669C48.7424 2.49951 48.918 2.67759 48.918 2.85567V13.1845C48.918 13.8374 48.918 14.6685 48.8594 15.3215C48.8009 15.5589 48.7424 15.737 48.4498 15.8557C47.9232 15.9744 46.5189 16.0338 45.5826 16.0338H44.4709C44.2368 16.0338 43.8857 15.9744 43.8857 15.7963V13.9562H43.8272ZM37.3906 13.9562C37.3906 13.8374 37.6832 13.7187 37.9758 13.7187H39.6142C40.0238 13.7187 40.6089 13.6593 40.6089 13.1251V7.96071C40.6089 7.78262 40.726 7.60454 40.96 7.60454H42.4814C42.6569 7.60454 42.8325 7.72326 42.8325 7.96071V13.4219C42.9495 13.6593 43.6517 13.7187 43.9442 13.7187H44.3538V15.9744H44.1198C43.2421 15.9744 42.2473 15.8557 41.6037 15.3808C40.96 15.8557 39.9068 15.9744 39.2046 15.9744H37.9173C37.6247 15.9744 37.3321 15.9151 37.3321 15.737V13.9562H37.3906ZM39.029 4.6365C39.029 4.39905 39.2046 4.22097 39.4386 4.22097H40.6674C40.9015 4.22097 41.077 4.39905 41.077 4.6365V6.0018C41.077 6.23924 40.843 6.41732 40.6674 6.41732H39.4386C39.2046 6.41732 39.029 6.23924 39.029 6.0018V4.6365ZM42.3058 4.6365C42.3058 4.39905 42.5399 4.22097 42.7154 4.22097H43.9442C44.1783 4.22097 44.3538 4.39905 44.3538 4.6365V6.0018C44.3538 6.23924 44.1783 6.41732 43.9442 6.41732H42.7154C42.4814 6.41732 42.3058 6.23924 42.3058 6.0018V4.6365ZM27.3847 16.0338C27.0921 16.0338 26.7996 15.9151 26.7996 15.7963V13.9562C26.7996 13.8374 27.0921 13.7187 27.3847 13.7187H34.9916L34.1724 11.8785C33.4702 10.3945 32.2999 9.38537 30.0764 9.38537C29.9008 9.38537 29.3742 9.38537 29.1401 9.44473C28.9061 9.44473 28.789 9.38537 28.789 9.14792V7.84198C28.789 7.6639 28.9061 7.54518 29.1401 7.48582C29.7253 7.3671 30.2519 7.30774 30.837 7.30774C33.4117 7.30774 35.2256 8.31687 36.63 11.5817C36.981 12.4128 37.3321 13.3032 37.4492 13.4813C37.5662 13.6593 37.6832 13.7187 37.8588 13.7187H38.0343V15.9744H27.3847V16.0338ZM31.0711 17.9927C31.0711 17.7552 31.2466 17.5772 31.4807 17.5772H32.8265C33.0606 17.5772 33.2361 17.7552 33.2361 17.9927V19.4174C33.2361 19.5954 33.0021 19.7735 32.8265 19.7735H31.4807C31.2466 19.7735 31.0711 19.5954 31.0711 19.4174V17.9927ZM23.5228 2.85567C23.5228 2.67759 23.6983 2.49951 23.8738 2.49951H25.4537C25.6878 2.49951 25.8048 2.67759 25.8048 2.85567V12.8283C25.8048 13.6 26.1559 13.7187 26.7996 13.7187H27.3847V15.9744H26.1559C24.576 15.9744 23.5228 15.5589 23.5228 13.4813V2.85567ZM16.267 18.5863C16.267 18.4082 16.384 18.2895 16.5595 18.2895H16.9106C18.2565 18.2895 18.7246 18.1708 18.7246 16.6868V8.02007C18.7246 7.84198 18.8416 7.6639 19.0757 7.6639H20.597C20.7726 7.6639 20.9481 7.78262 20.9481 8.02007V16.4493C20.9481 17.3397 20.8896 18.1708 20.5385 18.8831C20.0119 19.8922 19.0757 20.2484 17.6128 20.2484C17.4373 20.2484 16.7936 20.2484 16.501 20.189C16.3255 20.1297 16.267 20.0703 16.267 19.8329V18.5863ZM0.8192 12.294C0.8192 11.7598 0.936229 10.6913 1.05326 9.91961C1.11177 9.62281 1.17029 9.56345 1.40434 9.56345H2.75017C2.92572 9.56345 3.04274 9.68217 3.04274 9.91961C2.98423 10.4539 2.92572 11.0475 2.92572 11.3443C2.92572 13.8374 3.33532 15.6776 6.49509 15.6776C7.13875 15.6776 7.60686 15.6183 8.13349 15.5589C8.192 14.3717 8.192 13.8374 8.192 12.8283V11.2849C8.192 8.55431 9.77189 7.30774 12.8146 7.30774C13.6338 7.30774 14.6286 7.3671 15.3307 7.54518C15.5063 7.60454 15.6233 7.6639 15.6233 7.90134V15.6183C15.6233 15.8557 15.5063 15.9744 15.2722 15.9744H13.7509C13.5753 15.9744 13.3998 15.7963 13.3998 15.6183V9.50409C12.9902 9.44473 12.8146 9.44473 12.4635 9.44473C11.1177 9.44473 10.4741 9.97898 10.4741 11.5224V14.431C10.4741 15.2621 10.4741 16.3899 10.4155 17.221C10.4155 17.4584 10.2985 17.5772 10.0059 17.6365C9.0112 17.8146 7.7824 17.874 6.49509 17.874C2.4576 17.9333 0.8192 15.9744 0.8192 12.294ZM3.6864 19.5361C3.6864 19.2986 3.86194 19.1799 4.096 19.1799H5.26629C5.50035 19.1799 5.67589 19.2986 5.67589 19.5361V20.7827C5.67589 20.9607 5.50035 21.1388 5.26629 21.1388H4.096C3.86194 21.1388 3.6864 20.9607 3.6864 20.7827V19.5361ZM6.90469 19.5361C6.90469 19.2986 7.08023 19.1799 7.31429 19.1799H8.48458C8.66012 19.1799 8.89417 19.2986 8.89417 19.5361V20.7827C8.89417 20.9607 8.71863 21.1388 8.48458 21.1388H7.31429C7.08023 21.1388 6.90469 20.9607 6.90469 20.7827V19.5361ZM53.0725 25.4128H42.0718C41.7207 25.4128 40.7845 25.7096 40.7845 27.1936V61.5042C40.7845 63.107 42.0718 63.1069 42.0718 63.1069H53.0725C64.1317 63.1069 71.7971 56.1024 71.7971 44.3489C71.7971 32.4174 64.1317 25.4128 53.0725 25.4128ZM52.4288 58.4768H45.8167V30.0429H52.4288C60.9134 30.0429 66.2382 35.148 66.2382 44.3489C66.1797 53.3718 60.9134 58.4768 52.4288 58.4768ZM109.656 54.9152C109.246 54.1435 108.544 54.4403 108.134 54.9152C106.555 56.3398 102.81 58.7142 97.7774 58.7142C89.6439 58.7142 83.968 52.0658 83.968 43.9334C83.968 36.1571 89.2928 29.6868 97.4263 29.6868C101.815 29.6868 104.916 31.4082 106.789 32.6548C108.134 33.4859 108.427 33.4859 109.188 32.6548C109.597 31.8238 110.241 30.7553 110.241 30.7553C110.241 30.7553 111.002 29.6868 110.241 29.1525C108.368 27.9653 104.097 24.8786 97.4263 24.8786C86.6012 24.8786 78.6432 33.1297 78.6432 43.9334C78.6432 54.8558 86.2501 63.4631 97.4263 63.4631C104.624 63.4631 109.188 60.0202 111.002 58.4174C111.821 57.8832 111.47 57.4083 111.177 56.7553C111.06 56.5773 110.299 55.6275 109.656 54.9152ZM137.509 43.2211C140.493 41.9745 142.365 38.9471 142.365 35.148C142.365 28.9151 137.801 25.4128 131.423 25.4128H120.13C118.784 25.4128 118.433 26.8968 118.433 27.1936V61.5042C118.433 61.9791 118.433 63.1069 120.13 63.1069H131.716C138.269 63.1069 143.594 59.6047 143.594 52.3033C143.653 48.3261 141.429 44.527 137.509 43.2211ZM123.758 30.0429H131.423C134.875 30.0429 137.041 32.4767 137.041 35.801C137.041 38.9471 134.875 41.3215 131.423 41.3215H123.758V30.0429ZM132.067 58.4768H123.758V45.5955H132.067C135.987 45.5955 138.328 48.3261 138.328 52.1252C138.328 56.043 135.987 58.4768 132.067 58.4768ZM21.1237 27.1936C20.597 26.0658 20.363 25.4128 18.7246 25.4128H15.6233C14.219 25.4128 13.6923 26.0658 13.2827 27.1936C12.9902 28.1434 0 61.9791 0 61.9791C0 61.9791 0 63.1069 1.2288 63.1069H4.56412C5.3248 63.1069 5.61737 62.3353 5.61737 62.3353L9.18675 52.3033H25.1612L28.7305 62.3353C28.7305 62.3353 29.0816 63.1069 29.8423 63.1069H33.0021C34.3479 63.1069 34.3479 61.9791 34.3479 61.9791C34.3479 61.9791 21.4748 28.1434 21.1237 27.1936ZM10.8251 48.0293L14.5701 37.5224L17.2617 30.6959L19.8949 37.5224L23.5228 48.0293H10.8251ZM71.68 17.9927C71.68 17.7552 71.8556 17.5772 72.0896 17.5772H73.4355C73.6695 17.5772 73.8451 17.7552 73.8451 17.9927V19.4174C73.8451 19.5954 73.611 19.7735 73.4355 19.7735H72.0896C71.8556 19.7735 71.68 19.5954 71.68 19.4174V17.9927Z" fill="#001F33"></path>
</svg>
