<?xml version="1.0" encoding="UTF-8"?>
<svg xmlns="http://www.w3.org/2000/svg" width="118" height="37" viewBox="0 0 118 37" fill="none">
  <g clip-path="url(#clip0_634_719)">
    <path d="M7.09286 36.3632C6.94548 36.3328 6.79659 36.3089 6.65112 36.2709C5.89217 36.0732 5.39293 35.4909 5.34647 34.6885C5.28859 33.6913 5.33428 32.6919 5.32248 31.6936C5.32134 31.5968 5.36322 31.579 5.44738 31.5805C5.69453 31.5843 5.94243 31.5892 6.1892 31.5786C6.32362 31.5729 6.35866 31.6154 6.3579 31.7475C6.35218 32.5629 6.35447 33.3782 6.35523 34.1935C6.35561 34.4213 6.36589 34.6471 6.43901 34.8673C6.54792 35.196 6.7646 35.4085 7.10733 35.4689C7.8282 35.596 8.3758 35.3455 8.42911 34.5234C8.48509 33.6655 8.44092 32.805 8.4493 31.9457C8.45272 31.582 8.45006 31.582 8.81487 31.582C8.99233 31.582 9.17017 31.5858 9.34762 31.5805C9.44092 31.5779 9.48395 31.5987 9.48243 31.7046C9.46796 32.6714 9.51899 33.6393 9.45691 34.6046C9.39256 35.6093 8.77565 36.2227 7.76955 36.329C7.72043 36.3343 7.66673 36.3248 7.62561 36.3639C7.44815 36.3632 7.27031 36.3632 7.09286 36.3632Z" fill="#001F33"></path>
    <path d="M30.9697 36.3632C30.8353 36.3351 30.6997 36.3108 30.5664 36.2778C29.75 36.0774 29.2359 35.4218 29.2222 34.523C29.2077 33.5873 29.2199 32.6517 29.2153 31.716C29.215 31.6071 29.2466 31.576 29.354 31.5794C29.6011 31.587 29.849 31.59 30.0961 31.5786C30.2302 31.5726 30.2485 31.6261 30.2481 31.7415C30.2439 32.5887 30.2466 33.4359 30.2458 34.2831C30.2458 34.4547 30.2648 34.6236 30.3105 34.7887C30.4541 35.3102 30.7991 35.527 31.4305 35.4947C31.9004 35.4708 32.2165 35.1816 32.3045 34.6965C32.3303 34.553 32.3422 34.4087 32.3418 34.263C32.3403 33.4348 32.3448 32.6065 32.3376 31.7783C32.3361 31.628 32.3616 31.5661 32.5291 31.5775C32.769 31.5938 33.0112 31.5851 33.2519 31.5798C33.3429 31.5779 33.3707 31.6063 33.3703 31.6974C33.3661 32.6456 33.3894 33.5949 33.3582 34.5424C33.3243 35.5782 32.6807 36.2246 31.6479 36.3294C31.5984 36.3343 31.5455 36.3271 31.5029 36.3632C31.325 36.3632 31.1476 36.3632 30.9697 36.3632Z" fill="#001F33"></path>
    <path d="M43.268 36.3637C43.121 36.3341 42.9725 36.3098 42.827 36.2737C42.033 36.0779 41.5646 35.562 41.3803 34.7824C41.2463 34.2146 41.2478 33.6406 41.3876 33.0739C41.6359 32.0658 42.319 31.5272 43.4017 31.4797C43.9504 31.4558 44.4706 31.567 44.9565 31.8323C45.0586 31.8881 45.0772 31.9345 45.0194 32.0354C44.9283 32.1937 44.8446 32.3573 44.7707 32.5247C44.7216 32.6359 44.6789 32.6568 44.565 32.5907C44.2585 32.4127 43.9234 32.33 43.5658 32.3357C42.9584 32.3452 42.5761 32.6393 42.4356 33.2284C42.3331 33.6585 42.3293 34.0927 42.4344 34.5235C42.5841 35.1384 43.0174 35.4789 43.6534 35.482C43.9828 35.4835 44.2962 35.4102 44.5788 35.239C44.6979 35.1669 44.7486 35.1931 44.8038 35.3104C44.8762 35.4641 44.9626 35.6121 45.0513 35.7575C45.1096 35.8528 45.1035 35.9029 44.9954 35.9595C44.6454 36.1435 44.2863 36.2935 43.888 36.3337C43.8583 36.3368 43.8301 36.3535 43.8015 36.3641C43.6237 36.3637 43.4458 36.3637 43.268 36.3637Z" fill="#001F33"></path>
    <path d="M101.759 2.36695C102.12 2.693 102.462 3.03917 102.791 3.39635C102.826 3.43355 102.858 3.47265 102.893 3.50871C104.028 4.6573 105.163 5.80513 106.297 6.95448C107.684 8.36081 109.07 9.76827 110.456 11.1757C111.775 12.5153 113.095 13.8548 114.414 15.1951C115.351 16.1474 116.286 17.1005 117.222 18.0544C117.431 18.2681 117.44 18.4848 117.24 18.6864C115.753 20.1815 114.265 21.6755 112.777 23.1692C112.751 23.1946 112.717 23.2109 112.686 23.2318C112.626 23.0921 112.743 23.0245 112.811 22.9426C113.009 22.7046 113.009 22.7137 112.717 22.6195C111.643 22.2734 110.567 21.9336 109.492 21.5897C107.106 20.8272 104.719 20.0692 102.332 19.31C101.305 18.9836 100.278 18.6553 99.2521 18.3265C96.861 17.5606 94.4672 16.8022 92.0761 16.0358C91.6234 15.8908 91.1729 15.7386 90.7159 15.6058C90.6367 15.5826 90.559 15.5556 90.4745 15.5594C90.4162 15.5621 90.3583 15.5594 90.332 15.4926C90.9927 14.7035 91.6519 13.9136 92.3141 13.126C93.3499 11.8931 94.388 10.6622 95.4242 9.42969C95.5247 9.31013 95.6496 9.2084 95.7087 9.05695C95.9166 8.73887 96.179 8.46329 96.4223 8.17444C97.0541 7.42478 97.6839 6.67398 98.3164 5.92508C99.0918 5.00689 99.8633 4.08604 100.639 3.16823C100.798 2.97996 100.957 2.79093 101.113 2.60038C101.165 2.53661 101.219 2.47399 101.28 2.41857C101.444 2.27015 101.558 2.25839 101.759 2.36695Z" fill="#001F33"></path>
    <path d="M105.496 30.454C104.564 31.3938 103.633 32.3344 102.7 33.2731C101.874 34.104 101.036 34.9235 100.224 35.7669C99.9266 36.0755 99.5953 36.2015 99.1772 36.2004C97.0964 36.1936 95.0153 36.1977 92.9346 36.1977C86.66 36.1977 80.3858 36.1977 74.1112 36.197C73.9973 36.197 73.8823 36.1947 73.7696 36.181C73.3538 36.1321 73.2254 35.8273 73.4882 35.4966C73.7361 35.1846 73.9977 34.8833 74.2544 34.5781C77.3519 30.8981 80.4497 27.2185 83.548 23.5389C83.5724 23.5101 83.6009 23.485 83.6276 23.4584C83.7552 23.3856 83.8843 23.411 84.0145 23.4508C84.8275 23.6987 85.6352 23.9629 86.4448 24.2221C88.8489 24.9915 91.2556 25.7537 93.6592 26.525C95.163 27.0075 96.668 27.4857 98.1737 27.9625C100.514 28.7034 102.849 29.4591 105.191 30.1944C105.264 30.2171 105.337 30.2373 105.404 30.2745C105.473 30.3136 105.536 30.3587 105.496 30.454Z" fill="#001F33"></path>
    <path d="M105.493 30.4546C105.48 30.3336 105.382 30.3146 105.291 30.2857C104.182 29.9339 103.073 29.5831 101.965 29.2294C100.495 28.7602 99.0257 28.288 97.5561 27.8181C96.3394 27.429 95.1227 27.0407 93.9057 26.6532C92.6224 26.2444 91.3387 25.8367 90.0553 25.4276C88.8025 25.0279 87.5504 24.6255 86.2967 24.227C85.5195 23.9799 84.7404 23.7392 83.9635 23.4902C83.8501 23.4538 83.7373 23.4716 83.625 23.4598C84.1391 22.8434 84.6505 22.2251 85.1673 21.6113C86.641 19.86 88.117 18.1105 89.5923 16.3607C89.8367 16.0707 90.0831 15.7818 90.3288 15.4922C91.1623 15.6182 91.9354 15.9511 92.7324 16.2001C94.3562 16.7068 95.9742 17.2306 97.595 17.7476C98.5165 18.0418 99.4381 18.336 100.36 18.6298C101.974 19.1445 103.589 19.6584 105.204 20.1731C106.414 20.5591 107.625 20.9459 108.836 21.3319C110.125 21.7426 111.414 22.1537 112.704 22.5625C113.115 22.6927 113.116 22.6908 112.815 23.0074C112.752 23.0727 112.695 23.138 112.682 23.231C112.638 23.2833 112.598 23.3391 112.55 23.3873C110.24 25.7062 107.93 28.0242 105.619 30.3419C105.58 30.3821 105.536 30.4174 105.493 30.4546Z" fill="#001F33"></path>
    <path d="M101.757 2.36706C101.509 2.29038 101.341 2.39211 101.182 2.5819C99.3978 4.71055 97.608 6.83503 95.8201 8.96065C95.7874 8.99975 95.7592 9.04226 95.7063 9.0563C93.0437 6.41636 90.3814 3.77604 87.7173 1.13761C87.5665 0.988062 87.4667 0.830919 87.5589 0.616838C87.6503 0.404656 87.8331 0.363662 88.0452 0.363662C91.8205 0.36594 95.5955 0.366319 99.3708 0.363283C99.6469 0.362903 99.867 0.44565 100.063 0.649861C100.62 1.22985 101.191 1.79542 101.757 2.36706Z" fill="#001F33"></path>
    <path d="M59.3606 16.3205C59.3606 17.5283 59.3599 18.7361 59.361 19.9439C59.3618 20.5576 59.6973 20.8951 60.3119 20.8955C62.6219 20.897 64.9315 20.897 67.2415 20.8955C67.8325 20.8951 68.1802 20.5618 68.1878 19.9742C68.1973 19.2724 68.1859 18.5706 68.1935 17.8687C68.2019 17.1305 68.6291 16.5645 69.2944 16.3895C69.3005 16.388 69.3062 16.3846 69.3123 16.3831C69.6779 16.2928 69.6828 16.2965 69.6828 16.6632C69.6828 17.7887 69.687 18.9145 69.6813 20.0399C69.6756 21.179 68.8896 22.1257 67.7731 22.3416C67.6002 22.3751 67.4201 22.3838 67.243 22.3838C64.9269 22.3864 62.6105 22.3838 60.2944 22.3868C59.6942 22.3876 59.1565 22.224 58.7011 21.8266C58.6287 21.7636 58.5887 21.7632 58.5156 21.8273C58.067 22.2221 57.5343 22.3872 56.9414 22.3864C55.6531 22.3842 54.3648 22.3811 53.0769 22.3876C52.4017 22.391 51.8183 22.1853 51.3549 21.6861C51.2746 21.5996 51.2292 21.606 51.1436 21.6789C50.5685 22.1667 49.893 22.3826 49.1451 22.3849C48.1108 22.388 47.0765 22.3807 46.0422 22.3902C45.8595 22.3918 45.8351 22.3306 45.8522 22.172C45.92 21.5506 46.4878 20.9702 47.1188 20.9182C47.7833 20.8636 48.4505 20.9023 49.1165 20.8974C49.5914 20.894 50.0015 20.7433 50.3233 20.3918C50.7528 19.9226 50.8557 19.3764 50.6241 18.7911C50.3911 18.202 49.9314 17.8896 49.2978 17.8422C48.9969 17.8194 48.7052 17.8741 48.4196 17.9697C47.7273 18.2016 47.1416 18.0285 46.6904 17.4641C46.6508 17.4144 46.6043 17.3814 46.6801 17.3138C47.7475 16.3687 49.2993 16.0464 50.519 16.6537C51.5841 17.1836 52.1782 18.0506 52.2251 19.2565C52.2346 19.5028 52.2247 19.7495 52.2304 19.9963C52.2429 20.5432 52.5956 20.8932 53.1458 20.8943C54.4151 20.8977 55.6839 20.8977 56.9532 20.8943C57.5198 20.8928 57.861 20.547 57.8614 19.9796C57.8629 17.9815 57.8641 15.9834 57.8606 13.9849C57.8599 13.5283 57.9783 13.1263 58.3165 12.8014C58.5529 12.5744 58.8321 12.4423 59.1542 12.3888C59.3028 12.3642 59.3648 12.39 59.3637 12.5638C59.3572 13.8164 59.3606 15.0682 59.3606 16.3205Z" fill="#001F33"></path>
    <path d="M12.4594 22.3714C11.5078 22.3714 10.555 22.4029 9.60489 22.3635C8.36307 22.3118 7.42552 21.3071 7.40686 20.0636C7.39734 19.4123 7.40153 18.7609 7.40724 18.1096C7.40838 17.9752 7.39467 17.9259 7.23435 17.9536C6.27091 18.1198 5.54547 18.5783 5.21264 19.5387C5.15171 19.714 5.13305 19.8962 5.13953 20.0803C5.154 20.4918 5.4773 20.8364 5.88781 20.882C6.05766 20.901 6.2313 20.9051 6.39696 20.9431C7.02605 21.087 7.40534 21.503 7.58736 22.0989C7.77662 22.718 7.62202 23.2703 7.15857 23.7128C6.05042 24.7715 4.72787 25.1093 3.26252 24.6963C1.82154 24.2902 0.876374 23.3162 0.518033 21.8681C0.141794 20.3487 0.554591 19.0221 1.70768 17.9388C1.81088 17.842 1.86457 17.8283 1.96587 17.9539C2.43693 18.5381 2.47501 19.1416 2.13495 19.8055C1.60867 20.8326 1.8958 22.0913 2.79679 22.8189C3.69969 23.5481 4.99558 23.5622 5.89353 22.8512C5.95293 22.8041 6.00815 22.7518 6.06565 22.7017C6.13763 22.6387 6.18218 22.5643 6.14067 22.4678C6.10259 22.3794 6.02224 22.3581 5.93542 22.3619C5.69779 22.373 5.47007 22.3297 5.24539 22.2538C4.20693 21.9027 3.55841 20.9184 3.65247 19.8309C3.7827 18.3214 4.76633 17.1382 6.31432 16.6414C7.11402 16.3844 7.93923 16.3195 8.77472 16.3339C8.92514 16.3366 8.8943 16.43 8.8943 16.5127C8.89506 17.4738 8.89506 18.4349 8.89506 19.3963C8.89506 19.5922 8.89239 19.7884 8.89582 19.9843C8.9061 20.5407 9.26025 20.8934 9.82004 20.8941C11.5904 20.8968 13.3608 20.8972 15.1316 20.8941C15.6925 20.8934 16.044 20.5369 16.0455 19.9801C16.0474 19.2528 16.0383 18.5256 16.0497 17.7987C16.0615 17.0468 16.6129 16.4486 17.3513 16.351C17.488 16.3328 17.5409 16.3499 17.5398 16.5059C17.5333 17.6818 17.5428 18.8581 17.5337 20.0344C17.5234 21.3739 16.5128 22.373 15.1636 22.3836C14.2626 22.3908 13.3616 22.3851 12.4602 22.3851C12.4594 22.3805 12.4594 22.376 12.4594 22.3714Z" fill="#001F33"></path>
    <path d="M38.547 22.3851C37.2523 22.3851 35.9579 22.3897 34.6632 22.3836C33.5603 22.3786 32.6178 21.6487 32.3574 20.6125C32.3014 20.3897 32.2922 20.1631 32.2926 19.9349C32.293 19.1697 32.2884 18.4045 32.2964 17.6397C32.298 17.4742 32.258 17.4525 32.1068 17.5053C31.5367 17.7042 31.0044 17.9604 30.6133 18.4387C30.2511 18.8813 30.1015 19.3963 30.1597 19.9596C30.2138 20.4823 30.6239 20.8626 31.1498 20.8888C31.5988 20.9112 31.9964 21.0312 32.3113 21.3675C32.5447 21.6172 32.6738 21.9114 32.7077 22.2496C32.7153 22.3259 32.7138 22.3893 32.6072 22.3859C31.9739 22.3654 31.3349 22.4496 30.7077 22.3301C29.4099 22.0826 28.5363 20.8535 28.6601 19.544C28.8337 17.7038 30.1597 16.4801 31.8379 16.0238C32.4225 15.8652 33.0196 15.8025 33.6247 15.7911C33.7618 15.7885 33.7903 15.8291 33.79 15.9593C33.785 17.2874 33.7865 18.6152 33.7873 19.9433C33.7877 20.5502 34.1308 20.8949 34.742 20.8953C37.293 20.8964 39.8441 20.8964 42.3955 20.8953C42.9911 20.8949 43.3422 20.5438 43.3433 19.9528C43.3448 19.238 43.3414 18.5237 43.3448 17.809C43.3482 17.0502 43.9141 16.4349 44.6723 16.3472C44.8037 16.332 44.8326 16.3688 44.8323 16.4933C44.8281 17.7137 44.8395 18.9344 44.8262 20.1547C44.8132 21.3667 43.7405 22.3767 42.4693 22.3836C41.1616 22.3904 39.8543 22.3851 38.547 22.3851Z" fill="#001F33"></path>
    <path d="M20.8244 22.3853C20.1633 22.3853 19.6176 22.38 19.0723 22.3887C18.9272 22.391 18.8857 22.3534 18.9017 22.2088C18.9752 21.5404 19.5376 20.9664 20.2143 20.9144C20.8723 20.864 21.533 20.9042 22.1926 20.8958C22.9577 20.886 23.573 20.4233 23.7516 19.7211C23.9862 18.7983 23.3145 17.8904 22.3605 17.8406C22.0593 17.8251 21.7676 17.8714 21.4824 17.967C20.7878 18.1997 20.2162 18.0327 19.7512 17.4687C19.6987 17.4049 19.6781 17.3688 19.7535 17.302C20.9123 16.281 22.6313 16.027 23.8773 16.8131C24.9923 17.5169 25.5171 18.8036 25.2082 20.1006C24.9184 21.3179 23.811 22.2593 22.5346 22.3652C21.9268 22.4153 21.3171 22.3697 20.8244 22.3853Z" fill="#001F33"></path>
    <path d="M25.7607 34.4906C26.1689 33.5147 26.7097 32.6143 27.1807 31.6791C27.2226 31.5959 27.2786 31.5796 27.362 31.5807C27.6156 31.5849 27.87 31.5914 28.1232 31.5788C28.2687 31.5716 28.3014 31.6179 28.3007 31.758C28.2946 32.8201 28.2973 33.8821 28.2973 34.9442C28.2973 35.3234 28.2893 35.7029 28.3014 36.0821C28.3064 36.2332 28.2527 36.2617 28.1175 36.2552C27.8959 36.2446 27.6731 36.2434 27.4515 36.2556C27.3102 36.2636 27.2714 36.2241 27.2729 36.0798C27.2805 35.2455 27.2767 34.4109 27.2767 33.5762C27.2767 33.5329 27.2767 33.4892 27.2767 33.4073C27.0238 33.9182 26.7885 34.3949 26.5524 34.8717C26.4404 35.0979 26.3212 35.3211 26.2177 35.5511C26.1712 35.6543 26.1099 35.6874 26.001 35.6817C25.7927 35.6707 25.5413 35.742 25.3867 35.6494C25.2337 35.5572 25.1735 35.3066 25.0802 35.1222C24.8018 34.571 24.5269 34.0184 24.2352 33.4353C24.2302 33.5185 24.2237 33.5754 24.2237 33.6323C24.223 34.448 24.2196 35.2634 24.2268 36.0791C24.2283 36.2241 24.1876 36.2636 24.0463 36.2556C23.8311 36.2434 23.6145 36.2438 23.3997 36.2556C23.2592 36.2632 23.2173 36.2245 23.2188 36.0795C23.2268 35.3651 23.2226 34.6507 23.2226 33.9364C23.2226 33.2095 23.2268 32.4822 23.2188 31.7553C23.2173 31.61 23.2595 31.5728 23.3993 31.5792C23.64 31.5906 23.8814 31.5891 24.1225 31.5796C24.2401 31.575 24.301 31.6134 24.354 31.72C24.8121 32.6405 25.3437 33.5245 25.7337 34.4788C25.7348 34.4822 25.7436 34.483 25.7607 34.4906Z" fill="#001F33"></path>
    <path d="M35.3008 33.1485C35.3008 34.1495 35.2966 35.0976 35.305 36.0458C35.3065 36.2109 35.2695 36.2675 35.0978 36.2546C34.8769 36.2383 34.6538 36.244 34.4318 36.2531C34.3107 36.2584 34.2848 36.2151 34.2852 36.1016C34.2886 34.641 34.2886 33.1804 34.2855 31.7194C34.2852 31.6147 34.3107 31.5752 34.4223 31.5778C34.7075 31.5851 34.9935 31.5847 35.2787 31.5778C35.375 31.5756 35.4249 31.6139 35.4748 31.6898C36.1214 32.6714 36.7928 33.6367 37.4253 34.6437C37.4638 34.5795 37.447 34.5112 37.447 34.4486C37.4485 33.5505 37.4512 32.6528 37.4443 31.7547C37.4432 31.612 37.4801 31.5691 37.6233 31.5771C37.851 31.5896 38.0803 31.5847 38.3084 31.5786C38.412 31.5756 38.4512 31.6029 38.4508 31.7141C38.4474 33.1812 38.4474 34.6482 38.4508 36.1153C38.4512 36.2242 38.4162 36.2553 38.3099 36.2527C38.0308 36.2466 37.7513 36.244 37.4725 36.2538C37.359 36.258 37.3031 36.2106 37.2463 36.124C36.6092 35.147 35.9097 34.2102 35.3008 33.1485Z" fill="#001F33"></path>
    <path d="M13.1443 33.7943C13.7764 34.0361 14.0407 34.3967 14.0228 34.9725C14.0053 35.5351 13.6637 35.956 13.0761 36.1386C12.8571 36.2065 12.6325 36.2468 12.4032 36.2479C11.7878 36.2517 11.1721 36.2472 10.5567 36.2544C10.4322 36.2559 10.3983 36.2213 10.3986 36.0972C10.4028 34.6431 10.4009 33.1885 10.4021 31.7344C10.4021 31.6664 10.3693 31.5765 10.5003 31.5803C11.2037 31.6015 11.9089 31.537 12.6108 31.6198C12.8712 31.6505 13.1172 31.7329 13.3373 31.8798C14.0365 32.3455 13.9992 33.3161 13.2673 33.7245C13.2349 33.7431 13.2025 33.7617 13.1443 33.7943Z" fill="#001F33"></path>
    <path d="M0.511677 33.9239C0.511677 33.2039 0.516627 32.4835 0.507869 31.7634C0.505965 31.6101 0.552043 31.5736 0.698273 31.5786C1.36926 31.6013 2.04138 31.5486 2.71237 31.6176C3.87041 31.7368 4.54749 32.4356 4.62517 33.593C4.64726 33.9228 4.64688 34.2508 4.56272 34.5715C4.32357 35.4844 3.68686 35.9672 2.79919 36.1744C2.31138 36.2883 1.81518 36.2431 1.32204 36.2511C1.10003 36.2545 0.878015 36.245 0.656384 36.2541C0.536429 36.2591 0.50825 36.2181 0.509011 36.1035C0.513962 35.377 0.511677 34.6504 0.511677 33.9239Z" fill="#001F33"></path>
    <path d="M18.3493 36.2516C18.1985 36.2345 17.9739 36.3268 17.8474 36.2159C17.7313 36.1146 17.7183 35.8971 17.6567 35.732C17.5843 35.5384 17.5889 35.267 17.4297 35.1695C17.2812 35.0784 17.0363 35.1418 16.8337 35.1406C16.5165 35.1387 16.1993 35.1463 15.8825 35.1372C15.7602 35.1338 15.7023 35.1714 15.6677 35.2886C15.587 35.5604 15.4857 35.8261 15.4076 36.0987C15.3737 36.2167 15.3231 36.26 15.1985 36.2547C14.9643 36.2444 14.7294 36.2516 14.4948 36.2516C14.2534 36.2516 14.2526 36.2512 14.333 36.0315C14.6296 35.2203 14.9266 34.4092 15.2233 33.598C15.4506 32.9763 15.6795 32.3549 15.9011 31.7313C15.9411 31.6189 15.9925 31.5749 16.1163 31.5783C16.4457 31.5878 16.7758 31.5867 17.1052 31.5787C17.2134 31.576 17.2587 31.6136 17.2941 31.7115C17.8234 33.1695 18.3547 34.6263 18.8909 36.0816C18.9472 36.2345 18.9053 36.2657 18.7595 36.2539C18.6338 36.2433 18.5062 36.2516 18.3493 36.2516Z" fill="#001F33"></path>
    <path d="M51.0273 36.2517C51.1637 35.8748 51.2909 35.5203 51.42 35.1669C51.8377 34.0236 52.2585 32.8815 52.6705 31.7363C52.7151 31.6125 52.7707 31.5746 52.899 31.5784C53.2223 31.5882 53.546 31.5856 53.8693 31.5791C53.9729 31.5772 54.0243 31.6034 54.062 31.7074C54.5902 33.1665 55.1222 34.6237 55.658 36.0801C55.7056 36.2096 55.698 36.2597 55.5426 36.2544C55.2703 36.2449 54.9973 36.2487 54.7242 36.2536C54.6336 36.2551 54.5921 36.2278 54.5639 36.1374C54.474 35.8486 54.3686 35.5643 54.2772 35.2758C54.2463 35.1779 54.2048 35.1358 54.0932 35.1373C53.605 35.1441 53.1165 35.1445 52.6279 35.1369C52.514 35.135 52.4752 35.1817 52.4455 35.2773C52.3594 35.5544 52.2631 35.8281 52.1774 36.1052C52.1462 36.2062 52.1054 36.2589 51.9836 36.2551C51.6743 36.2445 51.3644 36.2517 51.0273 36.2517Z" fill="#001F33"></path>
    <path d="M47.7741 33.9179C47.7741 33.1971 47.7783 32.4762 47.7703 31.7558C47.7688 31.6104 47.8107 31.5744 47.9512 31.5797C48.5971 31.604 49.246 31.536 49.8899 31.6184C50.7772 31.7319 51.2711 32.2735 51.2688 33.112C51.2665 33.9372 50.7182 34.5366 49.8636 34.6561C49.5727 34.6968 49.2814 34.6975 48.9901 34.6884C48.8457 34.6838 48.7932 34.7176 48.7974 34.8733C48.8092 35.284 48.7974 35.695 48.8038 36.1057C48.8058 36.2207 48.7749 36.2598 48.6557 36.2549C48.4215 36.2458 48.1858 36.2439 47.9516 36.2553C47.8115 36.2621 47.768 36.2257 47.7696 36.0792C47.7787 35.3595 47.7741 34.6387 47.7741 33.9179Z" fill="#001F33"></path>
    <path d="M68.0903 33.3803C68.4361 32.8136 68.7685 32.2777 69.0899 31.7353C69.1608 31.6157 69.2381 31.5728 69.3752 31.5789C69.6345 31.5906 69.895 31.5808 70.1551 31.5834C70.2019 31.5838 70.2651 31.555 70.2937 31.607C70.3218 31.6586 70.2666 31.6988 70.2411 31.7391C69.7282 32.543 69.2152 33.3473 68.6977 34.1486C68.6261 34.2591 68.5918 34.368 68.5937 34.5008C68.6002 35.025 68.5922 35.5496 68.5994 36.0742C68.6014 36.2078 68.5789 36.2655 68.4269 36.256C68.1931 36.2416 67.9578 36.2454 67.7236 36.2549C67.6002 36.2598 67.5625 36.2241 67.5644 36.0981C67.5713 35.5674 67.5648 35.0368 67.5694 34.5058C67.5705 34.3873 67.5423 34.2875 67.4787 34.1873C66.9723 33.3868 66.4692 32.5836 65.9665 31.7804C65.9342 31.7288 65.8637 31.676 65.8942 31.6157C65.9311 31.5417 66.0195 31.5849 66.0835 31.5838C66.3561 31.5789 66.6288 31.5865 66.9014 31.5793C67.0046 31.5766 67.0591 31.613 67.1097 31.7007C67.4269 32.2534 67.7514 32.8022 68.0903 33.3803Z" fill="#001F33"></path>
    <path d="M63.7155 31.5824C64.3244 31.5824 64.9333 31.5858 65.5422 31.5794C65.6663 31.5782 65.7063 31.6116 65.6995 31.7361C65.6888 31.9252 65.6881 32.1157 65.6999 32.3047C65.7082 32.4357 65.6576 32.46 65.5392 32.4577C65.1713 32.4509 64.8031 32.463 64.4356 32.4512C64.2813 32.4463 64.2337 32.482 64.2349 32.6448C64.2425 33.7824 64.2356 34.9204 64.2429 36.058C64.244 36.2162 64.2025 36.2656 64.0441 36.2557C63.8293 36.2421 63.6126 36.2432 63.3975 36.2553C63.2505 36.2637 63.2067 36.2223 63.2075 36.0701C63.2143 34.9325 63.2071 33.7946 63.2155 32.657C63.2166 32.4873 63.1724 32.4452 63.006 32.4509C62.6195 32.4642 62.2322 32.4516 61.8453 32.4573C61.7383 32.4588 61.7002 32.4285 61.7052 32.3195C61.7132 32.1366 61.7162 31.9525 61.7044 31.7699C61.6953 31.6257 61.7322 31.5756 61.8887 31.5782C62.4973 31.5881 63.1066 31.5824 63.7155 31.5824Z" fill="#001F33"></path>
    <path d="M56.2972 33.9252C56.2972 33.2044 56.3022 32.4836 56.293 31.7631C56.2911 31.6075 56.3406 31.5718 56.485 31.5794C56.7066 31.5908 56.9294 31.5912 57.1506 31.579C57.2907 31.5714 57.3311 31.6094 57.3303 31.7544C57.3239 32.8734 57.3265 33.9924 57.3265 35.1114C57.3265 35.3748 57.3265 35.3748 57.5851 35.3748C58.1559 35.3748 58.7272 35.3786 59.298 35.3721C59.4221 35.3706 59.4621 35.4044 59.4557 35.5293C59.4454 35.7312 59.4488 35.9339 59.4545 36.1358C59.4572 36.2266 59.4271 36.2543 59.3361 36.2539C58.3654 36.2512 57.3947 36.2497 56.424 36.255C56.2816 36.2558 56.2957 36.1784 56.2957 36.0873C56.2976 35.3668 56.2972 34.646 56.2972 33.9252Z" fill="#001F33"></path>
    <path d="M20.5632 33.9341C20.5632 34.6488 20.5591 35.3632 20.5667 36.0776C20.5682 36.2214 20.5286 36.262 20.3865 36.2548C20.1459 36.2427 19.9044 36.2476 19.6634 36.2533C19.5674 36.2556 19.5309 36.2309 19.5313 36.1277C19.5343 34.6541 19.5343 33.181 19.5313 31.7075C19.5313 31.6081 19.561 31.5769 19.6603 31.5792C19.914 31.5853 20.1683 31.5879 20.4216 31.5785C20.5476 31.5735 20.5659 31.6244 20.5651 31.7333C20.5613 32.467 20.5632 33.2008 20.5632 33.9341Z" fill="#001F33"></path>
    <path d="M39.473 33.8977C39.473 33.1894 39.4783 32.4811 39.4688 31.7732C39.4665 31.6104 39.5168 31.5705 39.671 31.5793C39.9052 31.5922 40.1406 31.5868 40.3751 31.5808C40.4734 31.5781 40.5054 31.6081 40.5054 31.7083C40.5027 33.1814 40.5027 34.655 40.5054 36.1281C40.5058 36.2302 40.47 36.2568 40.3736 36.2545C40.1261 36.2488 39.8782 36.2439 39.6314 36.256C39.4852 36.2632 39.47 36.2006 39.4707 36.0787C39.4757 35.3519 39.473 34.625 39.473 33.8977Z" fill="#001F33"></path>
    <path d="M45.7105 33.8997C45.7105 33.1861 45.7139 32.4729 45.7075 31.7593C45.7063 31.6246 45.7307 31.568 45.8811 31.5771C46.1085 31.5908 46.3377 31.5896 46.565 31.5775C46.7063 31.5699 46.7452 31.6098 46.744 31.7532C46.7368 32.6688 46.7406 33.5843 46.7406 34.4998C46.7406 35.024 46.7337 35.5482 46.7448 36.072C46.7482 36.2296 46.6941 36.2607 46.5525 36.2539C46.3312 36.2432 46.1084 36.2421 45.8876 36.2542C45.7467 36.2618 45.7055 36.2231 45.7071 36.0781C45.7147 35.352 45.7105 34.6259 45.7105 33.8997Z" fill="#001F33"></path>
    <path d="M61.0956 33.9131C61.0956 34.6267 61.0884 35.3403 61.1006 36.0535C61.1036 36.2296 61.048 36.2645 60.8885 36.2547C60.6737 36.2414 60.4574 36.2425 60.2427 36.2543C60.1025 36.2623 60.061 36.2239 60.0625 36.0786C60.0702 35.226 60.0663 34.3735 60.0663 33.521C60.0663 32.9338 60.0705 32.3466 60.0633 31.7594C60.0618 31.625 60.0854 31.5677 60.2366 31.5772C60.4639 31.5912 60.6931 31.5897 60.9205 31.5776C61.061 31.57 61.1014 31.6087 61.0995 31.7529C61.0915 32.4734 61.0956 33.193 61.0956 33.9131Z" fill="#001F33"></path>
    <path d="M43.768 24.2148C43.7638 24.7018 43.3849 25.0685 42.8914 25.0635C42.4066 25.0586 42.0345 24.6768 42.0391 24.1886C42.0437 23.7054 42.4271 23.335 42.9176 23.3399C43.4066 23.3452 43.7722 23.7214 43.768 24.2148Z" fill="#001F33"></path>
    <path d="M5.30471 25.3535C5.78644 25.3562 6.17105 25.7479 6.16268 26.2266C6.1543 26.7116 5.7712 27.0814 5.28224 27.0772C4.79633 27.0726 4.42238 26.6915 4.4258 26.2045C4.42885 25.7244 4.81499 25.3509 5.30471 25.3535Z" fill="#001F33"></path>
    <path d="M31.3523 14.1292C31.3545 14.6108 30.9715 14.9984 30.4913 15.0003C30.0088 15.0022 29.6234 14.6207 29.6211 14.139C29.6188 13.6596 30.0053 13.2672 30.4817 13.2656C30.9604 13.2637 31.35 13.6501 31.3523 14.1292Z" fill="#001F33"></path>
    <path d="M33.2996 14.1452C33.295 14.6307 32.9123 15.0049 32.4249 15.0004C31.9439 14.9962 31.5669 14.6094 31.5703 14.1232C31.5738 13.6457 31.9698 13.2581 32.447 13.2657C32.9294 13.2737 33.3042 13.6601 33.2996 14.1452Z" fill="#001F33"></path>
    <path d="M67.488 25.0627C67.0044 25.0643 66.6156 24.6835 66.6133 24.2053C66.6106 23.7274 66.9975 23.341 67.4796 23.3398C67.9644 23.3387 68.3524 23.7187 68.3547 24.1973C68.357 24.6737 67.9694 25.0608 67.488 25.0627Z" fill="#001F33"></path>
    <path d="M41.8242 24.2068C41.8226 24.6904 41.4414 25.0654 40.9536 25.0635C40.467 25.0616 40.0915 24.6828 40.0938 24.1962C40.096 23.7107 40.4753 23.338 40.9647 23.3399C41.4506 23.3414 41.8257 23.7198 41.8242 24.2068Z" fill="#001F33"></path>
    <path d="M15.3357 23.3399C15.8258 23.3376 16.2039 23.7096 16.2062 24.1958C16.2085 24.6839 15.8353 25.0612 15.3475 25.0635C14.8597 25.0662 14.4785 24.6915 14.4766 24.2076C14.4747 23.7206 14.8494 23.3421 15.3357 23.3399Z" fill="#001F33"></path>
    <path d="M3.35062 27.0772C2.86281 27.0794 2.482 26.7044 2.48048 26.2205C2.47857 25.7339 2.85405 25.3558 3.3411 25.3535C3.8293 25.3512 4.20897 25.7251 4.21125 26.2106C4.21392 26.6965 3.83806 27.0753 3.35062 27.0772Z" fill="#001F33"></path>
    <path d="M11.4328 34.8076C11.453 34.6478 11.3468 34.3969 11.4732 34.2769C11.5886 34.1672 11.8361 34.253 12.025 34.2466C12.2158 34.2401 12.4062 34.2466 12.5882 34.3122C12.8399 34.4029 12.9652 34.5821 12.9633 34.8436C12.9614 35.1048 12.8331 35.2934 12.5795 35.3682C12.2261 35.4726 11.8605 35.4107 11.5006 35.4232C11.4218 35.4259 11.4336 35.3637 11.4332 35.3151C11.4321 35.1572 11.4328 34.9989 11.4328 34.8076Z" fill="white"></path>
    <path d="M11.4301 32.9283C11.4301 32.7829 11.4312 32.6375 11.4297 32.4925C11.429 32.4276 11.4396 32.3824 11.5219 32.3859C11.7938 32.3972 12.0672 32.3623 12.3376 32.4143C12.6262 32.4697 12.7808 32.6311 12.7934 32.8903C12.8067 33.1625 12.6479 33.3671 12.3654 33.4369C12.0843 33.506 11.7972 33.4692 11.5131 33.4783C11.4248 33.4809 11.4305 33.4225 11.4305 33.3648C11.4301 33.219 11.4301 33.0736 11.4301 32.9283Z" fill="white"></path>
    <path d="M1.98995 32.4603C2.13504 32.4538 2.31173 32.469 2.48805 32.4921C3.04365 32.565 3.37952 32.8816 3.48158 33.4312C3.53756 33.7322 3.54365 34.0363 3.49452 34.3361C3.39323 34.9529 3.11219 35.2285 2.49681 35.3306C2.2211 35.3762 1.94159 35.3762 1.66246 35.3781C1.55316 35.3788 1.5406 35.3298 1.5406 35.2403C1.54288 34.3619 1.54402 33.484 1.53907 32.6056C1.53831 32.4857 1.57639 32.4481 1.69102 32.4587C1.77898 32.4667 1.86847 32.4603 1.98995 32.4603Z" fill="white"></path>
    <path d="M16.5835 32.5391C16.791 33.1547 16.9822 33.7214 17.1783 34.3029C16.7815 34.3029 16.4003 34.3029 16.0039 34.3029C16.1928 33.7275 16.379 33.1604 16.5835 32.5391Z" fill="white"></path>
    <path d="M53.3498 32.5371C53.5025 32.9873 53.6377 33.3851 53.7729 33.7833C53.8217 33.9264 53.8685 34.0702 53.9184 34.2133C53.9443 34.2873 53.9233 34.3147 53.843 34.3139C53.5197 34.3113 53.196 34.3116 52.8727 34.3135C52.7367 34.3143 52.7946 34.2388 52.8144 34.1776C52.9862 33.65 53.1583 33.1224 53.3498 32.5371Z" fill="white"></path>
    <path d="M49.2692 32.4072C49.4173 32.4125 49.5951 32.3981 49.7677 32.4561C50.0506 32.551 50.1999 32.7556 50.209 33.0703C50.22 33.4491 50.0929 33.6749 49.8034 33.7877C49.5037 33.9042 49.19 33.8511 48.8815 33.8621C48.8095 33.8647 48.8015 33.8188 48.8015 33.7626C48.8023 33.3459 48.8034 32.9291 48.8008 32.5123C48.8004 32.4261 48.8404 32.4041 48.9173 32.4064C49.0251 32.4098 49.1328 32.4072 49.2692 32.4072Z" fill="white"></path>
  </g>
  <defs>
    <clipPath id="clip0_634_719">
      <rect width="117" height="36" fill="white" transform="translate(0.382812 0.363281)"></rect>
    </clipPath>
  </defs>
</svg>
