<?xml version="1.0" encoding="UTF-8"?>
<svg xmlns="http://www.w3.org/2000/svg" width="124" height="59" viewBox="0 0 124 59" fill="none">
  <path d="M9.25265 13.3588C9.25265 15.9533 9.07479 18.5631 9.36544 21.1346C9.44786 21.8808 10.8491 22.5428 11.7167 23.1666C12.0333 23.3924 12.5626 23.3885 12.94 23.9434C8.99237 23.9434 5.04475 23.9434 0.90625 23.9434C1.15786 23.5914 1.23594 23.3464 1.3791 23.3082C4.68469 22.4013 4.85387 22.2788 4.88858 19.2978C4.94063 14.6484 4.91027 9.99891 4.89725 5.34947C4.89291 3.32132 4.62829 1.43858 1.59166 1.31613C1.42682 1.30848 1.24028 1.12097 1.12315 0.97938C1.05808 0.895193 1.11014 0.734471 1.11014 0.61967C1.20558 0.524003 1.29667 0.363281 1.3791 0.363281C6.4763 0.443642 11.5909 0.332668 16.6664 0.688551C20.5272 0.960247 22.3535 2.74349 22.5791 5.48341C22.8785 9.10729 21.3905 11.1814 17.6294 12.3906C17.1132 12.5552 16.6143 12.7656 15.7337 13.0947C20.024 16.5885 22.462 21.3642 27.9062 23.9625C27.1558 24.0506 26.4009 24.108 25.6591 24.2304C22.4013 24.7547 20.1325 23.7215 18.3018 21.2379C16.5406 18.8501 14.3282 16.7148 12.2155 14.5412C11.5822 13.8907 10.6148 13.485 9.80358 12.9684C9.61705 13.0985 9.43485 13.2286 9.25265 13.3588ZM9.12251 11.8893C11.0616 11.7975 12.7144 11.962 14.1807 11.5717C15.3736 11.2579 16.7965 10.4849 17.3214 9.56267C18.4667 7.54217 18.3973 5.29973 16.7575 3.41316C15.109 1.51894 12.6407 1.48833 10.2287 1.72559C9.8166 1.76768 9.18324 2.45649 9.17023 2.85829C9.07913 5.77424 9.12251 8.69401 9.12251 11.8893Z" fill="#001F33"></path>
  <path d="M44.9062 0.363281C52.537 0.363281 60.1477 0.363281 67.9062 0.363281C67.9062 2.31976 67.9062 4.26065 67.9062 6.20154C67.7465 6.2561 67.5868 6.31456 67.4231 6.36913C67.1755 5.87806 66.8481 5.40648 66.6884 4.88813C65.9137 2.4133 61.0981 0.651687 58.9818 2.14828C58.6503 2.38212 58.4747 3.02908 58.4747 3.48897C58.4427 9.20252 58.4667 14.9161 58.4427 20.6257C58.4387 22.173 59.2134 23.0343 60.6948 23.3967C61.2858 23.5409 61.8727 23.7007 62.4637 23.8566C62.4398 24.0242 62.4198 24.1957 62.3958 24.3633C58.3788 24.3633 54.3578 24.3633 50.225 24.3633C50.3847 23.9891 50.4087 23.7982 50.4806 23.7787C54.3578 22.7459 54.5615 22.4848 54.5615 18.4159C54.5655 13.6767 54.5056 8.93749 54.5894 4.19829C54.6214 2.40161 53.8387 1.69228 52.1177 1.77413C50.9238 1.82869 49.7219 1.85597 48.5479 2.04305C46.9467 2.30027 46.2559 3.41102 46.0123 4.89982C45.9325 5.40258 45.649 5.87806 45.4613 6.36523C45.2776 6.32626 45.0899 6.28339 44.9062 6.24441C44.9063 4.36198 44.9062 2.47566 44.9062 0.363281Z" fill="#001F33"></path>
  <path d="M29.0734 24.3633C29.3732 23.9582 29.4863 23.666 29.6043 23.666C33.0207 23.6231 33.5172 21.726 33.5467 19.6653C33.6106 14.8622 33.6253 10.0591 33.5467 5.25599C33.5172 3.38617 33.1879 1.54361 30.032 1.32546C29.7272 1.30599 29.4716 0.865797 28.9062 0.363281C33.7876 0.363281 38.2166 0.363281 42.6506 0.363281C42.7342 0.472354 42.8227 0.581428 42.9062 0.690501C42.3557 0.947602 41.8395 1.35663 41.2546 1.42674C39.2342 1.66826 38.4428 2.6733 38.4329 4.1302C38.3985 9.71241 38.4034 15.2946 38.4379 20.8768C38.4477 22.4584 39.4308 23.4284 41.5446 23.5569C41.9919 23.5842 42.4245 23.8101 42.744 24.3633C38.2658 24.3633 33.7876 24.3633 29.0734 24.3633Z" fill="#001F33"></path>
  <path d="M5.44764 36.6936H3.68875V40.8148H1.44922V30.1387H6.13279C7.37015 30.1387 8.30073 30.4966 8.92452 31.1408C9.51764 31.7544 9.87556 32.5009 9.87556 33.4519C9.87556 34.945 9.09837 35.988 7.75874 36.438L10.4278 40.8148H7.92237L5.44764 36.6936ZM3.68875 34.9347H5.92826C7.06337 34.9347 7.65648 34.4132 7.65648 33.4724C7.65648 32.5009 7.03269 32.0203 5.94872 32.0203H3.68875V34.9347Z" fill="#001F33"></path>
  <path d="M10.3867 36.991C10.3867 34.7105 12.0127 32.9414 14.3851 32.9414C16.7576 32.9414 18.3836 34.7003 18.3836 36.991C18.3836 39.2816 16.7576 41.0405 14.3851 41.0405C12.0127 41.0405 10.3867 39.2714 10.3867 36.991ZM16.3281 36.991C16.3281 35.4979 15.6225 34.4856 14.3851 34.4856C13.1273 34.4856 12.4422 35.4979 12.4422 36.991C12.4422 38.484 13.1273 39.4861 14.3851 39.4861C15.6327 39.4861 16.3281 38.484 16.3281 36.991Z" fill="#001F33"></path>
  <path d="M18.957 36.991C18.957 34.7105 20.45 32.9414 22.7816 32.9414C24.7655 32.9414 25.9926 34.0867 26.2585 35.7434H24.2746C24.1417 35.0684 23.6202 34.5674 22.8736 34.5674C21.6465 34.5674 21.0227 35.5082 21.0227 36.9807C21.0227 38.4328 21.6056 39.4043 22.843 39.4043C23.6611 39.4043 24.2439 38.9748 24.3769 38.1056H26.3301C26.1971 39.7316 24.9291 41.0303 22.8839 41.0303C20.4705 41.0405 18.957 39.2714 18.957 36.991Z" fill="#001F33"></path>
  <path d="M29.243 34.1575H29.2839C29.8361 33.3497 30.4599 32.9509 31.5029 32.9509C33.088 32.9509 34.1413 34.1473 34.1413 35.8142V40.8148H32.1063V36.1107C32.1063 35.2926 31.6256 34.7098 30.7769 34.7098C29.877 34.7098 29.2225 35.4256 29.2225 36.4687V40.8148H27.1875V30.1387H29.2225V34.1575H29.243Z" fill="#001F33"></path>
  <path d="M35.0312 36.9803C35.0312 34.7101 36.5652 32.9512 38.8047 32.9512C41.2692 32.9512 42.5781 34.8328 42.5781 37.5632H37.0253C37.1787 38.7392 37.8332 39.4754 38.9785 39.4754C39.766 39.4754 40.2364 39.1175 40.4613 38.5346H42.4657C42.1793 39.8947 40.9726 41.04 38.999 41.04C36.4731 41.04 35.0312 39.2607 35.0312 36.9803ZM37.0662 36.152H40.4716C40.4102 35.1805 39.7659 34.5055 38.8456 34.5055C37.7719 34.5158 37.2401 35.16 37.0662 36.152Z" fill="#001F33"></path>
  <path d="M43.0469 38.3301H44.9285C45.0614 39.2096 45.6954 39.5982 46.6056 39.5982C47.5055 39.5982 48.0066 39.2505 48.0066 38.7187C48.0066 37.9824 47.0351 37.9108 45.992 37.7063C44.6217 37.4404 43.2719 37.0621 43.2719 35.3952C43.2719 33.7386 44.6422 32.9512 46.3908 32.9512C48.4054 32.9512 49.52 33.9533 49.6734 35.4873H47.8429C47.7509 34.6692 47.2294 34.3726 46.3601 34.3726C45.5727 34.3726 45.0512 34.6692 45.0512 35.2214C45.0512 35.8758 46.0636 35.9372 47.1578 36.1622C48.4463 36.4281 49.8575 36.786 49.8575 38.5755C49.8575 40.1095 48.5383 41.04 46.6363 41.04C44.407 41.04 43.1696 39.9663 43.0469 38.3301Z" fill="#001F33"></path>
  <path d="M50.1743 33.1546H51.2378V30.7617H53.2217V33.1546H54.5306V34.4943H53.2217V38.554C53.2217 39.1267 53.5387 39.3108 53.9784 39.3108C54.2341 39.3108 54.5715 39.3005 54.5715 39.3005V40.7936C54.5715 40.7936 54.1113 40.8242 53.3035 40.8242C52.3218 40.8242 51.2276 40.4356 51.2276 38.9835V34.4943H50.1641V33.1546H50.1743Z" fill="#001F33"></path>
  <path d="M55.125 36.9803C55.125 34.7101 56.6589 32.9512 58.8984 32.9512C61.3629 32.9512 62.6719 34.8328 62.6719 37.5632H57.1191C57.2725 38.7392 57.927 39.4754 59.0723 39.4754C59.8597 39.4754 60.3301 39.1175 60.5551 38.5346H62.5594C62.2731 39.8947 61.0664 41.04 59.0927 41.04C56.5567 41.04 55.125 39.2607 55.125 36.9803ZM57.16 36.152H60.5653C60.504 35.1805 59.8597 34.5055 58.9393 34.5055C57.8554 34.5158 57.3339 35.16 57.16 36.152Z" fill="#001F33"></path>
  <path d="M65.5782 34.3832H65.6191C66.0793 33.5139 66.6008 33.0742 67.5007 33.0742C67.7257 33.0742 67.8586 33.0844 67.9813 33.1356V34.9149H67.9404C66.611 34.782 65.66 35.4774 65.66 37.0931V40.8256H63.625V33.156H65.5782V34.3832Z" fill="#001F33"></path>
  <path d="M73.7148 30.1387H71.5469V40.8148H73.7148V30.1387Z" fill="#001F33"></path>
  <path d="M77.1918 34.1992H77.2327C77.7543 33.3811 78.4598 32.9414 79.5029 32.9414C81.088 32.9414 82.1413 34.1379 82.1413 35.8047V40.8053H80.1063V36.1013C80.1063 35.2832 79.6256 34.7003 78.7769 34.7003C77.877 34.7003 77.2225 35.4161 77.2225 36.4592V40.8053H75.1875V33.1562H77.1714V34.1992H77.1918Z" fill="#001F33"></path>
  <path d="M82.9219 38.3301H84.8035C84.9364 39.2096 85.5704 39.5982 86.4806 39.5982C87.3805 39.5982 87.8815 39.2505 87.8815 38.7187C87.8815 37.9824 86.9101 37.9108 85.867 37.7063C84.4967 37.4404 83.1469 37.0621 83.1469 35.3952C83.1469 33.7386 84.5171 32.9512 86.2658 32.9512C88.2804 32.9512 89.4052 33.9533 89.5484 35.4873H87.7179C87.6259 34.6692 87.1044 34.3726 86.2351 34.3726C85.4477 34.3726 84.9262 34.6692 84.9262 35.2214C84.9262 35.8758 85.9386 35.9372 87.0328 36.1622C88.3213 36.4281 89.7325 36.786 89.7325 38.5755C89.7325 40.1095 88.4235 41.04 86.5112 41.04C84.2819 41.04 83.0446 39.9663 82.9219 38.3301Z" fill="#001F33"></path>
  <path d="M90.0493 33.1546H91.1128V30.7617H93.0967V33.1546H94.4056V34.4943H93.0967V38.554C93.0967 39.1267 93.4137 39.3108 93.8534 39.3108C94.1091 39.3108 94.4465 39.3005 94.4465 39.3005V40.7936C94.4465 40.7936 93.9864 40.8242 93.1785 40.8242C92.1968 40.8242 91.1026 40.4356 91.1026 38.9835V34.4943H90.0391V33.1546H90.0493Z" fill="#001F33"></path>
  <path d="M95.4453 30.1387H97.4803V31.9589H95.4453V30.1387ZM95.4453 33.1554H97.4803V40.8148H95.4453V33.1554Z" fill="#001F33"></path>
  <path d="M98.3423 33.1546H99.4058V30.7617H101.39V33.1546H102.699V34.4943H101.39V38.554C101.39 39.1267 101.707 39.3108 102.146 39.3108C102.402 39.3108 102.739 39.3005 102.739 39.3005V40.7936C102.739 40.7936 102.279 40.8242 101.471 40.8242C100.49 40.8242 99.3956 40.4356 99.3956 38.9835V34.4943H98.332V33.1546H98.3423Z" fill="#001F33"></path>
  <path d="M108.586 40.8156V39.9157H108.545C108.023 40.6213 107.42 41.0202 106.346 41.0202C104.649 41.0202 103.688 39.926 103.688 38.2591V33.1562H105.702V37.9216C105.702 38.8215 106.101 39.3124 106.97 39.3124C107.921 39.3124 108.504 38.5966 108.504 37.5842V33.1562H110.529V40.8156H108.586Z" fill="#001F33"></path>
  <path d="M111.409 33.1546H112.472V30.7617H114.456V33.1546H115.765V34.4943H114.456V38.554C114.456 39.1267 114.773 39.3108 115.213 39.3108C115.468 39.3108 115.806 39.3005 115.806 39.3005V40.7936C115.806 40.7936 115.346 40.8242 114.538 40.8242C113.556 40.8242 112.462 40.4356 112.462 38.9835V34.4943H111.398V33.1546H111.409Z" fill="#001F33"></path>
  <path d="M116.359 36.9803C116.359 34.7101 117.893 32.9512 120.133 32.9512C122.597 32.9512 123.906 34.8328 123.906 37.5632H118.353C118.507 38.7392 119.161 39.4754 120.307 39.4754C121.094 39.4754 121.564 39.1175 121.789 38.5346H123.794C123.507 39.8947 122.301 41.04 120.327 41.04C117.801 41.04 116.359 39.2607 116.359 36.9803ZM118.394 36.152H121.8C121.738 35.1805 121.104 34.5055 120.174 34.5055C119.1 34.5158 118.578 35.16 118.394 36.152Z" fill="#001F33"></path>
  <path d="M0.90625 51.9206C0.90625 49.6402 2.5322 47.8711 4.90467 47.8711C7.27713 47.8711 8.90309 49.63 8.90309 51.9206C8.90309 54.2113 7.27713 55.9702 4.90467 55.9702C2.5322 55.9702 0.90625 54.2011 0.90625 51.9206ZM6.84763 51.9206C6.84763 50.4276 6.14203 49.4152 4.90467 49.4152C3.64685 49.4152 2.96171 50.4276 2.96171 51.9206C2.96171 53.4137 3.64685 54.4158 4.90467 54.4158C6.15226 54.4158 6.84763 53.4137 6.84763 51.9206Z" fill="#001F33"></path>
  <path d="M9.25 48.0858H10.2931V47.4007C10.2931 45.5395 11.7452 44.8748 13.6984 45.0896V46.6541C12.7473 46.6132 12.3281 46.7257 12.3281 47.5234V48.096H13.6984V49.497H12.3281V55.7554H10.2931V49.497H9.25V48.0858Z" fill="#001F33"></path>
  <path d="M16.7461 45.0684H25.3361V46.8886H22.125V55.7444H19.9571V46.8886H16.7461V45.0684Z" fill="#001F33"></path>
  <path d="M24.1719 51.9002C24.1719 49.63 25.7058 47.8711 27.9453 47.8711C30.4098 47.8711 31.7188 49.7527 31.7188 52.4831H26.166C26.3194 53.6591 26.9738 54.3954 28.1192 54.3954C28.9066 54.3954 29.377 54.0375 29.602 53.4546H31.6063C31.3199 54.8146 30.1133 55.96 28.1396 55.96C25.6035 55.96 24.1719 54.1908 24.1719 51.9002ZM26.1967 51.0821H29.602C29.5406 50.1106 28.8964 49.4357 27.976 49.4357C26.9023 49.4459 26.3807 50.0799 26.1967 51.0821Z" fill="#001F33"></path>
  <path d="M32.2891 51.9206C32.2891 49.6402 33.7821 47.8711 36.1136 47.8711C38.0975 47.8711 39.3246 49.0164 39.5905 50.6833H37.6067C37.4737 50.0084 36.9522 49.5073 36.2057 49.5073C34.9785 49.5073 34.3547 50.4481 34.3547 51.9206C34.3547 53.3728 34.9376 54.334 36.175 54.334C36.9931 54.334 37.576 53.9045 37.7089 53.0353H39.6621C39.5292 54.6613 38.2611 55.96 36.2159 55.96C33.7923 55.9702 32.2891 54.2011 32.2891 51.9206Z" fill="#001F33"></path>
  <path d="M42.5789 49.0872H42.6198C43.172 48.2794 43.7958 47.8805 44.8389 47.8805C46.4239 47.8805 47.4772 49.077 47.4772 50.7439V55.7444H45.4422V51.0404C45.4422 50.2223 44.9616 49.6394 44.1128 49.6394C43.2129 49.6394 42.5584 50.3553 42.5584 51.3983V55.7444H40.5234V45.0684H42.5584V49.0872H42.5789Z" fill="#001F33"></path>
  <path d="M50.727 49.1289H50.7679C51.2894 48.3108 51.995 47.8711 53.0381 47.8711C54.6231 47.8711 55.6764 49.0676 55.6764 50.7344V55.735H53.6414V51.031C53.6414 50.2129 53.1608 49.63 52.312 49.63C51.4121 49.63 50.7576 50.3458 50.7576 51.3889V55.735H48.7227V48.0756H50.7065V49.1289H50.727Z" fill="#001F33"></path>
  <path d="M56.5586 51.9206C56.5586 49.6402 58.1845 47.8711 60.557 47.8711C62.9295 47.8711 64.5554 49.63 64.5554 51.9206C64.5554 54.2113 62.9295 55.9702 60.557 55.9702C58.1845 55.9702 56.5586 54.2011 56.5586 51.9206ZM62.5 51.9206C62.5 50.4276 61.7944 49.4152 60.557 49.4152C59.2992 49.4152 58.614 50.4276 58.614 51.9206C58.614 53.4137 59.2992 54.4158 60.557 54.4158C61.8046 54.4158 62.5 53.4137 62.5 51.9206Z" fill="#001F33"></path>
  <path d="M67.5701 45.0684H65.5352V55.7444H67.5701V45.0684Z" fill="#001F33"></path>
  <path d="M68.5312 51.9206C68.5312 49.6402 70.1572 47.8711 72.5297 47.8711C74.9021 47.8711 76.5281 49.63 76.5281 51.9206C76.5281 54.2113 74.9021 55.9702 72.5297 55.9702C70.1572 55.9702 68.5312 54.2011 68.5312 51.9206ZM74.4726 51.9206C74.4726 50.4276 73.767 49.4152 72.5297 49.4152C71.2719 49.4152 70.5867 50.4276 70.5867 51.9206C70.5867 53.4137 71.2719 54.4158 72.5297 54.4158C73.7773 54.4158 74.4726 53.4137 74.4726 51.9206Z" fill="#001F33"></path>
  <path d="M77.2637 55.9697H79.2783C79.4419 56.4504 79.8714 56.8185 80.8122 56.8185C81.9575 56.8185 82.5097 56.2663 82.5097 55.2232V54.3847H82.4688C82.0189 54.896 81.436 55.2846 80.4645 55.2846C78.7669 55.2846 77.0898 53.945 77.0898 51.6236C77.0898 49.3432 78.4602 47.8809 80.4031 47.8809C81.3541 47.8809 82.0598 48.249 82.5199 48.8932H82.5506V48.0854H84.5038V55.1619C84.5038 56.2356 84.1561 56.9719 83.5937 57.4934C82.9494 58.0865 81.9677 58.3626 80.8326 58.3626C78.7567 58.3524 77.4785 57.4628 77.2637 55.9697ZM82.6222 51.5725C82.6222 50.4476 82.0291 49.4966 80.8019 49.4966C79.7691 49.4966 79.084 50.3045 79.084 51.5827C79.084 52.8814 79.7691 53.6382 80.8122 53.6382C82.1007 53.6484 82.6222 52.7076 82.6222 51.5725Z" fill="#001F33"></path>
  <path d="M85.9984 56.6554H86.7142C87.522 56.6554 87.8493 56.2362 87.8493 55.6124C87.8493 55.1931 87.6959 54.7023 87.2664 53.5365L85.2109 48.0859H87.3482L88.4833 51.5321C88.7185 52.2378 88.9742 53.2092 88.9742 53.2092H89.0048C89.0048 53.2092 89.2196 52.2378 89.4548 51.5321L90.5285 48.0859H92.5738L89.9047 55.9396C89.3219 57.6372 88.7594 58.2507 87.205 58.2507H86.0086V56.6554H85.9984Z" fill="#001F33"></path>
</svg>
