<?xml version="1.0" encoding="UTF-8"?>
<svg xmlns="http://www.w3.org/2000/svg" width="121" height="84" viewBox="0 0 121 84" fill="none">
  <path d="M0.510349 39.9579C0.468572 39.9579 0.41287 39.944 0.371094 39.944C0.371094 39.0388 0.371094 38.1476 0.371094 37.2424C0.426796 37.2424 0.468572 37.2285 0.524274 37.2285C0.524274 38.1476 0.524274 39.0528 0.510349 39.9579Z" fill="#001F33"></path>
  <path d="M120.312 22.0086C120.145 21.9946 119.978 21.9807 119.811 21.9807C118.084 21.9807 116.357 21.9807 114.63 21.9807C114.533 21.9807 114.436 21.9807 114.338 21.9807C114.171 21.9807 114.115 21.8972 114.115 21.744C114.115 21.6326 114.115 21.5212 114.115 21.4098C114.115 16.689 114.115 11.9822 114.115 7.26144C114.115 6.67656 114.171 6.73227 113.6 6.73227C111.859 6.73227 110.119 6.73227 108.378 6.73227C108.28 6.73227 108.183 6.73227 108.085 6.73227C107.946 6.73227 107.877 6.66264 107.877 6.52338C107.877 6.45376 107.877 6.38413 107.877 6.3145C107.877 4.49026 107.877 2.66601 107.877 0.841771C107.877 0.730367 107.849 0.618963 107.918 0.521484C108.085 0.521484 108.253 0.521484 108.42 0.521484C112.375 0.521484 116.343 0.521484 120.298 0.521484C120.312 7.6792 120.312 14.8369 120.312 22.0086Z" fill="#001F33"></path>
  <path d="M74.8328 83.8241C74.6936 83.6849 74.4986 83.7127 74.3176 83.6709C72.2984 83.2114 70.8362 81.5125 70.683 79.4515C70.6134 78.616 70.6691 77.7944 70.9755 77.0145C71.616 75.3713 72.8415 74.3687 74.5543 74.0206C76.0165 73.7142 77.423 73.9509 78.732 74.7168C79.4004 75.1067 79.4004 75.1207 78.9687 75.7752C78.7459 76.1233 78.5092 76.4854 78.2864 76.8335C78.2724 76.8614 78.2446 76.8753 78.2167 76.8892C78.0635 76.8614 77.9521 76.736 77.8268 76.6525C76.9495 76.0815 75.9886 75.9144 74.9721 76.1512C73.9555 76.4018 73.2732 77.1677 73.12 78.1982C73.0225 78.8666 73.0782 79.5072 73.3846 80.1199C73.9555 81.3036 75.2924 81.8885 76.5735 81.5125C76.9077 81.415 77.2419 81.2758 77.5204 81.0808C77.7154 80.9415 77.8268 80.5098 77.7293 80.287C77.6876 80.1896 77.604 80.1896 77.5204 80.1896C77.2419 80.1896 76.9634 80.1756 76.6849 80.1896C76.49 80.2035 76.4064 80.1478 76.4064 79.9389C76.4203 79.4515 76.4203 78.9502 76.4064 78.4628C76.4064 78.2678 76.4621 78.1843 76.671 78.1843C77.6458 78.1843 78.6066 78.1843 79.5814 78.1843C79.7903 78.1843 79.8321 78.2818 79.8321 78.4628C79.8182 78.9084 79.8321 79.354 79.8321 79.8136C79.8321 80.9694 79.8321 82.1113 79.8321 83.2671C79.8321 83.6013 79.8321 83.6013 79.5118 83.6013C79.0801 83.6013 78.6484 83.6013 78.2028 83.6013C77.8825 83.6013 77.8825 83.5874 77.8686 83.2671C77.8686 83.1835 77.8686 83.1 77.8686 82.9747C77.4508 83.2114 77.0748 83.4342 76.6431 83.5735C76.3786 83.657 76.0861 83.657 75.8494 83.7963C75.5012 83.8241 75.167 83.8241 74.8328 83.8241Z" fill="#001F33"></path>
  <path d="M120.313 0.521209C116.359 0.521209 112.39 0.521209 108.435 0.521209C108.268 0.521209 108.101 0.521209 107.934 0.521209C107.934 0.493358 107.934 0.465507 107.934 0.437656C111.944 0.437656 115.969 0.437656 119.979 0.437656C120.077 0.451581 120.23 0.354103 120.313 0.521209Z" fill="#001F33"></path>
  <path d="M32.1208 83.7398C32.1208 83.7677 32.1208 83.7955 32.1208 83.8234C31.5637 83.8234 30.9928 83.8234 30.4358 83.8234C30.3661 83.6841 30.1851 83.7677 30.1016 83.6562C30.77 83.7537 31.4384 83.7677 32.1208 83.7398Z" fill="#001F33"></path>
  <path d="M62.4379 83.7398C62.4379 83.7677 62.4379 83.7955 62.4379 83.8234C61.9087 83.8234 61.3656 83.8234 60.8364 83.8234C60.7668 83.6841 60.5858 83.7816 60.4883 83.6562C61.1428 83.7398 61.7973 83.7816 62.4379 83.7398Z" fill="#001F33"></path>
  <path d="M94.7852 83.8231C94.7852 83.7953 94.7852 83.7674 94.7852 83.7395C95.4397 83.7813 96.0802 83.7395 96.7208 83.6699C96.6373 83.7813 96.4562 83.6978 96.3727 83.837C95.8574 83.8231 95.3143 83.8231 94.7852 83.8231Z" fill="#001F33"></path>
  <path d="M3.23828 83.8238C3.23828 83.7959 3.23828 83.7681 3.23828 83.7402C3.71175 83.7402 4.19914 83.7402 4.67261 83.7402C4.65868 83.7681 4.65868 83.7959 4.67261 83.8238C4.18522 83.8238 3.71175 83.8238 3.23828 83.8238Z" fill="#001F33"></path>
  <path d="M0.511719 39.9576C0.511719 39.0524 0.511719 38.1473 0.511719 37.2282C0.999112 28.2462 7.04279 20.6568 15.9273 18.4566C18.1275 17.9135 20.3417 17.7325 22.6115 17.8439C25.522 17.9831 28.3349 18.5541 31.0504 19.6403C33.0139 20.434 34.8381 21.4645 36.4953 22.7874C36.7598 22.9963 36.7738 22.9824 36.5927 23.247C35.4369 24.9737 34.2811 26.7005 33.1392 28.4273C33.1114 28.469 33.0696 28.5108 33.0278 28.5526C32.8746 28.5526 32.805 28.4412 32.7075 28.3716C30.2984 26.4777 27.5829 25.3358 24.5472 24.932C22.1381 24.6117 19.7568 24.6674 17.4173 25.3636C13.0168 26.6448 10.1621 29.5274 8.78348 33.8721C8.11505 35.9888 7.9758 38.1612 8.18468 40.3614C8.39356 42.5895 8.99236 44.6923 10.1343 46.614C12.1117 49.9422 15.036 52.0032 18.8099 52.8248C22.8483 53.7021 26.5803 52.8665 30.0478 50.722C30.7719 50.2764 31.4682 49.7612 32.1227 49.2041C32.2898 49.0649 32.3594 48.9117 32.3594 48.7028C32.3455 47.2963 32.3594 45.8899 32.3594 44.4973C32.3594 44.1631 32.3594 44.1631 31.9973 44.1631C30.2149 44.1631 28.4324 44.1631 26.6499 44.1631C26.5524 44.1631 26.455 44.1631 26.3575 44.1631C26.2043 44.177 26.1208 44.1074 26.1347 43.9403C26.1347 43.8567 26.1347 43.7732 26.1347 43.6896C26.1347 41.9211 26.1347 40.1525 26.1347 38.384C26.1347 37.8827 26.1068 37.9245 26.5803 37.9245C28.6552 37.9245 30.7301 37.9245 32.8189 37.9245C34.5875 37.9245 36.356 37.9245 38.1246 37.9245C38.236 37.9245 38.3474 37.9245 38.4588 37.9245C38.5562 37.9245 38.6119 37.9802 38.6119 38.0776C38.6119 38.189 38.6119 38.3005 38.6119 38.4119C38.6119 45.2354 38.6119 52.0589 38.6119 58.8824C38.6119 58.9799 38.6119 59.0773 38.6119 59.1748C38.6259 59.328 38.5562 59.4115 38.3891 59.3976C38.3613 59.3976 38.3334 59.3976 38.3056 59.3976C36.4256 59.3976 34.5457 59.3976 32.6657 59.3976C32.3733 59.3976 32.3733 59.3837 32.3594 59.0913C32.3594 58.2279 32.3594 57.3506 32.3594 56.4872C32.3594 56.3479 32.3872 56.2087 32.3315 56.0973C32.248 56.0555 32.2062 56.0973 32.1644 56.1251C30.0338 57.9354 27.5551 59.0356 24.8396 59.6483C22.9457 60.08 21.024 60.2192 19.1023 60.0521C12.6269 59.4812 7.58588 56.4454 3.9931 51.0284C2.28026 48.4522 1.2637 45.5974 0.776304 42.5617C0.650974 41.6844 0.53957 40.8349 0.511719 39.9576Z" fill="#001F33"></path>
  <path d="M76.7668 59.3709C76.7111 59.2177 76.8085 59.0924 76.8503 58.9671C81.2508 46.5733 85.6652 34.1936 90.0796 21.7998C90.4277 20.8251 90.7758 19.8503 91.124 18.8755C91.2493 18.5273 91.2493 18.5273 91.6392 18.5273C94.1597 18.5273 96.6942 18.5273 99.2147 18.5273C99.5768 18.5273 99.5768 18.5273 99.716 18.8894C100.663 21.5631 101.61 24.2229 102.557 26.8966C106.358 37.5635 110.16 48.2444 113.948 58.9114C114.004 59.0506 114.087 59.1899 114.059 59.357C113.948 59.4405 113.823 59.3987 113.697 59.3987C111.427 59.3987 109.144 59.3987 106.874 59.3987C106.442 59.3987 106.498 59.4405 106.358 59.0228C105.3 55.8617 104.256 52.6866 103.197 49.5256C103.002 48.9407 103.128 49.0242 102.515 49.0242C97.7804 49.0242 93.0596 49.0242 88.3249 49.0242C88.2414 49.0242 88.1578 49.0382 88.0743 49.0242C87.8515 48.9964 87.754 49.0939 87.6844 49.3027C87.3641 50.3054 87.016 51.2941 86.6957 52.2967C85.9437 54.5248 85.2056 56.7668 84.4676 58.9949C84.3005 59.4823 84.3422 59.3987 83.9245 59.3987C81.6685 59.3987 79.3987 59.3987 77.1428 59.3987C77.0174 59.3987 76.8921 59.4266 76.7668 59.3709ZM100.941 42.7577C99.0754 36.7837 97.1955 30.8654 95.413 24.8913C93.6306 30.8514 91.7367 36.7837 89.8846 42.7577C93.5888 42.7577 97.2373 42.7577 100.941 42.7577Z" fill="#001F33"></path>
  <path d="M49.6965 49.0234C50.2953 49.5665 50.9219 50.0678 51.5764 50.5134C53.3032 51.6832 55.1553 52.5465 57.2163 52.9365C58.9291 53.2567 60.6141 53.2428 62.2991 52.7415C62.8004 52.5883 63.2739 52.3794 63.7056 52.087C64.8475 51.335 65.4323 50.2488 65.5855 48.8981C65.7387 47.422 65.2513 46.1965 64.2069 45.1799C63.3713 44.3583 62.3826 43.7735 61.3661 43.2443C59.8482 42.4505 58.2607 41.81 56.6871 41.1276C55.0021 40.3896 53.331 39.6237 51.7714 38.6489C50.3371 37.7576 49.0281 36.6993 48.0115 35.3207C47.0228 33.9699 46.424 32.452 46.2847 30.781C45.8948 26.4083 47.6634 23.0384 51.1587 20.5039C53.0108 19.1671 55.0996 18.3594 57.3555 18.0391C62.6472 17.2871 67.4794 18.5265 71.9077 21.4787C72.1305 21.6319 72.4369 21.7433 72.5065 21.98C72.5622 22.2028 72.3115 22.4256 72.2001 22.6485C71.2393 24.3891 70.2645 26.1298 69.3036 27.8705C69.2479 27.9819 69.2061 28.1073 69.0669 28.1908C68.3985 27.6895 67.7022 27.216 66.9781 26.7983C65.3766 25.8931 63.7056 25.2107 61.8813 24.9044C60.1267 24.6119 58.4139 24.6955 56.7846 25.4753C55.7123 25.9906 54.8211 26.7286 54.2919 27.8287C53.5539 29.3327 53.7906 30.8924 54.9325 32.1039C55.6427 32.8559 56.52 33.399 57.4252 33.8724C58.8873 34.6522 60.4331 35.251 61.9509 35.9055C63.9005 36.7411 65.8362 37.5905 67.6326 38.7324C69.1783 39.7211 70.543 40.877 71.5735 42.4088C72.604 43.9545 73.161 45.6534 73.2445 47.5055C73.4534 52.2123 71.3228 55.6659 67.4237 58.1167C65.6969 59.2029 63.7891 59.8296 61.756 59.9828C56.52 60.4005 51.7018 59.2169 47.3849 56.1533C46.8139 55.7494 46.2708 55.3038 45.7834 54.8025C45.5328 54.5379 45.5328 54.5379 45.7416 54.2594C46.8696 52.7554 47.9976 51.2515 49.1255 49.7475C49.2926 49.5108 49.4458 49.2462 49.6965 49.0234Z" fill="#001F33"></path>
  <path d="M110.327 80.6893C110.536 79.7285 110.745 78.8094 110.94 77.9042C111.191 76.7205 111.455 75.5508 111.706 74.3671C111.775 74.0608 111.775 74.0608 112.082 74.0468C112.764 74.0468 113.447 74.0468 114.129 74.0468C114.185 74.2279 114.129 74.3671 114.087 74.4925C113.349 77.4168 112.611 80.3412 111.873 83.2516C111.789 83.6137 111.775 83.6137 111.441 83.6137C110.787 83.6137 110.118 83.6137 109.464 83.6137C109.269 83.6137 109.157 83.558 109.102 83.3491C108.698 81.678 108.28 80.007 107.876 78.322C107.848 78.1966 107.835 78.0713 107.807 77.9181C107.681 78.1131 107.695 78.322 107.64 78.503C107.25 80.1044 106.846 81.7059 106.456 83.3212C106.4 83.544 106.303 83.6137 106.08 83.5997C105.411 83.5858 104.729 83.5997 104.061 83.5997C103.74 83.5997 103.74 83.5998 103.657 83.2655C103.323 81.8869 102.988 80.5083 102.654 79.1436C102.264 77.5561 101.888 75.9546 101.498 74.3671C101.471 74.2696 101.429 74.1861 101.484 74.0468C102.028 74.0468 102.585 74.0468 103.142 74.0468C103.378 74.0468 103.671 73.9494 103.838 74.0886C104.033 74.2418 103.991 74.5621 104.033 74.7988C104.409 76.6788 104.785 78.5587 105.161 80.4526C105.161 80.4665 105.189 80.4944 105.23 80.5222C105.314 80.4387 105.3 80.3133 105.328 80.2158C105.801 78.2663 106.289 76.3306 106.762 74.3811C106.846 74.0468 106.846 74.0468 107.208 74.0329C107.612 74.0329 108.029 74.0468 108.433 74.019C108.684 74.0051 108.768 74.1165 108.823 74.3393C109.102 75.5508 109.394 76.7623 109.687 77.9738C109.909 78.8929 110.118 79.7702 110.327 80.6893Z" fill="#001F33"></path>
  <path d="M62.4379 83.7397C61.7834 83.7815 61.1428 83.7397 60.5022 83.6701C58.4273 83.2106 56.9791 81.6091 56.7006 79.4785C56.436 77.3897 57.369 75.4819 59.1515 74.521C61.3517 73.3374 64.4153 73.8387 65.8775 76.0946C67.646 78.8101 66.3788 82.9181 62.7721 83.6701C62.6607 83.698 62.5493 83.7119 62.4379 83.7397ZM64.2204 78.824C64.2343 78.5455 64.2064 78.267 64.1229 77.9885C63.8304 77.0137 63.2177 76.3453 62.2012 76.1225C61.2124 75.8997 60.3769 76.206 59.7085 76.9719C58.7058 78.1556 58.9147 80.1748 60.1541 81.1217C61.1567 81.8876 62.4797 81.8041 63.3709 80.9128C63.9558 80.328 64.2064 79.6178 64.2204 78.824Z" fill="#001F33"></path>
  <path d="M96.7196 83.6556C96.0791 83.7392 95.4246 83.767 94.784 83.7252C92.6534 83.3493 91.2608 82.1238 90.7177 80.035C90.0354 77.3474 91.5393 74.6319 94.3941 74.0192C96.4551 73.5735 98.6414 74.3116 99.7972 76.1219C101.552 78.8513 100.257 82.8897 96.7196 83.6556ZM93.0015 78.8931C92.9876 79.3109 93.1129 79.7982 93.3497 80.2578C94.1852 81.8314 96.2183 82.1099 97.3881 80.8148C98.1818 79.9514 98.3768 78.5728 97.8615 77.5145C97.1095 75.9826 95.1878 75.5649 93.9206 76.665C93.28 77.222 92.9876 77.9601 93.0015 78.8931Z" fill="#001F33"></path>
  <path d="M89.6738 83.56C89.5206 83.6574 89.4092 83.6296 89.2978 83.6296C88.699 83.6296 88.0863 83.6157 87.4875 83.6435C87.1811 83.6574 87.0419 83.5321 86.9026 83.2814C86.4709 82.4181 85.9974 81.5686 85.5658 80.7052C85.4543 80.4685 85.3151 80.3849 85.0505 80.3849C84.3264 80.3989 84.3264 80.3849 84.3264 81.0812C84.3264 81.8193 84.3264 82.5712 84.3264 83.3093C84.3264 83.6157 84.3125 83.6157 84.0339 83.6296C83.463 83.6296 82.8781 83.6296 82.3072 83.6296C81.9869 83.6296 81.9869 83.6157 81.973 83.2954C81.973 83.2257 81.973 83.1561 81.973 83.0865C81.973 80.2457 81.973 77.4188 81.973 74.578C81.973 74.4944 81.9869 74.4109 81.973 74.3273C81.9451 74.1045 82.0565 74.0488 82.2654 74.0488C83.4908 74.0628 84.7024 74.0488 85.9278 74.0628C86.2203 74.0628 86.5127 74.1045 86.8051 74.1742C87.9749 74.4387 88.7686 75.3857 88.894 76.5693C88.9636 77.2099 88.894 77.8226 88.6294 78.4214C88.4344 78.8671 88.142 79.243 87.7521 79.5216C87.5153 79.6887 87.5153 79.6887 87.6546 79.9393C88.2673 81.0255 88.88 82.1117 89.4928 83.1979C89.5624 83.3232 89.6042 83.4346 89.6738 83.56ZM85.0366 78.3797C85.2315 78.3657 85.4265 78.3797 85.6215 78.3518C86.0949 78.2961 86.4431 77.9897 86.5127 77.5302C86.6659 76.5136 86.276 76.1794 85.4544 76.0959C85.1619 76.068 84.8695 76.0959 84.577 76.082C84.3821 76.068 84.3403 76.1655 84.3403 76.3326C84.3403 76.7782 84.3403 77.2238 84.3403 77.6834C84.3264 78.3797 84.3264 78.3797 85.0366 78.3797Z" fill="#001F33"></path>
  <path d="M25.4802 83.6298C24.7561 83.6298 24.0598 83.6298 23.3635 83.6298C23.1686 83.6298 23.099 83.5324 23.0432 83.3653C22.904 82.8779 22.7508 82.4044 22.6255 81.917C22.5698 81.7081 22.4862 81.6106 22.2495 81.6106C21.4557 81.6246 20.6481 81.6246 19.8543 81.6106C19.6176 81.6106 19.534 81.7081 19.4783 81.9031C19.353 82.3626 19.2137 82.8222 19.0745 83.2817C18.977 83.6159 18.977 83.6159 18.6567 83.6159C18.0858 83.6159 17.5009 83.6159 16.9299 83.6159C16.5818 83.6159 16.5679 83.602 16.6932 83.2539C17.5844 80.608 18.4896 77.9622 19.3808 75.3302C19.4922 74.996 19.6176 74.6757 19.715 74.3276C19.7708 74.1187 19.8682 74.0352 20.091 74.0352C20.7177 74.0491 21.3583 74.0491 21.9849 74.0352C22.2077 74.0352 22.3052 74.1048 22.3748 74.3137C22.8065 75.6366 23.2661 76.9456 23.7117 78.2546C24.2826 79.9117 24.8396 81.5689 25.4106 83.226C25.4524 83.3513 25.5081 83.4488 25.4802 83.6298ZM21.0519 76.4025C20.8012 77.5026 20.4392 78.5749 20.1328 79.7028C20.7455 79.7028 21.3304 79.7028 21.9571 79.7028C21.6646 78.5749 21.3026 77.5026 21.0519 76.4025Z" fill="#001F33"></path>
  <path d="M9.24219 78.8253C9.24219 77.4049 9.24219 75.9845 9.24219 74.578C9.24219 74.4805 9.24219 74.383 9.24219 74.2856C9.24219 74.1324 9.28396 74.0488 9.465 74.0488C9.5207 74.0488 9.5764 74.0488 9.6321 74.0488C10.8297 74.0488 12.0134 74.0488 13.211 74.0488C13.6148 74.0488 14.0186 74.1045 14.4086 74.2577C15.439 74.6616 16.0239 75.4414 16.2606 76.4858C16.4556 77.3631 16.3721 78.2265 15.9682 79.0202C15.3833 80.1482 14.4225 80.6356 13.1831 80.6634C12.7793 80.6774 12.3754 80.6634 11.9577 80.6634C11.6095 80.6634 11.5956 80.6634 11.5956 81.0116C11.5956 81.7079 11.5956 82.4181 11.5956 83.1143C11.5956 83.2118 11.5956 83.3093 11.5956 83.4068C11.5956 83.546 11.526 83.6017 11.3867 83.6017C10.7461 83.6017 10.0916 83.6017 9.45107 83.6017C9.31181 83.6017 9.24219 83.5321 9.24219 83.3928C9.24219 83.2954 9.24219 83.1979 9.24219 83.1004C9.24219 81.6939 9.24219 80.2596 9.24219 78.8253ZM11.5956 77.3352C11.5956 77.6834 11.5956 78.0315 11.5956 78.3797C11.5956 78.5468 11.6374 78.6442 11.8323 78.6442C12.1805 78.6442 12.5286 78.6582 12.8767 78.6303C13.3781 78.5885 13.7401 78.324 13.8933 77.8226C13.9769 77.5024 13.9769 77.1821 13.8933 76.8618C13.768 76.3744 13.392 76.082 12.8767 76.068C12.5425 76.0541 12.2083 76.0819 11.8741 76.0541C11.6374 76.0402 11.5817 76.1516 11.5956 76.3465C11.6095 76.6947 11.5956 77.015 11.5956 77.3352Z" fill="#001F33"></path>
  <path d="M37.0647 78.8387C37.0647 77.4044 37.0647 75.9701 37.0647 74.5497C37.0647 74.4522 37.0647 74.3547 37.0647 74.2572C37.0647 74.118 37.1343 74.0623 37.2736 74.0623C37.3432 74.0623 37.4128 74.0623 37.4825 74.0623C39.1953 74.0623 40.9082 74.0623 42.621 74.0623C42.6906 74.0623 42.7602 74.0623 42.8299 74.0623C42.9831 74.0484 43.0527 74.118 43.0527 74.2851C43.0527 74.8003 43.0527 75.3295 43.0527 75.8447C43.0527 76.0258 42.9831 76.0954 42.802 76.0954C42.3703 76.0815 41.9386 76.0954 41.493 76.0954C40.8942 76.0954 40.2815 76.1093 39.6827 76.0954C39.4599 76.0954 39.3903 76.179 39.3903 76.3878C39.4042 76.7638 39.4042 77.1398 39.3903 77.5297C39.3763 77.7525 39.4877 77.8222 39.6966 77.8082C40.3929 77.7943 41.1031 77.8082 41.7994 77.8082C41.8969 77.8082 41.9943 77.8082 42.0918 77.8082C42.2311 77.8082 42.3007 77.864 42.2868 78.0171C42.2868 78.5463 42.2868 79.0894 42.2868 79.6186C42.2868 79.8274 42.1475 79.8274 42.0083 79.8274C41.3677 79.8274 40.7132 79.8274 40.0726 79.8274C39.2789 79.8414 39.4042 79.7021 39.3903 80.5237C39.3903 80.7605 39.3903 80.9972 39.3903 81.2339C39.3903 81.6378 39.3903 81.6378 39.822 81.6378C40.755 81.6378 41.6741 81.6378 42.6071 81.6378C42.6906 81.6378 42.7742 81.6378 42.8577 81.6378C43.2198 81.6378 43.2198 81.6378 43.2198 82.0138C43.2198 82.4594 43.2059 82.9189 43.2198 83.3645C43.2198 83.5734 43.1641 83.6709 42.9413 83.657C42.7045 83.643 42.4678 83.657 42.2311 83.657C40.6714 83.657 39.1118 83.657 37.5521 83.657C37.4546 83.657 37.3571 83.657 37.2597 83.657C37.1204 83.657 37.0508 83.6013 37.0508 83.462C37.0508 83.3645 37.0508 83.2671 37.0508 83.1696C37.0647 81.7074 37.0647 80.2731 37.0647 78.8387Z" fill="#001F33"></path>
  <path d="M32.1196 83.7398C31.4512 83.7816 30.7688 83.7537 30.1004 83.6702C27.8306 83.1549 26.3405 81.3168 26.3127 78.9912C26.2988 77.0138 27.0786 75.4541 28.8471 74.5211C30.741 73.5324 32.6349 73.6995 34.4313 74.8553C34.5427 74.9249 34.6262 75.0085 34.7237 75.092C34.849 75.1895 34.8908 75.3009 34.7933 75.4541C34.473 75.9693 34.1667 76.4707 33.8325 77.0138C33.6793 76.9024 33.54 76.8188 33.4008 76.7213C32.7323 76.2896 32.0361 76.0251 31.2284 76.0668C29.9055 76.1225 28.9028 77.0555 28.7636 78.3785C28.7218 78.7823 28.7357 79.1861 28.8471 79.59C29.251 81.1496 30.7131 81.9852 32.2589 81.5117C32.7881 81.3446 33.2615 81.0661 33.6793 80.7179C33.7628 80.6483 33.8464 80.5787 33.9717 80.4673C34.3477 81.0104 34.7237 81.5256 35.0858 82.0548C35.1972 82.208 35.0718 82.2776 34.9883 82.3612C34.3895 82.9321 33.6793 83.322 32.8855 83.5588C32.6349 83.6284 32.3703 83.6702 32.1196 83.7398Z" fill="#001F33"></path>
  <path d="M4.67285 83.7394C4.19938 83.7394 3.71199 83.7394 3.23852 83.7394C2.31944 83.6001 1.48391 83.2659 0.759779 82.6671C0.481269 82.4304 0.481269 82.4304 0.676226 82.1379C1.01044 81.6505 1.35858 81.1492 1.72064 80.634C2.027 80.8846 2.30551 81.0657 2.61187 81.2467C2.97394 81.4417 3.36385 81.567 3.76769 81.6227C4.06013 81.6645 4.35256 81.6366 4.63107 81.4974C5.07669 81.2606 5.13239 80.7454 4.72855 80.439C4.56145 80.3137 4.36649 80.2162 4.18546 80.1327C3.80947 79.9516 3.41955 79.7984 3.02964 79.6313C2.59795 79.4364 2.16626 79.2136 1.79027 78.9351C0.230609 77.7792 0.50912 75.7183 1.67886 74.7435C2.37514 74.1586 3.19674 73.9219 4.1019 73.9219C5.09061 73.9219 6.02362 74.1586 6.84523 74.7296C7.20729 74.9802 7.20729 74.9941 7.01234 75.3701C6.74775 75.8854 6.48317 76.3867 6.20466 76.9159C5.84259 76.6652 5.50838 76.4563 5.13239 76.3171C4.7564 76.1639 4.38041 76.0803 3.9905 76.1082C3.79554 76.1221 3.60058 76.1639 3.43348 76.2753C3.01571 76.5399 2.98786 77.0133 3.37778 77.3058C3.67021 77.5286 4.01835 77.6678 4.35256 77.7932C4.92351 78.016 5.50838 78.2388 6.03755 78.5591C6.85916 79.0604 7.3744 79.7567 7.40225 80.7454C7.44403 82.1658 6.58065 83.3077 5.17417 83.6837C4.96529 83.6837 4.8121 83.7115 4.67285 83.7394Z" fill="#001F33"></path>
  <path d="M51.6578 74.0621C52.8832 74.0621 54.0948 74.0621 55.3202 74.0621C55.724 74.0621 55.724 74.0621 55.724 74.4798C55.724 74.8976 55.724 75.3154 55.724 75.7471C55.724 76.0813 55.724 76.0813 55.362 76.0813C54.6657 76.0813 53.9555 76.0813 53.2592 76.0813C52.7997 76.0813 52.8415 76.0534 52.8415 76.5269C52.8415 78.6993 52.8415 80.8717 52.8415 83.058C52.8415 83.1137 52.8415 83.1694 52.8415 83.2251C52.8415 83.6289 52.8415 83.6428 52.4237 83.6428C51.9085 83.6428 51.3793 83.6428 50.864 83.6428C50.4881 83.6428 50.488 83.6428 50.488 83.239C50.488 81.6376 50.488 80.0361 50.488 78.4347C50.488 77.7802 50.488 77.1118 50.488 76.4573C50.488 76.0952 50.4881 76.0952 50.1121 76.0952C49.3879 76.0952 48.6499 76.0952 47.9258 76.0952C47.6055 76.0952 47.6055 76.0952 47.6055 75.7749C47.6055 75.3154 47.6055 74.8419 47.6055 74.3824C47.6055 74.0899 47.6194 74.076 47.9118 74.076C49.1651 74.0482 50.4045 74.0621 51.6578 74.0621Z" fill="#001F33"></path>
</svg>
