<?xml version="1.0" encoding="UTF-8"?>
<svg xmlns="http://www.w3.org/2000/svg" width="79" height="59" viewBox="0 0 79 59" fill="none">
  <path d="M38.7492 0.294788C28.4648 0.0814173 19.0315 4.34884 18.8897 8.82963C18.7478 13.5949 23.7127 17.649 38.7492 19.2137V0.294788Z" fill="#001F33"></path>
  <path d="M38.7483 21.0639C28.1802 20.7794 17.2574 17.081 17.8958 10.3242C17.8958 10.3242 17.5411 14.3071 17.8249 18.0056C18.605 22.7709 26.7616 26.6827 38.7483 27.0383V21.0639Z" fill="#001F33"></path>
  <path d="M40.5201 20.9216C52.0812 20.7082 61.0889 16.8676 60.5215 11.8889C60.096 7.62147 54.0672 3.06956 40.4492 2.35832L40.5201 0.224609C52.1522 0.509104 59.7413 3.92304 61.4436 10.253C61.4436 10.253 62.2238 16.7253 61.2308 18.7879C57.3298 27.6784 40.4492 26.896 40.4492 26.896L40.5201 20.9216Z" fill="#001F33"></path>
  <path d="M40.4492 4.2793V8.61784C49.5279 7.76436 57.3298 10.3959 56.4787 13.312C55.9113 15.3746 46.3361 17.2238 40.5201 16.7259V19.2153C54.9892 18.9308 58.8193 14.5211 58.8193 12.3163C58.8193 10.4671 56.5496 4.91941 40.4492 4.2793Z" fill="#001F33"></path>
  <path fill-rule="evenodd" clip-rule="evenodd" d="M62.4437 39.49C62.4437 39.49 62.5118 41.6011 61.9668 42.2139C61.5581 42.7587 60.945 43.0311 59.9232 43.0311H59.2419V38.6729C59.2419 36.2214 56.9258 36.0852 56.9258 36.0852V44.6654C56.9258 44.6654 59.6507 44.6654 60.1957 44.6654C61.2856 44.5973 62.1031 44.4611 62.9887 43.8483C64.6236 42.7587 64.6236 40.2391 64.6236 40.2391V32.3398H62.3074L62.4437 39.49Z" fill="#001F33"></path>
  <path fill-rule="evenodd" clip-rule="evenodd" d="M67.1445 32.2715V43.0989H69.3244L69.2563 32.2715H67.1445Z" fill="#001F33"></path>
  <path fill-rule="evenodd" clip-rule="evenodd" d="M74.9103 34.654C74.5697 34.654 73.9566 34.5859 73.4797 34.5859H71.2998V39.0803H73.5479V35.8798H74.2972C74.9784 35.8798 75.319 36.0841 75.5915 36.5608C75.9321 37.1055 76.0003 38.3994 76.0003 39.3527C76.0003 41.0552 75.5234 41.8723 74.4335 41.8723C74.4335 41.8723 74.0928 41.8723 72.9348 41.8723C71.4361 41.8723 71.0273 43.1662 71.0273 43.1662H74.9103L76.1365 43.0981C77.7033 42.8938 78.3845 40.4423 78.3845 39.2846C78.4527 37.8546 78.0439 36.2884 77.2946 35.6074C76.7496 34.9945 75.5915 34.7221 74.9103 34.654Z" fill="#001F33"></path>
  <path fill-rule="evenodd" clip-rule="evenodd" d="M50.6595 39.6949C50.6595 39.6949 50.6595 41.9421 50.1827 42.623C49.7058 43.304 48.2071 43.304 48.2071 43.304V32.5447C48.2071 32.5447 46.0272 32.3404 46.0272 34.7919V41.874H43.5748V34.7919C43.5748 34.7919 41.3949 34.5876 41.3949 37.0391V41.874H39.8962V34.7919C39.8962 34.7919 37.7163 34.5876 37.7163 37.0391V41.874H35.9451V34.7919C35.9451 34.7919 33.7652 34.5876 33.7652 37.0391V41.874H30.836V34.7919C30.836 34.7919 28.656 34.5876 28.656 37.0391V41.874H25.863V32.4085C25.863 32.4085 23.6831 32.2042 23.6831 34.6557V42.3507L23.5469 43.1678H45.9591V44.9383C45.9591 44.9383 47.6622 44.9383 48.2071 44.9383C49.2971 44.8702 50.1146 44.7341 51.0002 44.1212C52.6351 43.0316 52.6351 40.512 52.6351 40.512V32.6128H50.5233L50.6595 39.6949Z" fill="#001F33"></path>
  <path fill-rule="evenodd" clip-rule="evenodd" d="M17.0744 32.4085C17.0744 32.4085 14.8945 32.2042 14.8945 34.6557V43.1678H17.0744V32.4085Z" fill="#001F33"></path>
  <path fill-rule="evenodd" clip-rule="evenodd" d="M12.9209 36.2216C12.9209 36.2216 10.741 36.0173 10.741 38.4688V41.8055H3.04319V34.8596C3.04319 34.8596 0.863281 34.6553 0.863281 37.1068V42.827V43.0994H12.9209V41.8055V36.2216Z" fill="#001F33"></path>
  <path fill-rule="evenodd" clip-rule="evenodd" d="M7.94944 33.2251C7.94944 32.7484 7.47259 32.3398 6.85949 32.3398C6.24639 32.3398 5.76953 32.7484 5.76953 33.2251C5.76953 33.7018 6.24639 34.1104 6.85949 34.1104C7.47259 34.1104 7.94944 33.7018 7.94944 33.2251Z" fill="#001F33"></path>
  <path fill-rule="evenodd" clip-rule="evenodd" d="M10.6721 33.2251C10.6721 32.7484 10.1952 32.3398 9.58214 32.3398C8.96904 32.3398 8.49219 32.7484 8.49219 33.2251C8.49219 33.7018 8.96904 34.1104 9.58214 34.1104C10.1952 34.1104 10.6721 33.7018 10.6721 33.2251Z" fill="#001F33"></path>
  <path fill-rule="evenodd" clip-rule="evenodd" d="M26.0001 44.4609C25.387 44.4609 24.9102 44.8695 24.9102 45.3462C24.9102 45.8229 25.387 46.2315 26.0001 46.2315C26.6132 46.2315 27.0901 45.8229 27.0901 45.3462C27.0901 44.8695 26.6132 44.4609 26.0001 44.4609Z" fill="#001F33"></path>
  <path fill-rule="evenodd" clip-rule="evenodd" d="M28.7267 44.4609C28.1136 44.4609 27.6367 44.8695 27.6367 45.3462C27.6367 45.8229 28.1136 46.2315 28.7267 46.2315C29.3398 46.2315 29.8166 45.8229 29.8166 45.3462C29.7485 44.8695 29.2717 44.4609 28.7267 44.4609Z" fill="#001F33"></path>
  <path fill-rule="evenodd" clip-rule="evenodd" d="M21.6388 36.9029C21.6388 36.9029 21.7069 35.7453 20.9576 35.2005C20.2764 34.5876 19.4589 34.7238 19.4589 34.7238V43.236C19.527 45.2789 17.5515 44.9384 17.8921 44.9384H16.189L15.5078 46.2323C15.5078 46.2323 17.4152 46.3684 18.4371 46.3004C19.1864 46.2323 20.4807 46.3003 21.2301 45.2789C21.7069 44.5979 21.7069 43.236 21.7069 43.236L21.6388 36.9029Z" fill="#001F33"></path>
  <path d="M2.70211 48.1387C3.24709 48.1387 3.99643 48.1387 4.40517 48.2068C5.22263 48.2749 5.97198 48.6154 6.51696 49.1601C7.40255 50.0454 7.81128 51.2711 7.81128 53.0417C7.81128 54.3355 7.47067 55.5613 6.85757 56.3784C6.24447 57.1956 5.427 57.6723 4.47329 57.8085C4.13268 57.8085 3.65582 57.8766 3.11084 57.8766H0.726562V48.1387H2.70211ZM2.70211 56.3103H3.72394C5.01827 56.3103 5.56324 55.2889 5.56324 53.246C5.56324 52.0883 5.49512 51.1349 5.08639 50.5221C4.8139 49.9773 4.40517 49.7049 3.5877 49.7049H2.70211V56.3103Z" fill="#001F33"></path>
  <path d="M13.3956 48.1387L16.4611 57.8766H14.3493L13.6681 55.5613H10.8069L10.1257 57.8766H8.08203L11.2838 48.1387H13.3956ZM13.1912 53.9269C13.1912 53.9269 12.8506 52.9055 12.6462 51.9521C12.5781 51.4754 12.2375 50.2497 12.2375 50.2497C12.2375 50.2497 11.965 51.4073 11.7606 52.0883C11.5563 52.7693 11.42 53.246 11.2157 53.8588H13.1912V53.9269Z" fill="#001F33"></path>
  <path d="M19.5302 48.1387V56.2422H23.0045L22.6639 57.8766H17.5547V48.1387H19.5302Z" fill="#001F33"></path>
  <path d="M30.0858 48.1387L31.3801 52.9736C31.5845 53.6545 31.6526 53.995 31.7207 54.5398C31.7889 54.0631 31.9251 53.5183 32.0613 52.9736L33.3557 48.1387H35.8762L36.7618 57.8766H34.7862L34.4456 52.7012C34.3775 52.0883 34.3775 51.6116 34.3775 51.0669C34.2413 51.6116 34.1731 51.9521 34.0369 52.565L32.4701 57.8766H30.8351L29.4727 52.7693C29.3365 52.2926 29.2002 51.6116 29.064 51.0669C29.064 51.6116 29.064 52.2245 28.9958 52.8374L28.6552 57.8766H26.6797L27.5653 48.1387H30.0858Z" fill="#001F33"></path>
  <path d="M46.504 52.9733C46.504 55.1524 45.7547 56.7867 44.3241 57.6039C43.711 57.9444 43.166 58.0806 42.3486 58.0806C40.8499 58.0806 39.9643 57.672 39.215 56.7187C38.4656 55.7653 38.125 54.5395 38.125 53.1095C38.125 50.9985 38.9425 49.3642 40.3049 48.547C40.8499 48.2065 41.5992 48.0703 42.3486 48.0703C44.9372 48.0703 46.504 49.9089 46.504 52.9733ZM40.8499 50.3856C40.5093 50.9985 40.373 51.8838 40.373 53.0414C40.373 54.7438 40.6455 55.7653 41.2586 56.1739C41.5992 56.3782 41.9398 56.5144 42.4167 56.5144C43.7791 56.5144 44.3241 55.4929 44.3241 53.0414C44.3241 52.0199 44.256 51.339 44.0516 50.7942C43.9154 50.3175 43.3704 49.5684 42.3486 49.5684C41.6674 49.5684 41.1224 49.9089 40.8499 50.3856Z" fill="#001F33"></path>
  <path d="M53.7258 48.1387L53.4533 49.773H51.1372V57.8766H49.0935V49.773H46.7773V48.1387H53.7258Z" fill="#001F33"></path>
  <path d="M62.172 52.9733C62.172 55.1524 61.4227 56.7867 59.9921 57.6039C59.379 57.9444 58.834 58.0806 58.0165 58.0806C56.5179 58.0806 55.6323 57.672 54.8829 56.7187C54.1336 55.7653 53.793 54.5395 53.793 53.1095C53.793 50.9985 54.6104 49.3642 55.9729 48.547C56.5179 48.2065 57.2672 48.0703 58.0165 48.0703C60.6052 48.0703 62.172 49.9089 62.172 52.9733ZM56.4497 50.3856C56.1091 50.9985 55.9729 51.8838 55.9729 53.0414C55.9729 54.7438 56.2454 55.7653 56.8585 56.1739C57.1991 56.3782 57.5397 56.5144 58.0165 56.5144C59.379 56.5144 59.924 55.4929 59.924 53.0414C59.924 52.0199 59.8559 51.339 59.6515 50.7942C59.5152 50.3175 58.9703 49.5684 57.9484 49.5684C57.3353 49.5684 56.7222 49.9089 56.4497 50.3856Z" fill="#001F33"></path>
  <path d="M67.3505 48.1387C69.0535 48.1387 70.2116 49.2963 70.2116 50.9988C70.2116 52.4288 69.2579 53.6545 68.0317 53.6545C68.2361 53.7907 68.3042 53.8588 68.4404 54.0631C68.9854 54.7441 70.7566 57.8085 70.7566 57.8085H68.4404C68.0317 57.1956 67.8955 56.9232 67.5548 56.2422C66.6011 54.4717 66.3286 53.995 65.9199 53.8588C65.8518 53.7907 65.7155 53.7907 65.5793 53.7907V57.8085H63.6719V48.1387H67.3505ZM65.6474 52.3607H66.3286C67.1461 52.3607 67.5548 52.2926 67.8273 52.0202C68.0317 51.8159 68.2361 51.4754 68.2361 51.0669C68.2361 50.454 68.0317 50.0454 67.5548 49.9092C67.3505 49.8411 66.9417 49.773 66.4649 49.773H65.7837V52.3607H65.6474Z" fill="#001F33"></path>
  <path d="M77.6383 50.2486C76.7528 49.7039 76.0715 49.4996 75.3903 49.4996C74.5728 49.4996 74.0279 49.9762 74.0279 50.5891C74.0279 51.0658 74.3003 51.3382 75.1178 51.5425L76.2759 51.883C77.8427 52.2915 78.7283 53.313 78.7283 54.743C78.7283 56.7179 77.1615 58.0117 74.7091 58.0117C73.6191 58.0117 72.3929 57.6712 71.3711 57.1264L72.1204 55.6283C73.006 56.105 73.8235 56.3774 74.7772 56.3774C75.8672 56.3774 76.4803 55.9007 76.4803 55.0835C76.4803 54.4707 76.0715 54.0621 75.1859 53.8578L74.096 53.5854C73.1423 53.313 72.5292 52.9725 72.1886 52.3596C71.9161 51.9511 71.7798 51.4063 71.7798 50.8615C71.7798 49.091 73.2104 47.8652 75.2541 47.8652C76.4121 47.8652 77.6383 48.2057 78.5239 48.8186L77.6383 50.2486Z" fill="#001F33"></path>
</svg>
