<?xml version="1.0" encoding="UTF-8"?>
<svg xmlns="http://www.w3.org/2000/svg" width="64" height="85" viewBox="0 0 64 85" fill="none">
  <path d="M48.242 63.5859C49.5053 63.5859 50.6282 64.7089 50.6282 65.9722C50.6282 67.2355 49.6456 68.3584 48.242 68.3584C46.9787 68.3584 45.9961 67.2355 45.9961 65.9722C45.9961 64.7089 46.9787 63.5859 48.242 63.5859ZM48.242 67.7969C49.2245 67.7969 50.0667 66.9547 50.0667 65.9722C50.0667 64.8492 49.2245 64.1474 48.242 64.1474C47.2594 64.1474 46.4172 64.9896 46.4172 65.9722C46.4172 67.0951 47.2594 67.7969 48.242 67.7969ZM47.9612 67.2355H47.5401V64.7089H48.3823C48.9438 64.7089 49.2245 64.9896 49.2245 65.5511C49.2245 65.9722 48.9438 66.2529 48.6631 66.2529L49.2245 67.2355H48.6631L48.1016 66.2529H47.9612V67.2355ZM48.242 65.8318C48.5227 65.8318 48.6631 65.6914 48.6631 65.4107C48.6631 65.13 48.5227 64.9896 48.242 64.9896H47.9612V65.6914H48.242V65.8318Z" fill="#001F33"></path>
  <path d="M59.4668 45.7617C58.2035 45.7617 57.3613 46.3232 56.5191 47.025L55.9576 47.8672L55.8172 47.7269L56.5191 46.6039V45.9021H52.0273V60.7809H56.098V51.3764C56.098 49.8323 57.0805 49.4112 57.7824 49.2709C58.4842 49.1305 59.3264 49.5516 59.3264 50.3938V60.7809H63.397V50.5342C63.397 47.3058 61.9934 45.7617 59.4668 45.7617Z" fill="#001F33"></path>
  <path d="M14.1292 57.4121H18.3402V60.6406H10.0586V45.7617H14.1292V57.4121Z" fill="#001F33"></path>
  <path d="M0.234375 60.6406H8.51599V57.6929H4.305V54.4644H8.51599V51.6571H4.305V48.8498H8.51599V45.7617H0.234375V60.6406Z" fill="#001F33"></path>
  <path d="M19.7422 60.6406H28.1642V57.6929H23.8128V54.4644H28.1642V51.6571H23.8128V48.8498H28.1642V45.7617H19.7422V60.6406Z" fill="#001F33"></path>
  <path d="M42.2031 60.6406H50.6251V57.6929H46.2737V54.4644H50.6251V51.6571H46.2737V48.8498H50.6251V45.7617H42.2031V60.6406Z" fill="#001F33"></path>
  <path d="M36.8688 45.7617L35.3248 55.1663L35.1844 56.8507V56.991H35.0441V56.8507L34.9037 55.1663L33.3597 45.7617H29.2891L32.6579 60.6406H37.711L41.0798 45.7617H36.8688Z" fill="#001F33"></path>
  <path d="M53.1525 0.421875H0.234375V21.4768H28.1673C34.4838 12.353 43.0461 5.05397 53.1525 0.421875Z" fill="#001F33"></path>
  <path d="M21.2891 84.5022H42.344V63.4473H21.2891V84.5022Z" fill="#001F33"></path>
  <path d="M63.4018 21.4768V0.421875C43.3294 5.89616 27.6084 22.0383 22.8359 42.5318H44.312C47.5404 33.1272 54.5587 25.5475 63.4018 21.4768Z" fill="#001F33"></path>
</svg>
