<?xml version="1.0" encoding="UTF-8"?>
<svg xmlns="http://www.w3.org/2000/svg" width="118" height="62" viewBox="0 0 118 62" fill="none">
  <path d="M106.947 45.2126C108.017 45.2173 109.082 45.244 110.143 45.0155C111.818 44.6546 113.459 44.2009 115.005 43.4504C115.86 43.0355 116.685 42.569 117.437 41.9836C117.497 41.9369 117.567 41.9028 117.631 41.864C117.767 41.9709 117.727 42.0999 117.684 42.2075C117.569 42.4955 117.478 42.8056 117.302 43.0542C116.91 43.6075 116.499 44.1528 116.047 44.658C114.981 45.8495 113.834 46.9554 112.48 47.8275C110.217 49.2843 107.775 50.272 105.097 50.6515C103.321 50.9035 101.538 50.9449 99.7494 50.8199C98.5783 50.7384 97.4166 50.5887 96.2684 50.3455C96.0358 50.296 95.9218 50.4029 95.7891 50.5499C94.8747 51.561 93.89 52.4979 92.8128 53.3366C91.9065 54.0422 90.9017 54.5601 89.8305 54.9704C87.8249 55.7389 85.7522 56.1933 83.6118 56.357C80.8266 56.5696 78.0816 56.2916 75.3587 55.7142C72.4796 55.1041 69.695 54.1839 66.9407 53.1655C66.8361 53.1267 66.7302 53.0926 66.6236 53.0586C66.6035 53.0525 66.58 53.0579 66.5418 53.0579C66.5137 53.0953 66.4754 53.1354 66.4493 53.1822C65.8473 54.2607 64.9947 55.1174 64.0582 55.9066C61.4681 58.0898 58.5065 59.5332 55.2286 60.3572C53.6875 60.7448 52.1223 60.974 50.539 61.107C48.6976 61.262 46.8562 61.2527 45.0148 61.1437C42.8838 61.0181 40.7675 60.7575 38.668 60.3739C37.253 60.1153 35.8372 59.8453 34.4382 59.5119C32.4112 59.0287 30.4893 58.2348 28.603 57.3668C26.586 56.4386 24.5931 55.4583 22.5801 54.5227C19.6507 53.1615 16.6369 52.0214 13.5192 51.1667C12.0719 50.7698 10.5972 50.5292 9.09365 50.4925C8.05061 50.4671 7.02165 50.58 5.9994 50.7858C5.02473 50.9823 4.06013 51.2122 3.1163 51.5276C2.4044 51.7655 1.72268 52.0682 1.06776 52.4324C0.990673 52.4752 0.908223 52.5093 0.825772 52.5427C0.810354 52.5487 0.785552 52.5326 0.726562 52.5159C0.773486 52.417 0.809013 52.3168 0.863981 52.2293C1.73139 50.8279 2.75231 49.5536 4.01052 48.477C5.54558 47.1626 7.30789 46.2818 9.24917 45.7405C11.4311 45.1318 13.6546 44.9019 15.9136 45.0215C17.999 45.1318 20.0274 45.5635 22.0183 46.1742C24.2412 46.8552 26.3922 47.7252 28.5192 48.6561C29.6233 49.1393 30.7213 49.6358 31.8219 50.1263C31.9332 50.1757 32.0465 50.2225 32.1906 50.284C33.8088 48.2886 35.7058 46.5999 37.9763 45.2287C37.7671 45.1518 37.6357 45.1017 37.503 45.0556C35.6871 44.4201 33.9281 43.6576 32.251 42.714C31.0692 42.0491 29.9557 41.29 29.0179 40.299C28.2464 39.483 27.6411 38.5669 27.4226 37.4495C27.1397 36.0021 27.3696 34.6609 28.3282 33.4868C28.91 32.7745 29.575 32.1476 30.3043 31.5917C30.7005 31.2896 31.0142 30.9401 31.2636 30.5031C31.8809 29.4205 32.6806 28.4769 33.609 27.6443C34.7875 26.5865 36.1831 25.9804 37.7296 25.6903C39.8344 25.2961 41.9292 25.4043 44.0233 25.7839C46.6537 26.261 49.1514 27.1471 51.6034 28.1816C52.9709 28.7583 54.3424 29.3249 55.7166 29.8856C57.7088 30.6975 59.7902 31.2027 61.891 31.6351C63.3678 31.9385 64.8526 32.1958 66.3521 32.3508C68.6353 32.5874 70.9197 32.6482 73.2076 32.3889C74.5416 32.2379 75.8567 31.9993 77.1491 31.6371C77.2551 31.6077 77.3583 31.5696 77.4937 31.5255C77.4568 31.2996 77.4247 31.0831 77.3851 30.8679C77.1686 29.6932 77.0566 28.509 77.0566 27.3148C77.056 18.4037 77.056 9.49259 77.056 0.581456C77.056 0.481886 77.056 0.381648 77.056 0.298785C77.0808 0.27406 77.0882 0.266041 77.0969 0.25869C77.1049 0.251339 77.113 0.240647 77.1223 0.239311C77.1666 0.232628 77.2108 0.224609 77.2551 0.224609C90.6952 0.224609 104.136 0.225946 117.576 0.227951C117.608 0.227951 117.639 0.242652 117.7 0.257354C117.705 0.360933 117.716 0.468521 117.716 0.576778C117.716 9.50996 117.745 18.4438 117.706 27.377C117.674 34.8648 113.545 41.3729 107.395 44.8591C107.235 44.95 107.075 45.0415 106.915 45.1331C106.927 45.1592 106.937 45.1859 106.947 45.2126ZM78.1707 34.0234C78.1037 34.0622 78.0353 34.0963 77.9723 34.139C76.9722 34.8173 75.9063 35.378 74.8137 35.8898C71.7255 37.3353 68.4777 38.0804 65.0631 38.1071C63.1472 38.1218 61.2509 37.9273 59.3625 37.6246C57.3851 37.3072 55.4424 36.8541 53.5736 36.1231C52.2228 35.5945 50.8741 35.0605 49.5315 34.5133C47.2584 33.5871 44.9859 32.6675 42.6022 32.0401C40.5503 31.5001 38.5092 30.9294 36.3789 30.7844C35.3633 30.7149 34.3498 30.7015 33.3382 30.8619C33.0627 30.906 32.9327 31.029 32.8489 31.2769C32.619 31.9572 32.7845 32.5733 33.1371 33.1587C33.4214 33.6298 33.792 34.0321 34.2023 34.3976C34.9135 35.0305 35.6884 35.5771 36.5149 36.0469C40.1341 38.1018 43.9516 39.6661 48.0004 40.6612C50.8976 41.3728 53.837 41.8587 56.7804 42.3184C59.4457 42.7347 62.0506 43.3789 64.6025 44.2483C67.5822 45.2641 70.4961 46.4536 73.4362 47.5742C76.2006 48.6281 78.9899 49.6044 81.883 50.2539C84.4799 50.8373 87.1009 51.1186 89.7641 50.8934C91.2382 50.7691 92.6814 50.4905 94.0884 50.0334C94.1575 50.0107 94.2212 49.9732 94.3365 49.9198C94.2259 49.8797 94.1675 49.855 94.1072 49.8376C91.942 49.2281 89.8694 48.3741 87.8061 47.4927C85.7542 46.6159 83.7057 45.7312 81.641 44.8852C79.9478 44.1909 78.225 43.5707 76.4386 43.1497C74.9337 42.7949 73.4167 42.5563 71.8602 42.702C70.6134 42.8183 69.4551 43.1691 68.4201 43.8902C68.1546 44.0753 67.8818 44.2497 67.605 44.4167C67.4977 44.4816 67.3804 44.5778 67.2108 44.4655C67.2946 44.1327 67.4789 43.842 67.6626 43.5547C68.6513 42.007 69.9873 40.8015 71.4728 39.747C73.9349 37.9988 76.7007 37.2638 79.7098 37.3513C79.1896 36.228 78.6882 35.1427 78.1707 34.0234ZM65.4498 52.6249C65.2936 52.552 65.2166 52.5119 65.1361 52.4799C64.6903 52.3034 64.2439 52.1277 63.7968 51.9539C61.5304 51.0745 59.2727 50.1731 56.9567 49.4246C53.6982 48.3714 50.3647 47.7533 46.9359 47.6738C45.5276 47.641 44.1239 47.7005 42.7222 47.8482C41.1744 48.0113 39.6575 48.312 38.1787 48.8005C36.6349 49.311 35.2071 50.0715 33.7793 50.8306C33.7431 50.85 33.715 50.8834 33.666 50.9255C33.7378 50.9696 33.7894 51.011 33.8477 51.0364C36.2032 52.0829 38.5816 53.0693 41.0705 53.7682C42.8154 54.2581 44.5837 54.631 46.3936 54.7486C47.9749 54.8515 49.5603 54.919 51.1449 54.945C52.674 54.9704 54.2043 54.9404 55.7327 54.9036C57.2188 54.8675 58.6936 54.7051 60.1556 54.4285C61.8629 54.105 63.5166 53.6192 65.0711 52.8314C65.177 52.7772 65.2816 52.7164 65.4498 52.6249ZM91.9038 22.2689C91.8274 22.1386 91.7698 22.0443 91.7155 21.9488C91.5305 21.6187 91.3528 21.2845 91.1584 20.9598C91.1068 20.8736 91.0123 20.768 90.9265 20.7573C90.7227 20.7312 90.5075 20.7078 90.2736 20.8007C90.222 21.906 90.171 23.0106 90.1187 24.1407C90.3916 24.1407 90.6289 24.1407 90.903 24.1407C90.9319 23.4871 90.96 22.8516 90.9882 22.2161C91.0907 22.2655 91.1356 22.3244 91.1725 22.3872C91.3119 22.6277 91.452 22.8683 91.5841 23.1129C91.6498 23.2338 91.7349 23.2853 91.8764 23.2873C92.0406 23.29 92.1445 23.2412 92.2202 23.0888C92.3751 22.7774 92.548 22.4747 92.7136 22.168C92.7317 22.174 92.7498 22.18 92.7679 22.186C92.8007 22.8342 92.8343 23.4824 92.8664 24.1199C93.2324 24.1848 93.406 24.1794 93.6648 24.1019C93.6648 23.9522 93.6708 23.7985 93.6641 23.6455C93.6279 22.8563 93.5837 22.0677 93.5522 21.2792C93.5294 20.7018 93.5964 20.7453 92.9596 20.7406C92.8054 20.7393 92.7149 20.8007 92.6445 20.9351C92.4649 21.2805 92.2745 21.6207 92.0868 21.9615C92.0352 22.0564 91.9769 22.1473 91.9038 22.2689ZM99.7239 12.0787C99.4974 12.1061 99.3358 12.1395 99.1729 12.1429C98.76 12.1509 98.3471 12.1462 97.9341 12.1449C97.4515 12.1435 97.3972 12.0887 97.3918 11.6089C97.3905 11.4646 97.3912 11.3196 97.3912 11.1746C97.3912 10.8217 97.3912 10.4682 97.3912 10.1161C97.2323 10.0118 97.1237 10.1101 97.0185 10.2163C96.9407 10.1782 96.8723 10.1415 96.8019 10.1101C96.3522 9.91024 95.8709 10.0299 95.5726 10.4148C95.2032 10.8919 95.2454 11.6771 95.6637 12.1095C95.9996 12.4569 96.4661 12.4737 96.8308 12.1529C96.877 12.1121 96.926 12.074 96.9843 12.0259C97.1083 12.3407 97.363 12.3814 97.6278 12.3834C98.2197 12.3888 98.815 12.4249 99.4015 12.3714C99.7896 12.336 100.164 12.358 100.546 12.3794C101.025 12.4062 101.506 12.3808 101.986 12.3881C102.289 12.3928 102.586 12.3781 102.792 12.2545C103.072 12.3808 103.291 12.5325 103.531 12.5779C104.029 12.6728 104.469 12.4296 104.672 12.0092C104.873 11.5942 104.778 11.0483 104.445 10.7095C103.992 10.2477 103.199 10.3727 102.925 10.9567C102.845 11.1265 102.804 11.3142 102.746 11.4933C102.582 12.0019 102.409 12.1369 101.874 12.1462C101.439 12.1542 101.003 12.1502 100.568 12.1455C100.477 12.1449 100.387 12.1181 100.267 12.0981C100.504 11.9063 100.721 11.7666 100.893 11.5835C101.289 11.1599 101.165 10.529 100.652 10.2591C100.14 9.99043 99.2393 10.1535 98.8364 10.5838C99.1193 11.0616 99.4022 11.5381 99.7239 12.0787ZM102.026 24.1634C102.096 23.6254 102.073 21.0199 101.998 20.758C101.757 20.7546 101.508 20.6938 101.232 20.8141C101.232 21.4529 101.232 22.0911 101.232 22.8075C101.13 22.6752 101.075 22.611 101.028 22.5409C100.673 22.0136 100.323 21.4837 99.9652 20.9591C99.9116 20.8803 99.8332 20.772 99.7568 20.7633C99.5309 20.7386 99.2942 20.6945 99.0797 20.8021C99.0047 21.3327 99.0342 23.9061 99.1166 24.1366C99.3552 24.1366 99.5939 24.1366 99.8647 24.1366C99.8647 23.8887 99.8647 23.6675 99.8647 23.447C99.8647 23.2245 99.8593 23.0013 99.866 22.7788C99.8727 22.5676 99.8345 22.3517 99.9076 22.0885C99.9914 22.2067 100.043 22.2769 100.092 22.3491C100.453 22.885 100.814 23.4216 101.175 23.9576C101.243 24.0578 101.3 24.1701 101.453 24.1654C101.638 24.1587 101.825 24.1634 102.026 24.1634ZM84.4531 15.293C84.376 15.6752 84.3874 18.4278 84.4631 18.6851C84.6978 18.6851 84.9364 18.6851 85.2199 18.6851C85.2199 18.0014 85.2199 17.3445 85.2199 16.6883C85.3319 16.7465 85.3862 16.8133 85.4338 16.8841C85.7944 17.4194 86.151 17.9573 86.517 18.4886C86.576 18.5741 86.6672 18.6817 86.7557 18.6944C86.9575 18.7238 87.1666 18.7011 87.3811 18.6991C87.3811 17.5437 87.3811 16.4364 87.3811 15.3097C87.1203 15.3097 86.881 15.3097 86.5982 15.3097C86.5941 15.6405 86.5955 15.9593 86.5847 16.2773C86.5733 16.6008 86.6256 16.9289 86.5418 17.2984C86.4587 17.1868 86.4044 17.1193 86.3562 17.0478C86.0076 16.5313 85.6644 16.0114 85.3098 15.4982C85.2521 15.414 85.1576 15.3144 85.0685 15.301C84.864 15.273 84.6528 15.293 84.4531 15.293ZM88.9973 22.4667C89.0006 21.4516 88.2405 20.6684 87.2417 20.6584C86.2241 20.6484 85.4311 21.4296 85.4264 22.4466C85.4217 23.4651 86.2127 24.2623 87.2216 24.2563C88.2264 24.2502 88.9939 23.4764 88.9973 22.4667ZM84.5912 9.15579C84.3163 9.15579 84.0951 9.15111 83.8746 9.1598C83.8324 9.16113 83.7921 9.21526 83.7512 9.24467C83.7874 9.29011 83.8156 9.34824 83.8625 9.37698C83.9249 9.41507 84.0013 9.42977 84.0878 9.46051C84.0878 9.9069 84.0878 10.3406 84.0878 10.7736C84.0878 11.085 84.079 11.3971 84.0911 11.7085C84.1072 12.1208 84.2902 12.3146 84.6984 12.3741C84.7862 12.3868 84.8767 12.3848 84.9659 12.3854C85.3453 12.3868 85.7254 12.3808 86.1048 12.3875C86.3749 12.3921 86.639 12.3828 86.8777 12.2137C87.1311 12.4717 87.4153 12.6147 87.7786 12.5966C88.154 12.5779 88.4255 12.3895 88.6266 12.1516C88.8632 12.2364 89.067 12.3667 89.2734 12.3727C90.1321 12.3961 90.9922 12.3908 91.8515 12.3761C92.0915 12.3721 92.3335 12.3059 92.4823 12.0801C92.3818 11.9117 92.2859 12.0279 92.1921 12.0633C91.8241 12.203 91.4876 12.1315 91.3334 11.8502C91.1061 11.4345 91.1061 10.9975 91.2824 10.5631C91.3495 10.3981 91.4876 10.2952 91.6618 10.2658C91.8334 10.2364 92.0131 10.2183 92.1659 10.3814C92.1116 10.4148 92.0748 10.4348 92.0406 10.4595C91.9387 10.5331 91.9005 10.6326 91.9434 10.7516C91.991 10.8832 92.0962 10.9347 92.2323 10.9347C92.4917 10.934 92.6338 10.6941 92.5165 10.4308C92.3938 10.1562 92.1505 10.0472 91.869 10.0325C91.4085 10.0085 91.0344 10.1922 90.7891 10.5785C90.5364 10.9761 90.5364 11.3984 90.7643 11.8141C90.8159 11.909 90.8816 11.9965 90.9587 12.1155C90.8467 12.1268 90.7623 12.1422 90.6771 12.1429C90.3312 12.1455 89.9847 12.1482 89.6388 12.1422C89.4089 12.1382 89.1682 12.1863 88.9698 12.0065C88.7808 11.8348 88.8082 11.6103 88.7861 11.3904C88.7352 10.8792 88.3591 10.4682 87.9066 10.4382C87.3342 10.4001 87.0151 10.642 86.8636 11.21C86.8147 11.3924 86.7624 11.5742 86.7 11.7526C86.5874 12.0754 86.5016 12.1375 86.1631 12.1429C85.8172 12.1482 85.4713 12.1469 85.1248 12.1435C84.6837 12.1395 84.6019 12.0647 84.5959 11.6116C84.5865 10.922 84.5918 10.2317 84.5905 9.54137C84.5905 9.42175 84.5912 9.30013 84.5912 9.15579ZM98.5676 15.2997C98.5676 16.4404 98.5676 17.5484 98.5676 18.6844C98.8183 18.6844 99.0563 18.6844 99.301 18.6844C99.4002 18.2821 99.2688 17.8758 99.3774 17.5049C99.6287 17.4174 99.7554 17.5063 99.8473 17.7148C99.9686 17.9894 100.111 18.2547 100.256 18.5187C100.294 18.5902 100.368 18.6864 100.433 18.6931C100.682 18.7171 100.937 18.7532 101.217 18.6523C100.976 18.2079 100.746 17.7829 100.517 17.3606C100.613 17.271 100.689 17.2069 100.757 17.134C101.227 16.6295 101.174 15.5282 100.181 15.3298C99.6596 15.2269 99.12 15.2897 98.5676 15.2997ZM80.2588 15.3037C80.2501 15.3959 80.238 15.4601 80.238 15.5242C80.2367 16.1704 80.2287 16.8166 80.24 17.4622C80.2521 18.1658 80.6536 18.6303 81.3454 18.7699C82.1398 18.9296 83.1459 18.5207 83.1144 17.3519C83.099 16.7732 83.1131 16.1938 83.1111 15.6144C83.1104 15.5175 83.097 15.4213 83.0883 15.3157C82.8168 15.3157 82.5681 15.3157 82.2792 15.3157C82.2792 15.4614 82.2792 15.581 82.2792 15.7006C82.2792 16.2018 82.2805 16.703 82.2779 17.2042C82.2772 17.3265 82.2772 17.4508 82.2564 17.5704C82.2242 17.7575 82.1203 17.8985 81.9346 17.9653C81.4661 18.1344 81.0994 17.8958 81.0679 17.402C81.0612 17.3024 81.0632 17.2015 81.0625 17.1013C81.0619 16.6222 81.0639 16.1437 81.0612 15.6646C81.0605 15.5476 81.0444 15.4313 81.0344 15.3037C80.7636 15.3037 80.5316 15.3037 80.2588 15.3037ZM97.353 18.6877C97.353 18.4472 97.353 18.232 97.353 17.9834C96.8093 17.9834 96.2898 17.9834 95.7495 17.9834C95.7495 17.7482 95.7495 17.547 95.7495 17.3425C96.149 17.2784 96.5305 17.3706 96.8931 17.2844C96.8931 17.0472 96.8931 16.8434 96.8931 16.6041C96.5003 16.6041 96.1356 16.6041 95.7502 16.6041C95.7502 16.3883 95.7502 16.2092 95.7502 16.0207C96.2657 15.9853 96.7544 16.0341 97.239 15.99C97.239 15.7421 97.239 15.5356 97.239 15.3338C96.8589 15.2616 95.1797 15.273 94.9257 15.3491C94.9257 16.4518 94.9257 17.5584 94.9257 18.6871C95.7468 18.6877 96.5425 18.6877 97.353 18.6877ZM98.0266 24.1634C97.9784 24.011 97.9496 23.9061 97.912 23.8039C97.6063 22.9672 97.2993 22.1319 96.993 21.2959C96.7825 20.7219 96.7832 20.7299 96.1718 20.7386C95.9707 20.7413 95.8749 20.8181 95.8079 21.0012C95.4559 21.9628 95.0926 22.9204 94.7353 23.88C94.7065 23.9582 94.6944 24.0424 94.669 24.148C94.9565 24.148 95.2099 24.148 95.4847 24.148C95.5732 23.9081 95.6604 23.6702 95.7489 23.429C96.1397 23.429 96.513 23.429 96.8958 23.429C96.9635 23.6241 97.0258 23.8019 97.0862 23.9803C97.1204 24.0805 97.1639 24.1647 97.2906 24.1634C97.5219 24.162 97.7532 24.1634 98.0266 24.1634ZM104.628 15.698C104.177 15.1841 103.32 15.0444 102.732 15.3605C102.373 15.553 102.199 15.8637 102.193 16.2573C102.187 16.6482 102.386 16.9369 102.732 17.112C102.88 17.1868 103.046 17.2222 103.202 17.2811C103.369 17.3432 103.545 17.392 103.695 17.4822C103.891 17.5998 103.892 17.8177 103.707 17.9486C103.63 18.0034 103.526 18.0355 103.43 18.0469C103.173 18.0783 102.949 17.9814 102.744 17.835C102.667 17.7796 102.59 17.7221 102.498 17.6539C102.325 17.8471 102.172 18.0181 102.016 18.1919C102.187 18.4505 102.424 18.5755 102.674 18.6663C103.2 18.8568 103.727 18.8755 104.219 18.5674C104.927 18.1231 104.887 17.1548 104.145 16.7739C103.969 16.6836 103.767 16.6429 103.58 16.574C103.445 16.5239 103.302 16.4832 103.184 16.4056C102.989 16.2787 103.006 16.0508 103.219 15.9613C103.334 15.9131 103.485 15.8918 103.603 15.9218C103.803 15.9726 103.989 16.0735 104.21 16.1651C104.337 16.0221 104.477 15.8664 104.628 15.698ZM90.5498 15.305C90.6034 15.4654 90.6383 15.5804 90.6798 15.6926C90.9868 16.5286 91.2878 17.3659 91.6042 18.1986C91.8234 18.7766 91.6665 18.7098 92.3523 18.7125C92.6345 18.7131 92.6378 18.7078 92.7357 18.4445C93.0876 17.4949 93.4369 16.5446 93.7855 15.5937C93.8149 15.5122 93.8304 15.4253 93.8592 15.3144C93.5649 15.3144 93.2934 15.3144 93.0186 15.3144C92.7632 16.0835 92.5145 16.8327 92.2658 17.5818C92.247 17.5784 92.2283 17.5744 92.2102 17.5711C91.9541 16.816 91.698 16.0608 91.4426 15.305C91.1443 15.305 90.8802 15.305 90.5498 15.305ZM114.833 15.2897C114.599 15.2897 114.424 15.3044 114.251 15.2857C114.027 15.2609 113.906 15.3552 113.808 15.5503C113.651 15.8644 113.465 16.1644 113.271 16.5052C113.188 16.3749 113.127 16.2854 113.072 16.1918C112.931 15.9519 112.798 15.7067 112.652 15.4701C112.609 15.4006 112.533 15.3084 112.467 15.3044C112.209 15.2883 111.945 15.2542 111.662 15.3331C111.717 15.4373 111.754 15.5162 111.799 15.5904C112.022 15.9626 112.227 16.3482 112.476 16.7024C112.752 17.0939 112.879 17.5056 112.828 17.9814C112.805 18.2086 112.824 18.4398 112.824 18.6857C113.123 18.6857 113.373 18.6857 113.658 18.6857C113.658 18.2941 113.666 17.9286 113.655 17.5637C113.65 17.3673 113.694 17.1982 113.8 17.0298C114.092 16.5687 114.37 16.0996 114.652 15.6318C114.707 15.5416 114.752 15.444 114.833 15.2897ZM109.771 16C110.156 16 110.485 16 110.821 16C110.821 15.7461 110.821 15.5322 110.821 15.307C109.826 15.307 108.859 15.307 107.866 15.307C107.866 15.5396 107.866 15.7554 107.866 16.0181C108.224 16.0181 108.563 16.0181 108.922 16.0181C108.966 16.9336 108.903 17.807 108.959 18.6837C109.245 18.6837 109.493 18.6837 109.771 18.6837C109.771 18.2206 109.771 17.7883 109.771 17.3552C109.771 16.9229 109.771 16.4912 109.771 16ZM108.07 11.4232C108.149 11.2541 108.186 11.1498 108.244 11.0583C108.332 10.9173 108.415 10.7663 108.533 10.6527C108.833 10.362 109.182 10.3987 109.416 10.7442C109.695 11.1552 109.766 11.619 109.751 12.0988C109.335 12.179 106.527 12.1602 106.25 12.0674C106.25 11.1077 106.25 10.1334 106.25 9.11235C106.003 9.1598 105.806 9.19789 105.542 9.24867C105.769 9.37497 105.743 9.52867 105.743 9.67168C105.744 10.4515 105.742 11.2307 105.745 12.0106C105.746 12.1275 105.761 12.2451 105.772 12.3854C105.921 12.3854 106.032 12.3854 106.142 12.3854C107.45 12.3854 108.756 12.3854 110.063 12.3854C110.13 12.3854 110.203 12.4015 110.263 12.3794C110.343 12.35 110.412 12.2906 110.441 12.2725C110.385 12.1075 110.331 12.0032 110.315 11.8929C110.247 11.4218 110.113 10.9788 109.792 10.6132C109.316 10.072 108.586 10.0947 108.146 10.6614C108.051 10.783 107.963 10.9099 107.863 11.0463C107.922 11.1559 107.98 11.2608 108.07 11.4232ZM80.7354 10.497C80.4599 10.497 80.2293 10.491 79.9987 10.5023C79.9545 10.5043 79.9136 10.5765 79.8707 10.6166C79.9056 10.652 79.9391 10.7162 79.9766 10.7188C80.2112 10.7362 80.2273 10.8912 80.228 11.0723C80.2287 11.3276 80.2186 11.5862 80.2521 11.8381C80.3366 12.4656 80.6315 12.9595 81.2596 13.172C81.9997 13.4232 82.7444 13.0798 83.0581 12.3634C83.1198 12.2224 83.1741 12.0707 83.1942 11.919C83.2659 11.3677 83.221 10.8144 83.2257 10.2216C82.9904 10.2644 82.8 10.2992 82.6157 10.3326C82.6593 10.4836 82.7189 10.6019 82.7236 10.7222C82.7364 11.055 82.7504 11.3918 82.7183 11.7219C82.6915 11.9939 82.6298 12.2718 82.5279 12.5244C82.3891 12.8686 82.0815 13.0169 81.7215 13.0149C81.3763 13.0136 81.0806 12.8733 80.9365 12.5438C80.8447 12.334 80.7803 12.1034 80.7529 11.8762C80.72 11.6016 80.7381 11.3209 80.7354 11.0429C80.7341 10.8699 80.7354 10.6948 80.7354 10.497ZM105.978 15.3124C105.907 15.6813 105.919 18.4238 105.99 18.6804C106.236 18.6804 106.484 18.6804 106.738 18.6804C106.738 17.5437 106.738 16.4384 106.738 15.3124C106.469 15.3124 106.221 15.3124 105.978 15.3124ZM88.7251 15.3111C88.7251 16.4424 88.7251 17.547 88.7251 18.6724C88.9912 18.7272 89.248 18.7398 89.5101 18.665C89.5101 17.5417 89.5101 16.4371 89.5101 15.3104C89.2486 15.3111 89.0087 15.3111 88.7251 15.3111ZM83.0501 21.1188C83.1285 20.8702 83.1841 20.6544 83.2653 20.4492C83.3906 20.1318 83.5079 20.1098 83.7533 20.3383C83.8712 20.4479 84.01 20.4626 84.0663 20.3637C84.1387 20.2374 84.0589 20.1525 83.9664 20.0824C83.7767 19.9374 83.4825 19.9534 83.2472 20.1185C83.028 20.2721 82.9053 20.4947 82.8108 20.7359C82.7592 20.8682 82.7122 21.0019 82.6747 21.1028C82.5272 21.185 82.3214 21.0941 82.3167 21.3367C82.3992 21.3681 82.477 21.3982 82.5855 21.4403C82.3503 22.1052 82.1351 22.758 81.8864 23.3989C81.7617 23.7203 81.6464 23.7237 81.3937 23.4784C81.3857 23.4704 81.3789 23.4617 81.3709 23.4544C81.2864 23.3728 81.1926 23.3541 81.1075 23.443C81.021 23.5332 81.0485 23.6368 81.1309 23.707C81.1953 23.7624 81.2817 23.8059 81.3649 23.8226C81.6491 23.878 81.9058 23.8099 82.0801 23.572C82.1974 23.4129 82.2966 23.2338 82.369 23.0501C82.5346 22.6257 82.6774 22.1927 82.8316 21.7644C82.8758 21.6414 82.9261 21.5211 82.9562 21.4436C83.1292 21.3327 83.3678 21.473 83.4328 21.199C83.3028 21.1709 83.1982 21.1496 83.0501 21.1188ZM80.2374 22.3999C80.2407 22.9939 80.5826 23.1857 81.0243 22.9331C81.0438 22.9218 81.0632 22.9104 81.0806 22.897C81.4989 22.5716 81.7423 22.1486 81.755 21.6173C81.7657 21.1576 81.4701 20.9751 81.0444 21.1616C80.9834 21.1883 80.9238 21.2211 80.8715 21.2618C80.474 21.5746 80.2669 21.9875 80.2374 22.3999ZM81.6598 10.0893C81.818 10.09 81.9541 9.949 81.9467 9.79196C81.94 9.64963 81.8106 9.52266 81.6679 9.51865C81.5117 9.51397 81.3789 9.6543 81.3857 9.81669C81.391 9.96704 81.5137 10.0887 81.6598 10.0893ZM97.1016 9.40772C97.0929 9.25603 96.9695 9.1451 96.8133 9.14844C96.6545 9.15178 96.5432 9.26605 96.5439 9.42309C96.5445 9.58547 96.688 9.71846 96.8469 9.70442C96.9943 9.69106 97.1103 9.55607 97.1016 9.40772ZM96.0813 9.14911C95.9272 9.15512 95.8119 9.2754 95.8152 9.42843C95.8186 9.57679 95.9433 9.70308 96.0901 9.70509C96.2496 9.70776 96.383 9.56476 96.3716 9.40304C96.3615 9.24867 96.2402 9.14309 96.0813 9.14911ZM109.233 13.061C109.234 12.914 109.109 12.7837 108.96 12.777C108.799 12.7697 108.661 12.9087 108.668 13.0731C108.674 13.2288 108.795 13.339 108.955 13.335C109.109 13.3324 109.232 13.2107 109.233 13.061Z" fill="#001F33"></path>
  <path d="M96.7101 11.2191C96.7022 11.359 96.7071 11.5016 96.6821 11.6373C96.6596 11.7596 96.6237 11.8897 96.5617 11.9888C96.353 12.3241 96.0098 12.3009 95.8607 11.9255C95.6697 11.4447 95.6849 10.9485 95.8924 10.4733C95.9715 10.2912 96.1144 10.2083 96.2952 10.2273C96.4777 10.2469 96.6024 10.3657 96.6438 10.5618C96.6888 10.7748 96.7004 10.997 96.7266 11.2156C96.7211 11.217 96.7156 11.2184 96.7101 11.2191Z" fill="#001F33"></path>
  <path d="M104.227 11.586C104.174 11.7964 104.14 12.0303 104.059 12.2257C103.929 12.5421 103.707 12.6033 103.48 12.4314C103.224 12.2375 103.18 12.0766 103.268 11.6794C103.326 11.4188 103.376 11.1543 103.441 10.8984C103.494 10.6951 103.578 10.5185 103.759 10.5256C103.929 10.5327 104.039 10.6779 104.092 10.8843C104.148 11.1017 104.179 11.3309 104.227 11.586Z" fill="#001F33"></path>
  <path d="M100.067 12.2246C99.8853 11.6524 99.7105 11.1021 99.5273 10.5253C99.7163 10.2862 99.931 10.2022 100.157 10.2296C100.357 10.2542 100.485 10.5134 100.518 10.8985C100.565 11.4616 100.44 11.855 100.067 12.2246Z" fill="#001F33"></path>
  <path d="M86.2268 22.3867C86.221 22.1371 86.3073 21.8745 86.5481 21.6659C87.0217 21.2558 87.8166 21.3839 88.1002 21.9207C88.4606 22.6031 88.0226 23.4889 87.1363 23.42C86.5982 23.3778 86.229 22.9878 86.2268 22.3867Z" fill="#001F33"></path>
  <path d="M88.2266 11.5681C88.1822 11.766 88.1559 11.99 88.0846 12.1801C87.946 12.5502 87.6975 12.6224 87.4489 12.3985C87.2088 12.1817 87.1858 12.0858 87.2733 11.7001C87.3322 11.44 87.381 11.1752 87.4422 10.9159C87.4916 10.7085 87.5735 10.5294 87.7502 10.5255C87.932 10.5215 88.0459 10.6787 88.102 10.9018C88.1542 11.1077 88.1822 11.3261 88.2266 11.5681Z" fill="#001F33"></path>
  <path d="M99.2266 16.9055C99.2266 16.5576 99.2266 16.2623 99.2266 15.9301C99.446 15.9301 99.6417 15.9136 99.8327 15.9342C100.078 15.9605 100.223 16.1529 100.227 16.412C100.23 16.6645 100.079 16.8652 99.8461 16.9088C99.7696 16.9236 99.6891 16.9244 99.6109 16.9236C99.4949 16.9228 99.3781 16.9137 99.2266 16.9055Z" fill="#001F33"></path>
  <path d="M96.8281 22.7246C96.4689 22.7246 96.1576 22.7246 95.8281 22.7246C95.8406 22.6693 95.8425 22.6264 95.8608 22.5873C95.9972 22.3017 96.1365 22.0174 96.3545 21.7246C96.5092 22.0493 96.6619 22.3733 96.8281 22.7246Z" fill="#001F33"></path>
  <path d="M80.4471 23.0254C80.3523 22.3989 80.5887 21.9141 80.8537 21.4453C81.0398 21.1165 81.1157 21.0709 81.385 21.0254C81.5025 21.3804 81.3631 21.9655 81.0084 22.6021C80.815 22.9495 80.7537 22.9993 80.4471 23.0254Z" fill="#001F33"></path>
</svg>
